G04 (created by PCBNEW-RS274X (2011-aug-04)-testing) date Tue 12 Feb 2013 05:03:33 PM PST*
G01*
G70*
G90*
%MOIN*%
G04 Gerber Fmt 3.4, Leading zero omitted, Abs format*
%FSLAX34Y34*%
G04 APERTURE LIST*
%ADD10C,0.006000*%
%ADD11C,0.040000*%
%ADD12R,0.040000X0.040000*%
%ADD13C,0.055000*%
%ADD14C,0.035000*%
%ADD15C,0.016000*%
G04 APERTURE END LIST*
G54D10*
G54D11*
X25799Y-21575D03*
X24799Y-21575D03*
X23799Y-21575D03*
G54D12*
X22799Y-21575D03*
G54D11*
X26799Y-21575D03*
X27799Y-21575D03*
X28799Y-21575D03*
X29799Y-21575D03*
X25799Y-31024D03*
X24799Y-31024D03*
X23799Y-31024D03*
G54D12*
X22799Y-31024D03*
G54D11*
X26799Y-31024D03*
X27799Y-31024D03*
X28799Y-31024D03*
X29799Y-31024D03*
G54D13*
X31328Y-28760D03*
X32294Y-28502D03*
X29753Y-28760D03*
X30719Y-28502D03*
X28178Y-28760D03*
X29144Y-28502D03*
X26604Y-28760D03*
X27570Y-28502D03*
X25029Y-28760D03*
X25995Y-28502D03*
X23454Y-28760D03*
X24420Y-28502D03*
X21879Y-28760D03*
X22845Y-28502D03*
X20304Y-28760D03*
X21270Y-28502D03*
X31328Y-27191D03*
X32294Y-26933D03*
X29753Y-27191D03*
X30719Y-26933D03*
X28178Y-27191D03*
X29144Y-26933D03*
X26604Y-27191D03*
X27570Y-26933D03*
X25029Y-27191D03*
X25995Y-26933D03*
X23454Y-27191D03*
X24420Y-26933D03*
X21879Y-27191D03*
X22845Y-26933D03*
X20304Y-30328D03*
X21270Y-30070D03*
X21879Y-30328D03*
X22845Y-30070D03*
X23454Y-30328D03*
X24420Y-30070D03*
X25029Y-30328D03*
X25995Y-30070D03*
X26604Y-30328D03*
X27570Y-30070D03*
X28178Y-30328D03*
X29144Y-30070D03*
X29753Y-30328D03*
X30719Y-30070D03*
X31328Y-30328D03*
X32294Y-30070D03*
X20304Y-31897D03*
X21270Y-31639D03*
X21879Y-31897D03*
X22845Y-31639D03*
X23454Y-31897D03*
X24420Y-31639D03*
X25029Y-31897D03*
X25995Y-31639D03*
X26604Y-31897D03*
X27570Y-31639D03*
X28178Y-31897D03*
X29144Y-31639D03*
X29753Y-31897D03*
X30719Y-31639D03*
X31328Y-31897D03*
X32294Y-31639D03*
X20304Y-20916D03*
X21270Y-20658D03*
X21879Y-20916D03*
X22845Y-20658D03*
X23454Y-20916D03*
X24420Y-20658D03*
X25029Y-20916D03*
X25995Y-20658D03*
X26604Y-20916D03*
X27570Y-20658D03*
X28178Y-20916D03*
X29144Y-20658D03*
X29753Y-20916D03*
X30719Y-20658D03*
X31328Y-20916D03*
X32294Y-20658D03*
X20304Y-22485D03*
X21270Y-22227D03*
X21879Y-22485D03*
X22845Y-22227D03*
X23454Y-22485D03*
X24420Y-22227D03*
X25029Y-22485D03*
X25995Y-22227D03*
X26604Y-22485D03*
X27570Y-22227D03*
X28178Y-22485D03*
X29144Y-22227D03*
X29753Y-22485D03*
X30719Y-22227D03*
X31328Y-22485D03*
X32294Y-22227D03*
X20304Y-27191D03*
X21270Y-26933D03*
X31328Y-25622D03*
X32294Y-25364D03*
X29753Y-25622D03*
X30719Y-25364D03*
X28178Y-25622D03*
X29144Y-25364D03*
X26604Y-25622D03*
X27570Y-25364D03*
X25029Y-25622D03*
X25995Y-25364D03*
X23454Y-25622D03*
X24420Y-25364D03*
X21879Y-25622D03*
X22845Y-25364D03*
X20304Y-25622D03*
X21270Y-25364D03*
X31328Y-24054D03*
X32294Y-23796D03*
X29753Y-24054D03*
X30719Y-23796D03*
X28178Y-24054D03*
X29144Y-23796D03*
X26604Y-24054D03*
X27570Y-23796D03*
X25029Y-24054D03*
X25995Y-23796D03*
X23454Y-24054D03*
X24420Y-23796D03*
X21879Y-24054D03*
X22845Y-23796D03*
X20304Y-24054D03*
X21270Y-23796D03*
G54D14*
X28594Y-26038D03*
X24577Y-23236D03*
X23193Y-24631D03*
X25391Y-29409D03*
G54D15*
X22416Y-30641D02*
X22799Y-30641D01*
X22338Y-30563D02*
X22416Y-30641D01*
X22338Y-27440D02*
X22338Y-30563D01*
X22845Y-26933D02*
X22338Y-27440D01*
X22799Y-31024D02*
X22799Y-30641D01*
X25029Y-24054D02*
X25029Y-22485D01*
X25029Y-24054D02*
X25029Y-25622D01*
X25205Y-30504D02*
X25029Y-30328D01*
X25205Y-31721D02*
X25205Y-30504D01*
X25029Y-31897D02*
X25205Y-31721D01*
X25029Y-25622D02*
X25029Y-27191D01*
X25029Y-27191D02*
X25029Y-28760D01*
X25209Y-22305D02*
X25029Y-22485D01*
X25209Y-21096D02*
X25209Y-22305D01*
X25029Y-20916D02*
X25209Y-21096D01*
X25029Y-28760D02*
X25029Y-30328D01*
X28638Y-21736D02*
X28799Y-21575D01*
X28638Y-25994D02*
X28638Y-21736D01*
X28594Y-26038D02*
X28638Y-25994D01*
X28178Y-25622D02*
X28178Y-24054D01*
X28178Y-24054D02*
X28178Y-22485D01*
X28178Y-21954D02*
X27799Y-21575D01*
X28178Y-22485D02*
X28178Y-21954D01*
X28178Y-21196D02*
X27799Y-21575D01*
X28178Y-20916D02*
X28178Y-21196D01*
X28239Y-30389D02*
X28178Y-30328D01*
X28239Y-31836D02*
X28239Y-30389D01*
X28178Y-31897D02*
X28239Y-31836D01*
X28178Y-28760D02*
X28178Y-30328D01*
X28178Y-25622D02*
X28178Y-27191D01*
X28178Y-27191D02*
X28178Y-28760D01*
X27111Y-21887D02*
X26799Y-21575D01*
X27111Y-24905D02*
X27111Y-21887D01*
X27570Y-25364D02*
X27111Y-24905D01*
X20304Y-25622D02*
X20304Y-24054D01*
X20304Y-22485D02*
X20304Y-20916D01*
X20304Y-31897D02*
X20304Y-30328D01*
X20304Y-25622D02*
X20304Y-27191D01*
X20304Y-27191D02*
X20304Y-28760D01*
X20304Y-28760D02*
X20304Y-30328D01*
X24420Y-21954D02*
X24420Y-22227D01*
X24799Y-21575D02*
X24420Y-21954D01*
X29753Y-24054D02*
X29753Y-25622D01*
X29237Y-30844D02*
X29753Y-30328D01*
X29237Y-31044D02*
X29237Y-30844D01*
X29753Y-31560D02*
X29237Y-31044D01*
X29753Y-31897D02*
X29753Y-31560D01*
X29753Y-30328D02*
X29753Y-28760D01*
X29753Y-25622D02*
X29753Y-27191D01*
X29753Y-27191D02*
X29753Y-28760D01*
X29753Y-24054D02*
X29753Y-22485D01*
X30183Y-21346D02*
X29753Y-20916D01*
X30183Y-22055D02*
X30183Y-21346D01*
X29753Y-22485D02*
X30183Y-22055D01*
X23961Y-22620D02*
X24577Y-23236D01*
X23961Y-21737D02*
X23961Y-22620D01*
X23799Y-21575D02*
X23961Y-21737D01*
X31328Y-24054D02*
X31328Y-22485D01*
X31328Y-22485D02*
X31328Y-20916D01*
X31328Y-24054D02*
X31328Y-25622D01*
X31328Y-31897D02*
X31328Y-30328D01*
X31328Y-30328D02*
X31328Y-28760D01*
X31328Y-25622D02*
X31328Y-27191D01*
X31328Y-27191D02*
X31328Y-28760D01*
X22383Y-21991D02*
X22799Y-21575D01*
X22383Y-24021D02*
X22383Y-21991D01*
X22993Y-24631D02*
X22383Y-24021D01*
X23193Y-24631D02*
X22993Y-24631D01*
X23799Y-30691D02*
X23799Y-31024D01*
X24420Y-30070D02*
X23799Y-30691D01*
X21879Y-24054D02*
X21879Y-22485D01*
X21879Y-22485D02*
X21879Y-20916D01*
X21879Y-24054D02*
X21879Y-25622D01*
X21879Y-31897D02*
X21879Y-30328D01*
X21879Y-30328D02*
X21879Y-28760D01*
X21879Y-25622D02*
X21879Y-27191D01*
X21879Y-27191D02*
X21879Y-28760D01*
X23304Y-30478D02*
X23454Y-30328D01*
X23304Y-31747D02*
X23304Y-30478D01*
X23454Y-31897D02*
X23304Y-31747D01*
X23454Y-25622D02*
X23454Y-27191D01*
X23454Y-27191D02*
X23454Y-28760D01*
X23454Y-30328D02*
X23454Y-28760D01*
X25488Y-30713D02*
X25799Y-31024D01*
X25488Y-29506D02*
X25488Y-30713D01*
X25391Y-29409D02*
X25488Y-29506D01*
X23551Y-24151D02*
X23454Y-24054D01*
X23551Y-25525D02*
X23551Y-24151D01*
X23454Y-25622D02*
X23551Y-25525D01*
X23379Y-22410D02*
X23454Y-22485D01*
X23379Y-20991D02*
X23379Y-22410D01*
X23454Y-20916D02*
X23379Y-20991D01*
X23454Y-22485D02*
X23454Y-24054D01*
X26604Y-22088D02*
X26604Y-22485D01*
X26279Y-21763D02*
X26604Y-22088D01*
X26279Y-21241D02*
X26279Y-21763D01*
X26604Y-20916D02*
X26279Y-21241D01*
X26604Y-25622D02*
X26604Y-27191D01*
X26604Y-27191D02*
X26604Y-28760D01*
X26604Y-22485D02*
X26604Y-24054D01*
X26604Y-24054D02*
X26604Y-25622D01*
X27799Y-31024D02*
X27477Y-31024D01*
X27477Y-31024D02*
X26604Y-31897D01*
X26604Y-28760D02*
X26604Y-30328D01*
X26781Y-30328D02*
X27477Y-31024D01*
X26604Y-30328D02*
X26781Y-30328D01*
X28637Y-30862D02*
X28799Y-31024D01*
X28637Y-29009D02*
X28637Y-30862D01*
X29144Y-28502D02*
X28637Y-29009D01*
X30260Y-30563D02*
X29799Y-31024D01*
X30260Y-24255D02*
X30260Y-30563D01*
X30719Y-23796D02*
X30260Y-24255D01*
X29144Y-21041D02*
X29144Y-20658D01*
X29678Y-21575D02*
X29144Y-21041D01*
X29799Y-21575D02*
X29678Y-21575D01*
M02*
