G04 (created by PCBNEW-RS274X (2011-aug-04)-testing) date Tue 12 Feb 2013 05:03:33 PM PST*
G01*
G70*
G90*
%MOIN*%
G04 Gerber Fmt 3.4, Leading zero omitted, Abs format*
%FSLAX34Y34*%
G04 APERTURE LIST*
%ADD10C,0.006000*%
%ADD11C,0.015000*%
%ADD12C,0.012000*%
G04 APERTURE END LIST*
G54D10*
G54D11*
X22449Y-21625D02*
X22449Y-21825D01*
X22449Y-21825D02*
X30049Y-21825D01*
X30049Y-21825D02*
X30099Y-21825D01*
X30099Y-21825D02*
X30099Y-21325D01*
X30099Y-21325D02*
X22449Y-21325D01*
X22449Y-21325D02*
X22449Y-21575D01*
X22449Y-21575D02*
X22449Y-21725D01*
X22449Y-31074D02*
X22449Y-31274D01*
X22449Y-31274D02*
X30049Y-31274D01*
X30049Y-31274D02*
X30099Y-31274D01*
X30099Y-31274D02*
X30099Y-30774D01*
X30099Y-30774D02*
X22449Y-30774D01*
X22449Y-30774D02*
X22449Y-31024D01*
X22449Y-31024D02*
X22449Y-31174D01*
G54D12*
X31402Y-21863D02*
X31402Y-21263D01*
X31174Y-21263D01*
X31116Y-21291D01*
X31088Y-21320D01*
X31059Y-21377D01*
X31059Y-21463D01*
X31088Y-21520D01*
X31116Y-21549D01*
X31174Y-21577D01*
X31402Y-21577D01*
X30831Y-21320D02*
X30802Y-21291D01*
X30745Y-21263D01*
X30602Y-21263D01*
X30545Y-21291D01*
X30516Y-21320D01*
X30488Y-21377D01*
X30488Y-21434D01*
X30516Y-21520D01*
X30859Y-21863D01*
X30488Y-21863D01*
X31122Y-31303D02*
X31122Y-30703D01*
X30894Y-30703D01*
X30836Y-30731D01*
X30808Y-30760D01*
X30779Y-30817D01*
X30779Y-30903D01*
X30808Y-30960D01*
X30836Y-30989D01*
X30894Y-31017D01*
X31122Y-31017D01*
X30208Y-31303D02*
X30551Y-31303D01*
X30379Y-31303D02*
X30379Y-30703D01*
X30436Y-30789D01*
X30494Y-30846D01*
X30551Y-30874D01*
M02*
