G04 (created by PCBNEW-RS274X (2011-aug-04)-testing) date Tue 12 Feb 2013 05:03:33 PM PST*
G01*
G70*
G90*
%MOIN*%
G04 Gerber Fmt 3.4, Leading zero omitted, Abs format*
%FSLAX34Y34*%
G04 APERTURE LIST*
%ADD10C,0.006000*%
%ADD11C,0.007900*%
%ADD12C,0.003500*%
G04 APERTURE END LIST*
G54D10*
G54D11*
X31327Y-29249D02*
X31382Y-29289D01*
X31441Y-29324D01*
X31503Y-29353D01*
X31567Y-29378D01*
X31633Y-29396D01*
X31701Y-29409D01*
X31769Y-29415D01*
X31837Y-29416D01*
X31905Y-29411D01*
X31973Y-29400D01*
X32039Y-29383D01*
X32104Y-29360D01*
X32166Y-29331D01*
X32226Y-29298D01*
X32282Y-29259D01*
X32335Y-29216D01*
X32384Y-29168D01*
X32429Y-29115D01*
X32104Y-27900D02*
X32430Y-29117D01*
X32103Y-27901D02*
X32038Y-27878D01*
X31971Y-27861D01*
X31904Y-27850D01*
X31835Y-27845D01*
X31768Y-27846D01*
X31699Y-27853D01*
X31632Y-27865D01*
X31566Y-27884D01*
X31501Y-27908D01*
X31440Y-27938D01*
X31381Y-27973D01*
X31325Y-28013D01*
X31273Y-28058D01*
X31225Y-28107D01*
X31181Y-28160D01*
X31143Y-28217D01*
X31109Y-28277D01*
X31081Y-28339D01*
X31052Y-28834D02*
X31073Y-28899D01*
X31099Y-28963D01*
X31131Y-29023D01*
X31168Y-29081D01*
X31209Y-29136D01*
X31256Y-29186D01*
X31306Y-29233D01*
X31361Y-29274D01*
X31419Y-29311D01*
X31479Y-29343D01*
X31543Y-29369D01*
X31608Y-29390D01*
X31675Y-29405D01*
X31743Y-29414D01*
X31811Y-29417D01*
X31879Y-29414D01*
X31947Y-29405D01*
X32014Y-29390D01*
X31608Y-27872D02*
X31543Y-27893D01*
X31479Y-27919D01*
X31418Y-27951D01*
X31361Y-27988D01*
X31306Y-28029D01*
X31256Y-28076D01*
X31209Y-28126D01*
X31168Y-28181D01*
X31131Y-28238D01*
X31099Y-28299D01*
X31073Y-28363D01*
X31052Y-28428D01*
X31037Y-28495D01*
X31028Y-28563D01*
X31025Y-28631D01*
X31028Y-28699D01*
X31037Y-28767D01*
X31052Y-28834D01*
X29752Y-29249D02*
X29807Y-29289D01*
X29866Y-29324D01*
X29928Y-29353D01*
X29992Y-29378D01*
X30058Y-29396D01*
X30126Y-29409D01*
X30194Y-29415D01*
X30262Y-29416D01*
X30330Y-29411D01*
X30398Y-29400D01*
X30464Y-29383D01*
X30529Y-29360D01*
X30591Y-29331D01*
X30651Y-29298D01*
X30707Y-29259D01*
X30760Y-29216D01*
X30809Y-29168D01*
X30854Y-29115D01*
X30529Y-27900D02*
X30855Y-29117D01*
X30528Y-27901D02*
X30463Y-27878D01*
X30396Y-27861D01*
X30329Y-27850D01*
X30260Y-27845D01*
X30193Y-27846D01*
X30124Y-27853D01*
X30057Y-27865D01*
X29991Y-27884D01*
X29926Y-27908D01*
X29865Y-27938D01*
X29806Y-27973D01*
X29750Y-28013D01*
X29698Y-28058D01*
X29650Y-28107D01*
X29606Y-28160D01*
X29568Y-28217D01*
X29534Y-28277D01*
X29506Y-28339D01*
X29477Y-28834D02*
X29498Y-28899D01*
X29524Y-28963D01*
X29556Y-29023D01*
X29593Y-29081D01*
X29634Y-29136D01*
X29681Y-29186D01*
X29731Y-29233D01*
X29786Y-29274D01*
X29844Y-29311D01*
X29904Y-29343D01*
X29968Y-29369D01*
X30033Y-29390D01*
X30100Y-29405D01*
X30168Y-29414D01*
X30236Y-29417D01*
X30304Y-29414D01*
X30372Y-29405D01*
X30439Y-29390D01*
X30033Y-27872D02*
X29968Y-27893D01*
X29904Y-27919D01*
X29843Y-27951D01*
X29786Y-27988D01*
X29731Y-28029D01*
X29681Y-28076D01*
X29634Y-28126D01*
X29593Y-28181D01*
X29556Y-28238D01*
X29524Y-28299D01*
X29498Y-28363D01*
X29477Y-28428D01*
X29462Y-28495D01*
X29453Y-28563D01*
X29450Y-28631D01*
X29453Y-28699D01*
X29462Y-28767D01*
X29477Y-28834D01*
X28177Y-29249D02*
X28232Y-29289D01*
X28291Y-29324D01*
X28353Y-29353D01*
X28417Y-29378D01*
X28483Y-29396D01*
X28551Y-29409D01*
X28619Y-29415D01*
X28687Y-29416D01*
X28755Y-29411D01*
X28823Y-29400D01*
X28889Y-29383D01*
X28954Y-29360D01*
X29016Y-29331D01*
X29076Y-29298D01*
X29132Y-29259D01*
X29185Y-29216D01*
X29234Y-29168D01*
X29279Y-29115D01*
X28954Y-27900D02*
X29280Y-29117D01*
X28953Y-27901D02*
X28888Y-27878D01*
X28821Y-27861D01*
X28754Y-27850D01*
X28685Y-27845D01*
X28618Y-27846D01*
X28549Y-27853D01*
X28482Y-27865D01*
X28416Y-27884D01*
X28351Y-27908D01*
X28290Y-27938D01*
X28231Y-27973D01*
X28175Y-28013D01*
X28123Y-28058D01*
X28075Y-28107D01*
X28031Y-28160D01*
X27993Y-28217D01*
X27959Y-28277D01*
X27931Y-28339D01*
X27902Y-28834D02*
X27923Y-28899D01*
X27949Y-28963D01*
X27981Y-29023D01*
X28018Y-29081D01*
X28059Y-29136D01*
X28106Y-29186D01*
X28156Y-29233D01*
X28211Y-29274D01*
X28269Y-29311D01*
X28329Y-29343D01*
X28393Y-29369D01*
X28458Y-29390D01*
X28525Y-29405D01*
X28593Y-29414D01*
X28661Y-29417D01*
X28729Y-29414D01*
X28797Y-29405D01*
X28864Y-29390D01*
X28458Y-27872D02*
X28393Y-27893D01*
X28329Y-27919D01*
X28268Y-27951D01*
X28211Y-27988D01*
X28156Y-28029D01*
X28106Y-28076D01*
X28059Y-28126D01*
X28018Y-28181D01*
X27981Y-28238D01*
X27949Y-28299D01*
X27923Y-28363D01*
X27902Y-28428D01*
X27887Y-28495D01*
X27878Y-28563D01*
X27875Y-28631D01*
X27878Y-28699D01*
X27887Y-28767D01*
X27902Y-28834D01*
X26603Y-29249D02*
X26658Y-29289D01*
X26717Y-29324D01*
X26779Y-29353D01*
X26843Y-29378D01*
X26909Y-29396D01*
X26977Y-29409D01*
X27045Y-29415D01*
X27113Y-29416D01*
X27181Y-29411D01*
X27249Y-29400D01*
X27315Y-29383D01*
X27380Y-29360D01*
X27442Y-29331D01*
X27502Y-29298D01*
X27558Y-29259D01*
X27611Y-29216D01*
X27660Y-29168D01*
X27705Y-29115D01*
X27380Y-27900D02*
X27706Y-29117D01*
X27379Y-27901D02*
X27314Y-27878D01*
X27247Y-27861D01*
X27180Y-27850D01*
X27111Y-27845D01*
X27044Y-27846D01*
X26975Y-27853D01*
X26908Y-27865D01*
X26842Y-27884D01*
X26777Y-27908D01*
X26716Y-27938D01*
X26657Y-27973D01*
X26601Y-28013D01*
X26549Y-28058D01*
X26501Y-28107D01*
X26457Y-28160D01*
X26419Y-28217D01*
X26385Y-28277D01*
X26357Y-28339D01*
X26328Y-28834D02*
X26349Y-28899D01*
X26375Y-28963D01*
X26407Y-29023D01*
X26444Y-29081D01*
X26485Y-29136D01*
X26532Y-29186D01*
X26582Y-29233D01*
X26637Y-29274D01*
X26695Y-29311D01*
X26755Y-29343D01*
X26819Y-29369D01*
X26884Y-29390D01*
X26951Y-29405D01*
X27019Y-29414D01*
X27087Y-29417D01*
X27155Y-29414D01*
X27223Y-29405D01*
X27290Y-29390D01*
X26884Y-27872D02*
X26819Y-27893D01*
X26755Y-27919D01*
X26694Y-27951D01*
X26637Y-27988D01*
X26582Y-28029D01*
X26532Y-28076D01*
X26485Y-28126D01*
X26444Y-28181D01*
X26407Y-28238D01*
X26375Y-28299D01*
X26349Y-28363D01*
X26328Y-28428D01*
X26313Y-28495D01*
X26304Y-28563D01*
X26301Y-28631D01*
X26304Y-28699D01*
X26313Y-28767D01*
X26328Y-28834D01*
X25028Y-29249D02*
X25083Y-29289D01*
X25142Y-29324D01*
X25204Y-29353D01*
X25268Y-29378D01*
X25334Y-29396D01*
X25402Y-29409D01*
X25470Y-29415D01*
X25538Y-29416D01*
X25606Y-29411D01*
X25674Y-29400D01*
X25740Y-29383D01*
X25805Y-29360D01*
X25867Y-29331D01*
X25927Y-29298D01*
X25983Y-29259D01*
X26036Y-29216D01*
X26085Y-29168D01*
X26130Y-29115D01*
X25805Y-27900D02*
X26131Y-29117D01*
X25804Y-27901D02*
X25739Y-27878D01*
X25672Y-27861D01*
X25605Y-27850D01*
X25536Y-27845D01*
X25469Y-27846D01*
X25400Y-27853D01*
X25333Y-27865D01*
X25267Y-27884D01*
X25202Y-27908D01*
X25141Y-27938D01*
X25082Y-27973D01*
X25026Y-28013D01*
X24974Y-28058D01*
X24926Y-28107D01*
X24882Y-28160D01*
X24844Y-28217D01*
X24810Y-28277D01*
X24782Y-28339D01*
X24753Y-28834D02*
X24774Y-28899D01*
X24800Y-28963D01*
X24832Y-29023D01*
X24869Y-29081D01*
X24910Y-29136D01*
X24957Y-29186D01*
X25007Y-29233D01*
X25062Y-29274D01*
X25120Y-29311D01*
X25180Y-29343D01*
X25244Y-29369D01*
X25309Y-29390D01*
X25376Y-29405D01*
X25444Y-29414D01*
X25512Y-29417D01*
X25580Y-29414D01*
X25648Y-29405D01*
X25715Y-29390D01*
X25309Y-27872D02*
X25244Y-27893D01*
X25180Y-27919D01*
X25119Y-27951D01*
X25062Y-27988D01*
X25007Y-28029D01*
X24957Y-28076D01*
X24910Y-28126D01*
X24869Y-28181D01*
X24832Y-28238D01*
X24800Y-28299D01*
X24774Y-28363D01*
X24753Y-28428D01*
X24738Y-28495D01*
X24729Y-28563D01*
X24726Y-28631D01*
X24729Y-28699D01*
X24738Y-28767D01*
X24753Y-28834D01*
X23453Y-29249D02*
X23508Y-29289D01*
X23567Y-29324D01*
X23629Y-29353D01*
X23693Y-29378D01*
X23759Y-29396D01*
X23827Y-29409D01*
X23895Y-29415D01*
X23963Y-29416D01*
X24031Y-29411D01*
X24099Y-29400D01*
X24165Y-29383D01*
X24230Y-29360D01*
X24292Y-29331D01*
X24352Y-29298D01*
X24408Y-29259D01*
X24461Y-29216D01*
X24510Y-29168D01*
X24555Y-29115D01*
X24230Y-27900D02*
X24556Y-29117D01*
X24229Y-27901D02*
X24164Y-27878D01*
X24097Y-27861D01*
X24030Y-27850D01*
X23961Y-27845D01*
X23894Y-27846D01*
X23825Y-27853D01*
X23758Y-27865D01*
X23692Y-27884D01*
X23627Y-27908D01*
X23566Y-27938D01*
X23507Y-27973D01*
X23451Y-28013D01*
X23399Y-28058D01*
X23351Y-28107D01*
X23307Y-28160D01*
X23269Y-28217D01*
X23235Y-28277D01*
X23207Y-28339D01*
X23178Y-28834D02*
X23199Y-28899D01*
X23225Y-28963D01*
X23257Y-29023D01*
X23294Y-29081D01*
X23335Y-29136D01*
X23382Y-29186D01*
X23432Y-29233D01*
X23487Y-29274D01*
X23545Y-29311D01*
X23605Y-29343D01*
X23669Y-29369D01*
X23734Y-29390D01*
X23801Y-29405D01*
X23869Y-29414D01*
X23937Y-29417D01*
X24005Y-29414D01*
X24073Y-29405D01*
X24140Y-29390D01*
X23734Y-27872D02*
X23669Y-27893D01*
X23605Y-27919D01*
X23544Y-27951D01*
X23487Y-27988D01*
X23432Y-28029D01*
X23382Y-28076D01*
X23335Y-28126D01*
X23294Y-28181D01*
X23257Y-28238D01*
X23225Y-28299D01*
X23199Y-28363D01*
X23178Y-28428D01*
X23163Y-28495D01*
X23154Y-28563D01*
X23151Y-28631D01*
X23154Y-28699D01*
X23163Y-28767D01*
X23178Y-28834D01*
X21878Y-29249D02*
X21933Y-29289D01*
X21992Y-29324D01*
X22054Y-29353D01*
X22118Y-29378D01*
X22184Y-29396D01*
X22252Y-29409D01*
X22320Y-29415D01*
X22388Y-29416D01*
X22456Y-29411D01*
X22524Y-29400D01*
X22590Y-29383D01*
X22655Y-29360D01*
X22717Y-29331D01*
X22777Y-29298D01*
X22833Y-29259D01*
X22886Y-29216D01*
X22935Y-29168D01*
X22980Y-29115D01*
X22655Y-27900D02*
X22981Y-29117D01*
X22654Y-27901D02*
X22589Y-27878D01*
X22522Y-27861D01*
X22455Y-27850D01*
X22386Y-27845D01*
X22319Y-27846D01*
X22250Y-27853D01*
X22183Y-27865D01*
X22117Y-27884D01*
X22052Y-27908D01*
X21991Y-27938D01*
X21932Y-27973D01*
X21876Y-28013D01*
X21824Y-28058D01*
X21776Y-28107D01*
X21732Y-28160D01*
X21694Y-28217D01*
X21660Y-28277D01*
X21632Y-28339D01*
X21603Y-28834D02*
X21624Y-28899D01*
X21650Y-28963D01*
X21682Y-29023D01*
X21719Y-29081D01*
X21760Y-29136D01*
X21807Y-29186D01*
X21857Y-29233D01*
X21912Y-29274D01*
X21970Y-29311D01*
X22030Y-29343D01*
X22094Y-29369D01*
X22159Y-29390D01*
X22226Y-29405D01*
X22294Y-29414D01*
X22362Y-29417D01*
X22430Y-29414D01*
X22498Y-29405D01*
X22565Y-29390D01*
X22159Y-27872D02*
X22094Y-27893D01*
X22030Y-27919D01*
X21969Y-27951D01*
X21912Y-27988D01*
X21857Y-28029D01*
X21807Y-28076D01*
X21760Y-28126D01*
X21719Y-28181D01*
X21682Y-28238D01*
X21650Y-28299D01*
X21624Y-28363D01*
X21603Y-28428D01*
X21588Y-28495D01*
X21579Y-28563D01*
X21576Y-28631D01*
X21579Y-28699D01*
X21588Y-28767D01*
X21603Y-28834D01*
X20303Y-29249D02*
X20358Y-29289D01*
X20417Y-29324D01*
X20479Y-29353D01*
X20543Y-29378D01*
X20609Y-29396D01*
X20677Y-29409D01*
X20745Y-29415D01*
X20813Y-29416D01*
X20881Y-29411D01*
X20949Y-29400D01*
X21015Y-29383D01*
X21080Y-29360D01*
X21142Y-29331D01*
X21202Y-29298D01*
X21258Y-29259D01*
X21311Y-29216D01*
X21360Y-29168D01*
X21405Y-29115D01*
X21080Y-27900D02*
X21406Y-29117D01*
X21079Y-27901D02*
X21014Y-27878D01*
X20947Y-27861D01*
X20880Y-27850D01*
X20811Y-27845D01*
X20744Y-27846D01*
X20675Y-27853D01*
X20608Y-27865D01*
X20542Y-27884D01*
X20477Y-27908D01*
X20416Y-27938D01*
X20357Y-27973D01*
X20301Y-28013D01*
X20249Y-28058D01*
X20201Y-28107D01*
X20157Y-28160D01*
X20119Y-28217D01*
X20085Y-28277D01*
X20057Y-28339D01*
X20028Y-28834D02*
X20049Y-28899D01*
X20075Y-28963D01*
X20107Y-29023D01*
X20144Y-29081D01*
X20185Y-29136D01*
X20232Y-29186D01*
X20282Y-29233D01*
X20337Y-29274D01*
X20395Y-29311D01*
X20455Y-29343D01*
X20519Y-29369D01*
X20584Y-29390D01*
X20651Y-29405D01*
X20719Y-29414D01*
X20787Y-29417D01*
X20855Y-29414D01*
X20923Y-29405D01*
X20990Y-29390D01*
X20584Y-27872D02*
X20519Y-27893D01*
X20455Y-27919D01*
X20394Y-27951D01*
X20337Y-27988D01*
X20282Y-28029D01*
X20232Y-28076D01*
X20185Y-28126D01*
X20144Y-28181D01*
X20107Y-28238D01*
X20075Y-28299D01*
X20049Y-28363D01*
X20028Y-28428D01*
X20013Y-28495D01*
X20004Y-28563D01*
X20001Y-28631D01*
X20004Y-28699D01*
X20013Y-28767D01*
X20028Y-28834D01*
X31327Y-27680D02*
X31382Y-27720D01*
X31441Y-27755D01*
X31503Y-27784D01*
X31567Y-27809D01*
X31633Y-27827D01*
X31701Y-27840D01*
X31769Y-27846D01*
X31837Y-27847D01*
X31905Y-27842D01*
X31973Y-27831D01*
X32039Y-27814D01*
X32104Y-27791D01*
X32166Y-27762D01*
X32226Y-27729D01*
X32282Y-27690D01*
X32335Y-27647D01*
X32384Y-27599D01*
X32429Y-27546D01*
X32104Y-26331D02*
X32430Y-27548D01*
X32103Y-26332D02*
X32038Y-26309D01*
X31971Y-26292D01*
X31904Y-26281D01*
X31835Y-26276D01*
X31768Y-26277D01*
X31699Y-26284D01*
X31632Y-26296D01*
X31566Y-26315D01*
X31501Y-26339D01*
X31440Y-26369D01*
X31381Y-26404D01*
X31325Y-26444D01*
X31273Y-26489D01*
X31225Y-26538D01*
X31181Y-26591D01*
X31143Y-26648D01*
X31109Y-26708D01*
X31081Y-26770D01*
X31052Y-27265D02*
X31073Y-27330D01*
X31099Y-27394D01*
X31131Y-27454D01*
X31168Y-27512D01*
X31209Y-27567D01*
X31256Y-27617D01*
X31306Y-27664D01*
X31361Y-27705D01*
X31419Y-27742D01*
X31479Y-27774D01*
X31543Y-27800D01*
X31608Y-27821D01*
X31675Y-27836D01*
X31743Y-27845D01*
X31811Y-27848D01*
X31879Y-27845D01*
X31947Y-27836D01*
X32014Y-27821D01*
X31608Y-26303D02*
X31543Y-26324D01*
X31479Y-26350D01*
X31418Y-26382D01*
X31361Y-26419D01*
X31306Y-26460D01*
X31256Y-26507D01*
X31209Y-26557D01*
X31168Y-26612D01*
X31131Y-26669D01*
X31099Y-26730D01*
X31073Y-26794D01*
X31052Y-26859D01*
X31037Y-26926D01*
X31028Y-26994D01*
X31025Y-27062D01*
X31028Y-27130D01*
X31037Y-27198D01*
X31052Y-27265D01*
X29752Y-27680D02*
X29807Y-27720D01*
X29866Y-27755D01*
X29928Y-27784D01*
X29992Y-27809D01*
X30058Y-27827D01*
X30126Y-27840D01*
X30194Y-27846D01*
X30262Y-27847D01*
X30330Y-27842D01*
X30398Y-27831D01*
X30464Y-27814D01*
X30529Y-27791D01*
X30591Y-27762D01*
X30651Y-27729D01*
X30707Y-27690D01*
X30760Y-27647D01*
X30809Y-27599D01*
X30854Y-27546D01*
X30529Y-26331D02*
X30855Y-27548D01*
X30528Y-26332D02*
X30463Y-26309D01*
X30396Y-26292D01*
X30329Y-26281D01*
X30260Y-26276D01*
X30193Y-26277D01*
X30124Y-26284D01*
X30057Y-26296D01*
X29991Y-26315D01*
X29926Y-26339D01*
X29865Y-26369D01*
X29806Y-26404D01*
X29750Y-26444D01*
X29698Y-26489D01*
X29650Y-26538D01*
X29606Y-26591D01*
X29568Y-26648D01*
X29534Y-26708D01*
X29506Y-26770D01*
X29477Y-27265D02*
X29498Y-27330D01*
X29524Y-27394D01*
X29556Y-27454D01*
X29593Y-27512D01*
X29634Y-27567D01*
X29681Y-27617D01*
X29731Y-27664D01*
X29786Y-27705D01*
X29844Y-27742D01*
X29904Y-27774D01*
X29968Y-27800D01*
X30033Y-27821D01*
X30100Y-27836D01*
X30168Y-27845D01*
X30236Y-27848D01*
X30304Y-27845D01*
X30372Y-27836D01*
X30439Y-27821D01*
X30033Y-26303D02*
X29968Y-26324D01*
X29904Y-26350D01*
X29843Y-26382D01*
X29786Y-26419D01*
X29731Y-26460D01*
X29681Y-26507D01*
X29634Y-26557D01*
X29593Y-26612D01*
X29556Y-26669D01*
X29524Y-26730D01*
X29498Y-26794D01*
X29477Y-26859D01*
X29462Y-26926D01*
X29453Y-26994D01*
X29450Y-27062D01*
X29453Y-27130D01*
X29462Y-27198D01*
X29477Y-27265D01*
X28177Y-27680D02*
X28232Y-27720D01*
X28291Y-27755D01*
X28353Y-27784D01*
X28417Y-27809D01*
X28483Y-27827D01*
X28551Y-27840D01*
X28619Y-27846D01*
X28687Y-27847D01*
X28755Y-27842D01*
X28823Y-27831D01*
X28889Y-27814D01*
X28954Y-27791D01*
X29016Y-27762D01*
X29076Y-27729D01*
X29132Y-27690D01*
X29185Y-27647D01*
X29234Y-27599D01*
X29279Y-27546D01*
X28954Y-26331D02*
X29280Y-27548D01*
X28953Y-26332D02*
X28888Y-26309D01*
X28821Y-26292D01*
X28754Y-26281D01*
X28685Y-26276D01*
X28618Y-26277D01*
X28549Y-26284D01*
X28482Y-26296D01*
X28416Y-26315D01*
X28351Y-26339D01*
X28290Y-26369D01*
X28231Y-26404D01*
X28175Y-26444D01*
X28123Y-26489D01*
X28075Y-26538D01*
X28031Y-26591D01*
X27993Y-26648D01*
X27959Y-26708D01*
X27931Y-26770D01*
X27902Y-27265D02*
X27923Y-27330D01*
X27949Y-27394D01*
X27981Y-27454D01*
X28018Y-27512D01*
X28059Y-27567D01*
X28106Y-27617D01*
X28156Y-27664D01*
X28211Y-27705D01*
X28269Y-27742D01*
X28329Y-27774D01*
X28393Y-27800D01*
X28458Y-27821D01*
X28525Y-27836D01*
X28593Y-27845D01*
X28661Y-27848D01*
X28729Y-27845D01*
X28797Y-27836D01*
X28864Y-27821D01*
X28458Y-26303D02*
X28393Y-26324D01*
X28329Y-26350D01*
X28268Y-26382D01*
X28211Y-26419D01*
X28156Y-26460D01*
X28106Y-26507D01*
X28059Y-26557D01*
X28018Y-26612D01*
X27981Y-26669D01*
X27949Y-26730D01*
X27923Y-26794D01*
X27902Y-26859D01*
X27887Y-26926D01*
X27878Y-26994D01*
X27875Y-27062D01*
X27878Y-27130D01*
X27887Y-27198D01*
X27902Y-27265D01*
X26603Y-27680D02*
X26658Y-27720D01*
X26717Y-27755D01*
X26779Y-27784D01*
X26843Y-27809D01*
X26909Y-27827D01*
X26977Y-27840D01*
X27045Y-27846D01*
X27113Y-27847D01*
X27181Y-27842D01*
X27249Y-27831D01*
X27315Y-27814D01*
X27380Y-27791D01*
X27442Y-27762D01*
X27502Y-27729D01*
X27558Y-27690D01*
X27611Y-27647D01*
X27660Y-27599D01*
X27705Y-27546D01*
X27380Y-26331D02*
X27706Y-27548D01*
X27379Y-26332D02*
X27314Y-26309D01*
X27247Y-26292D01*
X27180Y-26281D01*
X27111Y-26276D01*
X27044Y-26277D01*
X26975Y-26284D01*
X26908Y-26296D01*
X26842Y-26315D01*
X26777Y-26339D01*
X26716Y-26369D01*
X26657Y-26404D01*
X26601Y-26444D01*
X26549Y-26489D01*
X26501Y-26538D01*
X26457Y-26591D01*
X26419Y-26648D01*
X26385Y-26708D01*
X26357Y-26770D01*
X26328Y-27265D02*
X26349Y-27330D01*
X26375Y-27394D01*
X26407Y-27454D01*
X26444Y-27512D01*
X26485Y-27567D01*
X26532Y-27617D01*
X26582Y-27664D01*
X26637Y-27705D01*
X26695Y-27742D01*
X26755Y-27774D01*
X26819Y-27800D01*
X26884Y-27821D01*
X26951Y-27836D01*
X27019Y-27845D01*
X27087Y-27848D01*
X27155Y-27845D01*
X27223Y-27836D01*
X27290Y-27821D01*
X26884Y-26303D02*
X26819Y-26324D01*
X26755Y-26350D01*
X26694Y-26382D01*
X26637Y-26419D01*
X26582Y-26460D01*
X26532Y-26507D01*
X26485Y-26557D01*
X26444Y-26612D01*
X26407Y-26669D01*
X26375Y-26730D01*
X26349Y-26794D01*
X26328Y-26859D01*
X26313Y-26926D01*
X26304Y-26994D01*
X26301Y-27062D01*
X26304Y-27130D01*
X26313Y-27198D01*
X26328Y-27265D01*
X25028Y-27680D02*
X25083Y-27720D01*
X25142Y-27755D01*
X25204Y-27784D01*
X25268Y-27809D01*
X25334Y-27827D01*
X25402Y-27840D01*
X25470Y-27846D01*
X25538Y-27847D01*
X25606Y-27842D01*
X25674Y-27831D01*
X25740Y-27814D01*
X25805Y-27791D01*
X25867Y-27762D01*
X25927Y-27729D01*
X25983Y-27690D01*
X26036Y-27647D01*
X26085Y-27599D01*
X26130Y-27546D01*
X25805Y-26331D02*
X26131Y-27548D01*
X25804Y-26332D02*
X25739Y-26309D01*
X25672Y-26292D01*
X25605Y-26281D01*
X25536Y-26276D01*
X25469Y-26277D01*
X25400Y-26284D01*
X25333Y-26296D01*
X25267Y-26315D01*
X25202Y-26339D01*
X25141Y-26369D01*
X25082Y-26404D01*
X25026Y-26444D01*
X24974Y-26489D01*
X24926Y-26538D01*
X24882Y-26591D01*
X24844Y-26648D01*
X24810Y-26708D01*
X24782Y-26770D01*
X24753Y-27265D02*
X24774Y-27330D01*
X24800Y-27394D01*
X24832Y-27454D01*
X24869Y-27512D01*
X24910Y-27567D01*
X24957Y-27617D01*
X25007Y-27664D01*
X25062Y-27705D01*
X25120Y-27742D01*
X25180Y-27774D01*
X25244Y-27800D01*
X25309Y-27821D01*
X25376Y-27836D01*
X25444Y-27845D01*
X25512Y-27848D01*
X25580Y-27845D01*
X25648Y-27836D01*
X25715Y-27821D01*
X25309Y-26303D02*
X25244Y-26324D01*
X25180Y-26350D01*
X25119Y-26382D01*
X25062Y-26419D01*
X25007Y-26460D01*
X24957Y-26507D01*
X24910Y-26557D01*
X24869Y-26612D01*
X24832Y-26669D01*
X24800Y-26730D01*
X24774Y-26794D01*
X24753Y-26859D01*
X24738Y-26926D01*
X24729Y-26994D01*
X24726Y-27062D01*
X24729Y-27130D01*
X24738Y-27198D01*
X24753Y-27265D01*
X23453Y-27680D02*
X23508Y-27720D01*
X23567Y-27755D01*
X23629Y-27784D01*
X23693Y-27809D01*
X23759Y-27827D01*
X23827Y-27840D01*
X23895Y-27846D01*
X23963Y-27847D01*
X24031Y-27842D01*
X24099Y-27831D01*
X24165Y-27814D01*
X24230Y-27791D01*
X24292Y-27762D01*
X24352Y-27729D01*
X24408Y-27690D01*
X24461Y-27647D01*
X24510Y-27599D01*
X24555Y-27546D01*
X24230Y-26331D02*
X24556Y-27548D01*
X24229Y-26332D02*
X24164Y-26309D01*
X24097Y-26292D01*
X24030Y-26281D01*
X23961Y-26276D01*
X23894Y-26277D01*
X23825Y-26284D01*
X23758Y-26296D01*
X23692Y-26315D01*
X23627Y-26339D01*
X23566Y-26369D01*
X23507Y-26404D01*
X23451Y-26444D01*
X23399Y-26489D01*
X23351Y-26538D01*
X23307Y-26591D01*
X23269Y-26648D01*
X23235Y-26708D01*
X23207Y-26770D01*
X23178Y-27265D02*
X23199Y-27330D01*
X23225Y-27394D01*
X23257Y-27454D01*
X23294Y-27512D01*
X23335Y-27567D01*
X23382Y-27617D01*
X23432Y-27664D01*
X23487Y-27705D01*
X23545Y-27742D01*
X23605Y-27774D01*
X23669Y-27800D01*
X23734Y-27821D01*
X23801Y-27836D01*
X23869Y-27845D01*
X23937Y-27848D01*
X24005Y-27845D01*
X24073Y-27836D01*
X24140Y-27821D01*
X23734Y-26303D02*
X23669Y-26324D01*
X23605Y-26350D01*
X23544Y-26382D01*
X23487Y-26419D01*
X23432Y-26460D01*
X23382Y-26507D01*
X23335Y-26557D01*
X23294Y-26612D01*
X23257Y-26669D01*
X23225Y-26730D01*
X23199Y-26794D01*
X23178Y-26859D01*
X23163Y-26926D01*
X23154Y-26994D01*
X23151Y-27062D01*
X23154Y-27130D01*
X23163Y-27198D01*
X23178Y-27265D01*
X21878Y-27680D02*
X21933Y-27720D01*
X21992Y-27755D01*
X22054Y-27784D01*
X22118Y-27809D01*
X22184Y-27827D01*
X22252Y-27840D01*
X22320Y-27846D01*
X22388Y-27847D01*
X22456Y-27842D01*
X22524Y-27831D01*
X22590Y-27814D01*
X22655Y-27791D01*
X22717Y-27762D01*
X22777Y-27729D01*
X22833Y-27690D01*
X22886Y-27647D01*
X22935Y-27599D01*
X22980Y-27546D01*
X22655Y-26331D02*
X22981Y-27548D01*
X22654Y-26332D02*
X22589Y-26309D01*
X22522Y-26292D01*
X22455Y-26281D01*
X22386Y-26276D01*
X22319Y-26277D01*
X22250Y-26284D01*
X22183Y-26296D01*
X22117Y-26315D01*
X22052Y-26339D01*
X21991Y-26369D01*
X21932Y-26404D01*
X21876Y-26444D01*
X21824Y-26489D01*
X21776Y-26538D01*
X21732Y-26591D01*
X21694Y-26648D01*
X21660Y-26708D01*
X21632Y-26770D01*
X21603Y-27265D02*
X21624Y-27330D01*
X21650Y-27394D01*
X21682Y-27454D01*
X21719Y-27512D01*
X21760Y-27567D01*
X21807Y-27617D01*
X21857Y-27664D01*
X21912Y-27705D01*
X21970Y-27742D01*
X22030Y-27774D01*
X22094Y-27800D01*
X22159Y-27821D01*
X22226Y-27836D01*
X22294Y-27845D01*
X22362Y-27848D01*
X22430Y-27845D01*
X22498Y-27836D01*
X22565Y-27821D01*
X22159Y-26303D02*
X22094Y-26324D01*
X22030Y-26350D01*
X21969Y-26382D01*
X21912Y-26419D01*
X21857Y-26460D01*
X21807Y-26507D01*
X21760Y-26557D01*
X21719Y-26612D01*
X21682Y-26669D01*
X21650Y-26730D01*
X21624Y-26794D01*
X21603Y-26859D01*
X21588Y-26926D01*
X21579Y-26994D01*
X21576Y-27062D01*
X21579Y-27130D01*
X21588Y-27198D01*
X21603Y-27265D01*
X20303Y-30817D02*
X20358Y-30857D01*
X20417Y-30892D01*
X20479Y-30921D01*
X20543Y-30946D01*
X20609Y-30964D01*
X20677Y-30977D01*
X20745Y-30983D01*
X20813Y-30984D01*
X20881Y-30979D01*
X20949Y-30968D01*
X21015Y-30951D01*
X21080Y-30928D01*
X21142Y-30899D01*
X21202Y-30866D01*
X21258Y-30827D01*
X21311Y-30784D01*
X21360Y-30736D01*
X21405Y-30683D01*
X21080Y-29468D02*
X21406Y-30685D01*
X21079Y-29469D02*
X21014Y-29446D01*
X20947Y-29429D01*
X20880Y-29418D01*
X20811Y-29413D01*
X20744Y-29414D01*
X20675Y-29421D01*
X20608Y-29433D01*
X20542Y-29452D01*
X20477Y-29476D01*
X20416Y-29506D01*
X20357Y-29541D01*
X20301Y-29581D01*
X20249Y-29626D01*
X20201Y-29675D01*
X20157Y-29728D01*
X20119Y-29785D01*
X20085Y-29845D01*
X20057Y-29907D01*
X20028Y-30402D02*
X20049Y-30467D01*
X20075Y-30531D01*
X20107Y-30591D01*
X20144Y-30649D01*
X20185Y-30704D01*
X20232Y-30754D01*
X20282Y-30801D01*
X20337Y-30842D01*
X20395Y-30879D01*
X20455Y-30911D01*
X20519Y-30937D01*
X20584Y-30958D01*
X20651Y-30973D01*
X20719Y-30982D01*
X20787Y-30985D01*
X20855Y-30982D01*
X20923Y-30973D01*
X20990Y-30958D01*
X20584Y-29440D02*
X20519Y-29461D01*
X20455Y-29487D01*
X20394Y-29519D01*
X20337Y-29556D01*
X20282Y-29597D01*
X20232Y-29644D01*
X20185Y-29694D01*
X20144Y-29749D01*
X20107Y-29806D01*
X20075Y-29867D01*
X20049Y-29931D01*
X20028Y-29996D01*
X20013Y-30063D01*
X20004Y-30131D01*
X20001Y-30199D01*
X20004Y-30267D01*
X20013Y-30335D01*
X20028Y-30402D01*
X21878Y-30817D02*
X21933Y-30857D01*
X21992Y-30892D01*
X22054Y-30921D01*
X22118Y-30946D01*
X22184Y-30964D01*
X22252Y-30977D01*
X22320Y-30983D01*
X22388Y-30984D01*
X22456Y-30979D01*
X22524Y-30968D01*
X22590Y-30951D01*
X22655Y-30928D01*
X22717Y-30899D01*
X22777Y-30866D01*
X22833Y-30827D01*
X22886Y-30784D01*
X22935Y-30736D01*
X22980Y-30683D01*
X22655Y-29468D02*
X22981Y-30685D01*
X22654Y-29469D02*
X22589Y-29446D01*
X22522Y-29429D01*
X22455Y-29418D01*
X22386Y-29413D01*
X22319Y-29414D01*
X22250Y-29421D01*
X22183Y-29433D01*
X22117Y-29452D01*
X22052Y-29476D01*
X21991Y-29506D01*
X21932Y-29541D01*
X21876Y-29581D01*
X21824Y-29626D01*
X21776Y-29675D01*
X21732Y-29728D01*
X21694Y-29785D01*
X21660Y-29845D01*
X21632Y-29907D01*
X21603Y-30402D02*
X21624Y-30467D01*
X21650Y-30531D01*
X21682Y-30591D01*
X21719Y-30649D01*
X21760Y-30704D01*
X21807Y-30754D01*
X21857Y-30801D01*
X21912Y-30842D01*
X21970Y-30879D01*
X22030Y-30911D01*
X22094Y-30937D01*
X22159Y-30958D01*
X22226Y-30973D01*
X22294Y-30982D01*
X22362Y-30985D01*
X22430Y-30982D01*
X22498Y-30973D01*
X22565Y-30958D01*
X22159Y-29440D02*
X22094Y-29461D01*
X22030Y-29487D01*
X21969Y-29519D01*
X21912Y-29556D01*
X21857Y-29597D01*
X21807Y-29644D01*
X21760Y-29694D01*
X21719Y-29749D01*
X21682Y-29806D01*
X21650Y-29867D01*
X21624Y-29931D01*
X21603Y-29996D01*
X21588Y-30063D01*
X21579Y-30131D01*
X21576Y-30199D01*
X21579Y-30267D01*
X21588Y-30335D01*
X21603Y-30402D01*
X23453Y-30817D02*
X23508Y-30857D01*
X23567Y-30892D01*
X23629Y-30921D01*
X23693Y-30946D01*
X23759Y-30964D01*
X23827Y-30977D01*
X23895Y-30983D01*
X23963Y-30984D01*
X24031Y-30979D01*
X24099Y-30968D01*
X24165Y-30951D01*
X24230Y-30928D01*
X24292Y-30899D01*
X24352Y-30866D01*
X24408Y-30827D01*
X24461Y-30784D01*
X24510Y-30736D01*
X24555Y-30683D01*
X24230Y-29468D02*
X24556Y-30685D01*
X24229Y-29469D02*
X24164Y-29446D01*
X24097Y-29429D01*
X24030Y-29418D01*
X23961Y-29413D01*
X23894Y-29414D01*
X23825Y-29421D01*
X23758Y-29433D01*
X23692Y-29452D01*
X23627Y-29476D01*
X23566Y-29506D01*
X23507Y-29541D01*
X23451Y-29581D01*
X23399Y-29626D01*
X23351Y-29675D01*
X23307Y-29728D01*
X23269Y-29785D01*
X23235Y-29845D01*
X23207Y-29907D01*
X23178Y-30402D02*
X23199Y-30467D01*
X23225Y-30531D01*
X23257Y-30591D01*
X23294Y-30649D01*
X23335Y-30704D01*
X23382Y-30754D01*
X23432Y-30801D01*
X23487Y-30842D01*
X23545Y-30879D01*
X23605Y-30911D01*
X23669Y-30937D01*
X23734Y-30958D01*
X23801Y-30973D01*
X23869Y-30982D01*
X23937Y-30985D01*
X24005Y-30982D01*
X24073Y-30973D01*
X24140Y-30958D01*
X23734Y-29440D02*
X23669Y-29461D01*
X23605Y-29487D01*
X23544Y-29519D01*
X23487Y-29556D01*
X23432Y-29597D01*
X23382Y-29644D01*
X23335Y-29694D01*
X23294Y-29749D01*
X23257Y-29806D01*
X23225Y-29867D01*
X23199Y-29931D01*
X23178Y-29996D01*
X23163Y-30063D01*
X23154Y-30131D01*
X23151Y-30199D01*
X23154Y-30267D01*
X23163Y-30335D01*
X23178Y-30402D01*
X25028Y-30817D02*
X25083Y-30857D01*
X25142Y-30892D01*
X25204Y-30921D01*
X25268Y-30946D01*
X25334Y-30964D01*
X25402Y-30977D01*
X25470Y-30983D01*
X25538Y-30984D01*
X25606Y-30979D01*
X25674Y-30968D01*
X25740Y-30951D01*
X25805Y-30928D01*
X25867Y-30899D01*
X25927Y-30866D01*
X25983Y-30827D01*
X26036Y-30784D01*
X26085Y-30736D01*
X26130Y-30683D01*
X25805Y-29468D02*
X26131Y-30685D01*
X25804Y-29469D02*
X25739Y-29446D01*
X25672Y-29429D01*
X25605Y-29418D01*
X25536Y-29413D01*
X25469Y-29414D01*
X25400Y-29421D01*
X25333Y-29433D01*
X25267Y-29452D01*
X25202Y-29476D01*
X25141Y-29506D01*
X25082Y-29541D01*
X25026Y-29581D01*
X24974Y-29626D01*
X24926Y-29675D01*
X24882Y-29728D01*
X24844Y-29785D01*
X24810Y-29845D01*
X24782Y-29907D01*
X24753Y-30402D02*
X24774Y-30467D01*
X24800Y-30531D01*
X24832Y-30591D01*
X24869Y-30649D01*
X24910Y-30704D01*
X24957Y-30754D01*
X25007Y-30801D01*
X25062Y-30842D01*
X25120Y-30879D01*
X25180Y-30911D01*
X25244Y-30937D01*
X25309Y-30958D01*
X25376Y-30973D01*
X25444Y-30982D01*
X25512Y-30985D01*
X25580Y-30982D01*
X25648Y-30973D01*
X25715Y-30958D01*
X25309Y-29440D02*
X25244Y-29461D01*
X25180Y-29487D01*
X25119Y-29519D01*
X25062Y-29556D01*
X25007Y-29597D01*
X24957Y-29644D01*
X24910Y-29694D01*
X24869Y-29749D01*
X24832Y-29806D01*
X24800Y-29867D01*
X24774Y-29931D01*
X24753Y-29996D01*
X24738Y-30063D01*
X24729Y-30131D01*
X24726Y-30199D01*
X24729Y-30267D01*
X24738Y-30335D01*
X24753Y-30402D01*
X26603Y-30817D02*
X26658Y-30857D01*
X26717Y-30892D01*
X26779Y-30921D01*
X26843Y-30946D01*
X26909Y-30964D01*
X26977Y-30977D01*
X27045Y-30983D01*
X27113Y-30984D01*
X27181Y-30979D01*
X27249Y-30968D01*
X27315Y-30951D01*
X27380Y-30928D01*
X27442Y-30899D01*
X27502Y-30866D01*
X27558Y-30827D01*
X27611Y-30784D01*
X27660Y-30736D01*
X27705Y-30683D01*
X27380Y-29468D02*
X27706Y-30685D01*
X27379Y-29469D02*
X27314Y-29446D01*
X27247Y-29429D01*
X27180Y-29418D01*
X27111Y-29413D01*
X27044Y-29414D01*
X26975Y-29421D01*
X26908Y-29433D01*
X26842Y-29452D01*
X26777Y-29476D01*
X26716Y-29506D01*
X26657Y-29541D01*
X26601Y-29581D01*
X26549Y-29626D01*
X26501Y-29675D01*
X26457Y-29728D01*
X26419Y-29785D01*
X26385Y-29845D01*
X26357Y-29907D01*
X26328Y-30402D02*
X26349Y-30467D01*
X26375Y-30531D01*
X26407Y-30591D01*
X26444Y-30649D01*
X26485Y-30704D01*
X26532Y-30754D01*
X26582Y-30801D01*
X26637Y-30842D01*
X26695Y-30879D01*
X26755Y-30911D01*
X26819Y-30937D01*
X26884Y-30958D01*
X26951Y-30973D01*
X27019Y-30982D01*
X27087Y-30985D01*
X27155Y-30982D01*
X27223Y-30973D01*
X27290Y-30958D01*
X26884Y-29440D02*
X26819Y-29461D01*
X26755Y-29487D01*
X26694Y-29519D01*
X26637Y-29556D01*
X26582Y-29597D01*
X26532Y-29644D01*
X26485Y-29694D01*
X26444Y-29749D01*
X26407Y-29806D01*
X26375Y-29867D01*
X26349Y-29931D01*
X26328Y-29996D01*
X26313Y-30063D01*
X26304Y-30131D01*
X26301Y-30199D01*
X26304Y-30267D01*
X26313Y-30335D01*
X26328Y-30402D01*
X28177Y-30817D02*
X28232Y-30857D01*
X28291Y-30892D01*
X28353Y-30921D01*
X28417Y-30946D01*
X28483Y-30964D01*
X28551Y-30977D01*
X28619Y-30983D01*
X28687Y-30984D01*
X28755Y-30979D01*
X28823Y-30968D01*
X28889Y-30951D01*
X28954Y-30928D01*
X29016Y-30899D01*
X29076Y-30866D01*
X29132Y-30827D01*
X29185Y-30784D01*
X29234Y-30736D01*
X29279Y-30683D01*
X28954Y-29468D02*
X29280Y-30685D01*
X28953Y-29469D02*
X28888Y-29446D01*
X28821Y-29429D01*
X28754Y-29418D01*
X28685Y-29413D01*
X28618Y-29414D01*
X28549Y-29421D01*
X28482Y-29433D01*
X28416Y-29452D01*
X28351Y-29476D01*
X28290Y-29506D01*
X28231Y-29541D01*
X28175Y-29581D01*
X28123Y-29626D01*
X28075Y-29675D01*
X28031Y-29728D01*
X27993Y-29785D01*
X27959Y-29845D01*
X27931Y-29907D01*
X27902Y-30402D02*
X27923Y-30467D01*
X27949Y-30531D01*
X27981Y-30591D01*
X28018Y-30649D01*
X28059Y-30704D01*
X28106Y-30754D01*
X28156Y-30801D01*
X28211Y-30842D01*
X28269Y-30879D01*
X28329Y-30911D01*
X28393Y-30937D01*
X28458Y-30958D01*
X28525Y-30973D01*
X28593Y-30982D01*
X28661Y-30985D01*
X28729Y-30982D01*
X28797Y-30973D01*
X28864Y-30958D01*
X28458Y-29440D02*
X28393Y-29461D01*
X28329Y-29487D01*
X28268Y-29519D01*
X28211Y-29556D01*
X28156Y-29597D01*
X28106Y-29644D01*
X28059Y-29694D01*
X28018Y-29749D01*
X27981Y-29806D01*
X27949Y-29867D01*
X27923Y-29931D01*
X27902Y-29996D01*
X27887Y-30063D01*
X27878Y-30131D01*
X27875Y-30199D01*
X27878Y-30267D01*
X27887Y-30335D01*
X27902Y-30402D01*
X29752Y-30817D02*
X29807Y-30857D01*
X29866Y-30892D01*
X29928Y-30921D01*
X29992Y-30946D01*
X30058Y-30964D01*
X30126Y-30977D01*
X30194Y-30983D01*
X30262Y-30984D01*
X30330Y-30979D01*
X30398Y-30968D01*
X30464Y-30951D01*
X30529Y-30928D01*
X30591Y-30899D01*
X30651Y-30866D01*
X30707Y-30827D01*
X30760Y-30784D01*
X30809Y-30736D01*
X30854Y-30683D01*
X30529Y-29468D02*
X30855Y-30685D01*
X30528Y-29469D02*
X30463Y-29446D01*
X30396Y-29429D01*
X30329Y-29418D01*
X30260Y-29413D01*
X30193Y-29414D01*
X30124Y-29421D01*
X30057Y-29433D01*
X29991Y-29452D01*
X29926Y-29476D01*
X29865Y-29506D01*
X29806Y-29541D01*
X29750Y-29581D01*
X29698Y-29626D01*
X29650Y-29675D01*
X29606Y-29728D01*
X29568Y-29785D01*
X29534Y-29845D01*
X29506Y-29907D01*
X29477Y-30402D02*
X29498Y-30467D01*
X29524Y-30531D01*
X29556Y-30591D01*
X29593Y-30649D01*
X29634Y-30704D01*
X29681Y-30754D01*
X29731Y-30801D01*
X29786Y-30842D01*
X29844Y-30879D01*
X29904Y-30911D01*
X29968Y-30937D01*
X30033Y-30958D01*
X30100Y-30973D01*
X30168Y-30982D01*
X30236Y-30985D01*
X30304Y-30982D01*
X30372Y-30973D01*
X30439Y-30958D01*
X30033Y-29440D02*
X29968Y-29461D01*
X29904Y-29487D01*
X29843Y-29519D01*
X29786Y-29556D01*
X29731Y-29597D01*
X29681Y-29644D01*
X29634Y-29694D01*
X29593Y-29749D01*
X29556Y-29806D01*
X29524Y-29867D01*
X29498Y-29931D01*
X29477Y-29996D01*
X29462Y-30063D01*
X29453Y-30131D01*
X29450Y-30199D01*
X29453Y-30267D01*
X29462Y-30335D01*
X29477Y-30402D01*
X31327Y-30817D02*
X31382Y-30857D01*
X31441Y-30892D01*
X31503Y-30921D01*
X31567Y-30946D01*
X31633Y-30964D01*
X31701Y-30977D01*
X31769Y-30983D01*
X31837Y-30984D01*
X31905Y-30979D01*
X31973Y-30968D01*
X32039Y-30951D01*
X32104Y-30928D01*
X32166Y-30899D01*
X32226Y-30866D01*
X32282Y-30827D01*
X32335Y-30784D01*
X32384Y-30736D01*
X32429Y-30683D01*
X32104Y-29468D02*
X32430Y-30685D01*
X32103Y-29469D02*
X32038Y-29446D01*
X31971Y-29429D01*
X31904Y-29418D01*
X31835Y-29413D01*
X31768Y-29414D01*
X31699Y-29421D01*
X31632Y-29433D01*
X31566Y-29452D01*
X31501Y-29476D01*
X31440Y-29506D01*
X31381Y-29541D01*
X31325Y-29581D01*
X31273Y-29626D01*
X31225Y-29675D01*
X31181Y-29728D01*
X31143Y-29785D01*
X31109Y-29845D01*
X31081Y-29907D01*
X31052Y-30402D02*
X31073Y-30467D01*
X31099Y-30531D01*
X31131Y-30591D01*
X31168Y-30649D01*
X31209Y-30704D01*
X31256Y-30754D01*
X31306Y-30801D01*
X31361Y-30842D01*
X31419Y-30879D01*
X31479Y-30911D01*
X31543Y-30937D01*
X31608Y-30958D01*
X31675Y-30973D01*
X31743Y-30982D01*
X31811Y-30985D01*
X31879Y-30982D01*
X31947Y-30973D01*
X32014Y-30958D01*
X31608Y-29440D02*
X31543Y-29461D01*
X31479Y-29487D01*
X31418Y-29519D01*
X31361Y-29556D01*
X31306Y-29597D01*
X31256Y-29644D01*
X31209Y-29694D01*
X31168Y-29749D01*
X31131Y-29806D01*
X31099Y-29867D01*
X31073Y-29931D01*
X31052Y-29996D01*
X31037Y-30063D01*
X31028Y-30131D01*
X31025Y-30199D01*
X31028Y-30267D01*
X31037Y-30335D01*
X31052Y-30402D01*
X20303Y-32386D02*
X20358Y-32426D01*
X20417Y-32461D01*
X20479Y-32490D01*
X20543Y-32515D01*
X20609Y-32533D01*
X20677Y-32546D01*
X20745Y-32552D01*
X20813Y-32553D01*
X20881Y-32548D01*
X20949Y-32537D01*
X21015Y-32520D01*
X21080Y-32497D01*
X21142Y-32468D01*
X21202Y-32435D01*
X21258Y-32396D01*
X21311Y-32353D01*
X21360Y-32305D01*
X21405Y-32252D01*
X21080Y-31037D02*
X21406Y-32254D01*
X21079Y-31038D02*
X21014Y-31015D01*
X20947Y-30998D01*
X20880Y-30987D01*
X20811Y-30982D01*
X20744Y-30983D01*
X20675Y-30990D01*
X20608Y-31002D01*
X20542Y-31021D01*
X20477Y-31045D01*
X20416Y-31075D01*
X20357Y-31110D01*
X20301Y-31150D01*
X20249Y-31195D01*
X20201Y-31244D01*
X20157Y-31297D01*
X20119Y-31354D01*
X20085Y-31414D01*
X20057Y-31476D01*
X20028Y-31971D02*
X20049Y-32036D01*
X20075Y-32100D01*
X20107Y-32160D01*
X20144Y-32218D01*
X20185Y-32273D01*
X20232Y-32323D01*
X20282Y-32370D01*
X20337Y-32411D01*
X20395Y-32448D01*
X20455Y-32480D01*
X20519Y-32506D01*
X20584Y-32527D01*
X20651Y-32542D01*
X20719Y-32551D01*
X20787Y-32554D01*
X20855Y-32551D01*
X20923Y-32542D01*
X20990Y-32527D01*
X20584Y-31009D02*
X20519Y-31030D01*
X20455Y-31056D01*
X20394Y-31088D01*
X20337Y-31125D01*
X20282Y-31166D01*
X20232Y-31213D01*
X20185Y-31263D01*
X20144Y-31318D01*
X20107Y-31375D01*
X20075Y-31436D01*
X20049Y-31500D01*
X20028Y-31565D01*
X20013Y-31632D01*
X20004Y-31700D01*
X20001Y-31768D01*
X20004Y-31836D01*
X20013Y-31904D01*
X20028Y-31971D01*
X21878Y-32386D02*
X21933Y-32426D01*
X21992Y-32461D01*
X22054Y-32490D01*
X22118Y-32515D01*
X22184Y-32533D01*
X22252Y-32546D01*
X22320Y-32552D01*
X22388Y-32553D01*
X22456Y-32548D01*
X22524Y-32537D01*
X22590Y-32520D01*
X22655Y-32497D01*
X22717Y-32468D01*
X22777Y-32435D01*
X22833Y-32396D01*
X22886Y-32353D01*
X22935Y-32305D01*
X22980Y-32252D01*
X22655Y-31037D02*
X22981Y-32254D01*
X22654Y-31038D02*
X22589Y-31015D01*
X22522Y-30998D01*
X22455Y-30987D01*
X22386Y-30982D01*
X22319Y-30983D01*
X22250Y-30990D01*
X22183Y-31002D01*
X22117Y-31021D01*
X22052Y-31045D01*
X21991Y-31075D01*
X21932Y-31110D01*
X21876Y-31150D01*
X21824Y-31195D01*
X21776Y-31244D01*
X21732Y-31297D01*
X21694Y-31354D01*
X21660Y-31414D01*
X21632Y-31476D01*
X21603Y-31971D02*
X21624Y-32036D01*
X21650Y-32100D01*
X21682Y-32160D01*
X21719Y-32218D01*
X21760Y-32273D01*
X21807Y-32323D01*
X21857Y-32370D01*
X21912Y-32411D01*
X21970Y-32448D01*
X22030Y-32480D01*
X22094Y-32506D01*
X22159Y-32527D01*
X22226Y-32542D01*
X22294Y-32551D01*
X22362Y-32554D01*
X22430Y-32551D01*
X22498Y-32542D01*
X22565Y-32527D01*
X22159Y-31009D02*
X22094Y-31030D01*
X22030Y-31056D01*
X21969Y-31088D01*
X21912Y-31125D01*
X21857Y-31166D01*
X21807Y-31213D01*
X21760Y-31263D01*
X21719Y-31318D01*
X21682Y-31375D01*
X21650Y-31436D01*
X21624Y-31500D01*
X21603Y-31565D01*
X21588Y-31632D01*
X21579Y-31700D01*
X21576Y-31768D01*
X21579Y-31836D01*
X21588Y-31904D01*
X21603Y-31971D01*
X23453Y-32386D02*
X23508Y-32426D01*
X23567Y-32461D01*
X23629Y-32490D01*
X23693Y-32515D01*
X23759Y-32533D01*
X23827Y-32546D01*
X23895Y-32552D01*
X23963Y-32553D01*
X24031Y-32548D01*
X24099Y-32537D01*
X24165Y-32520D01*
X24230Y-32497D01*
X24292Y-32468D01*
X24352Y-32435D01*
X24408Y-32396D01*
X24461Y-32353D01*
X24510Y-32305D01*
X24555Y-32252D01*
X24230Y-31037D02*
X24556Y-32254D01*
X24229Y-31038D02*
X24164Y-31015D01*
X24097Y-30998D01*
X24030Y-30987D01*
X23961Y-30982D01*
X23894Y-30983D01*
X23825Y-30990D01*
X23758Y-31002D01*
X23692Y-31021D01*
X23627Y-31045D01*
X23566Y-31075D01*
X23507Y-31110D01*
X23451Y-31150D01*
X23399Y-31195D01*
X23351Y-31244D01*
X23307Y-31297D01*
X23269Y-31354D01*
X23235Y-31414D01*
X23207Y-31476D01*
X23178Y-31971D02*
X23199Y-32036D01*
X23225Y-32100D01*
X23257Y-32160D01*
X23294Y-32218D01*
X23335Y-32273D01*
X23382Y-32323D01*
X23432Y-32370D01*
X23487Y-32411D01*
X23545Y-32448D01*
X23605Y-32480D01*
X23669Y-32506D01*
X23734Y-32527D01*
X23801Y-32542D01*
X23869Y-32551D01*
X23937Y-32554D01*
X24005Y-32551D01*
X24073Y-32542D01*
X24140Y-32527D01*
X23734Y-31009D02*
X23669Y-31030D01*
X23605Y-31056D01*
X23544Y-31088D01*
X23487Y-31125D01*
X23432Y-31166D01*
X23382Y-31213D01*
X23335Y-31263D01*
X23294Y-31318D01*
X23257Y-31375D01*
X23225Y-31436D01*
X23199Y-31500D01*
X23178Y-31565D01*
X23163Y-31632D01*
X23154Y-31700D01*
X23151Y-31768D01*
X23154Y-31836D01*
X23163Y-31904D01*
X23178Y-31971D01*
X25028Y-32386D02*
X25083Y-32426D01*
X25142Y-32461D01*
X25204Y-32490D01*
X25268Y-32515D01*
X25334Y-32533D01*
X25402Y-32546D01*
X25470Y-32552D01*
X25538Y-32553D01*
X25606Y-32548D01*
X25674Y-32537D01*
X25740Y-32520D01*
X25805Y-32497D01*
X25867Y-32468D01*
X25927Y-32435D01*
X25983Y-32396D01*
X26036Y-32353D01*
X26085Y-32305D01*
X26130Y-32252D01*
X25805Y-31037D02*
X26131Y-32254D01*
X25804Y-31038D02*
X25739Y-31015D01*
X25672Y-30998D01*
X25605Y-30987D01*
X25536Y-30982D01*
X25469Y-30983D01*
X25400Y-30990D01*
X25333Y-31002D01*
X25267Y-31021D01*
X25202Y-31045D01*
X25141Y-31075D01*
X25082Y-31110D01*
X25026Y-31150D01*
X24974Y-31195D01*
X24926Y-31244D01*
X24882Y-31297D01*
X24844Y-31354D01*
X24810Y-31414D01*
X24782Y-31476D01*
X24753Y-31971D02*
X24774Y-32036D01*
X24800Y-32100D01*
X24832Y-32160D01*
X24869Y-32218D01*
X24910Y-32273D01*
X24957Y-32323D01*
X25007Y-32370D01*
X25062Y-32411D01*
X25120Y-32448D01*
X25180Y-32480D01*
X25244Y-32506D01*
X25309Y-32527D01*
X25376Y-32542D01*
X25444Y-32551D01*
X25512Y-32554D01*
X25580Y-32551D01*
X25648Y-32542D01*
X25715Y-32527D01*
X25309Y-31009D02*
X25244Y-31030D01*
X25180Y-31056D01*
X25119Y-31088D01*
X25062Y-31125D01*
X25007Y-31166D01*
X24957Y-31213D01*
X24910Y-31263D01*
X24869Y-31318D01*
X24832Y-31375D01*
X24800Y-31436D01*
X24774Y-31500D01*
X24753Y-31565D01*
X24738Y-31632D01*
X24729Y-31700D01*
X24726Y-31768D01*
X24729Y-31836D01*
X24738Y-31904D01*
X24753Y-31971D01*
X26603Y-32386D02*
X26658Y-32426D01*
X26717Y-32461D01*
X26779Y-32490D01*
X26843Y-32515D01*
X26909Y-32533D01*
X26977Y-32546D01*
X27045Y-32552D01*
X27113Y-32553D01*
X27181Y-32548D01*
X27249Y-32537D01*
X27315Y-32520D01*
X27380Y-32497D01*
X27442Y-32468D01*
X27502Y-32435D01*
X27558Y-32396D01*
X27611Y-32353D01*
X27660Y-32305D01*
X27705Y-32252D01*
X27380Y-31037D02*
X27706Y-32254D01*
X27379Y-31038D02*
X27314Y-31015D01*
X27247Y-30998D01*
X27180Y-30987D01*
X27111Y-30982D01*
X27044Y-30983D01*
X26975Y-30990D01*
X26908Y-31002D01*
X26842Y-31021D01*
X26777Y-31045D01*
X26716Y-31075D01*
X26657Y-31110D01*
X26601Y-31150D01*
X26549Y-31195D01*
X26501Y-31244D01*
X26457Y-31297D01*
X26419Y-31354D01*
X26385Y-31414D01*
X26357Y-31476D01*
X26328Y-31971D02*
X26349Y-32036D01*
X26375Y-32100D01*
X26407Y-32160D01*
X26444Y-32218D01*
X26485Y-32273D01*
X26532Y-32323D01*
X26582Y-32370D01*
X26637Y-32411D01*
X26695Y-32448D01*
X26755Y-32480D01*
X26819Y-32506D01*
X26884Y-32527D01*
X26951Y-32542D01*
X27019Y-32551D01*
X27087Y-32554D01*
X27155Y-32551D01*
X27223Y-32542D01*
X27290Y-32527D01*
X26884Y-31009D02*
X26819Y-31030D01*
X26755Y-31056D01*
X26694Y-31088D01*
X26637Y-31125D01*
X26582Y-31166D01*
X26532Y-31213D01*
X26485Y-31263D01*
X26444Y-31318D01*
X26407Y-31375D01*
X26375Y-31436D01*
X26349Y-31500D01*
X26328Y-31565D01*
X26313Y-31632D01*
X26304Y-31700D01*
X26301Y-31768D01*
X26304Y-31836D01*
X26313Y-31904D01*
X26328Y-31971D01*
X28177Y-32386D02*
X28232Y-32426D01*
X28291Y-32461D01*
X28353Y-32490D01*
X28417Y-32515D01*
X28483Y-32533D01*
X28551Y-32546D01*
X28619Y-32552D01*
X28687Y-32553D01*
X28755Y-32548D01*
X28823Y-32537D01*
X28889Y-32520D01*
X28954Y-32497D01*
X29016Y-32468D01*
X29076Y-32435D01*
X29132Y-32396D01*
X29185Y-32353D01*
X29234Y-32305D01*
X29279Y-32252D01*
X28954Y-31037D02*
X29280Y-32254D01*
X28953Y-31038D02*
X28888Y-31015D01*
X28821Y-30998D01*
X28754Y-30987D01*
X28685Y-30982D01*
X28618Y-30983D01*
X28549Y-30990D01*
X28482Y-31002D01*
X28416Y-31021D01*
X28351Y-31045D01*
X28290Y-31075D01*
X28231Y-31110D01*
X28175Y-31150D01*
X28123Y-31195D01*
X28075Y-31244D01*
X28031Y-31297D01*
X27993Y-31354D01*
X27959Y-31414D01*
X27931Y-31476D01*
X27902Y-31971D02*
X27923Y-32036D01*
X27949Y-32100D01*
X27981Y-32160D01*
X28018Y-32218D01*
X28059Y-32273D01*
X28106Y-32323D01*
X28156Y-32370D01*
X28211Y-32411D01*
X28269Y-32448D01*
X28329Y-32480D01*
X28393Y-32506D01*
X28458Y-32527D01*
X28525Y-32542D01*
X28593Y-32551D01*
X28661Y-32554D01*
X28729Y-32551D01*
X28797Y-32542D01*
X28864Y-32527D01*
X28458Y-31009D02*
X28393Y-31030D01*
X28329Y-31056D01*
X28268Y-31088D01*
X28211Y-31125D01*
X28156Y-31166D01*
X28106Y-31213D01*
X28059Y-31263D01*
X28018Y-31318D01*
X27981Y-31375D01*
X27949Y-31436D01*
X27923Y-31500D01*
X27902Y-31565D01*
X27887Y-31632D01*
X27878Y-31700D01*
X27875Y-31768D01*
X27878Y-31836D01*
X27887Y-31904D01*
X27902Y-31971D01*
X29752Y-32386D02*
X29807Y-32426D01*
X29866Y-32461D01*
X29928Y-32490D01*
X29992Y-32515D01*
X30058Y-32533D01*
X30126Y-32546D01*
X30194Y-32552D01*
X30262Y-32553D01*
X30330Y-32548D01*
X30398Y-32537D01*
X30464Y-32520D01*
X30529Y-32497D01*
X30591Y-32468D01*
X30651Y-32435D01*
X30707Y-32396D01*
X30760Y-32353D01*
X30809Y-32305D01*
X30854Y-32252D01*
X30529Y-31037D02*
X30855Y-32254D01*
X30528Y-31038D02*
X30463Y-31015D01*
X30396Y-30998D01*
X30329Y-30987D01*
X30260Y-30982D01*
X30193Y-30983D01*
X30124Y-30990D01*
X30057Y-31002D01*
X29991Y-31021D01*
X29926Y-31045D01*
X29865Y-31075D01*
X29806Y-31110D01*
X29750Y-31150D01*
X29698Y-31195D01*
X29650Y-31244D01*
X29606Y-31297D01*
X29568Y-31354D01*
X29534Y-31414D01*
X29506Y-31476D01*
X29477Y-31971D02*
X29498Y-32036D01*
X29524Y-32100D01*
X29556Y-32160D01*
X29593Y-32218D01*
X29634Y-32273D01*
X29681Y-32323D01*
X29731Y-32370D01*
X29786Y-32411D01*
X29844Y-32448D01*
X29904Y-32480D01*
X29968Y-32506D01*
X30033Y-32527D01*
X30100Y-32542D01*
X30168Y-32551D01*
X30236Y-32554D01*
X30304Y-32551D01*
X30372Y-32542D01*
X30439Y-32527D01*
X30033Y-31009D02*
X29968Y-31030D01*
X29904Y-31056D01*
X29843Y-31088D01*
X29786Y-31125D01*
X29731Y-31166D01*
X29681Y-31213D01*
X29634Y-31263D01*
X29593Y-31318D01*
X29556Y-31375D01*
X29524Y-31436D01*
X29498Y-31500D01*
X29477Y-31565D01*
X29462Y-31632D01*
X29453Y-31700D01*
X29450Y-31768D01*
X29453Y-31836D01*
X29462Y-31904D01*
X29477Y-31971D01*
X31327Y-32386D02*
X31382Y-32426D01*
X31441Y-32461D01*
X31503Y-32490D01*
X31567Y-32515D01*
X31633Y-32533D01*
X31701Y-32546D01*
X31769Y-32552D01*
X31837Y-32553D01*
X31905Y-32548D01*
X31973Y-32537D01*
X32039Y-32520D01*
X32104Y-32497D01*
X32166Y-32468D01*
X32226Y-32435D01*
X32282Y-32396D01*
X32335Y-32353D01*
X32384Y-32305D01*
X32429Y-32252D01*
X32104Y-31037D02*
X32430Y-32254D01*
X32103Y-31038D02*
X32038Y-31015D01*
X31971Y-30998D01*
X31904Y-30987D01*
X31835Y-30982D01*
X31768Y-30983D01*
X31699Y-30990D01*
X31632Y-31002D01*
X31566Y-31021D01*
X31501Y-31045D01*
X31440Y-31075D01*
X31381Y-31110D01*
X31325Y-31150D01*
X31273Y-31195D01*
X31225Y-31244D01*
X31181Y-31297D01*
X31143Y-31354D01*
X31109Y-31414D01*
X31081Y-31476D01*
X31052Y-31971D02*
X31073Y-32036D01*
X31099Y-32100D01*
X31131Y-32160D01*
X31168Y-32218D01*
X31209Y-32273D01*
X31256Y-32323D01*
X31306Y-32370D01*
X31361Y-32411D01*
X31419Y-32448D01*
X31479Y-32480D01*
X31543Y-32506D01*
X31608Y-32527D01*
X31675Y-32542D01*
X31743Y-32551D01*
X31811Y-32554D01*
X31879Y-32551D01*
X31947Y-32542D01*
X32014Y-32527D01*
X31608Y-31009D02*
X31543Y-31030D01*
X31479Y-31056D01*
X31418Y-31088D01*
X31361Y-31125D01*
X31306Y-31166D01*
X31256Y-31213D01*
X31209Y-31263D01*
X31168Y-31318D01*
X31131Y-31375D01*
X31099Y-31436D01*
X31073Y-31500D01*
X31052Y-31565D01*
X31037Y-31632D01*
X31028Y-31700D01*
X31025Y-31768D01*
X31028Y-31836D01*
X31037Y-31904D01*
X31052Y-31971D01*
X20303Y-21405D02*
X20358Y-21445D01*
X20417Y-21480D01*
X20479Y-21509D01*
X20543Y-21534D01*
X20609Y-21552D01*
X20677Y-21565D01*
X20745Y-21571D01*
X20813Y-21572D01*
X20881Y-21567D01*
X20949Y-21556D01*
X21015Y-21539D01*
X21080Y-21516D01*
X21142Y-21487D01*
X21202Y-21454D01*
X21258Y-21415D01*
X21311Y-21372D01*
X21360Y-21324D01*
X21405Y-21271D01*
X21080Y-20056D02*
X21406Y-21273D01*
X21079Y-20057D02*
X21014Y-20034D01*
X20947Y-20017D01*
X20880Y-20006D01*
X20811Y-20001D01*
X20744Y-20002D01*
X20675Y-20009D01*
X20608Y-20021D01*
X20542Y-20040D01*
X20477Y-20064D01*
X20416Y-20094D01*
X20357Y-20129D01*
X20301Y-20169D01*
X20249Y-20214D01*
X20201Y-20263D01*
X20157Y-20316D01*
X20119Y-20373D01*
X20085Y-20433D01*
X20057Y-20495D01*
X20028Y-20990D02*
X20049Y-21055D01*
X20075Y-21119D01*
X20107Y-21179D01*
X20144Y-21237D01*
X20185Y-21292D01*
X20232Y-21342D01*
X20282Y-21389D01*
X20337Y-21430D01*
X20395Y-21467D01*
X20455Y-21499D01*
X20519Y-21525D01*
X20584Y-21546D01*
X20651Y-21561D01*
X20719Y-21570D01*
X20787Y-21573D01*
X20855Y-21570D01*
X20923Y-21561D01*
X20990Y-21546D01*
X20584Y-20028D02*
X20519Y-20049D01*
X20455Y-20075D01*
X20394Y-20107D01*
X20337Y-20144D01*
X20282Y-20185D01*
X20232Y-20232D01*
X20185Y-20282D01*
X20144Y-20337D01*
X20107Y-20394D01*
X20075Y-20455D01*
X20049Y-20519D01*
X20028Y-20584D01*
X20013Y-20651D01*
X20004Y-20719D01*
X20001Y-20787D01*
X20004Y-20855D01*
X20013Y-20923D01*
X20028Y-20990D01*
X21878Y-21405D02*
X21933Y-21445D01*
X21992Y-21480D01*
X22054Y-21509D01*
X22118Y-21534D01*
X22184Y-21552D01*
X22252Y-21565D01*
X22320Y-21571D01*
X22388Y-21572D01*
X22456Y-21567D01*
X22524Y-21556D01*
X22590Y-21539D01*
X22655Y-21516D01*
X22717Y-21487D01*
X22777Y-21454D01*
X22833Y-21415D01*
X22886Y-21372D01*
X22935Y-21324D01*
X22980Y-21271D01*
X22655Y-20056D02*
X22981Y-21273D01*
X22654Y-20057D02*
X22589Y-20034D01*
X22522Y-20017D01*
X22455Y-20006D01*
X22386Y-20001D01*
X22319Y-20002D01*
X22250Y-20009D01*
X22183Y-20021D01*
X22117Y-20040D01*
X22052Y-20064D01*
X21991Y-20094D01*
X21932Y-20129D01*
X21876Y-20169D01*
X21824Y-20214D01*
X21776Y-20263D01*
X21732Y-20316D01*
X21694Y-20373D01*
X21660Y-20433D01*
X21632Y-20495D01*
X21603Y-20990D02*
X21624Y-21055D01*
X21650Y-21119D01*
X21682Y-21179D01*
X21719Y-21237D01*
X21760Y-21292D01*
X21807Y-21342D01*
X21857Y-21389D01*
X21912Y-21430D01*
X21970Y-21467D01*
X22030Y-21499D01*
X22094Y-21525D01*
X22159Y-21546D01*
X22226Y-21561D01*
X22294Y-21570D01*
X22362Y-21573D01*
X22430Y-21570D01*
X22498Y-21561D01*
X22565Y-21546D01*
X22159Y-20028D02*
X22094Y-20049D01*
X22030Y-20075D01*
X21969Y-20107D01*
X21912Y-20144D01*
X21857Y-20185D01*
X21807Y-20232D01*
X21760Y-20282D01*
X21719Y-20337D01*
X21682Y-20394D01*
X21650Y-20455D01*
X21624Y-20519D01*
X21603Y-20584D01*
X21588Y-20651D01*
X21579Y-20719D01*
X21576Y-20787D01*
X21579Y-20855D01*
X21588Y-20923D01*
X21603Y-20990D01*
X23453Y-21405D02*
X23508Y-21445D01*
X23567Y-21480D01*
X23629Y-21509D01*
X23693Y-21534D01*
X23759Y-21552D01*
X23827Y-21565D01*
X23895Y-21571D01*
X23963Y-21572D01*
X24031Y-21567D01*
X24099Y-21556D01*
X24165Y-21539D01*
X24230Y-21516D01*
X24292Y-21487D01*
X24352Y-21454D01*
X24408Y-21415D01*
X24461Y-21372D01*
X24510Y-21324D01*
X24555Y-21271D01*
X24230Y-20056D02*
X24556Y-21273D01*
X24229Y-20057D02*
X24164Y-20034D01*
X24097Y-20017D01*
X24030Y-20006D01*
X23961Y-20001D01*
X23894Y-20002D01*
X23825Y-20009D01*
X23758Y-20021D01*
X23692Y-20040D01*
X23627Y-20064D01*
X23566Y-20094D01*
X23507Y-20129D01*
X23451Y-20169D01*
X23399Y-20214D01*
X23351Y-20263D01*
X23307Y-20316D01*
X23269Y-20373D01*
X23235Y-20433D01*
X23207Y-20495D01*
X23178Y-20990D02*
X23199Y-21055D01*
X23225Y-21119D01*
X23257Y-21179D01*
X23294Y-21237D01*
X23335Y-21292D01*
X23382Y-21342D01*
X23432Y-21389D01*
X23487Y-21430D01*
X23545Y-21467D01*
X23605Y-21499D01*
X23669Y-21525D01*
X23734Y-21546D01*
X23801Y-21561D01*
X23869Y-21570D01*
X23937Y-21573D01*
X24005Y-21570D01*
X24073Y-21561D01*
X24140Y-21546D01*
X23734Y-20028D02*
X23669Y-20049D01*
X23605Y-20075D01*
X23544Y-20107D01*
X23487Y-20144D01*
X23432Y-20185D01*
X23382Y-20232D01*
X23335Y-20282D01*
X23294Y-20337D01*
X23257Y-20394D01*
X23225Y-20455D01*
X23199Y-20519D01*
X23178Y-20584D01*
X23163Y-20651D01*
X23154Y-20719D01*
X23151Y-20787D01*
X23154Y-20855D01*
X23163Y-20923D01*
X23178Y-20990D01*
X25028Y-21405D02*
X25083Y-21445D01*
X25142Y-21480D01*
X25204Y-21509D01*
X25268Y-21534D01*
X25334Y-21552D01*
X25402Y-21565D01*
X25470Y-21571D01*
X25538Y-21572D01*
X25606Y-21567D01*
X25674Y-21556D01*
X25740Y-21539D01*
X25805Y-21516D01*
X25867Y-21487D01*
X25927Y-21454D01*
X25983Y-21415D01*
X26036Y-21372D01*
X26085Y-21324D01*
X26130Y-21271D01*
X25805Y-20056D02*
X26131Y-21273D01*
X25804Y-20057D02*
X25739Y-20034D01*
X25672Y-20017D01*
X25605Y-20006D01*
X25536Y-20001D01*
X25469Y-20002D01*
X25400Y-20009D01*
X25333Y-20021D01*
X25267Y-20040D01*
X25202Y-20064D01*
X25141Y-20094D01*
X25082Y-20129D01*
X25026Y-20169D01*
X24974Y-20214D01*
X24926Y-20263D01*
X24882Y-20316D01*
X24844Y-20373D01*
X24810Y-20433D01*
X24782Y-20495D01*
X24753Y-20990D02*
X24774Y-21055D01*
X24800Y-21119D01*
X24832Y-21179D01*
X24869Y-21237D01*
X24910Y-21292D01*
X24957Y-21342D01*
X25007Y-21389D01*
X25062Y-21430D01*
X25120Y-21467D01*
X25180Y-21499D01*
X25244Y-21525D01*
X25309Y-21546D01*
X25376Y-21561D01*
X25444Y-21570D01*
X25512Y-21573D01*
X25580Y-21570D01*
X25648Y-21561D01*
X25715Y-21546D01*
X25309Y-20028D02*
X25244Y-20049D01*
X25180Y-20075D01*
X25119Y-20107D01*
X25062Y-20144D01*
X25007Y-20185D01*
X24957Y-20232D01*
X24910Y-20282D01*
X24869Y-20337D01*
X24832Y-20394D01*
X24800Y-20455D01*
X24774Y-20519D01*
X24753Y-20584D01*
X24738Y-20651D01*
X24729Y-20719D01*
X24726Y-20787D01*
X24729Y-20855D01*
X24738Y-20923D01*
X24753Y-20990D01*
X26603Y-21405D02*
X26658Y-21445D01*
X26717Y-21480D01*
X26779Y-21509D01*
X26843Y-21534D01*
X26909Y-21552D01*
X26977Y-21565D01*
X27045Y-21571D01*
X27113Y-21572D01*
X27181Y-21567D01*
X27249Y-21556D01*
X27315Y-21539D01*
X27380Y-21516D01*
X27442Y-21487D01*
X27502Y-21454D01*
X27558Y-21415D01*
X27611Y-21372D01*
X27660Y-21324D01*
X27705Y-21271D01*
X27380Y-20056D02*
X27706Y-21273D01*
X27379Y-20057D02*
X27314Y-20034D01*
X27247Y-20017D01*
X27180Y-20006D01*
X27111Y-20001D01*
X27044Y-20002D01*
X26975Y-20009D01*
X26908Y-20021D01*
X26842Y-20040D01*
X26777Y-20064D01*
X26716Y-20094D01*
X26657Y-20129D01*
X26601Y-20169D01*
X26549Y-20214D01*
X26501Y-20263D01*
X26457Y-20316D01*
X26419Y-20373D01*
X26385Y-20433D01*
X26357Y-20495D01*
X26328Y-20990D02*
X26349Y-21055D01*
X26375Y-21119D01*
X26407Y-21179D01*
X26444Y-21237D01*
X26485Y-21292D01*
X26532Y-21342D01*
X26582Y-21389D01*
X26637Y-21430D01*
X26695Y-21467D01*
X26755Y-21499D01*
X26819Y-21525D01*
X26884Y-21546D01*
X26951Y-21561D01*
X27019Y-21570D01*
X27087Y-21573D01*
X27155Y-21570D01*
X27223Y-21561D01*
X27290Y-21546D01*
X26884Y-20028D02*
X26819Y-20049D01*
X26755Y-20075D01*
X26694Y-20107D01*
X26637Y-20144D01*
X26582Y-20185D01*
X26532Y-20232D01*
X26485Y-20282D01*
X26444Y-20337D01*
X26407Y-20394D01*
X26375Y-20455D01*
X26349Y-20519D01*
X26328Y-20584D01*
X26313Y-20651D01*
X26304Y-20719D01*
X26301Y-20787D01*
X26304Y-20855D01*
X26313Y-20923D01*
X26328Y-20990D01*
X28177Y-21405D02*
X28232Y-21445D01*
X28291Y-21480D01*
X28353Y-21509D01*
X28417Y-21534D01*
X28483Y-21552D01*
X28551Y-21565D01*
X28619Y-21571D01*
X28687Y-21572D01*
X28755Y-21567D01*
X28823Y-21556D01*
X28889Y-21539D01*
X28954Y-21516D01*
X29016Y-21487D01*
X29076Y-21454D01*
X29132Y-21415D01*
X29185Y-21372D01*
X29234Y-21324D01*
X29279Y-21271D01*
X28954Y-20056D02*
X29280Y-21273D01*
X28953Y-20057D02*
X28888Y-20034D01*
X28821Y-20017D01*
X28754Y-20006D01*
X28685Y-20001D01*
X28618Y-20002D01*
X28549Y-20009D01*
X28482Y-20021D01*
X28416Y-20040D01*
X28351Y-20064D01*
X28290Y-20094D01*
X28231Y-20129D01*
X28175Y-20169D01*
X28123Y-20214D01*
X28075Y-20263D01*
X28031Y-20316D01*
X27993Y-20373D01*
X27959Y-20433D01*
X27931Y-20495D01*
X27902Y-20990D02*
X27923Y-21055D01*
X27949Y-21119D01*
X27981Y-21179D01*
X28018Y-21237D01*
X28059Y-21292D01*
X28106Y-21342D01*
X28156Y-21389D01*
X28211Y-21430D01*
X28269Y-21467D01*
X28329Y-21499D01*
X28393Y-21525D01*
X28458Y-21546D01*
X28525Y-21561D01*
X28593Y-21570D01*
X28661Y-21573D01*
X28729Y-21570D01*
X28797Y-21561D01*
X28864Y-21546D01*
X28458Y-20028D02*
X28393Y-20049D01*
X28329Y-20075D01*
X28268Y-20107D01*
X28211Y-20144D01*
X28156Y-20185D01*
X28106Y-20232D01*
X28059Y-20282D01*
X28018Y-20337D01*
X27981Y-20394D01*
X27949Y-20455D01*
X27923Y-20519D01*
X27902Y-20584D01*
X27887Y-20651D01*
X27878Y-20719D01*
X27875Y-20787D01*
X27878Y-20855D01*
X27887Y-20923D01*
X27902Y-20990D01*
X29752Y-21405D02*
X29807Y-21445D01*
X29866Y-21480D01*
X29928Y-21509D01*
X29992Y-21534D01*
X30058Y-21552D01*
X30126Y-21565D01*
X30194Y-21571D01*
X30262Y-21572D01*
X30330Y-21567D01*
X30398Y-21556D01*
X30464Y-21539D01*
X30529Y-21516D01*
X30591Y-21487D01*
X30651Y-21454D01*
X30707Y-21415D01*
X30760Y-21372D01*
X30809Y-21324D01*
X30854Y-21271D01*
X30529Y-20056D02*
X30855Y-21273D01*
X30528Y-20057D02*
X30463Y-20034D01*
X30396Y-20017D01*
X30329Y-20006D01*
X30260Y-20001D01*
X30193Y-20002D01*
X30124Y-20009D01*
X30057Y-20021D01*
X29991Y-20040D01*
X29926Y-20064D01*
X29865Y-20094D01*
X29806Y-20129D01*
X29750Y-20169D01*
X29698Y-20214D01*
X29650Y-20263D01*
X29606Y-20316D01*
X29568Y-20373D01*
X29534Y-20433D01*
X29506Y-20495D01*
X29477Y-20990D02*
X29498Y-21055D01*
X29524Y-21119D01*
X29556Y-21179D01*
X29593Y-21237D01*
X29634Y-21292D01*
X29681Y-21342D01*
X29731Y-21389D01*
X29786Y-21430D01*
X29844Y-21467D01*
X29904Y-21499D01*
X29968Y-21525D01*
X30033Y-21546D01*
X30100Y-21561D01*
X30168Y-21570D01*
X30236Y-21573D01*
X30304Y-21570D01*
X30372Y-21561D01*
X30439Y-21546D01*
X30033Y-20028D02*
X29968Y-20049D01*
X29904Y-20075D01*
X29843Y-20107D01*
X29786Y-20144D01*
X29731Y-20185D01*
X29681Y-20232D01*
X29634Y-20282D01*
X29593Y-20337D01*
X29556Y-20394D01*
X29524Y-20455D01*
X29498Y-20519D01*
X29477Y-20584D01*
X29462Y-20651D01*
X29453Y-20719D01*
X29450Y-20787D01*
X29453Y-20855D01*
X29462Y-20923D01*
X29477Y-20990D01*
X31327Y-21405D02*
X31382Y-21445D01*
X31441Y-21480D01*
X31503Y-21509D01*
X31567Y-21534D01*
X31633Y-21552D01*
X31701Y-21565D01*
X31769Y-21571D01*
X31837Y-21572D01*
X31905Y-21567D01*
X31973Y-21556D01*
X32039Y-21539D01*
X32104Y-21516D01*
X32166Y-21487D01*
X32226Y-21454D01*
X32282Y-21415D01*
X32335Y-21372D01*
X32384Y-21324D01*
X32429Y-21271D01*
X32104Y-20056D02*
X32430Y-21273D01*
X32103Y-20057D02*
X32038Y-20034D01*
X31971Y-20017D01*
X31904Y-20006D01*
X31835Y-20001D01*
X31768Y-20002D01*
X31699Y-20009D01*
X31632Y-20021D01*
X31566Y-20040D01*
X31501Y-20064D01*
X31440Y-20094D01*
X31381Y-20129D01*
X31325Y-20169D01*
X31273Y-20214D01*
X31225Y-20263D01*
X31181Y-20316D01*
X31143Y-20373D01*
X31109Y-20433D01*
X31081Y-20495D01*
X31052Y-20990D02*
X31073Y-21055D01*
X31099Y-21119D01*
X31131Y-21179D01*
X31168Y-21237D01*
X31209Y-21292D01*
X31256Y-21342D01*
X31306Y-21389D01*
X31361Y-21430D01*
X31419Y-21467D01*
X31479Y-21499D01*
X31543Y-21525D01*
X31608Y-21546D01*
X31675Y-21561D01*
X31743Y-21570D01*
X31811Y-21573D01*
X31879Y-21570D01*
X31947Y-21561D01*
X32014Y-21546D01*
X31608Y-20028D02*
X31543Y-20049D01*
X31479Y-20075D01*
X31418Y-20107D01*
X31361Y-20144D01*
X31306Y-20185D01*
X31256Y-20232D01*
X31209Y-20282D01*
X31168Y-20337D01*
X31131Y-20394D01*
X31099Y-20455D01*
X31073Y-20519D01*
X31052Y-20584D01*
X31037Y-20651D01*
X31028Y-20719D01*
X31025Y-20787D01*
X31028Y-20855D01*
X31037Y-20923D01*
X31052Y-20990D01*
X20303Y-22974D02*
X20358Y-23014D01*
X20417Y-23049D01*
X20479Y-23078D01*
X20543Y-23103D01*
X20609Y-23121D01*
X20677Y-23134D01*
X20745Y-23140D01*
X20813Y-23141D01*
X20881Y-23136D01*
X20949Y-23125D01*
X21015Y-23108D01*
X21080Y-23085D01*
X21142Y-23056D01*
X21202Y-23023D01*
X21258Y-22984D01*
X21311Y-22941D01*
X21360Y-22893D01*
X21405Y-22840D01*
X21080Y-21625D02*
X21406Y-22842D01*
X21079Y-21626D02*
X21014Y-21603D01*
X20947Y-21586D01*
X20880Y-21575D01*
X20811Y-21570D01*
X20744Y-21571D01*
X20675Y-21578D01*
X20608Y-21590D01*
X20542Y-21609D01*
X20477Y-21633D01*
X20416Y-21663D01*
X20357Y-21698D01*
X20301Y-21738D01*
X20249Y-21783D01*
X20201Y-21832D01*
X20157Y-21885D01*
X20119Y-21942D01*
X20085Y-22002D01*
X20057Y-22064D01*
X20028Y-22559D02*
X20049Y-22624D01*
X20075Y-22688D01*
X20107Y-22748D01*
X20144Y-22806D01*
X20185Y-22861D01*
X20232Y-22911D01*
X20282Y-22958D01*
X20337Y-22999D01*
X20395Y-23036D01*
X20455Y-23068D01*
X20519Y-23094D01*
X20584Y-23115D01*
X20651Y-23130D01*
X20719Y-23139D01*
X20787Y-23142D01*
X20855Y-23139D01*
X20923Y-23130D01*
X20990Y-23115D01*
X20584Y-21597D02*
X20519Y-21618D01*
X20455Y-21644D01*
X20394Y-21676D01*
X20337Y-21713D01*
X20282Y-21754D01*
X20232Y-21801D01*
X20185Y-21851D01*
X20144Y-21906D01*
X20107Y-21963D01*
X20075Y-22024D01*
X20049Y-22088D01*
X20028Y-22153D01*
X20013Y-22220D01*
X20004Y-22288D01*
X20001Y-22356D01*
X20004Y-22424D01*
X20013Y-22492D01*
X20028Y-22559D01*
X21878Y-22974D02*
X21933Y-23014D01*
X21992Y-23049D01*
X22054Y-23078D01*
X22118Y-23103D01*
X22184Y-23121D01*
X22252Y-23134D01*
X22320Y-23140D01*
X22388Y-23141D01*
X22456Y-23136D01*
X22524Y-23125D01*
X22590Y-23108D01*
X22655Y-23085D01*
X22717Y-23056D01*
X22777Y-23023D01*
X22833Y-22984D01*
X22886Y-22941D01*
X22935Y-22893D01*
X22980Y-22840D01*
X22655Y-21625D02*
X22981Y-22842D01*
X22654Y-21626D02*
X22589Y-21603D01*
X22522Y-21586D01*
X22455Y-21575D01*
X22386Y-21570D01*
X22319Y-21571D01*
X22250Y-21578D01*
X22183Y-21590D01*
X22117Y-21609D01*
X22052Y-21633D01*
X21991Y-21663D01*
X21932Y-21698D01*
X21876Y-21738D01*
X21824Y-21783D01*
X21776Y-21832D01*
X21732Y-21885D01*
X21694Y-21942D01*
X21660Y-22002D01*
X21632Y-22064D01*
X21603Y-22559D02*
X21624Y-22624D01*
X21650Y-22688D01*
X21682Y-22748D01*
X21719Y-22806D01*
X21760Y-22861D01*
X21807Y-22911D01*
X21857Y-22958D01*
X21912Y-22999D01*
X21970Y-23036D01*
X22030Y-23068D01*
X22094Y-23094D01*
X22159Y-23115D01*
X22226Y-23130D01*
X22294Y-23139D01*
X22362Y-23142D01*
X22430Y-23139D01*
X22498Y-23130D01*
X22565Y-23115D01*
X22159Y-21597D02*
X22094Y-21618D01*
X22030Y-21644D01*
X21969Y-21676D01*
X21912Y-21713D01*
X21857Y-21754D01*
X21807Y-21801D01*
X21760Y-21851D01*
X21719Y-21906D01*
X21682Y-21963D01*
X21650Y-22024D01*
X21624Y-22088D01*
X21603Y-22153D01*
X21588Y-22220D01*
X21579Y-22288D01*
X21576Y-22356D01*
X21579Y-22424D01*
X21588Y-22492D01*
X21603Y-22559D01*
X23453Y-22974D02*
X23508Y-23014D01*
X23567Y-23049D01*
X23629Y-23078D01*
X23693Y-23103D01*
X23759Y-23121D01*
X23827Y-23134D01*
X23895Y-23140D01*
X23963Y-23141D01*
X24031Y-23136D01*
X24099Y-23125D01*
X24165Y-23108D01*
X24230Y-23085D01*
X24292Y-23056D01*
X24352Y-23023D01*
X24408Y-22984D01*
X24461Y-22941D01*
X24510Y-22893D01*
X24555Y-22840D01*
X24230Y-21625D02*
X24556Y-22842D01*
X24229Y-21626D02*
X24164Y-21603D01*
X24097Y-21586D01*
X24030Y-21575D01*
X23961Y-21570D01*
X23894Y-21571D01*
X23825Y-21578D01*
X23758Y-21590D01*
X23692Y-21609D01*
X23627Y-21633D01*
X23566Y-21663D01*
X23507Y-21698D01*
X23451Y-21738D01*
X23399Y-21783D01*
X23351Y-21832D01*
X23307Y-21885D01*
X23269Y-21942D01*
X23235Y-22002D01*
X23207Y-22064D01*
X23178Y-22559D02*
X23199Y-22624D01*
X23225Y-22688D01*
X23257Y-22748D01*
X23294Y-22806D01*
X23335Y-22861D01*
X23382Y-22911D01*
X23432Y-22958D01*
X23487Y-22999D01*
X23545Y-23036D01*
X23605Y-23068D01*
X23669Y-23094D01*
X23734Y-23115D01*
X23801Y-23130D01*
X23869Y-23139D01*
X23937Y-23142D01*
X24005Y-23139D01*
X24073Y-23130D01*
X24140Y-23115D01*
X23734Y-21597D02*
X23669Y-21618D01*
X23605Y-21644D01*
X23544Y-21676D01*
X23487Y-21713D01*
X23432Y-21754D01*
X23382Y-21801D01*
X23335Y-21851D01*
X23294Y-21906D01*
X23257Y-21963D01*
X23225Y-22024D01*
X23199Y-22088D01*
X23178Y-22153D01*
X23163Y-22220D01*
X23154Y-22288D01*
X23151Y-22356D01*
X23154Y-22424D01*
X23163Y-22492D01*
X23178Y-22559D01*
X25028Y-22974D02*
X25083Y-23014D01*
X25142Y-23049D01*
X25204Y-23078D01*
X25268Y-23103D01*
X25334Y-23121D01*
X25402Y-23134D01*
X25470Y-23140D01*
X25538Y-23141D01*
X25606Y-23136D01*
X25674Y-23125D01*
X25740Y-23108D01*
X25805Y-23085D01*
X25867Y-23056D01*
X25927Y-23023D01*
X25983Y-22984D01*
X26036Y-22941D01*
X26085Y-22893D01*
X26130Y-22840D01*
X25805Y-21625D02*
X26131Y-22842D01*
X25804Y-21626D02*
X25739Y-21603D01*
X25672Y-21586D01*
X25605Y-21575D01*
X25536Y-21570D01*
X25469Y-21571D01*
X25400Y-21578D01*
X25333Y-21590D01*
X25267Y-21609D01*
X25202Y-21633D01*
X25141Y-21663D01*
X25082Y-21698D01*
X25026Y-21738D01*
X24974Y-21783D01*
X24926Y-21832D01*
X24882Y-21885D01*
X24844Y-21942D01*
X24810Y-22002D01*
X24782Y-22064D01*
X24753Y-22559D02*
X24774Y-22624D01*
X24800Y-22688D01*
X24832Y-22748D01*
X24869Y-22806D01*
X24910Y-22861D01*
X24957Y-22911D01*
X25007Y-22958D01*
X25062Y-22999D01*
X25120Y-23036D01*
X25180Y-23068D01*
X25244Y-23094D01*
X25309Y-23115D01*
X25376Y-23130D01*
X25444Y-23139D01*
X25512Y-23142D01*
X25580Y-23139D01*
X25648Y-23130D01*
X25715Y-23115D01*
X25309Y-21597D02*
X25244Y-21618D01*
X25180Y-21644D01*
X25119Y-21676D01*
X25062Y-21713D01*
X25007Y-21754D01*
X24957Y-21801D01*
X24910Y-21851D01*
X24869Y-21906D01*
X24832Y-21963D01*
X24800Y-22024D01*
X24774Y-22088D01*
X24753Y-22153D01*
X24738Y-22220D01*
X24729Y-22288D01*
X24726Y-22356D01*
X24729Y-22424D01*
X24738Y-22492D01*
X24753Y-22559D01*
X26603Y-22974D02*
X26658Y-23014D01*
X26717Y-23049D01*
X26779Y-23078D01*
X26843Y-23103D01*
X26909Y-23121D01*
X26977Y-23134D01*
X27045Y-23140D01*
X27113Y-23141D01*
X27181Y-23136D01*
X27249Y-23125D01*
X27315Y-23108D01*
X27380Y-23085D01*
X27442Y-23056D01*
X27502Y-23023D01*
X27558Y-22984D01*
X27611Y-22941D01*
X27660Y-22893D01*
X27705Y-22840D01*
X27380Y-21625D02*
X27706Y-22842D01*
X27379Y-21626D02*
X27314Y-21603D01*
X27247Y-21586D01*
X27180Y-21575D01*
X27111Y-21570D01*
X27044Y-21571D01*
X26975Y-21578D01*
X26908Y-21590D01*
X26842Y-21609D01*
X26777Y-21633D01*
X26716Y-21663D01*
X26657Y-21698D01*
X26601Y-21738D01*
X26549Y-21783D01*
X26501Y-21832D01*
X26457Y-21885D01*
X26419Y-21942D01*
X26385Y-22002D01*
X26357Y-22064D01*
X26328Y-22559D02*
X26349Y-22624D01*
X26375Y-22688D01*
X26407Y-22748D01*
X26444Y-22806D01*
X26485Y-22861D01*
X26532Y-22911D01*
X26582Y-22958D01*
X26637Y-22999D01*
X26695Y-23036D01*
X26755Y-23068D01*
X26819Y-23094D01*
X26884Y-23115D01*
X26951Y-23130D01*
X27019Y-23139D01*
X27087Y-23142D01*
X27155Y-23139D01*
X27223Y-23130D01*
X27290Y-23115D01*
X26884Y-21597D02*
X26819Y-21618D01*
X26755Y-21644D01*
X26694Y-21676D01*
X26637Y-21713D01*
X26582Y-21754D01*
X26532Y-21801D01*
X26485Y-21851D01*
X26444Y-21906D01*
X26407Y-21963D01*
X26375Y-22024D01*
X26349Y-22088D01*
X26328Y-22153D01*
X26313Y-22220D01*
X26304Y-22288D01*
X26301Y-22356D01*
X26304Y-22424D01*
X26313Y-22492D01*
X26328Y-22559D01*
X28177Y-22974D02*
X28232Y-23014D01*
X28291Y-23049D01*
X28353Y-23078D01*
X28417Y-23103D01*
X28483Y-23121D01*
X28551Y-23134D01*
X28619Y-23140D01*
X28687Y-23141D01*
X28755Y-23136D01*
X28823Y-23125D01*
X28889Y-23108D01*
X28954Y-23085D01*
X29016Y-23056D01*
X29076Y-23023D01*
X29132Y-22984D01*
X29185Y-22941D01*
X29234Y-22893D01*
X29279Y-22840D01*
X28954Y-21625D02*
X29280Y-22842D01*
X28953Y-21626D02*
X28888Y-21603D01*
X28821Y-21586D01*
X28754Y-21575D01*
X28685Y-21570D01*
X28618Y-21571D01*
X28549Y-21578D01*
X28482Y-21590D01*
X28416Y-21609D01*
X28351Y-21633D01*
X28290Y-21663D01*
X28231Y-21698D01*
X28175Y-21738D01*
X28123Y-21783D01*
X28075Y-21832D01*
X28031Y-21885D01*
X27993Y-21942D01*
X27959Y-22002D01*
X27931Y-22064D01*
X27902Y-22559D02*
X27923Y-22624D01*
X27949Y-22688D01*
X27981Y-22748D01*
X28018Y-22806D01*
X28059Y-22861D01*
X28106Y-22911D01*
X28156Y-22958D01*
X28211Y-22999D01*
X28269Y-23036D01*
X28329Y-23068D01*
X28393Y-23094D01*
X28458Y-23115D01*
X28525Y-23130D01*
X28593Y-23139D01*
X28661Y-23142D01*
X28729Y-23139D01*
X28797Y-23130D01*
X28864Y-23115D01*
X28458Y-21597D02*
X28393Y-21618D01*
X28329Y-21644D01*
X28268Y-21676D01*
X28211Y-21713D01*
X28156Y-21754D01*
X28106Y-21801D01*
X28059Y-21851D01*
X28018Y-21906D01*
X27981Y-21963D01*
X27949Y-22024D01*
X27923Y-22088D01*
X27902Y-22153D01*
X27887Y-22220D01*
X27878Y-22288D01*
X27875Y-22356D01*
X27878Y-22424D01*
X27887Y-22492D01*
X27902Y-22559D01*
X29752Y-22974D02*
X29807Y-23014D01*
X29866Y-23049D01*
X29928Y-23078D01*
X29992Y-23103D01*
X30058Y-23121D01*
X30126Y-23134D01*
X30194Y-23140D01*
X30262Y-23141D01*
X30330Y-23136D01*
X30398Y-23125D01*
X30464Y-23108D01*
X30529Y-23085D01*
X30591Y-23056D01*
X30651Y-23023D01*
X30707Y-22984D01*
X30760Y-22941D01*
X30809Y-22893D01*
X30854Y-22840D01*
X30529Y-21625D02*
X30855Y-22842D01*
X30528Y-21626D02*
X30463Y-21603D01*
X30396Y-21586D01*
X30329Y-21575D01*
X30260Y-21570D01*
X30193Y-21571D01*
X30124Y-21578D01*
X30057Y-21590D01*
X29991Y-21609D01*
X29926Y-21633D01*
X29865Y-21663D01*
X29806Y-21698D01*
X29750Y-21738D01*
X29698Y-21783D01*
X29650Y-21832D01*
X29606Y-21885D01*
X29568Y-21942D01*
X29534Y-22002D01*
X29506Y-22064D01*
X29477Y-22559D02*
X29498Y-22624D01*
X29524Y-22688D01*
X29556Y-22748D01*
X29593Y-22806D01*
X29634Y-22861D01*
X29681Y-22911D01*
X29731Y-22958D01*
X29786Y-22999D01*
X29844Y-23036D01*
X29904Y-23068D01*
X29968Y-23094D01*
X30033Y-23115D01*
X30100Y-23130D01*
X30168Y-23139D01*
X30236Y-23142D01*
X30304Y-23139D01*
X30372Y-23130D01*
X30439Y-23115D01*
X30033Y-21597D02*
X29968Y-21618D01*
X29904Y-21644D01*
X29843Y-21676D01*
X29786Y-21713D01*
X29731Y-21754D01*
X29681Y-21801D01*
X29634Y-21851D01*
X29593Y-21906D01*
X29556Y-21963D01*
X29524Y-22024D01*
X29498Y-22088D01*
X29477Y-22153D01*
X29462Y-22220D01*
X29453Y-22288D01*
X29450Y-22356D01*
X29453Y-22424D01*
X29462Y-22492D01*
X29477Y-22559D01*
X31327Y-22974D02*
X31382Y-23014D01*
X31441Y-23049D01*
X31503Y-23078D01*
X31567Y-23103D01*
X31633Y-23121D01*
X31701Y-23134D01*
X31769Y-23140D01*
X31837Y-23141D01*
X31905Y-23136D01*
X31973Y-23125D01*
X32039Y-23108D01*
X32104Y-23085D01*
X32166Y-23056D01*
X32226Y-23023D01*
X32282Y-22984D01*
X32335Y-22941D01*
X32384Y-22893D01*
X32429Y-22840D01*
X32104Y-21625D02*
X32430Y-22842D01*
X32103Y-21626D02*
X32038Y-21603D01*
X31971Y-21586D01*
X31904Y-21575D01*
X31835Y-21570D01*
X31768Y-21571D01*
X31699Y-21578D01*
X31632Y-21590D01*
X31566Y-21609D01*
X31501Y-21633D01*
X31440Y-21663D01*
X31381Y-21698D01*
X31325Y-21738D01*
X31273Y-21783D01*
X31225Y-21832D01*
X31181Y-21885D01*
X31143Y-21942D01*
X31109Y-22002D01*
X31081Y-22064D01*
X31052Y-22559D02*
X31073Y-22624D01*
X31099Y-22688D01*
X31131Y-22748D01*
X31168Y-22806D01*
X31209Y-22861D01*
X31256Y-22911D01*
X31306Y-22958D01*
X31361Y-22999D01*
X31419Y-23036D01*
X31479Y-23068D01*
X31543Y-23094D01*
X31608Y-23115D01*
X31675Y-23130D01*
X31743Y-23139D01*
X31811Y-23142D01*
X31879Y-23139D01*
X31947Y-23130D01*
X32014Y-23115D01*
X31608Y-21597D02*
X31543Y-21618D01*
X31479Y-21644D01*
X31418Y-21676D01*
X31361Y-21713D01*
X31306Y-21754D01*
X31256Y-21801D01*
X31209Y-21851D01*
X31168Y-21906D01*
X31131Y-21963D01*
X31099Y-22024D01*
X31073Y-22088D01*
X31052Y-22153D01*
X31037Y-22220D01*
X31028Y-22288D01*
X31025Y-22356D01*
X31028Y-22424D01*
X31037Y-22492D01*
X31052Y-22559D01*
X20303Y-27680D02*
X20358Y-27720D01*
X20417Y-27755D01*
X20479Y-27784D01*
X20543Y-27809D01*
X20609Y-27827D01*
X20677Y-27840D01*
X20745Y-27846D01*
X20813Y-27847D01*
X20881Y-27842D01*
X20949Y-27831D01*
X21015Y-27814D01*
X21080Y-27791D01*
X21142Y-27762D01*
X21202Y-27729D01*
X21258Y-27690D01*
X21311Y-27647D01*
X21360Y-27599D01*
X21405Y-27546D01*
X21080Y-26331D02*
X21406Y-27548D01*
X21079Y-26332D02*
X21014Y-26309D01*
X20947Y-26292D01*
X20880Y-26281D01*
X20811Y-26276D01*
X20744Y-26277D01*
X20675Y-26284D01*
X20608Y-26296D01*
X20542Y-26315D01*
X20477Y-26339D01*
X20416Y-26369D01*
X20357Y-26404D01*
X20301Y-26444D01*
X20249Y-26489D01*
X20201Y-26538D01*
X20157Y-26591D01*
X20119Y-26648D01*
X20085Y-26708D01*
X20057Y-26770D01*
X20028Y-27265D02*
X20049Y-27330D01*
X20075Y-27394D01*
X20107Y-27454D01*
X20144Y-27512D01*
X20185Y-27567D01*
X20232Y-27617D01*
X20282Y-27664D01*
X20337Y-27705D01*
X20395Y-27742D01*
X20455Y-27774D01*
X20519Y-27800D01*
X20584Y-27821D01*
X20651Y-27836D01*
X20719Y-27845D01*
X20787Y-27848D01*
X20855Y-27845D01*
X20923Y-27836D01*
X20990Y-27821D01*
X20584Y-26303D02*
X20519Y-26324D01*
X20455Y-26350D01*
X20394Y-26382D01*
X20337Y-26419D01*
X20282Y-26460D01*
X20232Y-26507D01*
X20185Y-26557D01*
X20144Y-26612D01*
X20107Y-26669D01*
X20075Y-26730D01*
X20049Y-26794D01*
X20028Y-26859D01*
X20013Y-26926D01*
X20004Y-26994D01*
X20001Y-27062D01*
X20004Y-27130D01*
X20013Y-27198D01*
X20028Y-27265D01*
X31327Y-26111D02*
X31382Y-26151D01*
X31441Y-26186D01*
X31503Y-26215D01*
X31567Y-26240D01*
X31633Y-26258D01*
X31701Y-26271D01*
X31769Y-26277D01*
X31837Y-26278D01*
X31905Y-26273D01*
X31973Y-26262D01*
X32039Y-26245D01*
X32104Y-26222D01*
X32166Y-26193D01*
X32226Y-26160D01*
X32282Y-26121D01*
X32335Y-26078D01*
X32384Y-26030D01*
X32429Y-25977D01*
X32104Y-24762D02*
X32430Y-25979D01*
X32103Y-24763D02*
X32038Y-24740D01*
X31971Y-24723D01*
X31904Y-24712D01*
X31835Y-24707D01*
X31768Y-24708D01*
X31699Y-24715D01*
X31632Y-24727D01*
X31566Y-24746D01*
X31501Y-24770D01*
X31440Y-24800D01*
X31381Y-24835D01*
X31325Y-24875D01*
X31273Y-24920D01*
X31225Y-24969D01*
X31181Y-25022D01*
X31143Y-25079D01*
X31109Y-25139D01*
X31081Y-25201D01*
X31052Y-25696D02*
X31073Y-25761D01*
X31099Y-25825D01*
X31131Y-25885D01*
X31168Y-25943D01*
X31209Y-25998D01*
X31256Y-26048D01*
X31306Y-26095D01*
X31361Y-26136D01*
X31419Y-26173D01*
X31479Y-26205D01*
X31543Y-26231D01*
X31608Y-26252D01*
X31675Y-26267D01*
X31743Y-26276D01*
X31811Y-26279D01*
X31879Y-26276D01*
X31947Y-26267D01*
X32014Y-26252D01*
X31608Y-24734D02*
X31543Y-24755D01*
X31479Y-24781D01*
X31418Y-24813D01*
X31361Y-24850D01*
X31306Y-24891D01*
X31256Y-24938D01*
X31209Y-24988D01*
X31168Y-25043D01*
X31131Y-25100D01*
X31099Y-25161D01*
X31073Y-25225D01*
X31052Y-25290D01*
X31037Y-25357D01*
X31028Y-25425D01*
X31025Y-25493D01*
X31028Y-25561D01*
X31037Y-25629D01*
X31052Y-25696D01*
X29752Y-26111D02*
X29807Y-26151D01*
X29866Y-26186D01*
X29928Y-26215D01*
X29992Y-26240D01*
X30058Y-26258D01*
X30126Y-26271D01*
X30194Y-26277D01*
X30262Y-26278D01*
X30330Y-26273D01*
X30398Y-26262D01*
X30464Y-26245D01*
X30529Y-26222D01*
X30591Y-26193D01*
X30651Y-26160D01*
X30707Y-26121D01*
X30760Y-26078D01*
X30809Y-26030D01*
X30854Y-25977D01*
X30529Y-24762D02*
X30855Y-25979D01*
X30528Y-24763D02*
X30463Y-24740D01*
X30396Y-24723D01*
X30329Y-24712D01*
X30260Y-24707D01*
X30193Y-24708D01*
X30124Y-24715D01*
X30057Y-24727D01*
X29991Y-24746D01*
X29926Y-24770D01*
X29865Y-24800D01*
X29806Y-24835D01*
X29750Y-24875D01*
X29698Y-24920D01*
X29650Y-24969D01*
X29606Y-25022D01*
X29568Y-25079D01*
X29534Y-25139D01*
X29506Y-25201D01*
X29477Y-25696D02*
X29498Y-25761D01*
X29524Y-25825D01*
X29556Y-25885D01*
X29593Y-25943D01*
X29634Y-25998D01*
X29681Y-26048D01*
X29731Y-26095D01*
X29786Y-26136D01*
X29844Y-26173D01*
X29904Y-26205D01*
X29968Y-26231D01*
X30033Y-26252D01*
X30100Y-26267D01*
X30168Y-26276D01*
X30236Y-26279D01*
X30304Y-26276D01*
X30372Y-26267D01*
X30439Y-26252D01*
X30033Y-24734D02*
X29968Y-24755D01*
X29904Y-24781D01*
X29843Y-24813D01*
X29786Y-24850D01*
X29731Y-24891D01*
X29681Y-24938D01*
X29634Y-24988D01*
X29593Y-25043D01*
X29556Y-25100D01*
X29524Y-25161D01*
X29498Y-25225D01*
X29477Y-25290D01*
X29462Y-25357D01*
X29453Y-25425D01*
X29450Y-25493D01*
X29453Y-25561D01*
X29462Y-25629D01*
X29477Y-25696D01*
X28177Y-26111D02*
X28232Y-26151D01*
X28291Y-26186D01*
X28353Y-26215D01*
X28417Y-26240D01*
X28483Y-26258D01*
X28551Y-26271D01*
X28619Y-26277D01*
X28687Y-26278D01*
X28755Y-26273D01*
X28823Y-26262D01*
X28889Y-26245D01*
X28954Y-26222D01*
X29016Y-26193D01*
X29076Y-26160D01*
X29132Y-26121D01*
X29185Y-26078D01*
X29234Y-26030D01*
X29279Y-25977D01*
X28954Y-24762D02*
X29280Y-25979D01*
X28953Y-24763D02*
X28888Y-24740D01*
X28821Y-24723D01*
X28754Y-24712D01*
X28685Y-24707D01*
X28618Y-24708D01*
X28549Y-24715D01*
X28482Y-24727D01*
X28416Y-24746D01*
X28351Y-24770D01*
X28290Y-24800D01*
X28231Y-24835D01*
X28175Y-24875D01*
X28123Y-24920D01*
X28075Y-24969D01*
X28031Y-25022D01*
X27993Y-25079D01*
X27959Y-25139D01*
X27931Y-25201D01*
X27902Y-25696D02*
X27923Y-25761D01*
X27949Y-25825D01*
X27981Y-25885D01*
X28018Y-25943D01*
X28059Y-25998D01*
X28106Y-26048D01*
X28156Y-26095D01*
X28211Y-26136D01*
X28269Y-26173D01*
X28329Y-26205D01*
X28393Y-26231D01*
X28458Y-26252D01*
X28525Y-26267D01*
X28593Y-26276D01*
X28661Y-26279D01*
X28729Y-26276D01*
X28797Y-26267D01*
X28864Y-26252D01*
X28458Y-24734D02*
X28393Y-24755D01*
X28329Y-24781D01*
X28268Y-24813D01*
X28211Y-24850D01*
X28156Y-24891D01*
X28106Y-24938D01*
X28059Y-24988D01*
X28018Y-25043D01*
X27981Y-25100D01*
X27949Y-25161D01*
X27923Y-25225D01*
X27902Y-25290D01*
X27887Y-25357D01*
X27878Y-25425D01*
X27875Y-25493D01*
X27878Y-25561D01*
X27887Y-25629D01*
X27902Y-25696D01*
X26603Y-26111D02*
X26658Y-26151D01*
X26717Y-26186D01*
X26779Y-26215D01*
X26843Y-26240D01*
X26909Y-26258D01*
X26977Y-26271D01*
X27045Y-26277D01*
X27113Y-26278D01*
X27181Y-26273D01*
X27249Y-26262D01*
X27315Y-26245D01*
X27380Y-26222D01*
X27442Y-26193D01*
X27502Y-26160D01*
X27558Y-26121D01*
X27611Y-26078D01*
X27660Y-26030D01*
X27705Y-25977D01*
X27380Y-24762D02*
X27706Y-25979D01*
X27379Y-24763D02*
X27314Y-24740D01*
X27247Y-24723D01*
X27180Y-24712D01*
X27111Y-24707D01*
X27044Y-24708D01*
X26975Y-24715D01*
X26908Y-24727D01*
X26842Y-24746D01*
X26777Y-24770D01*
X26716Y-24800D01*
X26657Y-24835D01*
X26601Y-24875D01*
X26549Y-24920D01*
X26501Y-24969D01*
X26457Y-25022D01*
X26419Y-25079D01*
X26385Y-25139D01*
X26357Y-25201D01*
X26328Y-25696D02*
X26349Y-25761D01*
X26375Y-25825D01*
X26407Y-25885D01*
X26444Y-25943D01*
X26485Y-25998D01*
X26532Y-26048D01*
X26582Y-26095D01*
X26637Y-26136D01*
X26695Y-26173D01*
X26755Y-26205D01*
X26819Y-26231D01*
X26884Y-26252D01*
X26951Y-26267D01*
X27019Y-26276D01*
X27087Y-26279D01*
X27155Y-26276D01*
X27223Y-26267D01*
X27290Y-26252D01*
X26884Y-24734D02*
X26819Y-24755D01*
X26755Y-24781D01*
X26694Y-24813D01*
X26637Y-24850D01*
X26582Y-24891D01*
X26532Y-24938D01*
X26485Y-24988D01*
X26444Y-25043D01*
X26407Y-25100D01*
X26375Y-25161D01*
X26349Y-25225D01*
X26328Y-25290D01*
X26313Y-25357D01*
X26304Y-25425D01*
X26301Y-25493D01*
X26304Y-25561D01*
X26313Y-25629D01*
X26328Y-25696D01*
X25028Y-26111D02*
X25083Y-26151D01*
X25142Y-26186D01*
X25204Y-26215D01*
X25268Y-26240D01*
X25334Y-26258D01*
X25402Y-26271D01*
X25470Y-26277D01*
X25538Y-26278D01*
X25606Y-26273D01*
X25674Y-26262D01*
X25740Y-26245D01*
X25805Y-26222D01*
X25867Y-26193D01*
X25927Y-26160D01*
X25983Y-26121D01*
X26036Y-26078D01*
X26085Y-26030D01*
X26130Y-25977D01*
X25805Y-24762D02*
X26131Y-25979D01*
X25804Y-24763D02*
X25739Y-24740D01*
X25672Y-24723D01*
X25605Y-24712D01*
X25536Y-24707D01*
X25469Y-24708D01*
X25400Y-24715D01*
X25333Y-24727D01*
X25267Y-24746D01*
X25202Y-24770D01*
X25141Y-24800D01*
X25082Y-24835D01*
X25026Y-24875D01*
X24974Y-24920D01*
X24926Y-24969D01*
X24882Y-25022D01*
X24844Y-25079D01*
X24810Y-25139D01*
X24782Y-25201D01*
X24753Y-25696D02*
X24774Y-25761D01*
X24800Y-25825D01*
X24832Y-25885D01*
X24869Y-25943D01*
X24910Y-25998D01*
X24957Y-26048D01*
X25007Y-26095D01*
X25062Y-26136D01*
X25120Y-26173D01*
X25180Y-26205D01*
X25244Y-26231D01*
X25309Y-26252D01*
X25376Y-26267D01*
X25444Y-26276D01*
X25512Y-26279D01*
X25580Y-26276D01*
X25648Y-26267D01*
X25715Y-26252D01*
X25309Y-24734D02*
X25244Y-24755D01*
X25180Y-24781D01*
X25119Y-24813D01*
X25062Y-24850D01*
X25007Y-24891D01*
X24957Y-24938D01*
X24910Y-24988D01*
X24869Y-25043D01*
X24832Y-25100D01*
X24800Y-25161D01*
X24774Y-25225D01*
X24753Y-25290D01*
X24738Y-25357D01*
X24729Y-25425D01*
X24726Y-25493D01*
X24729Y-25561D01*
X24738Y-25629D01*
X24753Y-25696D01*
X23453Y-26111D02*
X23508Y-26151D01*
X23567Y-26186D01*
X23629Y-26215D01*
X23693Y-26240D01*
X23759Y-26258D01*
X23827Y-26271D01*
X23895Y-26277D01*
X23963Y-26278D01*
X24031Y-26273D01*
X24099Y-26262D01*
X24165Y-26245D01*
X24230Y-26222D01*
X24292Y-26193D01*
X24352Y-26160D01*
X24408Y-26121D01*
X24461Y-26078D01*
X24510Y-26030D01*
X24555Y-25977D01*
X24230Y-24762D02*
X24556Y-25979D01*
X24229Y-24763D02*
X24164Y-24740D01*
X24097Y-24723D01*
X24030Y-24712D01*
X23961Y-24707D01*
X23894Y-24708D01*
X23825Y-24715D01*
X23758Y-24727D01*
X23692Y-24746D01*
X23627Y-24770D01*
X23566Y-24800D01*
X23507Y-24835D01*
X23451Y-24875D01*
X23399Y-24920D01*
X23351Y-24969D01*
X23307Y-25022D01*
X23269Y-25079D01*
X23235Y-25139D01*
X23207Y-25201D01*
X23178Y-25696D02*
X23199Y-25761D01*
X23225Y-25825D01*
X23257Y-25885D01*
X23294Y-25943D01*
X23335Y-25998D01*
X23382Y-26048D01*
X23432Y-26095D01*
X23487Y-26136D01*
X23545Y-26173D01*
X23605Y-26205D01*
X23669Y-26231D01*
X23734Y-26252D01*
X23801Y-26267D01*
X23869Y-26276D01*
X23937Y-26279D01*
X24005Y-26276D01*
X24073Y-26267D01*
X24140Y-26252D01*
X23734Y-24734D02*
X23669Y-24755D01*
X23605Y-24781D01*
X23544Y-24813D01*
X23487Y-24850D01*
X23432Y-24891D01*
X23382Y-24938D01*
X23335Y-24988D01*
X23294Y-25043D01*
X23257Y-25100D01*
X23225Y-25161D01*
X23199Y-25225D01*
X23178Y-25290D01*
X23163Y-25357D01*
X23154Y-25425D01*
X23151Y-25493D01*
X23154Y-25561D01*
X23163Y-25629D01*
X23178Y-25696D01*
X21878Y-26111D02*
X21933Y-26151D01*
X21992Y-26186D01*
X22054Y-26215D01*
X22118Y-26240D01*
X22184Y-26258D01*
X22252Y-26271D01*
X22320Y-26277D01*
X22388Y-26278D01*
X22456Y-26273D01*
X22524Y-26262D01*
X22590Y-26245D01*
X22655Y-26222D01*
X22717Y-26193D01*
X22777Y-26160D01*
X22833Y-26121D01*
X22886Y-26078D01*
X22935Y-26030D01*
X22980Y-25977D01*
X22655Y-24762D02*
X22981Y-25979D01*
X22654Y-24763D02*
X22589Y-24740D01*
X22522Y-24723D01*
X22455Y-24712D01*
X22386Y-24707D01*
X22319Y-24708D01*
X22250Y-24715D01*
X22183Y-24727D01*
X22117Y-24746D01*
X22052Y-24770D01*
X21991Y-24800D01*
X21932Y-24835D01*
X21876Y-24875D01*
X21824Y-24920D01*
X21776Y-24969D01*
X21732Y-25022D01*
X21694Y-25079D01*
X21660Y-25139D01*
X21632Y-25201D01*
X21603Y-25696D02*
X21624Y-25761D01*
X21650Y-25825D01*
X21682Y-25885D01*
X21719Y-25943D01*
X21760Y-25998D01*
X21807Y-26048D01*
X21857Y-26095D01*
X21912Y-26136D01*
X21970Y-26173D01*
X22030Y-26205D01*
X22094Y-26231D01*
X22159Y-26252D01*
X22226Y-26267D01*
X22294Y-26276D01*
X22362Y-26279D01*
X22430Y-26276D01*
X22498Y-26267D01*
X22565Y-26252D01*
X22159Y-24734D02*
X22094Y-24755D01*
X22030Y-24781D01*
X21969Y-24813D01*
X21912Y-24850D01*
X21857Y-24891D01*
X21807Y-24938D01*
X21760Y-24988D01*
X21719Y-25043D01*
X21682Y-25100D01*
X21650Y-25161D01*
X21624Y-25225D01*
X21603Y-25290D01*
X21588Y-25357D01*
X21579Y-25425D01*
X21576Y-25493D01*
X21579Y-25561D01*
X21588Y-25629D01*
X21603Y-25696D01*
X20303Y-26111D02*
X20358Y-26151D01*
X20417Y-26186D01*
X20479Y-26215D01*
X20543Y-26240D01*
X20609Y-26258D01*
X20677Y-26271D01*
X20745Y-26277D01*
X20813Y-26278D01*
X20881Y-26273D01*
X20949Y-26262D01*
X21015Y-26245D01*
X21080Y-26222D01*
X21142Y-26193D01*
X21202Y-26160D01*
X21258Y-26121D01*
X21311Y-26078D01*
X21360Y-26030D01*
X21405Y-25977D01*
X21080Y-24762D02*
X21406Y-25979D01*
X21079Y-24763D02*
X21014Y-24740D01*
X20947Y-24723D01*
X20880Y-24712D01*
X20811Y-24707D01*
X20744Y-24708D01*
X20675Y-24715D01*
X20608Y-24727D01*
X20542Y-24746D01*
X20477Y-24770D01*
X20416Y-24800D01*
X20357Y-24835D01*
X20301Y-24875D01*
X20249Y-24920D01*
X20201Y-24969D01*
X20157Y-25022D01*
X20119Y-25079D01*
X20085Y-25139D01*
X20057Y-25201D01*
X20028Y-25696D02*
X20049Y-25761D01*
X20075Y-25825D01*
X20107Y-25885D01*
X20144Y-25943D01*
X20185Y-25998D01*
X20232Y-26048D01*
X20282Y-26095D01*
X20337Y-26136D01*
X20395Y-26173D01*
X20455Y-26205D01*
X20519Y-26231D01*
X20584Y-26252D01*
X20651Y-26267D01*
X20719Y-26276D01*
X20787Y-26279D01*
X20855Y-26276D01*
X20923Y-26267D01*
X20990Y-26252D01*
X20584Y-24734D02*
X20519Y-24755D01*
X20455Y-24781D01*
X20394Y-24813D01*
X20337Y-24850D01*
X20282Y-24891D01*
X20232Y-24938D01*
X20185Y-24988D01*
X20144Y-25043D01*
X20107Y-25100D01*
X20075Y-25161D01*
X20049Y-25225D01*
X20028Y-25290D01*
X20013Y-25357D01*
X20004Y-25425D01*
X20001Y-25493D01*
X20004Y-25561D01*
X20013Y-25629D01*
X20028Y-25696D01*
X31327Y-24543D02*
X31382Y-24583D01*
X31441Y-24618D01*
X31503Y-24647D01*
X31567Y-24672D01*
X31633Y-24690D01*
X31701Y-24703D01*
X31769Y-24709D01*
X31837Y-24710D01*
X31905Y-24705D01*
X31973Y-24694D01*
X32039Y-24677D01*
X32104Y-24654D01*
X32166Y-24625D01*
X32226Y-24592D01*
X32282Y-24553D01*
X32335Y-24510D01*
X32384Y-24462D01*
X32429Y-24409D01*
X32104Y-23194D02*
X32430Y-24411D01*
X32103Y-23195D02*
X32038Y-23172D01*
X31971Y-23155D01*
X31904Y-23144D01*
X31835Y-23139D01*
X31768Y-23140D01*
X31699Y-23147D01*
X31632Y-23159D01*
X31566Y-23178D01*
X31501Y-23202D01*
X31440Y-23232D01*
X31381Y-23267D01*
X31325Y-23307D01*
X31273Y-23352D01*
X31225Y-23401D01*
X31181Y-23454D01*
X31143Y-23511D01*
X31109Y-23571D01*
X31081Y-23633D01*
X31052Y-24128D02*
X31073Y-24193D01*
X31099Y-24257D01*
X31131Y-24317D01*
X31168Y-24375D01*
X31209Y-24430D01*
X31256Y-24480D01*
X31306Y-24527D01*
X31361Y-24568D01*
X31419Y-24605D01*
X31479Y-24637D01*
X31543Y-24663D01*
X31608Y-24684D01*
X31675Y-24699D01*
X31743Y-24708D01*
X31811Y-24711D01*
X31879Y-24708D01*
X31947Y-24699D01*
X32014Y-24684D01*
X31608Y-23166D02*
X31543Y-23187D01*
X31479Y-23213D01*
X31418Y-23245D01*
X31361Y-23282D01*
X31306Y-23323D01*
X31256Y-23370D01*
X31209Y-23420D01*
X31168Y-23475D01*
X31131Y-23532D01*
X31099Y-23593D01*
X31073Y-23657D01*
X31052Y-23722D01*
X31037Y-23789D01*
X31028Y-23857D01*
X31025Y-23925D01*
X31028Y-23993D01*
X31037Y-24061D01*
X31052Y-24128D01*
X29752Y-24543D02*
X29807Y-24583D01*
X29866Y-24618D01*
X29928Y-24647D01*
X29992Y-24672D01*
X30058Y-24690D01*
X30126Y-24703D01*
X30194Y-24709D01*
X30262Y-24710D01*
X30330Y-24705D01*
X30398Y-24694D01*
X30464Y-24677D01*
X30529Y-24654D01*
X30591Y-24625D01*
X30651Y-24592D01*
X30707Y-24553D01*
X30760Y-24510D01*
X30809Y-24462D01*
X30854Y-24409D01*
X30529Y-23194D02*
X30855Y-24411D01*
X30528Y-23195D02*
X30463Y-23172D01*
X30396Y-23155D01*
X30329Y-23144D01*
X30260Y-23139D01*
X30193Y-23140D01*
X30124Y-23147D01*
X30057Y-23159D01*
X29991Y-23178D01*
X29926Y-23202D01*
X29865Y-23232D01*
X29806Y-23267D01*
X29750Y-23307D01*
X29698Y-23352D01*
X29650Y-23401D01*
X29606Y-23454D01*
X29568Y-23511D01*
X29534Y-23571D01*
X29506Y-23633D01*
X29477Y-24128D02*
X29498Y-24193D01*
X29524Y-24257D01*
X29556Y-24317D01*
X29593Y-24375D01*
X29634Y-24430D01*
X29681Y-24480D01*
X29731Y-24527D01*
X29786Y-24568D01*
X29844Y-24605D01*
X29904Y-24637D01*
X29968Y-24663D01*
X30033Y-24684D01*
X30100Y-24699D01*
X30168Y-24708D01*
X30236Y-24711D01*
X30304Y-24708D01*
X30372Y-24699D01*
X30439Y-24684D01*
X30033Y-23166D02*
X29968Y-23187D01*
X29904Y-23213D01*
X29843Y-23245D01*
X29786Y-23282D01*
X29731Y-23323D01*
X29681Y-23370D01*
X29634Y-23420D01*
X29593Y-23475D01*
X29556Y-23532D01*
X29524Y-23593D01*
X29498Y-23657D01*
X29477Y-23722D01*
X29462Y-23789D01*
X29453Y-23857D01*
X29450Y-23925D01*
X29453Y-23993D01*
X29462Y-24061D01*
X29477Y-24128D01*
X28177Y-24543D02*
X28232Y-24583D01*
X28291Y-24618D01*
X28353Y-24647D01*
X28417Y-24672D01*
X28483Y-24690D01*
X28551Y-24703D01*
X28619Y-24709D01*
X28687Y-24710D01*
X28755Y-24705D01*
X28823Y-24694D01*
X28889Y-24677D01*
X28954Y-24654D01*
X29016Y-24625D01*
X29076Y-24592D01*
X29132Y-24553D01*
X29185Y-24510D01*
X29234Y-24462D01*
X29279Y-24409D01*
X28954Y-23194D02*
X29280Y-24411D01*
X28953Y-23195D02*
X28888Y-23172D01*
X28821Y-23155D01*
X28754Y-23144D01*
X28685Y-23139D01*
X28618Y-23140D01*
X28549Y-23147D01*
X28482Y-23159D01*
X28416Y-23178D01*
X28351Y-23202D01*
X28290Y-23232D01*
X28231Y-23267D01*
X28175Y-23307D01*
X28123Y-23352D01*
X28075Y-23401D01*
X28031Y-23454D01*
X27993Y-23511D01*
X27959Y-23571D01*
X27931Y-23633D01*
X27902Y-24128D02*
X27923Y-24193D01*
X27949Y-24257D01*
X27981Y-24317D01*
X28018Y-24375D01*
X28059Y-24430D01*
X28106Y-24480D01*
X28156Y-24527D01*
X28211Y-24568D01*
X28269Y-24605D01*
X28329Y-24637D01*
X28393Y-24663D01*
X28458Y-24684D01*
X28525Y-24699D01*
X28593Y-24708D01*
X28661Y-24711D01*
X28729Y-24708D01*
X28797Y-24699D01*
X28864Y-24684D01*
X28458Y-23166D02*
X28393Y-23187D01*
X28329Y-23213D01*
X28268Y-23245D01*
X28211Y-23282D01*
X28156Y-23323D01*
X28106Y-23370D01*
X28059Y-23420D01*
X28018Y-23475D01*
X27981Y-23532D01*
X27949Y-23593D01*
X27923Y-23657D01*
X27902Y-23722D01*
X27887Y-23789D01*
X27878Y-23857D01*
X27875Y-23925D01*
X27878Y-23993D01*
X27887Y-24061D01*
X27902Y-24128D01*
X26603Y-24543D02*
X26658Y-24583D01*
X26717Y-24618D01*
X26779Y-24647D01*
X26843Y-24672D01*
X26909Y-24690D01*
X26977Y-24703D01*
X27045Y-24709D01*
X27113Y-24710D01*
X27181Y-24705D01*
X27249Y-24694D01*
X27315Y-24677D01*
X27380Y-24654D01*
X27442Y-24625D01*
X27502Y-24592D01*
X27558Y-24553D01*
X27611Y-24510D01*
X27660Y-24462D01*
X27705Y-24409D01*
X27380Y-23194D02*
X27706Y-24411D01*
X27379Y-23195D02*
X27314Y-23172D01*
X27247Y-23155D01*
X27180Y-23144D01*
X27111Y-23139D01*
X27044Y-23140D01*
X26975Y-23147D01*
X26908Y-23159D01*
X26842Y-23178D01*
X26777Y-23202D01*
X26716Y-23232D01*
X26657Y-23267D01*
X26601Y-23307D01*
X26549Y-23352D01*
X26501Y-23401D01*
X26457Y-23454D01*
X26419Y-23511D01*
X26385Y-23571D01*
X26357Y-23633D01*
X26328Y-24128D02*
X26349Y-24193D01*
X26375Y-24257D01*
X26407Y-24317D01*
X26444Y-24375D01*
X26485Y-24430D01*
X26532Y-24480D01*
X26582Y-24527D01*
X26637Y-24568D01*
X26695Y-24605D01*
X26755Y-24637D01*
X26819Y-24663D01*
X26884Y-24684D01*
X26951Y-24699D01*
X27019Y-24708D01*
X27087Y-24711D01*
X27155Y-24708D01*
X27223Y-24699D01*
X27290Y-24684D01*
X26884Y-23166D02*
X26819Y-23187D01*
X26755Y-23213D01*
X26694Y-23245D01*
X26637Y-23282D01*
X26582Y-23323D01*
X26532Y-23370D01*
X26485Y-23420D01*
X26444Y-23475D01*
X26407Y-23532D01*
X26375Y-23593D01*
X26349Y-23657D01*
X26328Y-23722D01*
X26313Y-23789D01*
X26304Y-23857D01*
X26301Y-23925D01*
X26304Y-23993D01*
X26313Y-24061D01*
X26328Y-24128D01*
X25028Y-24543D02*
X25083Y-24583D01*
X25142Y-24618D01*
X25204Y-24647D01*
X25268Y-24672D01*
X25334Y-24690D01*
X25402Y-24703D01*
X25470Y-24709D01*
X25538Y-24710D01*
X25606Y-24705D01*
X25674Y-24694D01*
X25740Y-24677D01*
X25805Y-24654D01*
X25867Y-24625D01*
X25927Y-24592D01*
X25983Y-24553D01*
X26036Y-24510D01*
X26085Y-24462D01*
X26130Y-24409D01*
X25805Y-23194D02*
X26131Y-24411D01*
X25804Y-23195D02*
X25739Y-23172D01*
X25672Y-23155D01*
X25605Y-23144D01*
X25536Y-23139D01*
X25469Y-23140D01*
X25400Y-23147D01*
X25333Y-23159D01*
X25267Y-23178D01*
X25202Y-23202D01*
X25141Y-23232D01*
X25082Y-23267D01*
X25026Y-23307D01*
X24974Y-23352D01*
X24926Y-23401D01*
X24882Y-23454D01*
X24844Y-23511D01*
X24810Y-23571D01*
X24782Y-23633D01*
X24753Y-24128D02*
X24774Y-24193D01*
X24800Y-24257D01*
X24832Y-24317D01*
X24869Y-24375D01*
X24910Y-24430D01*
X24957Y-24480D01*
X25007Y-24527D01*
X25062Y-24568D01*
X25120Y-24605D01*
X25180Y-24637D01*
X25244Y-24663D01*
X25309Y-24684D01*
X25376Y-24699D01*
X25444Y-24708D01*
X25512Y-24711D01*
X25580Y-24708D01*
X25648Y-24699D01*
X25715Y-24684D01*
X25309Y-23166D02*
X25244Y-23187D01*
X25180Y-23213D01*
X25119Y-23245D01*
X25062Y-23282D01*
X25007Y-23323D01*
X24957Y-23370D01*
X24910Y-23420D01*
X24869Y-23475D01*
X24832Y-23532D01*
X24800Y-23593D01*
X24774Y-23657D01*
X24753Y-23722D01*
X24738Y-23789D01*
X24729Y-23857D01*
X24726Y-23925D01*
X24729Y-23993D01*
X24738Y-24061D01*
X24753Y-24128D01*
X23453Y-24543D02*
X23508Y-24583D01*
X23567Y-24618D01*
X23629Y-24647D01*
X23693Y-24672D01*
X23759Y-24690D01*
X23827Y-24703D01*
X23895Y-24709D01*
X23963Y-24710D01*
X24031Y-24705D01*
X24099Y-24694D01*
X24165Y-24677D01*
X24230Y-24654D01*
X24292Y-24625D01*
X24352Y-24592D01*
X24408Y-24553D01*
X24461Y-24510D01*
X24510Y-24462D01*
X24555Y-24409D01*
X24230Y-23194D02*
X24556Y-24411D01*
X24229Y-23195D02*
X24164Y-23172D01*
X24097Y-23155D01*
X24030Y-23144D01*
X23961Y-23139D01*
X23894Y-23140D01*
X23825Y-23147D01*
X23758Y-23159D01*
X23692Y-23178D01*
X23627Y-23202D01*
X23566Y-23232D01*
X23507Y-23267D01*
X23451Y-23307D01*
X23399Y-23352D01*
X23351Y-23401D01*
X23307Y-23454D01*
X23269Y-23511D01*
X23235Y-23571D01*
X23207Y-23633D01*
X23178Y-24128D02*
X23199Y-24193D01*
X23225Y-24257D01*
X23257Y-24317D01*
X23294Y-24375D01*
X23335Y-24430D01*
X23382Y-24480D01*
X23432Y-24527D01*
X23487Y-24568D01*
X23545Y-24605D01*
X23605Y-24637D01*
X23669Y-24663D01*
X23734Y-24684D01*
X23801Y-24699D01*
X23869Y-24708D01*
X23937Y-24711D01*
X24005Y-24708D01*
X24073Y-24699D01*
X24140Y-24684D01*
X23734Y-23166D02*
X23669Y-23187D01*
X23605Y-23213D01*
X23544Y-23245D01*
X23487Y-23282D01*
X23432Y-23323D01*
X23382Y-23370D01*
X23335Y-23420D01*
X23294Y-23475D01*
X23257Y-23532D01*
X23225Y-23593D01*
X23199Y-23657D01*
X23178Y-23722D01*
X23163Y-23789D01*
X23154Y-23857D01*
X23151Y-23925D01*
X23154Y-23993D01*
X23163Y-24061D01*
X23178Y-24128D01*
X21878Y-24543D02*
X21933Y-24583D01*
X21992Y-24618D01*
X22054Y-24647D01*
X22118Y-24672D01*
X22184Y-24690D01*
X22252Y-24703D01*
X22320Y-24709D01*
X22388Y-24710D01*
X22456Y-24705D01*
X22524Y-24694D01*
X22590Y-24677D01*
X22655Y-24654D01*
X22717Y-24625D01*
X22777Y-24592D01*
X22833Y-24553D01*
X22886Y-24510D01*
X22935Y-24462D01*
X22980Y-24409D01*
X22655Y-23194D02*
X22981Y-24411D01*
X22654Y-23195D02*
X22589Y-23172D01*
X22522Y-23155D01*
X22455Y-23144D01*
X22386Y-23139D01*
X22319Y-23140D01*
X22250Y-23147D01*
X22183Y-23159D01*
X22117Y-23178D01*
X22052Y-23202D01*
X21991Y-23232D01*
X21932Y-23267D01*
X21876Y-23307D01*
X21824Y-23352D01*
X21776Y-23401D01*
X21732Y-23454D01*
X21694Y-23511D01*
X21660Y-23571D01*
X21632Y-23633D01*
X21603Y-24128D02*
X21624Y-24193D01*
X21650Y-24257D01*
X21682Y-24317D01*
X21719Y-24375D01*
X21760Y-24430D01*
X21807Y-24480D01*
X21857Y-24527D01*
X21912Y-24568D01*
X21970Y-24605D01*
X22030Y-24637D01*
X22094Y-24663D01*
X22159Y-24684D01*
X22226Y-24699D01*
X22294Y-24708D01*
X22362Y-24711D01*
X22430Y-24708D01*
X22498Y-24699D01*
X22565Y-24684D01*
X22159Y-23166D02*
X22094Y-23187D01*
X22030Y-23213D01*
X21969Y-23245D01*
X21912Y-23282D01*
X21857Y-23323D01*
X21807Y-23370D01*
X21760Y-23420D01*
X21719Y-23475D01*
X21682Y-23532D01*
X21650Y-23593D01*
X21624Y-23657D01*
X21603Y-23722D01*
X21588Y-23789D01*
X21579Y-23857D01*
X21576Y-23925D01*
X21579Y-23993D01*
X21588Y-24061D01*
X21603Y-24128D01*
X20303Y-24543D02*
X20358Y-24583D01*
X20417Y-24618D01*
X20479Y-24647D01*
X20543Y-24672D01*
X20609Y-24690D01*
X20677Y-24703D01*
X20745Y-24709D01*
X20813Y-24710D01*
X20881Y-24705D01*
X20949Y-24694D01*
X21015Y-24677D01*
X21080Y-24654D01*
X21142Y-24625D01*
X21202Y-24592D01*
X21258Y-24553D01*
X21311Y-24510D01*
X21360Y-24462D01*
X21405Y-24409D01*
X21080Y-23194D02*
X21406Y-24411D01*
X21079Y-23195D02*
X21014Y-23172D01*
X20947Y-23155D01*
X20880Y-23144D01*
X20811Y-23139D01*
X20744Y-23140D01*
X20675Y-23147D01*
X20608Y-23159D01*
X20542Y-23178D01*
X20477Y-23202D01*
X20416Y-23232D01*
X20357Y-23267D01*
X20301Y-23307D01*
X20249Y-23352D01*
X20201Y-23401D01*
X20157Y-23454D01*
X20119Y-23511D01*
X20085Y-23571D01*
X20057Y-23633D01*
X20028Y-24128D02*
X20049Y-24193D01*
X20075Y-24257D01*
X20107Y-24317D01*
X20144Y-24375D01*
X20185Y-24430D01*
X20232Y-24480D01*
X20282Y-24527D01*
X20337Y-24568D01*
X20395Y-24605D01*
X20455Y-24637D01*
X20519Y-24663D01*
X20584Y-24684D01*
X20651Y-24699D01*
X20719Y-24708D01*
X20787Y-24711D01*
X20855Y-24708D01*
X20923Y-24699D01*
X20990Y-24684D01*
X20584Y-23166D02*
X20519Y-23187D01*
X20455Y-23213D01*
X20394Y-23245D01*
X20337Y-23282D01*
X20282Y-23323D01*
X20232Y-23370D01*
X20185Y-23420D01*
X20144Y-23475D01*
X20107Y-23532D01*
X20075Y-23593D01*
X20049Y-23657D01*
X20028Y-23722D01*
X20013Y-23789D01*
X20004Y-23857D01*
X20001Y-23925D01*
X20004Y-23993D01*
X20013Y-24061D01*
X20028Y-24128D01*
G54D12*
X31493Y-28845D02*
X31415Y-28556D01*
X31485Y-28537D01*
X31530Y-28540D01*
X31564Y-28560D01*
X31586Y-28584D01*
X31615Y-28636D01*
X31626Y-28677D01*
X31627Y-28736D01*
X31620Y-28768D01*
X31600Y-28802D01*
X31562Y-28827D01*
X31493Y-28845D01*
X31855Y-28541D02*
X31907Y-28734D01*
X31757Y-28449D02*
X31743Y-28675D01*
X31923Y-28627D01*
X32056Y-28517D02*
X32025Y-28511D01*
X32007Y-28500D01*
X31986Y-28477D01*
X31983Y-28464D01*
X31989Y-28432D01*
X32000Y-28415D01*
X32023Y-28393D01*
X32078Y-28378D01*
X32110Y-28385D01*
X32127Y-28395D01*
X32149Y-28419D01*
X32152Y-28433D01*
X32145Y-28463D01*
X32136Y-28482D01*
X32111Y-28503D01*
X32056Y-28517D01*
X32033Y-28538D01*
X32022Y-28557D01*
X32016Y-28587D01*
X32031Y-28642D01*
X32052Y-28667D01*
X32070Y-28676D01*
X32100Y-28683D01*
X32155Y-28668D01*
X32180Y-28647D01*
X32190Y-28630D01*
X32197Y-28598D01*
X32182Y-28543D01*
X32160Y-28520D01*
X32143Y-28509D01*
X32111Y-28503D01*
X29918Y-28845D02*
X29840Y-28556D01*
X29910Y-28537D01*
X29955Y-28540D01*
X29989Y-28560D01*
X30011Y-28584D01*
X30040Y-28636D01*
X30051Y-28677D01*
X30052Y-28736D01*
X30045Y-28768D01*
X30025Y-28802D01*
X29987Y-28827D01*
X29918Y-28845D01*
X30280Y-28541D02*
X30332Y-28734D01*
X30182Y-28449D02*
X30168Y-28675D01*
X30348Y-28627D01*
X30379Y-28411D02*
X30572Y-28359D01*
X30525Y-28683D01*
X28343Y-28845D02*
X28265Y-28556D01*
X28335Y-28537D01*
X28380Y-28540D01*
X28414Y-28560D01*
X28436Y-28584D01*
X28465Y-28636D01*
X28476Y-28677D01*
X28477Y-28736D01*
X28470Y-28768D01*
X28450Y-28802D01*
X28412Y-28827D01*
X28343Y-28845D01*
X28705Y-28541D02*
X28757Y-28734D01*
X28607Y-28449D02*
X28593Y-28675D01*
X28773Y-28627D01*
X28956Y-28371D02*
X28901Y-28385D01*
X28877Y-28407D01*
X28867Y-28424D01*
X28850Y-28473D01*
X28851Y-28532D01*
X28881Y-28642D01*
X28902Y-28667D01*
X28920Y-28676D01*
X28950Y-28683D01*
X29005Y-28668D01*
X29030Y-28647D01*
X29040Y-28630D01*
X29047Y-28598D01*
X29028Y-28529D01*
X29006Y-28505D01*
X28989Y-28495D01*
X28957Y-28489D01*
X28902Y-28504D01*
X28879Y-28525D01*
X28868Y-28542D01*
X28862Y-28574D01*
X26769Y-28845D02*
X26691Y-28556D01*
X26761Y-28537D01*
X26806Y-28540D01*
X26840Y-28560D01*
X26862Y-28584D01*
X26891Y-28636D01*
X26902Y-28677D01*
X26903Y-28736D01*
X26896Y-28768D01*
X26876Y-28802D01*
X26838Y-28827D01*
X26769Y-28845D01*
X27131Y-28541D02*
X27183Y-28734D01*
X27033Y-28449D02*
X27019Y-28675D01*
X27199Y-28627D01*
X27395Y-28367D02*
X27257Y-28404D01*
X27281Y-28546D01*
X27291Y-28529D01*
X27315Y-28507D01*
X27383Y-28489D01*
X27415Y-28495D01*
X27432Y-28505D01*
X27454Y-28529D01*
X27473Y-28598D01*
X27466Y-28630D01*
X27456Y-28647D01*
X27431Y-28668D01*
X27363Y-28686D01*
X27331Y-28680D01*
X27314Y-28670D01*
X25194Y-28845D02*
X25116Y-28556D01*
X25186Y-28537D01*
X25231Y-28540D01*
X25265Y-28560D01*
X25287Y-28584D01*
X25316Y-28636D01*
X25327Y-28677D01*
X25328Y-28736D01*
X25321Y-28768D01*
X25301Y-28802D01*
X25263Y-28827D01*
X25194Y-28845D01*
X25556Y-28541D02*
X25608Y-28734D01*
X25458Y-28449D02*
X25444Y-28675D01*
X25624Y-28627D01*
X25833Y-28467D02*
X25884Y-28660D01*
X25735Y-28375D02*
X25720Y-28601D01*
X25900Y-28553D01*
X23619Y-28845D02*
X23541Y-28556D01*
X23611Y-28537D01*
X23656Y-28540D01*
X23690Y-28560D01*
X23712Y-28584D01*
X23741Y-28636D01*
X23752Y-28677D01*
X23753Y-28736D01*
X23746Y-28768D01*
X23726Y-28802D01*
X23688Y-28827D01*
X23619Y-28845D01*
X23981Y-28541D02*
X24033Y-28734D01*
X23883Y-28449D02*
X23869Y-28675D01*
X24049Y-28627D01*
X24080Y-28411D02*
X24260Y-28363D01*
X24193Y-28500D01*
X24233Y-28489D01*
X24265Y-28495D01*
X24282Y-28505D01*
X24304Y-28529D01*
X24323Y-28598D01*
X24316Y-28630D01*
X24306Y-28647D01*
X24281Y-28668D01*
X24199Y-28690D01*
X24168Y-28684D01*
X24150Y-28674D01*
X22044Y-28845D02*
X21966Y-28556D01*
X22036Y-28537D01*
X22081Y-28540D01*
X22115Y-28560D01*
X22137Y-28584D01*
X22166Y-28636D01*
X22177Y-28677D01*
X22178Y-28736D01*
X22171Y-28768D01*
X22151Y-28802D01*
X22113Y-28827D01*
X22044Y-28845D01*
X22406Y-28541D02*
X22458Y-28734D01*
X22308Y-28449D02*
X22294Y-28675D01*
X22474Y-28627D01*
X22526Y-28436D02*
X22536Y-28418D01*
X22560Y-28396D01*
X22629Y-28378D01*
X22661Y-28385D01*
X22678Y-28395D01*
X22700Y-28419D01*
X22707Y-28446D01*
X22704Y-28491D01*
X22583Y-28701D01*
X22762Y-28653D01*
X20469Y-28845D02*
X20391Y-28556D01*
X20461Y-28537D01*
X20506Y-28540D01*
X20540Y-28560D01*
X20562Y-28584D01*
X20591Y-28636D01*
X20602Y-28677D01*
X20603Y-28736D01*
X20596Y-28768D01*
X20576Y-28802D01*
X20538Y-28827D01*
X20469Y-28845D01*
X20831Y-28541D02*
X20883Y-28734D01*
X20733Y-28449D02*
X20719Y-28675D01*
X20899Y-28627D01*
X21187Y-28653D02*
X21021Y-28697D01*
X21104Y-28675D02*
X21027Y-28385D01*
X21010Y-28434D01*
X20990Y-28470D01*
X20966Y-28491D01*
X31493Y-27276D02*
X31415Y-26987D01*
X31485Y-26968D01*
X31530Y-26971D01*
X31564Y-26991D01*
X31586Y-27015D01*
X31615Y-27067D01*
X31626Y-27108D01*
X31627Y-27167D01*
X31620Y-27199D01*
X31600Y-27233D01*
X31562Y-27258D01*
X31493Y-27276D01*
X31855Y-26972D02*
X31907Y-27165D01*
X31757Y-26880D02*
X31743Y-27106D01*
X31923Y-27058D01*
X32037Y-26820D02*
X32064Y-26813D01*
X32096Y-26820D01*
X32113Y-26830D01*
X32134Y-26854D01*
X32164Y-26905D01*
X32182Y-26974D01*
X32182Y-27033D01*
X32176Y-27064D01*
X32166Y-27081D01*
X32142Y-27102D01*
X32115Y-27110D01*
X32083Y-27104D01*
X32066Y-27094D01*
X32044Y-27070D01*
X32016Y-27018D01*
X31997Y-26950D01*
X31996Y-26891D01*
X32003Y-26859D01*
X32013Y-26842D01*
X32037Y-26820D01*
X29918Y-27276D02*
X29840Y-26987D01*
X29910Y-26968D01*
X29955Y-26971D01*
X29989Y-26991D01*
X30011Y-27015D01*
X30040Y-27067D01*
X30051Y-27108D01*
X30052Y-27167D01*
X30045Y-27199D01*
X30025Y-27233D01*
X29987Y-27258D01*
X29918Y-27276D01*
X30103Y-26916D02*
X30283Y-26868D01*
X30216Y-27005D01*
X30256Y-26994D01*
X30288Y-27000D01*
X30305Y-27010D01*
X30327Y-27034D01*
X30345Y-27103D01*
X30338Y-27135D01*
X30329Y-27152D01*
X30304Y-27173D01*
X30222Y-27195D01*
X30190Y-27189D01*
X30173Y-27179D01*
X30498Y-27121D02*
X30553Y-27106D01*
X30577Y-27085D01*
X30588Y-27068D01*
X30604Y-27019D01*
X30603Y-26960D01*
X30574Y-26850D01*
X30552Y-26826D01*
X30535Y-26816D01*
X30503Y-26809D01*
X30448Y-26824D01*
X30425Y-26846D01*
X30414Y-26863D01*
X30408Y-26895D01*
X30426Y-26963D01*
X30447Y-26988D01*
X30465Y-26997D01*
X30496Y-27003D01*
X30551Y-26989D01*
X30575Y-26968D01*
X30585Y-26951D01*
X30592Y-26919D01*
X28343Y-27276D02*
X28265Y-26987D01*
X28335Y-26968D01*
X28380Y-26971D01*
X28414Y-26991D01*
X28436Y-27015D01*
X28465Y-27067D01*
X28476Y-27108D01*
X28477Y-27167D01*
X28470Y-27199D01*
X28450Y-27233D01*
X28412Y-27258D01*
X28343Y-27276D01*
X28528Y-26916D02*
X28708Y-26868D01*
X28641Y-27005D01*
X28681Y-26994D01*
X28713Y-27000D01*
X28730Y-27010D01*
X28752Y-27034D01*
X28770Y-27103D01*
X28763Y-27135D01*
X28754Y-27152D01*
X28729Y-27173D01*
X28647Y-27195D01*
X28615Y-27189D01*
X28598Y-27179D01*
X28906Y-26948D02*
X28875Y-26942D01*
X28857Y-26931D01*
X28836Y-26908D01*
X28833Y-26895D01*
X28839Y-26863D01*
X28850Y-26846D01*
X28873Y-26824D01*
X28928Y-26809D01*
X28960Y-26816D01*
X28977Y-26826D01*
X28999Y-26850D01*
X29002Y-26864D01*
X28995Y-26894D01*
X28986Y-26913D01*
X28961Y-26934D01*
X28906Y-26948D01*
X28883Y-26969D01*
X28872Y-26988D01*
X28866Y-27018D01*
X28881Y-27073D01*
X28902Y-27098D01*
X28920Y-27107D01*
X28950Y-27114D01*
X29005Y-27099D01*
X29030Y-27078D01*
X29040Y-27061D01*
X29047Y-27029D01*
X29032Y-26974D01*
X29010Y-26951D01*
X28993Y-26940D01*
X28961Y-26934D01*
X26769Y-27276D02*
X26691Y-26987D01*
X26761Y-26968D01*
X26806Y-26971D01*
X26840Y-26991D01*
X26862Y-27015D01*
X26891Y-27067D01*
X26902Y-27108D01*
X26903Y-27167D01*
X26896Y-27199D01*
X26876Y-27233D01*
X26838Y-27258D01*
X26769Y-27276D01*
X26954Y-26916D02*
X27134Y-26868D01*
X27067Y-27005D01*
X27107Y-26994D01*
X27139Y-27000D01*
X27156Y-27010D01*
X27178Y-27034D01*
X27196Y-27103D01*
X27189Y-27135D01*
X27180Y-27152D01*
X27155Y-27173D01*
X27073Y-27195D01*
X27041Y-27189D01*
X27024Y-27179D01*
X27230Y-26842D02*
X27423Y-26790D01*
X27376Y-27114D01*
X25194Y-27276D02*
X25116Y-26987D01*
X25186Y-26968D01*
X25231Y-26971D01*
X25265Y-26991D01*
X25287Y-27015D01*
X25316Y-27067D01*
X25327Y-27108D01*
X25328Y-27167D01*
X25321Y-27199D01*
X25301Y-27233D01*
X25263Y-27258D01*
X25194Y-27276D01*
X25379Y-26916D02*
X25559Y-26868D01*
X25492Y-27005D01*
X25532Y-26994D01*
X25564Y-27000D01*
X25581Y-27010D01*
X25603Y-27034D01*
X25621Y-27103D01*
X25614Y-27135D01*
X25605Y-27152D01*
X25580Y-27173D01*
X25498Y-27195D01*
X25466Y-27189D01*
X25449Y-27179D01*
X25807Y-26802D02*
X25752Y-26816D01*
X25728Y-26838D01*
X25718Y-26855D01*
X25701Y-26904D01*
X25702Y-26963D01*
X25732Y-27073D01*
X25753Y-27098D01*
X25771Y-27107D01*
X25801Y-27114D01*
X25856Y-27099D01*
X25881Y-27078D01*
X25891Y-27061D01*
X25898Y-27029D01*
X25879Y-26960D01*
X25857Y-26936D01*
X25840Y-26926D01*
X25808Y-26920D01*
X25753Y-26935D01*
X25730Y-26956D01*
X25719Y-26973D01*
X25713Y-27005D01*
X23619Y-27276D02*
X23541Y-26987D01*
X23611Y-26968D01*
X23656Y-26971D01*
X23690Y-26991D01*
X23712Y-27015D01*
X23741Y-27067D01*
X23752Y-27108D01*
X23753Y-27167D01*
X23746Y-27199D01*
X23726Y-27233D01*
X23688Y-27258D01*
X23619Y-27276D01*
X23804Y-26916D02*
X23984Y-26868D01*
X23917Y-27005D01*
X23957Y-26994D01*
X23989Y-27000D01*
X24006Y-27010D01*
X24028Y-27034D01*
X24046Y-27103D01*
X24039Y-27135D01*
X24030Y-27152D01*
X24005Y-27173D01*
X23923Y-27195D01*
X23891Y-27189D01*
X23874Y-27179D01*
X24245Y-26798D02*
X24107Y-26835D01*
X24131Y-26977D01*
X24141Y-26960D01*
X24165Y-26938D01*
X24233Y-26920D01*
X24265Y-26926D01*
X24282Y-26936D01*
X24304Y-26960D01*
X24323Y-27029D01*
X24316Y-27061D01*
X24306Y-27078D01*
X24281Y-27099D01*
X24213Y-27117D01*
X24181Y-27111D01*
X24164Y-27101D01*
X22044Y-27276D02*
X21966Y-26987D01*
X22036Y-26968D01*
X22081Y-26971D01*
X22115Y-26991D01*
X22137Y-27015D01*
X22166Y-27067D01*
X22177Y-27108D01*
X22178Y-27167D01*
X22171Y-27199D01*
X22151Y-27233D01*
X22113Y-27258D01*
X22044Y-27276D01*
X22229Y-26916D02*
X22409Y-26868D01*
X22342Y-27005D01*
X22382Y-26994D01*
X22414Y-27000D01*
X22431Y-27010D01*
X22453Y-27034D01*
X22471Y-27103D01*
X22464Y-27135D01*
X22455Y-27152D01*
X22430Y-27173D01*
X22348Y-27195D01*
X22316Y-27189D01*
X22299Y-27179D01*
X22683Y-26898D02*
X22734Y-27091D01*
X22585Y-26806D02*
X22570Y-27032D01*
X22750Y-26984D01*
X20469Y-30413D02*
X20391Y-30124D01*
X20461Y-30105D01*
X20506Y-30108D01*
X20540Y-30128D01*
X20562Y-30152D01*
X20591Y-30204D01*
X20602Y-30245D01*
X20603Y-30304D01*
X20596Y-30336D01*
X20576Y-30370D01*
X20538Y-30395D01*
X20469Y-30413D01*
X20831Y-30109D02*
X20883Y-30302D01*
X20733Y-30017D02*
X20719Y-30243D01*
X20899Y-30195D01*
X21049Y-30258D02*
X21104Y-30243D01*
X21128Y-30222D01*
X21139Y-30205D01*
X21155Y-30156D01*
X21154Y-30097D01*
X21125Y-29987D01*
X21103Y-29963D01*
X21086Y-29953D01*
X21054Y-29946D01*
X20999Y-29961D01*
X20976Y-29983D01*
X20965Y-30000D01*
X20959Y-30032D01*
X20977Y-30100D01*
X20998Y-30125D01*
X21016Y-30134D01*
X21047Y-30140D01*
X21102Y-30126D01*
X21126Y-30105D01*
X21136Y-30088D01*
X21143Y-30056D01*
X22044Y-30413D02*
X21966Y-30124D01*
X22036Y-30105D01*
X22081Y-30108D01*
X22115Y-30128D01*
X22137Y-30152D01*
X22166Y-30204D01*
X22177Y-30245D01*
X22178Y-30304D01*
X22171Y-30336D01*
X22151Y-30370D01*
X22113Y-30395D01*
X22044Y-30413D01*
X22394Y-30009D02*
X22256Y-30046D01*
X22279Y-30188D01*
X22289Y-30171D01*
X22314Y-30149D01*
X22382Y-30131D01*
X22414Y-30137D01*
X22431Y-30147D01*
X22453Y-30171D01*
X22471Y-30240D01*
X22464Y-30272D01*
X22455Y-30289D01*
X22430Y-30310D01*
X22362Y-30328D01*
X22330Y-30322D01*
X22313Y-30312D01*
X22588Y-29957D02*
X22615Y-29950D01*
X22647Y-29957D01*
X22664Y-29967D01*
X22685Y-29991D01*
X22715Y-30042D01*
X22733Y-30111D01*
X22733Y-30170D01*
X22727Y-30201D01*
X22717Y-30218D01*
X22693Y-30239D01*
X22666Y-30247D01*
X22634Y-30241D01*
X22617Y-30231D01*
X22595Y-30207D01*
X22567Y-30155D01*
X22548Y-30087D01*
X22547Y-30028D01*
X22554Y-29996D01*
X22564Y-29979D01*
X22588Y-29957D01*
X23619Y-30413D02*
X23541Y-30124D01*
X23611Y-30105D01*
X23656Y-30108D01*
X23690Y-30128D01*
X23712Y-30152D01*
X23741Y-30204D01*
X23752Y-30245D01*
X23753Y-30304D01*
X23746Y-30336D01*
X23726Y-30370D01*
X23688Y-30395D01*
X23619Y-30413D01*
X23969Y-30009D02*
X23831Y-30046D01*
X23854Y-30188D01*
X23864Y-30171D01*
X23889Y-30149D01*
X23957Y-30131D01*
X23989Y-30137D01*
X24006Y-30147D01*
X24028Y-30171D01*
X24046Y-30240D01*
X24039Y-30272D01*
X24030Y-30289D01*
X24005Y-30310D01*
X23937Y-30328D01*
X23905Y-30322D01*
X23888Y-30312D01*
X24337Y-30221D02*
X24171Y-30265D01*
X24254Y-30243D02*
X24177Y-29953D01*
X24160Y-30002D01*
X24140Y-30038D01*
X24116Y-30059D01*
X25194Y-30413D02*
X25116Y-30124D01*
X25186Y-30105D01*
X25231Y-30108D01*
X25265Y-30128D01*
X25287Y-30152D01*
X25316Y-30204D01*
X25327Y-30245D01*
X25328Y-30304D01*
X25321Y-30336D01*
X25301Y-30370D01*
X25263Y-30395D01*
X25194Y-30413D01*
X25544Y-30009D02*
X25406Y-30046D01*
X25429Y-30188D01*
X25439Y-30171D01*
X25464Y-30149D01*
X25532Y-30131D01*
X25564Y-30137D01*
X25581Y-30147D01*
X25603Y-30171D01*
X25621Y-30240D01*
X25614Y-30272D01*
X25605Y-30289D01*
X25580Y-30310D01*
X25512Y-30328D01*
X25480Y-30322D01*
X25463Y-30312D01*
X25676Y-30004D02*
X25686Y-29986D01*
X25710Y-29964D01*
X25779Y-29946D01*
X25811Y-29953D01*
X25828Y-29963D01*
X25850Y-29987D01*
X25857Y-30014D01*
X25854Y-30059D01*
X25733Y-30269D01*
X25912Y-30221D01*
X26769Y-30413D02*
X26691Y-30124D01*
X26761Y-30105D01*
X26806Y-30108D01*
X26840Y-30128D01*
X26862Y-30152D01*
X26891Y-30204D01*
X26902Y-30245D01*
X26903Y-30304D01*
X26896Y-30336D01*
X26876Y-30370D01*
X26838Y-30395D01*
X26769Y-30413D01*
X27119Y-30009D02*
X26981Y-30046D01*
X27004Y-30188D01*
X27014Y-30171D01*
X27039Y-30149D01*
X27107Y-30131D01*
X27139Y-30137D01*
X27156Y-30147D01*
X27178Y-30171D01*
X27196Y-30240D01*
X27189Y-30272D01*
X27180Y-30289D01*
X27155Y-30310D01*
X27087Y-30328D01*
X27055Y-30322D01*
X27038Y-30312D01*
X27230Y-29979D02*
X27410Y-29931D01*
X27343Y-30068D01*
X27383Y-30057D01*
X27415Y-30063D01*
X27432Y-30073D01*
X27454Y-30097D01*
X27473Y-30166D01*
X27466Y-30198D01*
X27456Y-30215D01*
X27431Y-30236D01*
X27349Y-30258D01*
X27318Y-30252D01*
X27300Y-30242D01*
X28343Y-30413D02*
X28265Y-30124D01*
X28335Y-30105D01*
X28380Y-30108D01*
X28414Y-30128D01*
X28436Y-30152D01*
X28465Y-30204D01*
X28476Y-30245D01*
X28477Y-30304D01*
X28470Y-30336D01*
X28450Y-30370D01*
X28412Y-30395D01*
X28343Y-30413D01*
X28693Y-30009D02*
X28555Y-30046D01*
X28578Y-30188D01*
X28588Y-30171D01*
X28613Y-30149D01*
X28681Y-30131D01*
X28713Y-30137D01*
X28730Y-30147D01*
X28752Y-30171D01*
X28770Y-30240D01*
X28763Y-30272D01*
X28754Y-30289D01*
X28729Y-30310D01*
X28661Y-30328D01*
X28629Y-30322D01*
X28612Y-30312D01*
X28982Y-30035D02*
X29033Y-30228D01*
X28884Y-29943D02*
X28869Y-30169D01*
X29049Y-30121D01*
X29918Y-30413D02*
X29840Y-30124D01*
X29910Y-30105D01*
X29955Y-30108D01*
X29989Y-30128D01*
X30011Y-30152D01*
X30040Y-30204D01*
X30051Y-30245D01*
X30052Y-30304D01*
X30045Y-30336D01*
X30025Y-30370D01*
X29987Y-30395D01*
X29918Y-30413D01*
X30268Y-30009D02*
X30130Y-30046D01*
X30153Y-30188D01*
X30163Y-30171D01*
X30188Y-30149D01*
X30256Y-30131D01*
X30288Y-30137D01*
X30305Y-30147D01*
X30327Y-30171D01*
X30345Y-30240D01*
X30338Y-30272D01*
X30329Y-30289D01*
X30304Y-30310D01*
X30236Y-30328D01*
X30204Y-30322D01*
X30187Y-30312D01*
X30544Y-29935D02*
X30406Y-29972D01*
X30430Y-30114D01*
X30440Y-30097D01*
X30464Y-30075D01*
X30532Y-30057D01*
X30564Y-30063D01*
X30581Y-30073D01*
X30603Y-30097D01*
X30622Y-30166D01*
X30615Y-30198D01*
X30605Y-30215D01*
X30580Y-30236D01*
X30512Y-30254D01*
X30480Y-30248D01*
X30463Y-30238D01*
X31493Y-30413D02*
X31415Y-30124D01*
X31485Y-30105D01*
X31530Y-30108D01*
X31564Y-30128D01*
X31586Y-30152D01*
X31615Y-30204D01*
X31626Y-30245D01*
X31627Y-30304D01*
X31620Y-30336D01*
X31600Y-30370D01*
X31562Y-30395D01*
X31493Y-30413D01*
X31843Y-30009D02*
X31705Y-30046D01*
X31728Y-30188D01*
X31738Y-30171D01*
X31763Y-30149D01*
X31831Y-30131D01*
X31863Y-30137D01*
X31880Y-30147D01*
X31902Y-30171D01*
X31920Y-30240D01*
X31913Y-30272D01*
X31904Y-30289D01*
X31879Y-30310D01*
X31811Y-30328D01*
X31779Y-30322D01*
X31762Y-30312D01*
X32106Y-29939D02*
X32051Y-29953D01*
X32027Y-29975D01*
X32017Y-29992D01*
X32000Y-30041D01*
X32001Y-30100D01*
X32031Y-30210D01*
X32052Y-30235D01*
X32070Y-30244D01*
X32100Y-30251D01*
X32155Y-30236D01*
X32180Y-30215D01*
X32190Y-30198D01*
X32197Y-30166D01*
X32178Y-30097D01*
X32156Y-30073D01*
X32139Y-30063D01*
X32107Y-30057D01*
X32052Y-30072D01*
X32029Y-30093D01*
X32018Y-30110D01*
X32012Y-30142D01*
X20469Y-31982D02*
X20391Y-31693D01*
X20461Y-31674D01*
X20506Y-31677D01*
X20540Y-31697D01*
X20562Y-31721D01*
X20591Y-31773D01*
X20602Y-31814D01*
X20603Y-31873D01*
X20596Y-31905D01*
X20576Y-31939D01*
X20538Y-31964D01*
X20469Y-31982D01*
X20819Y-31578D02*
X20681Y-31615D01*
X20704Y-31757D01*
X20714Y-31740D01*
X20739Y-31718D01*
X20807Y-31700D01*
X20839Y-31706D01*
X20856Y-31716D01*
X20878Y-31740D01*
X20896Y-31809D01*
X20889Y-31841D01*
X20880Y-31858D01*
X20855Y-31879D01*
X20787Y-31897D01*
X20755Y-31891D01*
X20738Y-31881D01*
X20930Y-31548D02*
X21123Y-31496D01*
X21076Y-31820D01*
X22044Y-31982D02*
X21966Y-31693D01*
X22036Y-31674D01*
X22081Y-31677D01*
X22115Y-31697D01*
X22137Y-31721D01*
X22166Y-31773D01*
X22177Y-31814D01*
X22178Y-31873D01*
X22171Y-31905D01*
X22151Y-31939D01*
X22113Y-31964D01*
X22044Y-31982D01*
X22394Y-31578D02*
X22256Y-31615D01*
X22279Y-31757D01*
X22289Y-31740D01*
X22314Y-31718D01*
X22382Y-31700D01*
X22414Y-31706D01*
X22431Y-31716D01*
X22453Y-31740D01*
X22471Y-31809D01*
X22464Y-31841D01*
X22455Y-31858D01*
X22430Y-31879D01*
X22362Y-31897D01*
X22330Y-31891D01*
X22313Y-31881D01*
X22607Y-31654D02*
X22576Y-31648D01*
X22558Y-31637D01*
X22537Y-31614D01*
X22534Y-31601D01*
X22540Y-31569D01*
X22551Y-31552D01*
X22574Y-31530D01*
X22629Y-31515D01*
X22661Y-31522D01*
X22678Y-31532D01*
X22700Y-31556D01*
X22703Y-31570D01*
X22696Y-31600D01*
X22687Y-31619D01*
X22662Y-31640D01*
X22607Y-31654D01*
X22584Y-31675D01*
X22573Y-31694D01*
X22567Y-31724D01*
X22582Y-31779D01*
X22603Y-31804D01*
X22621Y-31813D01*
X22651Y-31820D01*
X22706Y-31805D01*
X22731Y-31784D01*
X22741Y-31767D01*
X22748Y-31735D01*
X22733Y-31680D01*
X22711Y-31657D01*
X22694Y-31646D01*
X22662Y-31640D01*
X23619Y-31982D02*
X23541Y-31693D01*
X23611Y-31674D01*
X23656Y-31677D01*
X23690Y-31697D01*
X23712Y-31721D01*
X23741Y-31773D01*
X23752Y-31814D01*
X23753Y-31873D01*
X23746Y-31905D01*
X23726Y-31939D01*
X23688Y-31964D01*
X23619Y-31982D01*
X23969Y-31578D02*
X23831Y-31615D01*
X23854Y-31757D01*
X23864Y-31740D01*
X23889Y-31718D01*
X23957Y-31700D01*
X23989Y-31706D01*
X24006Y-31716D01*
X24028Y-31740D01*
X24046Y-31809D01*
X24039Y-31841D01*
X24030Y-31858D01*
X24005Y-31879D01*
X23937Y-31897D01*
X23905Y-31891D01*
X23888Y-31881D01*
X24199Y-31827D02*
X24254Y-31812D01*
X24278Y-31791D01*
X24289Y-31774D01*
X24305Y-31725D01*
X24304Y-31666D01*
X24275Y-31556D01*
X24253Y-31532D01*
X24236Y-31522D01*
X24204Y-31515D01*
X24149Y-31530D01*
X24126Y-31552D01*
X24115Y-31569D01*
X24109Y-31601D01*
X24127Y-31669D01*
X24148Y-31694D01*
X24166Y-31703D01*
X24197Y-31709D01*
X24252Y-31695D01*
X24276Y-31674D01*
X24286Y-31657D01*
X24293Y-31625D01*
X25194Y-31982D02*
X25116Y-31693D01*
X25186Y-31674D01*
X25231Y-31677D01*
X25265Y-31697D01*
X25287Y-31721D01*
X25316Y-31773D01*
X25327Y-31814D01*
X25328Y-31873D01*
X25321Y-31905D01*
X25301Y-31939D01*
X25263Y-31964D01*
X25194Y-31982D01*
X25530Y-31582D02*
X25475Y-31596D01*
X25451Y-31618D01*
X25441Y-31635D01*
X25425Y-31684D01*
X25426Y-31743D01*
X25455Y-31853D01*
X25476Y-31878D01*
X25494Y-31887D01*
X25525Y-31894D01*
X25580Y-31879D01*
X25605Y-31858D01*
X25614Y-31841D01*
X25621Y-31809D01*
X25603Y-31740D01*
X25581Y-31716D01*
X25564Y-31706D01*
X25532Y-31700D01*
X25477Y-31715D01*
X25454Y-31736D01*
X25443Y-31753D01*
X25437Y-31785D01*
X25738Y-31526D02*
X25765Y-31519D01*
X25797Y-31526D01*
X25814Y-31536D01*
X25835Y-31560D01*
X25865Y-31611D01*
X25883Y-31680D01*
X25883Y-31739D01*
X25877Y-31770D01*
X25867Y-31787D01*
X25843Y-31808D01*
X25816Y-31816D01*
X25784Y-31810D01*
X25767Y-31800D01*
X25745Y-31776D01*
X25717Y-31724D01*
X25698Y-31656D01*
X25697Y-31597D01*
X25704Y-31565D01*
X25714Y-31548D01*
X25738Y-31526D01*
X26769Y-31982D02*
X26691Y-31693D01*
X26761Y-31674D01*
X26806Y-31677D01*
X26840Y-31697D01*
X26862Y-31721D01*
X26891Y-31773D01*
X26902Y-31814D01*
X26903Y-31873D01*
X26896Y-31905D01*
X26876Y-31939D01*
X26838Y-31964D01*
X26769Y-31982D01*
X27105Y-31582D02*
X27050Y-31596D01*
X27026Y-31618D01*
X27016Y-31635D01*
X27000Y-31684D01*
X27001Y-31743D01*
X27030Y-31853D01*
X27051Y-31878D01*
X27069Y-31887D01*
X27100Y-31894D01*
X27155Y-31879D01*
X27180Y-31858D01*
X27189Y-31841D01*
X27196Y-31809D01*
X27178Y-31740D01*
X27156Y-31716D01*
X27139Y-31706D01*
X27107Y-31700D01*
X27052Y-31715D01*
X27029Y-31736D01*
X27018Y-31753D01*
X27012Y-31785D01*
X27487Y-31790D02*
X27321Y-31834D01*
X27404Y-31812D02*
X27327Y-31522D01*
X27310Y-31571D01*
X27290Y-31607D01*
X27266Y-31628D01*
X28343Y-31982D02*
X28265Y-31693D01*
X28335Y-31674D01*
X28380Y-31677D01*
X28414Y-31697D01*
X28436Y-31721D01*
X28465Y-31773D01*
X28476Y-31814D01*
X28477Y-31873D01*
X28470Y-31905D01*
X28450Y-31939D01*
X28412Y-31964D01*
X28343Y-31982D01*
X28679Y-31582D02*
X28624Y-31596D01*
X28600Y-31618D01*
X28590Y-31635D01*
X28574Y-31684D01*
X28575Y-31743D01*
X28604Y-31853D01*
X28625Y-31878D01*
X28643Y-31887D01*
X28674Y-31894D01*
X28729Y-31879D01*
X28754Y-31858D01*
X28763Y-31841D01*
X28770Y-31809D01*
X28752Y-31740D01*
X28730Y-31716D01*
X28713Y-31706D01*
X28681Y-31700D01*
X28626Y-31715D01*
X28603Y-31736D01*
X28592Y-31753D01*
X28586Y-31785D01*
X28825Y-31573D02*
X28835Y-31555D01*
X28859Y-31533D01*
X28928Y-31515D01*
X28960Y-31522D01*
X28977Y-31532D01*
X28999Y-31556D01*
X29006Y-31583D01*
X29003Y-31628D01*
X28882Y-31838D01*
X29061Y-31790D01*
X29918Y-31982D02*
X29840Y-31693D01*
X29910Y-31674D01*
X29955Y-31677D01*
X29989Y-31697D01*
X30011Y-31721D01*
X30040Y-31773D01*
X30051Y-31814D01*
X30052Y-31873D01*
X30045Y-31905D01*
X30025Y-31939D01*
X29987Y-31964D01*
X29918Y-31982D01*
X30254Y-31582D02*
X30199Y-31596D01*
X30175Y-31618D01*
X30165Y-31635D01*
X30149Y-31684D01*
X30150Y-31743D01*
X30179Y-31853D01*
X30200Y-31878D01*
X30218Y-31887D01*
X30249Y-31894D01*
X30304Y-31879D01*
X30329Y-31858D01*
X30338Y-31841D01*
X30345Y-31809D01*
X30327Y-31740D01*
X30305Y-31716D01*
X30288Y-31706D01*
X30256Y-31700D01*
X30201Y-31715D01*
X30178Y-31736D01*
X30167Y-31753D01*
X30161Y-31785D01*
X30379Y-31548D02*
X30559Y-31500D01*
X30492Y-31637D01*
X30532Y-31626D01*
X30564Y-31632D01*
X30581Y-31642D01*
X30603Y-31666D01*
X30622Y-31735D01*
X30615Y-31767D01*
X30605Y-31784D01*
X30580Y-31805D01*
X30498Y-31827D01*
X30467Y-31821D01*
X30449Y-31811D01*
X31493Y-31982D02*
X31415Y-31693D01*
X31485Y-31674D01*
X31530Y-31677D01*
X31564Y-31697D01*
X31586Y-31721D01*
X31615Y-31773D01*
X31626Y-31814D01*
X31627Y-31873D01*
X31620Y-31905D01*
X31600Y-31939D01*
X31562Y-31964D01*
X31493Y-31982D01*
X31829Y-31582D02*
X31774Y-31596D01*
X31750Y-31618D01*
X31740Y-31635D01*
X31724Y-31684D01*
X31725Y-31743D01*
X31754Y-31853D01*
X31775Y-31878D01*
X31793Y-31887D01*
X31824Y-31894D01*
X31879Y-31879D01*
X31904Y-31858D01*
X31913Y-31841D01*
X31920Y-31809D01*
X31902Y-31740D01*
X31880Y-31716D01*
X31863Y-31706D01*
X31831Y-31700D01*
X31776Y-31715D01*
X31753Y-31736D01*
X31742Y-31753D01*
X31736Y-31785D01*
X32132Y-31604D02*
X32183Y-31797D01*
X32034Y-31512D02*
X32019Y-31738D01*
X32199Y-31690D01*
X20607Y-20964D02*
X20529Y-20675D01*
X20599Y-20656D01*
X20644Y-20659D01*
X20678Y-20679D01*
X20700Y-20703D01*
X20729Y-20755D01*
X20740Y-20796D01*
X20741Y-20855D01*
X20734Y-20887D01*
X20714Y-20921D01*
X20676Y-20946D01*
X20607Y-20964D01*
X21049Y-20846D02*
X20883Y-20890D01*
X20966Y-20868D02*
X20889Y-20578D01*
X20872Y-20627D01*
X20852Y-20663D01*
X20828Y-20684D01*
X22182Y-20964D02*
X22104Y-20675D01*
X22174Y-20656D01*
X22219Y-20659D01*
X22253Y-20679D01*
X22275Y-20703D01*
X22304Y-20755D01*
X22315Y-20796D01*
X22316Y-20855D01*
X22309Y-20887D01*
X22289Y-20921D01*
X22251Y-20946D01*
X22182Y-20964D01*
X22388Y-20629D02*
X22398Y-20611D01*
X22422Y-20589D01*
X22491Y-20571D01*
X22523Y-20578D01*
X22540Y-20588D01*
X22562Y-20612D01*
X22569Y-20639D01*
X22566Y-20685D01*
X22445Y-20894D01*
X22624Y-20846D01*
X23757Y-20964D02*
X23679Y-20675D01*
X23749Y-20656D01*
X23794Y-20659D01*
X23828Y-20679D01*
X23850Y-20703D01*
X23879Y-20755D01*
X23890Y-20796D01*
X23891Y-20855D01*
X23884Y-20887D01*
X23864Y-20921D01*
X23826Y-20946D01*
X23757Y-20964D01*
X23942Y-20604D02*
X24122Y-20556D01*
X24055Y-20693D01*
X24095Y-20682D01*
X24127Y-20688D01*
X24144Y-20698D01*
X24166Y-20722D01*
X24185Y-20791D01*
X24178Y-20823D01*
X24168Y-20840D01*
X24143Y-20861D01*
X24061Y-20883D01*
X24030Y-20877D01*
X24012Y-20867D01*
X25332Y-20964D02*
X25254Y-20675D01*
X25324Y-20656D01*
X25369Y-20659D01*
X25403Y-20679D01*
X25425Y-20703D01*
X25454Y-20755D01*
X25465Y-20796D01*
X25466Y-20855D01*
X25459Y-20887D01*
X25439Y-20921D01*
X25401Y-20946D01*
X25332Y-20964D01*
X25694Y-20660D02*
X25746Y-20853D01*
X25596Y-20568D02*
X25582Y-20794D01*
X25762Y-20746D01*
X26907Y-20964D02*
X26829Y-20675D01*
X26899Y-20656D01*
X26944Y-20659D01*
X26978Y-20679D01*
X27000Y-20703D01*
X27029Y-20755D01*
X27040Y-20796D01*
X27041Y-20855D01*
X27034Y-20887D01*
X27014Y-20921D01*
X26976Y-20946D01*
X26907Y-20964D01*
X27257Y-20560D02*
X27119Y-20597D01*
X27143Y-20739D01*
X27152Y-20722D01*
X27177Y-20700D01*
X27245Y-20682D01*
X27277Y-20688D01*
X27294Y-20698D01*
X27316Y-20722D01*
X27335Y-20791D01*
X27328Y-20823D01*
X27318Y-20840D01*
X27293Y-20861D01*
X27225Y-20879D01*
X27193Y-20873D01*
X27176Y-20863D01*
X28481Y-20964D02*
X28403Y-20675D01*
X28473Y-20656D01*
X28518Y-20659D01*
X28552Y-20679D01*
X28574Y-20703D01*
X28603Y-20755D01*
X28614Y-20796D01*
X28615Y-20855D01*
X28608Y-20887D01*
X28588Y-20921D01*
X28550Y-20946D01*
X28481Y-20964D01*
X28818Y-20564D02*
X28763Y-20578D01*
X28738Y-20600D01*
X28729Y-20617D01*
X28712Y-20666D01*
X28713Y-20725D01*
X28742Y-20835D01*
X28763Y-20860D01*
X28782Y-20869D01*
X28812Y-20876D01*
X28867Y-20861D01*
X28892Y-20840D01*
X28902Y-20823D01*
X28909Y-20791D01*
X28890Y-20722D01*
X28868Y-20698D01*
X28851Y-20688D01*
X28819Y-20682D01*
X28764Y-20697D01*
X28741Y-20718D01*
X28730Y-20735D01*
X28724Y-20767D01*
X30056Y-20964D02*
X29978Y-20675D01*
X30048Y-20656D01*
X30093Y-20659D01*
X30127Y-20679D01*
X30149Y-20703D01*
X30178Y-20755D01*
X30189Y-20796D01*
X30190Y-20855D01*
X30183Y-20887D01*
X30163Y-20921D01*
X30125Y-20946D01*
X30056Y-20964D01*
X30241Y-20604D02*
X30434Y-20552D01*
X30387Y-20876D01*
X31631Y-20964D02*
X31553Y-20675D01*
X31623Y-20656D01*
X31668Y-20659D01*
X31702Y-20679D01*
X31724Y-20703D01*
X31753Y-20755D01*
X31764Y-20796D01*
X31765Y-20855D01*
X31758Y-20887D01*
X31738Y-20921D01*
X31700Y-20946D01*
X31631Y-20964D01*
X31918Y-20710D02*
X31887Y-20704D01*
X31869Y-20694D01*
X31848Y-20670D01*
X31845Y-20657D01*
X31851Y-20625D01*
X31861Y-20608D01*
X31885Y-20586D01*
X31940Y-20571D01*
X31972Y-20578D01*
X31989Y-20588D01*
X32011Y-20612D01*
X32014Y-20626D01*
X32007Y-20656D01*
X31997Y-20675D01*
X31973Y-20696D01*
X31918Y-20710D01*
X31895Y-20731D01*
X31884Y-20750D01*
X31878Y-20780D01*
X31892Y-20835D01*
X31913Y-20860D01*
X31932Y-20869D01*
X31962Y-20876D01*
X32017Y-20861D01*
X32042Y-20840D01*
X32052Y-20823D01*
X32059Y-20791D01*
X32044Y-20736D01*
X32022Y-20713D01*
X32005Y-20702D01*
X31973Y-20696D01*
X20607Y-22533D02*
X20529Y-22244D01*
X20599Y-22225D01*
X20644Y-22228D01*
X20678Y-22248D01*
X20700Y-22272D01*
X20729Y-22324D01*
X20740Y-22365D01*
X20741Y-22424D01*
X20734Y-22456D01*
X20714Y-22490D01*
X20676Y-22515D01*
X20607Y-22533D01*
X20911Y-22452D02*
X20966Y-22437D01*
X20990Y-22416D01*
X21000Y-22399D01*
X21016Y-22350D01*
X21016Y-22291D01*
X20987Y-22181D01*
X20965Y-22157D01*
X20948Y-22147D01*
X20916Y-22140D01*
X20861Y-22155D01*
X20837Y-22177D01*
X20827Y-22194D01*
X20821Y-22226D01*
X20839Y-22294D01*
X20860Y-22319D01*
X20878Y-22328D01*
X20909Y-22334D01*
X20964Y-22320D01*
X20988Y-22299D01*
X20998Y-22282D01*
X21005Y-22250D01*
X22044Y-22570D02*
X21966Y-22281D01*
X22036Y-22262D01*
X22081Y-22265D01*
X22115Y-22285D01*
X22137Y-22309D01*
X22166Y-22361D01*
X22177Y-22402D01*
X22178Y-22461D01*
X22171Y-22493D01*
X22151Y-22527D01*
X22113Y-22552D01*
X22044Y-22570D01*
X22486Y-22452D02*
X22320Y-22496D01*
X22403Y-22474D02*
X22325Y-22184D01*
X22309Y-22233D01*
X22289Y-22269D01*
X22265Y-22290D01*
X22588Y-22114D02*
X22615Y-22107D01*
X22647Y-22114D01*
X22664Y-22124D01*
X22685Y-22148D01*
X22715Y-22199D01*
X22733Y-22268D01*
X22733Y-22327D01*
X22727Y-22358D01*
X22717Y-22375D01*
X22693Y-22396D01*
X22666Y-22404D01*
X22634Y-22398D01*
X22617Y-22388D01*
X22595Y-22364D01*
X22567Y-22312D01*
X22548Y-22244D01*
X22547Y-22185D01*
X22554Y-22153D01*
X22564Y-22136D01*
X22588Y-22114D01*
X23619Y-22570D02*
X23541Y-22281D01*
X23611Y-22262D01*
X23656Y-22265D01*
X23690Y-22285D01*
X23712Y-22309D01*
X23741Y-22361D01*
X23752Y-22402D01*
X23753Y-22461D01*
X23746Y-22493D01*
X23726Y-22527D01*
X23688Y-22552D01*
X23619Y-22570D01*
X24061Y-22452D02*
X23895Y-22496D01*
X23978Y-22474D02*
X23900Y-22184D01*
X23884Y-22233D01*
X23864Y-22269D01*
X23840Y-22290D01*
X24337Y-22378D02*
X24171Y-22422D01*
X24254Y-22400D02*
X24177Y-22110D01*
X24160Y-22159D01*
X24140Y-22195D01*
X24116Y-22216D01*
X25194Y-22570D02*
X25116Y-22281D01*
X25186Y-22262D01*
X25231Y-22265D01*
X25265Y-22285D01*
X25287Y-22309D01*
X25316Y-22361D01*
X25327Y-22402D01*
X25328Y-22461D01*
X25321Y-22493D01*
X25301Y-22527D01*
X25263Y-22552D01*
X25194Y-22570D01*
X25636Y-22452D02*
X25470Y-22496D01*
X25553Y-22474D02*
X25475Y-22184D01*
X25459Y-22233D01*
X25439Y-22269D01*
X25415Y-22290D01*
X25676Y-22161D02*
X25686Y-22143D01*
X25710Y-22121D01*
X25779Y-22103D01*
X25811Y-22110D01*
X25828Y-22120D01*
X25850Y-22144D01*
X25857Y-22171D01*
X25854Y-22216D01*
X25733Y-22426D01*
X25912Y-22378D01*
X26769Y-22570D02*
X26691Y-22281D01*
X26761Y-22262D01*
X26806Y-22265D01*
X26840Y-22285D01*
X26862Y-22309D01*
X26891Y-22361D01*
X26902Y-22402D01*
X26903Y-22461D01*
X26896Y-22493D01*
X26876Y-22527D01*
X26838Y-22552D01*
X26769Y-22570D01*
X27211Y-22452D02*
X27045Y-22496D01*
X27128Y-22474D02*
X27050Y-22184D01*
X27034Y-22233D01*
X27014Y-22269D01*
X26990Y-22290D01*
X27230Y-22136D02*
X27410Y-22088D01*
X27343Y-22225D01*
X27383Y-22214D01*
X27415Y-22220D01*
X27432Y-22230D01*
X27454Y-22254D01*
X27473Y-22323D01*
X27466Y-22355D01*
X27456Y-22372D01*
X27431Y-22393D01*
X27349Y-22415D01*
X27318Y-22409D01*
X27300Y-22399D01*
X28343Y-22570D02*
X28265Y-22281D01*
X28335Y-22262D01*
X28380Y-22265D01*
X28414Y-22285D01*
X28436Y-22309D01*
X28465Y-22361D01*
X28476Y-22402D01*
X28477Y-22461D01*
X28470Y-22493D01*
X28450Y-22527D01*
X28412Y-22552D01*
X28343Y-22570D01*
X28785Y-22452D02*
X28619Y-22496D01*
X28702Y-22474D02*
X28624Y-22184D01*
X28608Y-22233D01*
X28588Y-22269D01*
X28564Y-22290D01*
X28982Y-22192D02*
X29033Y-22385D01*
X28884Y-22100D02*
X28869Y-22326D01*
X29049Y-22278D01*
X29918Y-22570D02*
X29840Y-22281D01*
X29910Y-22262D01*
X29955Y-22265D01*
X29989Y-22285D01*
X30011Y-22309D01*
X30040Y-22361D01*
X30051Y-22402D01*
X30052Y-22461D01*
X30045Y-22493D01*
X30025Y-22527D01*
X29987Y-22552D01*
X29918Y-22570D01*
X30360Y-22452D02*
X30194Y-22496D01*
X30277Y-22474D02*
X30199Y-22184D01*
X30183Y-22233D01*
X30163Y-22269D01*
X30139Y-22290D01*
X30544Y-22092D02*
X30406Y-22129D01*
X30430Y-22271D01*
X30440Y-22254D01*
X30464Y-22232D01*
X30532Y-22214D01*
X30564Y-22220D01*
X30581Y-22230D01*
X30603Y-22254D01*
X30622Y-22323D01*
X30615Y-22355D01*
X30605Y-22372D01*
X30580Y-22393D01*
X30512Y-22411D01*
X30480Y-22405D01*
X30463Y-22395D01*
X31493Y-22570D02*
X31415Y-22281D01*
X31485Y-22262D01*
X31530Y-22265D01*
X31564Y-22285D01*
X31586Y-22309D01*
X31615Y-22361D01*
X31626Y-22402D01*
X31627Y-22461D01*
X31620Y-22493D01*
X31600Y-22527D01*
X31562Y-22552D01*
X31493Y-22570D01*
X31935Y-22452D02*
X31769Y-22496D01*
X31852Y-22474D02*
X31774Y-22184D01*
X31758Y-22233D01*
X31738Y-22269D01*
X31714Y-22290D01*
X32106Y-22096D02*
X32051Y-22110D01*
X32027Y-22132D01*
X32017Y-22149D01*
X32000Y-22198D01*
X32001Y-22257D01*
X32031Y-22367D01*
X32052Y-22392D01*
X32070Y-22401D01*
X32100Y-22408D01*
X32155Y-22393D01*
X32180Y-22372D01*
X32190Y-22355D01*
X32197Y-22323D01*
X32178Y-22254D01*
X32156Y-22230D01*
X32139Y-22220D01*
X32107Y-22214D01*
X32052Y-22229D01*
X32029Y-22250D01*
X32018Y-22267D01*
X32012Y-22299D01*
X20469Y-27276D02*
X20391Y-26987D01*
X20461Y-26968D01*
X20506Y-26971D01*
X20540Y-26991D01*
X20562Y-27015D01*
X20591Y-27067D01*
X20602Y-27108D01*
X20603Y-27167D01*
X20596Y-27199D01*
X20576Y-27233D01*
X20538Y-27258D01*
X20469Y-27276D01*
X20654Y-26916D02*
X20834Y-26868D01*
X20767Y-27005D01*
X20807Y-26994D01*
X20839Y-27000D01*
X20856Y-27010D01*
X20878Y-27034D01*
X20896Y-27103D01*
X20889Y-27135D01*
X20880Y-27152D01*
X20855Y-27173D01*
X20773Y-27195D01*
X20741Y-27189D01*
X20724Y-27179D01*
X20930Y-26842D02*
X21110Y-26794D01*
X21043Y-26931D01*
X21083Y-26920D01*
X21115Y-26926D01*
X21132Y-26936D01*
X21154Y-26960D01*
X21173Y-27029D01*
X21166Y-27061D01*
X21156Y-27078D01*
X21131Y-27099D01*
X21049Y-27121D01*
X21018Y-27115D01*
X21000Y-27105D01*
X31493Y-25707D02*
X31415Y-25418D01*
X31485Y-25399D01*
X31530Y-25402D01*
X31564Y-25422D01*
X31586Y-25446D01*
X31615Y-25498D01*
X31626Y-25539D01*
X31627Y-25598D01*
X31620Y-25630D01*
X31600Y-25664D01*
X31562Y-25689D01*
X31493Y-25707D01*
X31678Y-25347D02*
X31858Y-25299D01*
X31791Y-25436D01*
X31831Y-25425D01*
X31863Y-25431D01*
X31880Y-25441D01*
X31902Y-25465D01*
X31920Y-25534D01*
X31913Y-25566D01*
X31904Y-25583D01*
X31879Y-25604D01*
X31797Y-25626D01*
X31765Y-25620D01*
X31748Y-25610D01*
X31975Y-25298D02*
X31985Y-25280D01*
X32009Y-25258D01*
X32078Y-25240D01*
X32110Y-25247D01*
X32127Y-25257D01*
X32149Y-25281D01*
X32156Y-25308D01*
X32153Y-25353D01*
X32032Y-25563D01*
X32211Y-25515D01*
X29918Y-25707D02*
X29840Y-25418D01*
X29910Y-25399D01*
X29955Y-25402D01*
X29989Y-25422D01*
X30011Y-25446D01*
X30040Y-25498D01*
X30051Y-25539D01*
X30052Y-25598D01*
X30045Y-25630D01*
X30025Y-25664D01*
X29987Y-25689D01*
X29918Y-25707D01*
X30103Y-25347D02*
X30283Y-25299D01*
X30216Y-25436D01*
X30256Y-25425D01*
X30288Y-25431D01*
X30305Y-25441D01*
X30327Y-25465D01*
X30345Y-25534D01*
X30338Y-25566D01*
X30329Y-25583D01*
X30304Y-25604D01*
X30222Y-25626D01*
X30190Y-25620D01*
X30173Y-25610D01*
X30636Y-25515D02*
X30470Y-25559D01*
X30553Y-25537D02*
X30476Y-25247D01*
X30459Y-25296D01*
X30439Y-25332D01*
X30415Y-25353D01*
X28343Y-25707D02*
X28265Y-25418D01*
X28335Y-25399D01*
X28380Y-25402D01*
X28414Y-25422D01*
X28436Y-25446D01*
X28465Y-25498D01*
X28476Y-25539D01*
X28477Y-25598D01*
X28470Y-25630D01*
X28450Y-25664D01*
X28412Y-25689D01*
X28343Y-25707D01*
X28528Y-25347D02*
X28708Y-25299D01*
X28641Y-25436D01*
X28681Y-25425D01*
X28713Y-25431D01*
X28730Y-25441D01*
X28752Y-25465D01*
X28770Y-25534D01*
X28763Y-25566D01*
X28754Y-25583D01*
X28729Y-25604D01*
X28647Y-25626D01*
X28615Y-25620D01*
X28598Y-25610D01*
X28887Y-25251D02*
X28914Y-25244D01*
X28946Y-25251D01*
X28963Y-25261D01*
X28984Y-25285D01*
X29014Y-25336D01*
X29032Y-25405D01*
X29032Y-25464D01*
X29026Y-25495D01*
X29016Y-25512D01*
X28992Y-25533D01*
X28965Y-25541D01*
X28933Y-25535D01*
X28916Y-25525D01*
X28894Y-25501D01*
X28866Y-25449D01*
X28847Y-25381D01*
X28846Y-25322D01*
X28853Y-25290D01*
X28863Y-25273D01*
X28887Y-25251D01*
X26769Y-25707D02*
X26691Y-25418D01*
X26761Y-25399D01*
X26806Y-25402D01*
X26840Y-25422D01*
X26862Y-25446D01*
X26891Y-25498D01*
X26902Y-25539D01*
X26903Y-25598D01*
X26896Y-25630D01*
X26876Y-25664D01*
X26838Y-25689D01*
X26769Y-25707D01*
X26975Y-25372D02*
X26985Y-25354D01*
X27009Y-25332D01*
X27077Y-25314D01*
X27109Y-25321D01*
X27127Y-25331D01*
X27149Y-25355D01*
X27156Y-25382D01*
X27152Y-25428D01*
X27031Y-25637D01*
X27211Y-25589D01*
X27349Y-25552D02*
X27404Y-25537D01*
X27428Y-25516D01*
X27439Y-25499D01*
X27455Y-25450D01*
X27454Y-25391D01*
X27425Y-25281D01*
X27403Y-25257D01*
X27386Y-25247D01*
X27354Y-25240D01*
X27299Y-25255D01*
X27276Y-25277D01*
X27265Y-25294D01*
X27259Y-25326D01*
X27277Y-25394D01*
X27298Y-25419D01*
X27316Y-25428D01*
X27347Y-25434D01*
X27402Y-25420D01*
X27426Y-25399D01*
X27436Y-25382D01*
X27443Y-25350D01*
X25194Y-25707D02*
X25116Y-25418D01*
X25186Y-25399D01*
X25231Y-25402D01*
X25265Y-25422D01*
X25287Y-25446D01*
X25316Y-25498D01*
X25327Y-25539D01*
X25328Y-25598D01*
X25321Y-25630D01*
X25301Y-25664D01*
X25263Y-25689D01*
X25194Y-25707D01*
X25400Y-25372D02*
X25410Y-25354D01*
X25434Y-25332D01*
X25502Y-25314D01*
X25534Y-25321D01*
X25552Y-25331D01*
X25574Y-25355D01*
X25581Y-25382D01*
X25577Y-25428D01*
X25456Y-25637D01*
X25636Y-25589D01*
X25757Y-25379D02*
X25726Y-25373D01*
X25708Y-25362D01*
X25687Y-25339D01*
X25684Y-25326D01*
X25690Y-25294D01*
X25701Y-25277D01*
X25724Y-25255D01*
X25779Y-25240D01*
X25811Y-25247D01*
X25828Y-25257D01*
X25850Y-25281D01*
X25853Y-25295D01*
X25846Y-25325D01*
X25837Y-25344D01*
X25812Y-25365D01*
X25757Y-25379D01*
X25734Y-25400D01*
X25723Y-25419D01*
X25717Y-25449D01*
X25732Y-25504D01*
X25753Y-25529D01*
X25771Y-25538D01*
X25801Y-25545D01*
X25856Y-25530D01*
X25881Y-25509D01*
X25891Y-25492D01*
X25898Y-25460D01*
X25883Y-25405D01*
X25861Y-25382D01*
X25844Y-25371D01*
X25812Y-25365D01*
X23619Y-25707D02*
X23541Y-25418D01*
X23611Y-25399D01*
X23656Y-25402D01*
X23690Y-25422D01*
X23712Y-25446D01*
X23741Y-25498D01*
X23752Y-25539D01*
X23753Y-25598D01*
X23746Y-25630D01*
X23726Y-25664D01*
X23688Y-25689D01*
X23619Y-25707D01*
X23825Y-25372D02*
X23835Y-25354D01*
X23859Y-25332D01*
X23927Y-25314D01*
X23959Y-25321D01*
X23977Y-25331D01*
X23999Y-25355D01*
X24006Y-25382D01*
X24002Y-25428D01*
X23881Y-25637D01*
X24061Y-25589D01*
X24080Y-25273D02*
X24273Y-25221D01*
X24226Y-25545D01*
X22044Y-25707D02*
X21966Y-25418D01*
X22036Y-25399D01*
X22081Y-25402D01*
X22115Y-25422D01*
X22137Y-25446D01*
X22166Y-25498D01*
X22177Y-25539D01*
X22178Y-25598D01*
X22171Y-25630D01*
X22151Y-25664D01*
X22113Y-25689D01*
X22044Y-25707D01*
X22250Y-25372D02*
X22260Y-25354D01*
X22284Y-25332D01*
X22352Y-25314D01*
X22384Y-25321D01*
X22402Y-25331D01*
X22424Y-25355D01*
X22431Y-25382D01*
X22427Y-25428D01*
X22306Y-25637D01*
X22486Y-25589D01*
X22657Y-25233D02*
X22602Y-25247D01*
X22578Y-25269D01*
X22568Y-25286D01*
X22551Y-25335D01*
X22552Y-25394D01*
X22582Y-25504D01*
X22603Y-25529D01*
X22621Y-25538D01*
X22651Y-25545D01*
X22706Y-25530D01*
X22731Y-25509D01*
X22741Y-25492D01*
X22748Y-25460D01*
X22729Y-25391D01*
X22707Y-25367D01*
X22690Y-25357D01*
X22658Y-25351D01*
X22603Y-25366D01*
X22580Y-25387D01*
X22569Y-25404D01*
X22563Y-25436D01*
X20469Y-25707D02*
X20391Y-25418D01*
X20461Y-25399D01*
X20506Y-25402D01*
X20540Y-25422D01*
X20562Y-25446D01*
X20591Y-25498D01*
X20602Y-25539D01*
X20603Y-25598D01*
X20596Y-25630D01*
X20576Y-25664D01*
X20538Y-25689D01*
X20469Y-25707D01*
X20675Y-25372D02*
X20685Y-25354D01*
X20709Y-25332D01*
X20777Y-25314D01*
X20809Y-25321D01*
X20827Y-25331D01*
X20849Y-25355D01*
X20856Y-25382D01*
X20852Y-25428D01*
X20731Y-25637D01*
X20911Y-25589D01*
X21095Y-25229D02*
X20957Y-25266D01*
X20981Y-25408D01*
X20991Y-25391D01*
X21015Y-25369D01*
X21083Y-25351D01*
X21115Y-25357D01*
X21132Y-25367D01*
X21154Y-25391D01*
X21173Y-25460D01*
X21166Y-25492D01*
X21156Y-25509D01*
X21131Y-25530D01*
X21063Y-25548D01*
X21031Y-25542D01*
X21014Y-25532D01*
X31493Y-24139D02*
X31415Y-23850D01*
X31485Y-23831D01*
X31530Y-23834D01*
X31564Y-23854D01*
X31586Y-23878D01*
X31615Y-23930D01*
X31626Y-23971D01*
X31627Y-24030D01*
X31620Y-24062D01*
X31600Y-24096D01*
X31562Y-24121D01*
X31493Y-24139D01*
X31699Y-23804D02*
X31709Y-23786D01*
X31733Y-23764D01*
X31801Y-23746D01*
X31833Y-23753D01*
X31851Y-23763D01*
X31873Y-23787D01*
X31880Y-23814D01*
X31876Y-23860D01*
X31755Y-24069D01*
X31935Y-24021D01*
X32132Y-23761D02*
X32183Y-23954D01*
X32034Y-23669D02*
X32019Y-23895D01*
X32199Y-23847D01*
X29918Y-24139D02*
X29840Y-23850D01*
X29910Y-23831D01*
X29955Y-23834D01*
X29989Y-23854D01*
X30011Y-23878D01*
X30040Y-23930D01*
X30051Y-23971D01*
X30052Y-24030D01*
X30045Y-24062D01*
X30025Y-24096D01*
X29987Y-24121D01*
X29918Y-24139D01*
X30124Y-23804D02*
X30134Y-23786D01*
X30158Y-23764D01*
X30226Y-23746D01*
X30258Y-23753D01*
X30276Y-23763D01*
X30298Y-23787D01*
X30305Y-23814D01*
X30301Y-23860D01*
X30180Y-24069D01*
X30360Y-24021D01*
X30379Y-23705D02*
X30559Y-23657D01*
X30492Y-23794D01*
X30532Y-23783D01*
X30564Y-23789D01*
X30581Y-23799D01*
X30603Y-23823D01*
X30622Y-23892D01*
X30615Y-23924D01*
X30605Y-23941D01*
X30580Y-23962D01*
X30498Y-23984D01*
X30467Y-23978D01*
X30449Y-23968D01*
X28343Y-24139D02*
X28265Y-23850D01*
X28335Y-23831D01*
X28380Y-23834D01*
X28414Y-23854D01*
X28436Y-23878D01*
X28465Y-23930D01*
X28476Y-23971D01*
X28477Y-24030D01*
X28470Y-24062D01*
X28450Y-24096D01*
X28412Y-24121D01*
X28343Y-24139D01*
X28549Y-23804D02*
X28559Y-23786D01*
X28583Y-23764D01*
X28651Y-23746D01*
X28683Y-23753D01*
X28701Y-23763D01*
X28723Y-23787D01*
X28730Y-23814D01*
X28726Y-23860D01*
X28605Y-24069D01*
X28785Y-24021D01*
X28825Y-23730D02*
X28835Y-23712D01*
X28859Y-23690D01*
X28928Y-23672D01*
X28960Y-23679D01*
X28977Y-23689D01*
X28999Y-23713D01*
X29006Y-23740D01*
X29003Y-23785D01*
X28882Y-23995D01*
X29061Y-23947D01*
X26769Y-24139D02*
X26691Y-23850D01*
X26761Y-23831D01*
X26806Y-23834D01*
X26840Y-23854D01*
X26862Y-23878D01*
X26891Y-23930D01*
X26902Y-23971D01*
X26903Y-24030D01*
X26896Y-24062D01*
X26876Y-24096D01*
X26838Y-24121D01*
X26769Y-24139D01*
X26975Y-23804D02*
X26985Y-23786D01*
X27009Y-23764D01*
X27077Y-23746D01*
X27109Y-23753D01*
X27127Y-23763D01*
X27149Y-23787D01*
X27156Y-23814D01*
X27152Y-23860D01*
X27031Y-24069D01*
X27211Y-24021D01*
X27487Y-23947D02*
X27321Y-23991D01*
X27404Y-23969D02*
X27327Y-23679D01*
X27310Y-23728D01*
X27290Y-23764D01*
X27266Y-23785D01*
X25194Y-24139D02*
X25116Y-23850D01*
X25186Y-23831D01*
X25231Y-23834D01*
X25265Y-23854D01*
X25287Y-23878D01*
X25316Y-23930D01*
X25327Y-23971D01*
X25328Y-24030D01*
X25321Y-24062D01*
X25301Y-24096D01*
X25263Y-24121D01*
X25194Y-24139D01*
X25400Y-23804D02*
X25410Y-23786D01*
X25434Y-23764D01*
X25502Y-23746D01*
X25534Y-23753D01*
X25552Y-23763D01*
X25574Y-23787D01*
X25581Y-23814D01*
X25577Y-23860D01*
X25456Y-24069D01*
X25636Y-24021D01*
X25738Y-23683D02*
X25765Y-23676D01*
X25797Y-23683D01*
X25814Y-23693D01*
X25835Y-23717D01*
X25865Y-23768D01*
X25883Y-23837D01*
X25883Y-23896D01*
X25877Y-23927D01*
X25867Y-23944D01*
X25843Y-23965D01*
X25816Y-23973D01*
X25784Y-23967D01*
X25767Y-23957D01*
X25745Y-23933D01*
X25717Y-23881D01*
X25698Y-23813D01*
X25697Y-23754D01*
X25704Y-23722D01*
X25714Y-23705D01*
X25738Y-23683D01*
X23619Y-24139D02*
X23541Y-23850D01*
X23611Y-23831D01*
X23656Y-23834D01*
X23690Y-23854D01*
X23712Y-23878D01*
X23741Y-23930D01*
X23752Y-23971D01*
X23753Y-24030D01*
X23746Y-24062D01*
X23726Y-24096D01*
X23688Y-24121D01*
X23619Y-24139D01*
X24061Y-24021D02*
X23895Y-24065D01*
X23978Y-24043D02*
X23900Y-23753D01*
X23884Y-23802D01*
X23864Y-23838D01*
X23840Y-23859D01*
X24199Y-23984D02*
X24254Y-23969D01*
X24278Y-23948D01*
X24289Y-23931D01*
X24305Y-23882D01*
X24304Y-23823D01*
X24275Y-23713D01*
X24253Y-23689D01*
X24236Y-23679D01*
X24204Y-23672D01*
X24149Y-23687D01*
X24126Y-23709D01*
X24115Y-23726D01*
X24109Y-23758D01*
X24127Y-23826D01*
X24148Y-23851D01*
X24166Y-23860D01*
X24197Y-23866D01*
X24252Y-23852D01*
X24276Y-23831D01*
X24286Y-23814D01*
X24293Y-23782D01*
X22044Y-24139D02*
X21966Y-23850D01*
X22036Y-23831D01*
X22081Y-23834D01*
X22115Y-23854D01*
X22137Y-23878D01*
X22166Y-23930D01*
X22177Y-23971D01*
X22178Y-24030D01*
X22171Y-24062D01*
X22151Y-24096D01*
X22113Y-24121D01*
X22044Y-24139D01*
X22486Y-24021D02*
X22320Y-24065D01*
X22403Y-24043D02*
X22325Y-23753D01*
X22309Y-23802D01*
X22289Y-23838D01*
X22265Y-23859D01*
X22607Y-23811D02*
X22576Y-23805D01*
X22558Y-23794D01*
X22537Y-23771D01*
X22534Y-23758D01*
X22540Y-23726D01*
X22551Y-23709D01*
X22574Y-23687D01*
X22629Y-23672D01*
X22661Y-23679D01*
X22678Y-23689D01*
X22700Y-23713D01*
X22703Y-23727D01*
X22696Y-23757D01*
X22687Y-23776D01*
X22662Y-23797D01*
X22607Y-23811D01*
X22584Y-23832D01*
X22573Y-23851D01*
X22567Y-23881D01*
X22582Y-23936D01*
X22603Y-23961D01*
X22621Y-23970D01*
X22651Y-23977D01*
X22706Y-23962D01*
X22731Y-23941D01*
X22741Y-23924D01*
X22748Y-23892D01*
X22733Y-23837D01*
X22711Y-23814D01*
X22694Y-23803D01*
X22662Y-23797D01*
X20469Y-24139D02*
X20391Y-23850D01*
X20461Y-23831D01*
X20506Y-23834D01*
X20540Y-23854D01*
X20562Y-23878D01*
X20591Y-23930D01*
X20602Y-23971D01*
X20603Y-24030D01*
X20596Y-24062D01*
X20576Y-24096D01*
X20538Y-24121D01*
X20469Y-24139D01*
X20911Y-24021D02*
X20745Y-24065D01*
X20828Y-24043D02*
X20750Y-23753D01*
X20734Y-23802D01*
X20714Y-23838D01*
X20690Y-23859D01*
X20930Y-23705D02*
X21123Y-23653D01*
X21076Y-23977D01*
M02*
