M48
;DRILL file {PCBnew (2011-aug-04)-testing} date Tue 12 Feb 2013 05:03:36 PM PST
;FORMAT={2:4/ absolute / inch / suppress trailing zeros}
FMAT,2
INCH,LZ
T1C0.025
T2C0.032
%
G90
G05
M72
T1
X022799Y-021575
X022799Y-031024
X023193Y-024631
X023799Y-021575
X023799Y-031024
X024577Y-023236
X024799Y-021575
X024799Y-031024
X025391Y-029409
X025799Y-021575
X025799Y-031024
X026799Y-021575
X026799Y-031024
X027799Y-021575
X027799Y-031024
X028594Y-026038
X028799Y-021575
X028799Y-031024
X029799Y-021575
X029799Y-031024
T2
X020304Y-020916
X020304Y-022485
X020304Y-024054
X020304Y-025622
X020304Y-027191
X020304Y-02876
X020304Y-030328
X020304Y-031897
X02127Y-020658
X02127Y-022227
X02127Y-023796
X02127Y-025364
X02127Y-026933
X02127Y-028502
X02127Y-03007
X02127Y-031639
X021879Y-020916
X021879Y-022485
X021879Y-024054
X021879Y-025622
X021879Y-027191
X021879Y-02876
X021879Y-030328
X021879Y-031897
X022845Y-020658
X022845Y-022227
X022845Y-023796
X022845Y-025364
X022845Y-026933
X022845Y-028502
X022845Y-03007
X022845Y-031639
X023454Y-020916
X023454Y-022485
X023454Y-024054
X023454Y-025622
X023454Y-027191
X023454Y-02876
X023454Y-030328
X023454Y-031897
X02442Y-020658
X02442Y-022227
X02442Y-023796
X02442Y-025364
X02442Y-026933
X02442Y-028502
X02442Y-03007
X02442Y-031639
X025029Y-020916
X025029Y-022485
X025029Y-024054
X025029Y-025622
X025029Y-027191
X025029Y-02876
X025029Y-030328
X025029Y-031897
X025995Y-020658
X025995Y-022227
X025995Y-023796
X025995Y-025364
X025995Y-026933
X025995Y-028502
X025995Y-03007
X025995Y-031639
X026604Y-020916
X026604Y-022485
X026604Y-024054
X026604Y-025622
X026604Y-027191
X026604Y-02876
X026604Y-030328
X026604Y-031897
X02757Y-020658
X02757Y-022227
X02757Y-023796
X02757Y-025364
X02757Y-026933
X02757Y-028502
X02757Y-03007
X02757Y-031639
X028178Y-020916
X028178Y-022485
X028178Y-024054
X028178Y-025622
X028178Y-027191
X028178Y-02876
X028178Y-030328
X028178Y-031897
X029144Y-020658
X029144Y-022227
X029144Y-023796
X029144Y-025364
X029144Y-026933
X029144Y-028502
X029144Y-03007
X029144Y-031639
X029753Y-020916
X029753Y-022485
X029753Y-024054
X029753Y-025622
X029753Y-027191
X029753Y-02876
X029753Y-030328
X029753Y-031897
X030719Y-020658
X030719Y-022227
X030719Y-023796
X030719Y-025364
X030719Y-026933
X030719Y-028502
X030719Y-03007
X030719Y-031639
X031328Y-020916
X031328Y-022485
X031328Y-024054
X031328Y-025622
X031328Y-027191
X031328Y-02876
X031328Y-030328
X031328Y-031897
X032294Y-020658
X032294Y-022227
X032294Y-023796
X032294Y-025364
X032294Y-026933
X032294Y-028502
X032294Y-03007
X032294Y-031639
T0
M30
