G04 (created by PCBNEW-RS274X (2011-aug-04)-testing) date Wed 27 Feb 2013 02:04:47 PM PST*
G01*
G70*
G90*
%MOIN*%
G04 Gerber Fmt 3.4, Leading zero omitted, Abs format*
%FSLAX34Y34*%
G04 APERTURE LIST*
%ADD10C,0.006000*%
%ADD11C,0.015000*%
%ADD12C,0.012000*%
G04 APERTURE END LIST*
G54D10*
G54D11*
X22199Y-30498D02*
X22199Y-29898D01*
X22199Y-29898D02*
X30399Y-29898D01*
X30399Y-29898D02*
X30399Y-30498D01*
X22199Y-30498D02*
X22199Y-32598D01*
X30399Y-30498D02*
X30399Y-32598D01*
X30399Y-32598D02*
X22199Y-32598D01*
X22199Y-23200D02*
X22199Y-23800D01*
X22199Y-23800D02*
X30399Y-23800D01*
X30399Y-23800D02*
X30399Y-23200D01*
X22199Y-20000D02*
X30399Y-20000D01*
X30399Y-23200D02*
X30399Y-20000D01*
X22199Y-23200D02*
X22199Y-20000D01*
G54D12*
X21058Y-30543D02*
X21058Y-29943D01*
X21286Y-29943D01*
X21344Y-29971D01*
X21372Y-30000D01*
X21401Y-30057D01*
X21401Y-30143D01*
X21372Y-30200D01*
X21344Y-30229D01*
X21286Y-30257D01*
X21058Y-30257D01*
X21972Y-30543D02*
X21629Y-30543D01*
X21801Y-30543D02*
X21801Y-29943D01*
X21744Y-30029D01*
X21686Y-30086D01*
X21629Y-30114D01*
X20858Y-23643D02*
X20858Y-23043D01*
X21086Y-23043D01*
X21144Y-23071D01*
X21172Y-23100D01*
X21201Y-23157D01*
X21201Y-23243D01*
X21172Y-23300D01*
X21144Y-23329D01*
X21086Y-23357D01*
X20858Y-23357D01*
X21429Y-23100D02*
X21458Y-23071D01*
X21515Y-23043D01*
X21658Y-23043D01*
X21715Y-23071D01*
X21744Y-23100D01*
X21772Y-23157D01*
X21772Y-23214D01*
X21744Y-23300D01*
X21401Y-23643D01*
X21772Y-23643D01*
M02*
