M48
;DRILL file {PCBnew (2011-aug-04)-testing} date Tue 12 Feb 2013 10:47:52 AM PST
;FORMAT={2:4/ absolute / inch / suppress trailing zeros}
FMAT,2
INCH,LZ
T1C0.025
%
G90
G05
M72
T1
X021518Y-02291
X021573Y-021834
X021949Y-023396
X022062Y-026014
X022062Y-029157
X022292Y-031064
X022314Y-021855
X022799Y-021575
X022799Y-027599
X022799Y-031024
X023524Y-023403
X023563Y-026014
X023645Y-028055
X023799Y-021575
X023799Y-031024
X023919Y-029694
X024799Y-021575
X024799Y-031024
X025138Y-02484
X025138Y-027846
X025138Y-029678
X025254Y-023411
X025299Y-021327
X025799Y-021575
X025799Y-031024
X026508Y-026014
X026782Y-027668
X026799Y-021575
X026799Y-024935
X026799Y-031024
X027275Y-02184
X027275Y-023272
X027799Y-021575
X027799Y-031024
X028238Y-023402
X028238Y-026014
X028256Y-030719
X028308Y-028028
X028799Y-021575
X028799Y-029252
X028799Y-031024
X029726Y-024463
X029799Y-021575
X029799Y-031024
X030191Y-030714
X030222Y-021266
X030222Y-023452
X030222Y-026521
X030222Y-029107
X031329Y-021838
X031329Y-02341
X031418Y-03072
X031437Y-026014
X031437Y-027595
T0
M30
