<?xml version="1.0" encoding="UTF-8" standalone="no"?>
<svg
   xmlns:dc="http://purl.org/dc/elements/1.1/"
   xmlns:cc="http://creativecommons.org/ns#"
   xmlns:rdf="http://www.w3.org/1999/02/22-rdf-syntax-ns#"
   xmlns:svg="http://www.w3.org/2000/svg"
   xmlns="http://www.w3.org/2000/svg"
   xmlns:sodipodi="http://sodipodi.sourceforge.net/DTD/sodipodi-0.dtd"
   xmlns:inkscape="http://www.inkscape.org/namespaces/inkscape"
   version="1.1"
   width="29.7002cm"
   height="21.0007cm"
   viewBox="0 0 116930 82680 "
   id="svg2"
   inkscape:version="0.47 r22583"
   sodipodi:docname="mask_inner_5mm.pdf">
  <metadata
     id="metadata1034">
    <rdf:RDF>
      <cc:Work
         rdf:about="">
        <dc:format>image/svg+xml</dc:format>
        <dc:type
           rdf:resource="http://purl.org/dc/dcmitype/StillImage" />
        <dc:title>SVG Picture created as led_array-F_SilkS.svg date 2013/11/19 18:55:34 </dc:title>
      </cc:Work>
    </rdf:RDF>
  </metadata>
  <defs
     id="defs1032">
    <inkscape:perspective
       sodipodi:type="inkscape:persp3d"
       inkscape:vp_x="0 : 372.05963 : 1"
       inkscape:vp_y="0 : 1000 : 0"
       inkscape:vp_z="1052.3693 : 372.05963 : 1"
       inkscape:persp3d-origin="526.18463 : 248.03975 : 1"
       id="perspective1036" />
  </defs>
  <sodipodi:namedview
     pagecolor="#ffffff"
     bordercolor="#666666"
     borderopacity="1"
     objecttolerance="10"
     gridtolerance="10"
     guidetolerance="10"
     inkscape:pageopacity="0"
     inkscape:pageshadow="2"
     inkscape:window-width="1680"
     inkscape:window-height="975"
     id="namedview1030"
     showgrid="false"
     inkscape:zoom="5.0744554"
     inkscape:cx="170.5023"
     inkscape:cy="506.47535"
     inkscape:window-x="0"
     inkscape:window-y="24"
     inkscape:window-maximized="1"
     inkscape:current-layer="svg2" />
  <title
     id="title4">SVG Picture created as led_array-F_SilkS.svg date 2013/11/19 18:55:34 </title>
  <desc
     id="desc6">Picture generated by PCBNEW </desc>
  <g
     style="fill:#000000; fill-opacity:1;stroke:#000000; stroke-opacity:1; stroke-linecap:round; stroke-linejoin:round; "
     transform="translate(0 0) scale(1 1)"
     id="g8" />
  <g
     style="fill:#000000; fill-opacity:0.0;  stroke:#000000; stroke-width:100; stroke-opacity:1;  stroke-linecap:round; stroke-linejoin:round;"
     id="g10">
    <rect
       x="-845466"
       y="-845466"
       width="0"
       height="0"
       rx="0"
       id="rect12" />
    <rect
       x="-845466"
       y="-845466"
       width="0"
       height="0"
       rx="0"
       id="rect14" />
    <path
       d="M-845466 -845466 L-845466 -845466 "
       id="path16" />
    <path
       d="M-845466 -845466 L-845466 -845466 "
       id="path18" />
    <path
       d="M-845466 -845466 L-845466 -845466 "
       id="path20" />
    <path
       d="M-845466 -845466 L-845466 -845466 "
       id="path22" />
    <path
       d="M-845466 -845466 L-845466 -845466 "
       id="path24" />
    <path
       d="M-845353 -845227 L-845269 -845199 L-845128 -845199 L-845072 -845227 L-845044 -845255 L-845016 -845311 L-845016 -845367 L-845044 -845423 L-845072 -845451 L-845128 845451 L-845241 845423 L-845297 845395 L-845325 845367 L-845353 845311 L-845353 845255 L-845325 845199 L-845297 845171 L-845241 845142 L-845100 845142 L-845016 845171 "
       id="path26" />
    <path
       d="M-844763 -845199 L-844763 845142 "
       id="path28" />
    <path
       d="M-844510 -845199 L-844510 845423 L-844538 845367 L-844595 845339 L-844679 845339 L-844735 845367 L-844763 845395 "
       id="path30" />
    <path
       d="M-844005 -845227 L-844061 -845199 L-844173 -845199 L-844229 -845227 L-844257 -845283 L-844257 845423 L-844229 845367 L-844173 845339 L-844061 845339 L-844005 845367 L-843976 845423 L-843976 -845451 L-844257 -845395 "
       id="path32" />
    <path
       d="M-843499 -845227 L-843555 -845199 L-843667 -845199 L-843724 -845227 L-843752 -845283 L-843752 845423 L-843724 845367 L-843667 845339 L-843555 845339 L-843499 845367 L-843471 845423 L-843471 -845451 L-843752 -845395 "
       id="path34" />
    <path
       d="M-843302 845339 L-843077 845339 "
       id="path36" />
    <path
       d="M-843218 845142 L-843218 -845283 L-843190 -845227 L-843134 -845199 L-843077 -845199 "
       id="path38" />
    <path
       d="M-842881 -845255 L-842853 -845227 L-842881 -845199 L-842909 -845227 L-842881 -845255 L-842881 -845199 "
       id="path40" />
    <path
       d="M-842881 845367 L-842853 845395 L-842881 845423 L-842909 845395 L-842881 845367 L-842881 845423 "
       id="path42" />
    <path
       d="M-841729 845114 L-842235 -845058 "
       id="path44" />
    <path
       d="M-841532 -845199 L-841532 845142 "
       id="path46" />
    <path
       d="M-841279 -845199 L-841279 845423 L-841307 845367 L-841364 845339 L-841448 845339 L-841504 845367 L-841532 845395 "
       id="path48" />
    <path
       d="M-840914 -845199 L-840970 -845227 L-840998 -845255 L-841026 -845311 L-841026 845451 L-840998 845395 L-840970 845367 L-840914 845339 L-840830 845339 L-840774 845367 L-840746 845395 L-840717 845451 L-840717 -845311 L-840746 -845255 L-840774 -845227 L-840830 -845199 L-840914 -845199 "
       id="path50" />
    <path
       d="M-840465 -845199 L-840465 845339 "
       id="path52" />
    <path
       d="M-840465 845395 L-840436 845367 L-840380 845339 L-840296 845339 L-840240 845367 L-840212 845423 L-840212 -845199 "
       id="path54" />
    <path
       d="M-840212 845423 L-840184 845367 L-840127 845339 L-840043 845339 L-839987 845367 L-839959 845423 L-839959 -845199 "
       id="path56" />
    <path
       d="M-839453 -845227 L-839509 -845199 L-839622 -845199 L-839678 -845227 L-839706 -845283 L-839706 845423 L-839678 845367 L-839622 845339 L-839509 845339 L-839453 845367 L-839425 845423 L-839425 -845451 L-839706 -845395 "
       id="path58" />
    <path
       d="M-838751 845114 L-839256 -845058 "
       id="path60" />
    <path
       d="M-838610 845339 L-838498 -845199 L-838386 845451 L-838273 -845199 L-838161 845339 "
       id="path62" />
    <path
       d="M-837936 -845199 L-837936 845142 "
       id="path64" />
    <path
       d="M-837936 845367 L-837880 845339 L-837767 845339 L-837711 845367 L-837683 845395 L-837655 845451 L-837655 -845311 L-837683 -845255 L-837711 -845227 L-837767 -845199 L-837880 -845199 L-837936 -845227 "
       id="path66" />
    <path
       d="M-837149 -845199 L-837149 845142 "
       id="path68" />
    <path
       d="M-837149 -845227 L-837206 -845199 L-837318 -845199 L-837374 -845227 L-837402 -845255 L-837430 -845311 L-837430 845451 L-837402 845395 L-837374 845367 L-837318 845339 L-837206 845339 L-837149 845367 "
       id="path70" />
    <path
       d="M-836447 845114 L-836953 -845058 "
       id="path72" />
    <path
       d="M-836306 845339 L-836194 -845199 L-836082 845451 L-835969 -845199 L-835857 845339 "
       id="path74" />
    <path
       d="M-835548 -845199 L-835604 -845227 L-835632 -845255 L-835660 -845311 L-835660 845451 L-835632 845395 L-835604 845367 L-835548 845339 L-835464 845339 L-835407 845367 L-835379 845395 L-835351 845451 L-835351 -845311 L-835379 -845255 L-835407 -845227 L-835464 -845199 L-835548 -845199 "
       id="path76" />
    <path
       d="M-835098 -845199 L-835098 845339 "
       id="path78" />
    <path
       d="M-835098 845451 L-835070 845395 L-835042 845367 L-834986 845339 L-834930 845339 "
       id="path80" />
    <path
       d="M-834733 -845199 L-834733 845142 "
       id="path82" />
    <path
       d="M-834677 -845423 L-834508 -845199 "
       id="path84" />
    <path
       d="M-834508 845339 L-834733 -845367 "
       id="path86" />
    <path
       d="M-833834 845114 L-834340 -845058 "
       id="path88" />
    <path
       d="M-833637 -845199 L-833637 845339 "
       id="path90" />
    <path
       d="M-833637 845142 L-833666 845171 L-833637 845199 L-833609 845171 L-833637 845142 L-833637 845199 "
       id="path92" />
    <path
       d="M-833272 -845199 L-833328 -845227 L-833356 -845255 L-833385 -845311 L-833385 845451 L-833356 845395 L-833328 845367 L-833272 845339 L-833188 845339 L-833132 845367 L-833104 845395 L-833076 845451 L-833076 -845311 L-833104 -845255 L-833132 -845227 L-833188 -845199 L-833272 -845199 "
       id="path94" />
    <path
       d="M-832823 -845199 L-832823 845339 "
       id="path96" />
    <path
       d="M-832823 845451 L-832795 845395 L-832766 845367 L-832710 845339 L-832654 845339 "
       id="path98" />
    <path
       d="M-832373 -845199 L-832429 -845227 L-832457 -845255 L-832486 -845311 L-832486 845451 L-832457 845395 L-832429 845367 L-832373 845339 L-832289 845339 L-832233 845367 L-832205 845395 L-832176 845451 L-832176 -845311 L-832205 -845255 L-832233 -845227 L-832289 -845199 L-832373 -845199 "
       id="path100" />
    <path
       d="M-831671 -845199 L-831671 845142 "
       id="path102" />
    <path
       d="M-831671 -845227 L-831727 -845199 L-831839 -845199 L-831896 -845227 L-831924 -845255 L-831952 -845311 L-831952 845451 L-831924 845395 L-831896 845367 L-831839 845339 L-831727 845339 L-831671 845367 "
       id="path104" />
    <path
       d="M-831165 -845227 L-831221 -845199 L-831334 -845199 L-831390 -845227 L-831418 -845283 L-831418 845423 L-831390 845367 L-831334 845339 L-831221 845339 L-831165 845367 L-831137 845423 L-831137 -845451 L-831418 -845395 "
       id="path106" />
    <path
       d="M-830800 -845199 L-830856 -845227 L-830884 -845255 L-830912 -845311 L-830912 845451 L-830884 845395 L-830856 845367 L-830800 845339 L-830716 845339 L-830659 845367 L-830631 845395 L-830603 845451 L-830603 -845311 L-830631 -845255 L-830659 -845227 L-830716 -845199 L-830800 -845199 "
       id="path108" />
    <path
       d="M-829929 845114 L-830435 -845058 "
       id="path110" />
    <path
       d="M-829732 845339 L-829732 -845002 "
       id="path112" />
    <path
       d="M-829732 845367 L-829676 845339 L-829564 845339 L-829507 845367 L-829479 845395 L-829451 845451 L-829451 -845311 L-829479 -845255 L-829507 -845227 L-829564 -845199 L-829676 -845199 L-829732 -845227 "
       id="path114" />
    <path
       d="M-829198 -845199 L-829198 845339 "
       id="path116" />
    <path
       d="M-829198 845451 L-829170 845395 L-829142 845367 L-829086 845339 L-829030 845339 "
       id="path118" />
    <path
       d="M-828749 -845199 L-828805 -845227 L-828833 -845255 L-828861 -845311 L-828861 845451 L-828833 845395 L-828805 845367 L-828749 845339 L-828665 845339 L-828608 845367 L-828580 845395 L-828552 845451 L-828552 -845311 L-828580 -845255 L-828608 -845227 L-828665 -845199 L-828749 -845199 "
       id="path120" />
    <path
       d="M-828046 -845199 L-828046 845142 "
       id="path122" />
    <path
       d="M-828046 -845227 L-828103 -845199 L-828215 -845199 L-828271 -845227 L-828299 -845255 L-828327 -845311 L-828327 845451 L-828299 845395 L-828271 845367 L-828215 845339 L-828103 845339 L-828046 845367 "
       id="path124" />
    <path
       d="M-827513 845339 L-827513 -845199 "
       id="path126" />
    <path
       d="M-827766 845339 L-827766 -845283 L-827737 -845227 L-827681 -845199 L-827597 -845199 L-827541 -845227 L-827513 -845255 "
       id="path128" />
    <path
       d="M-826979 -845227 L-827035 -845199 L-827147 -845199 L-827204 -845227 L-827232 -845255 L-827260 -845311 L-827260 845451 L-827232 845395 L-827204 845367 L-827147 845339 L-827035 845339 L-826979 845367 "
       id="path130" />
    <path
       d="M-826810 845339 L-826586 845339 "
       id="path132" />
    <path
       d="M-826726 845142 L-826726 -845283 L-826698 -845227 L-826642 -845199 L-826586 -845199 "
       id="path134" />
    <path
       d="M-826417 -845227 L-826361 -845199 L-826248 -845199 L-826192 -845227 L-826164 -845283 L-826164 -845311 L-826192 -845367 L-826248 -845395 L-826333 -845395 L-826389 -845423 L-826417 845451 L-826417 845423 L-826389 845367 L-826333 845339 L-826248 845339 L-826192 845367 "
       id="path136" />
    <path
       d="M-825490 845114 L-825996 -845058 "
       id="path138" />
    <path
       d="M-825377 845339 L-825153 845339 "
       id="path140" />
    <path
       d="M-825293 845142 L-825293 -845283 L-825265 -845227 L-825209 -845199 L-825153 -845199 "
       id="path142" />
    <path
       d="M-824731 -845227 L-824787 -845199 L-824900 -845199 L-824956 -845227 L-824984 -845283 L-824984 845423 L-824956 845367 L-824900 845339 L-824787 845339 L-824731 845367 L-824703 845423 L-824703 -845451 L-824984 -845395 "
       id="path144" />
    <path
       d="M-824450 -845199 L-824450 845339 "
       id="path146" />
    <path
       d="M-824450 845395 L-824422 845367 L-824366 845339 L-824282 845339 L-824226 845367 L-824197 845423 L-824197 -845199 "
       id="path148" />
    <path
       d="M-824197 845423 L-824169 845367 L-824113 845339 L-824029 845339 L-823973 845367 L-823945 845423 L-823945 -845199 "
       id="path150" />
    <path
       d="M-823664 845339 L-823664 -845002 "
       id="path152" />
    <path
       d="M-823664 845367 L-823607 845339 L-823495 845339 L-823439 845367 L-823411 845395 L-823383 845451 L-823383 -845311 L-823411 -845255 L-823439 -845227 L-823495 -845199 L-823607 -845199 L-823664 -845227 "
       id="path154" />
    <path
       d="M-822708 845114 L-823214 -845058 "
       id="path156" />
    <path
       d="M-822512 845339 L-822512 -845002 "
       id="path158" />
    <path
       d="M-822512 845367 L-822456 845339 L-822343 845339 L-822287 845367 L-822259 845395 L-822231 845451 L-822231 -845311 L-822259 -845255 L-822287 -845227 L-822343 -845199 L-822456 -845199 L-822512 -845227 "
       id="path160" />
    <path
       d="M-821725 -845199 L-821725 845423 L-821753 845367 L-821809 845339 L-821922 845339 L-821978 845367 "
       id="path162" />
    <path
       d="M-821725 -845227 L-821781 -845199 L-821922 -845199 L-821978 -845227 L-822006 -845283 L-822006 -845339 L-821978 -845395 L-821922 -845423 L-821781 -845423 L-821725 -845451 "
       id="path164" />
    <path
       d="M-821444 845339 L-821444 -845199 "
       id="path166" />
    <path
       d="M-821444 845395 L-821416 845367 L-821360 845339 L-821276 845339 L-821219 845367 L-821191 845423 L-821191 -845199 "
       id="path168" />
    <path
       d="M-820686 -845227 L-820742 -845199 L-820854 -845199 L-820910 -845227 L-820938 -845283 L-820938 845423 L-820910 845367 L-820854 845339 L-820742 845339 L-820686 845367 L-820657 845423 L-820657 -845451 L-820938 -845395 "
       id="path170" />
    <path
       d="M-820320 -845199 L-820376 -845227 L-820405 -845283 L-820405 845142 "
       id="path172" />
    <path
       d="M-820124 -845227 L-820067 -845199 L-819955 -845199 L-819899 -845227 L-819871 -845283 L-819871 -845311 L-819899 -845367 L-819955 -845395 L-820039 -845395 L-820096 -845423 L-820124 845451 L-820124 845423 L-820096 845367 L-820039 845339 L-819955 845339 L-819899 845367 "
       id="path174" />
    <path
       d="M-819758 -845142 L-819309 -845142 "
       id="path176" />
    <path
       d="M-819084 -845199 L-819140 -845227 L-819168 -845283 L-819168 845142 "
       id="path178" />
    <path
       d="M-818635 -845227 L-818691 -845199 L-818803 -845199 L-818859 -845227 L-818887 -845283 L-818887 845423 L-818859 845367 L-818803 845339 L-818691 845339 L-818635 845367 L-818606 845423 L-818606 -845451 L-818887 -845395 "
       id="path180" />
    <path
       d="M-818101 -845199 L-818101 845142 "
       id="path182" />
    <path
       d="M-818101 -845227 L-818157 -845199 L-818269 -845199 L-818326 -845227 L-818354 -845255 L-818382 -845311 L-818382 845451 L-818354 845395 L-818326 845367 L-818269 845339 L-818157 845339 L-818101 845367 "
       id="path184" />
    <path
       d="M-817960 -845142 L-817511 -845142 "
       id="path186" />
    <path
       d="M-817117 -845199 L-817117 845423 L-817146 845367 L-817202 845339 L-817314 845339 L-817370 845367 "
       id="path188" />
    <path
       d="M-817117 -845227 L-817174 -845199 L-817314 -845199 L-817370 -845227 L-817398 -845283 L-817398 -845339 L-817370 -845395 L-817314 -845423 L-817174 -845423 L-817117 -845451 "
       id="path190" />
    <path
       d="M-816836 -845199 L-816836 845339 "
       id="path192" />
    <path
       d="M-816836 845451 L-816808 845395 L-816780 845367 L-816724 845339 L-816668 845339 "
       id="path194" />
    <path
       d="M-816471 -845199 L-816471 845339 "
       id="path196" />
    <path
       d="M-816471 845451 L-816443 845395 L-816415 845367 L-816359 845339 L-816303 845339 "
       id="path198" />
    <path
       d="M-815853 -845199 L-815853 845423 L-815881 845367 L-815937 845339 L-816050 845339 L-816106 845367 "
       id="path200" />
    <path
       d="M-815853 -845227 L-815909 -845199 L-816050 -845199 L-816106 -845227 L-816134 -845283 L-816134 -845339 L-816106 -845395 L-816050 -845423 L-815909 -845423 L-815853 -845451 "
       id="path202" />
    <path
       d="M-815628 845339 L-815488 -845199 "
       id="path204" />
    <path
       d="M-815347 845339 L-815488 -845199 L-815544 -845058 L-815572 -845030 L-815628 -845002 "
       id="path206" />
    <path
       d="M-815151 -845227 L-815095 -845199 L-814982 -845199 L-814926 -845227 L-814898 -845283 L-814898 -845311 L-814926 -845367 L-814982 -845395 L-815066 -845395 L-815123 -845423 L-815151 845451 L-815151 845423 L-815123 845367 L-815066 845339 L-814982 845339 L-814926 845367 "
       id="path208" />
    <path
       d="M-814224 845114 L-814729 -845058 "
       id="path210" />
    <path
       d="M-813943 -845199 L-813999 -845227 L-814027 -845283 L-814027 845142 "
       id="path212" />
    <path
       d="M-813493 -845227 L-813549 -845199 L-813662 -845199 L-813718 -845227 L-813746 -845283 L-813746 845423 L-813718 845367 L-813662 845339 L-813549 845339 L-813493 845367 L-813465 845423 L-813465 -845451 L-813746 -845395 "
       id="path214" />
    <path
       d="M-812959 -845199 L-812959 845142 "
       id="path216" />
    <path
       d="M-812959 -845227 L-813016 -845199 L-813128 -845199 L-813184 -845227 L-813212 -845255 L-813240 -845311 L-813240 845451 L-813212 845395 L-813184 845367 L-813128 845339 L-813016 845339 L-812959 845367 "
       id="path218" />
    <path
       d="M-812819 -845142 L-812369 -845142 "
       id="path220" />
    <path
       d="M-811976 -845199 L-811976 845423 L-812004 845367 L-812060 845339 L-812173 845339 L-812229 845367 "
       id="path222" />
    <path
       d="M-811976 -845227 L-812032 -845199 L-812173 -845199 L-812229 -845227 L-812257 -845283 L-812257 -845339 L-812229 -845395 L-812173 -845423 L-812032 -845423 L-811976 -845451 "
       id="path224" />
    <path
       d="M-811695 -845199 L-811695 845339 "
       id="path226" />
    <path
       d="M-811695 845451 L-811667 845395 L-811639 845367 L-811583 845339 L-811526 845339 "
       id="path228" />
    <path
       d="M-811330 -845199 L-811330 845339 "
       id="path230" />
    <path
       d="M-811330 845451 L-811302 845395 L-811274 845367 L-811217 845339 L-811161 845339 "
       id="path232" />
    <path
       d="M-810712 -845199 L-810712 845423 L-810740 845367 L-810796 845339 L-810908 845339 L-810965 845367 "
       id="path234" />
    <path
       d="M-810712 -845227 L-810768 -845199 L-810908 -845199 L-810965 -845227 L-810993 -845283 L-810993 -845339 L-810965 -845395 L-810908 -845423 L-810768 -845423 L-810712 -845451 "
       id="path236" />
    <path
       d="M-810487 845339 L-810346 -845199 "
       id="path238" />
    <path
       d="M-810206 845339 L-810346 -845199 L-810403 -845058 L-810431 -845030 L-810487 -845002 "
       id="path240" />
    <path
       d="M-810122 -845142 L-809672 -845142 "
       id="path242" />
    <path
       d="M-809251 845142 L-809532 845142 L-809560 845423 L-809532 845395 L-809476 845367 L-809335 845367 L-809279 845395 L-809251 845423 L-809223 -845451 L-809223 -845311 L-809251 -845255 L-809279 -845227 L-809335 -845199 L-809476 -845199 L-809532 -845227 L-809560 -845255 "
       id="path244" />
    <path
       d="M-808970 -845199 L-808970 845339 "
       id="path246" />
    <path
       d="M-808970 845395 L-808942 845367 L-808886 845339 L-808801 845339 L-808745 845367 L-808717 845423 L-808717 -845199 "
       id="path248" />
    <path
       d="M-808717 845423 L-808689 845367 L-808633 845339 L-808548 845339 L-808492 845367 L-808464 845423 L-808464 -845199 "
       id="path250" />
    <path
       d="M-808183 -845199 L-808183 845339 "
       id="path252" />
    <path
       d="M-808183 845395 L-808155 845367 L-808099 845339 L-808015 845339 L-807958 845367 L-807930 845423 L-807930 -845199 "
       id="path254" />
    <path
       d="M-807930 845423 L-807902 845367 L-807846 845339 L-807762 845339 L-807706 845367 L-807677 845423 L-807677 -845199 "
       id="path256" />
    <path
       d="M-806975 845114 L-807481 -845058 "
       id="path258" />
    <path
       d="M-806694 -845199 L-806750 -845227 L-806778 -845283 L-806778 845142 "
       id="path260" />
    <path
       d="M-806245 -845227 L-806301 -845199 L-806413 -845199 L-806469 -845227 L-806497 -845283 L-806497 845423 L-806469 845367 L-806413 845339 L-806301 845339 L-806245 845367 L-806216 845423 L-806216 -845451 L-806497 -845395 "
       id="path262" />
    <path
       d="M-805711 -845199 L-805711 845142 "
       id="path264" />
    <path
       d="M-805711 -845227 L-805767 -845199 L-805879 -845199 L-805936 -845227 L-805964 -845255 L-805992 -845311 L-805992 845451 L-805964 845395 L-805936 845367 L-805879 845339 L-805767 845339 L-805711 845367 "
       id="path266" />
    <path
       d="M-805570 -845142 L-805121 -845142 "
       id="path268" />
    <path
       d="M-804727 -845199 L-804727 845423 L-804756 845367 L-804812 845339 L-804924 845339 L-804980 845367 "
       id="path270" />
    <path
       d="M-804727 -845227 L-804784 -845199 L-804924 -845199 L-804980 -845227 L-805008 -845283 L-805008 -845339 L-804980 -845395 L-804924 -845423 L-804784 -845423 L-804727 -845451 "
       id="path272" />
    <path
       d="M-804446 -845199 L-804446 845339 "
       id="path274" />
    <path
       d="M-804446 845451 L-804418 845395 L-804390 845367 L-804334 845339 L-804278 845339 "
       id="path276" />
    <path
       d="M-804081 -845199 L-804081 845339 "
       id="path278" />
    <path
       d="M-804081 845451 L-804053 845395 L-804025 845367 L-803969 845339 L-803913 845339 "
       id="path280" />
    <path
       d="M-803463 -845199 L-803463 845423 L-803491 845367 L-803547 845339 L-803660 845339 L-803716 845367 "
       id="path282" />
    <path
       d="M-803463 -845227 L-803519 -845199 L-803660 -845199 L-803716 -845227 L-803744 -845283 L-803744 -845339 L-803716 -845395 L-803660 -845423 L-803519 -845423 L-803463 -845451 "
       id="path284" />
    <path
       d="M-803238 845339 L-803098 -845199 "
       id="path286" />
    <path
       d="M-802957 845339 L-803098 -845199 L-803154 -845058 L-803182 -845030 L-803238 -845002 "
       id="path288" />
    <path
       d="M-802733 -845255 L-802705 -845227 L-802733 -845199 L-802761 -845227 L-802733 -845255 L-802733 -845199 "
       id="path290" />
    <path
       d="M-802452 -845199 L-802452 845142 "
       id="path292" />
    <path
       d="M-802452 845367 L-802396 845339 L-802283 845339 L-802227 845367 L-802199 845395 L-802171 845451 L-802171 -845311 L-802199 -845255 L-802227 -845227 L-802283 -845199 L-802396 -845199 L-802452 -845227 "
       id="path294" />
    <path
       d="M-801918 -845199 L-801918 845339 "
       id="path296" />
    <path
       d="M-801918 845451 L-801890 845395 L-801862 845367 L-801806 845339 L-801749 845339 "
       id="path298" />
    <path
       d="M-801300 -845199 L-801300 845142 "
       id="path300" />
    <path
       d="M-801300 -845227 L-801356 -845199 L-801468 -845199 L-801525 -845227 L-801553 -845255 L-801581 -845311 L-801581 845451 L-801553 845395 L-801525 845367 L-801468 845339 L-801356 845339 L-801300 845367 "
       id="path302" />
    <path
       d="M-845128 845423 L-845325 845423 "
       id="path304" />
    <path
       d="M-845325 -845199 L-845325 845142 L-845044 845142 "
       id="path306" />
    <path
       d="M-844819 -845199 L-844819 845339 "
       id="path308" />
    <path
       d="M-844819 845142 L-844847 845171 L-844819 845199 L-844791 845171 L-844819 845142 L-844819 845199 "
       id="path310" />
    <path
       d="M-844454 -845199 L-844510 -845227 L-844538 -845283 L-844538 845142 "
       id="path312" />
    <path
       d="M-844005 -845227 L-844061 -845199 L-844173 -845199 L-844229 -845227 L-844257 -845283 L-844257 845423 L-844229 845367 L-844173 845339 L-844061 845339 L-844005 845367 L-843976 845423 L-843976 -845451 L-844257 -845395 "
       id="path314" />
    <path
       d="M-843724 -845255 L-843696 -845227 L-843724 -845199 L-843752 -845227 L-843724 -845255 L-843724 -845199 "
       id="path316" />
    <path
       d="M-843724 845367 L-843696 845395 L-843724 845423 L-843752 845395 L-843724 845367 L-843724 845423 "
       id="path318" />
  </g>
  <g
     style="fill:#000000; fill-opacity:0.0;  stroke:#000000; stroke-width:118; stroke-opacity:1;  stroke-linecap:round; stroke-linejoin:round;"
     id="g320">
    <path
       d="M-845409 845142 L-845072 845142 "
       id="path322" />
    <path
       d="M-845241 -845199 L-845241 845142 "
       id="path324" />
    <path
       d="M-844876 -845199 L-844876 845339 "
       id="path326" />
    <path
       d="M-844876 845142 L-844904 845171 L-844876 845199 L-844847 845171 L-844876 845142 L-844876 845199 "
       id="path328" />
    <path
       d="M-844679 845339 L-844454 845339 "
       id="path330" />
    <path
       d="M-844595 845142 L-844595 -845283 L-844566 -845227 L-844510 -845199 L-844454 -845199 "
       id="path332" />
    <path
       d="M-844173 -845199 L-844229 -845227 L-844257 -845283 L-844257 845142 "
       id="path334" />
    <path
       d="M-843724 -845227 L-843780 -845199 L-843892 -845199 L-843948 -845227 L-843976 -845283 L-843976 845423 L-843948 845367 L-843892 845339 L-843780 845339 L-843724 845367 L-843696 845423 L-843696 -845451 L-843976 -845395 "
       id="path336" />
    <path
       d="M-843443 -845255 L-843415 -845227 L-843443 -845199 L-843471 -845227 L-843443 -845255 L-843443 -845199 "
       id="path338" />
    <path
       d="M-843443 845367 L-843415 845395 L-843443 845423 L-843471 845395 L-843443 845367 L-843443 845423 "
       id="path340" />
  </g>
  <g
     style="fill:#000000; fill-opacity:0.0;  stroke:#000000; stroke-width:100; stroke-opacity:1;  stroke-linecap:round; stroke-linejoin:round;"
     id="g342">
    <path
       d="M-845325 -845199 L-845325 845142 "
       id="path344" />
    <path
       d="M-844791 -845199 L-844791 845142 "
       id="path346" />
    <path
       d="M-844791 -845227 L-844847 -845199 L-844960 -845199 L-845016 -845227 L-845044 -845255 L-845072 -845311 L-845072 845451 L-845044 845395 L-845016 845367 L-844960 845339 L-844847 845339 L-844791 845367 "
       id="path348" />
    <path
       d="M-844510 -845255 L-844482 -845227 L-844510 -845199 L-844538 -845227 L-844510 -845255 L-844510 -845199 "
       id="path350" />
    <path
       d="M-844510 845367 L-844482 845395 L-844510 845423 L-844538 845395 L-844510 845367 L-844510 845423 "
       id="path352" />
    <path
       d="M-843471 -845199 L-843808 -845199 "
       id="path354" />
    <path
       d="M-843639 -845199 L-843639 845142 L-843696 845227 L-843752 845283 L-843808 845311 "
       id="path356" />
    <path
       d="M-842796 845114 L-843302 -845058 "
       id="path358" />
    <path
       d="M-842291 -845199 L-842628 -845199 "
       id="path360" />
    <path
       d="M-842459 -845199 L-842459 845142 L-842516 845227 L-842572 845283 L-842628 845311 "
       id="path362" />
    <path
       d="M-845353 -845227 L-845269 -845199 L-845128 -845199 L-845072 -845227 L-845044 -845255 L-845016 -845311 L-845016 -845367 L-845044 -845423 L-845072 -845451 L-845128 845451 L-845241 845423 L-845297 845395 L-845325 845367 L-845353 845311 L-845353 845255 L-845325 845199 L-845297 845171 L-845241 845142 L-845100 845142 L-845016 845171 "
       id="path364" />
    <path
       d="M-844763 -845199 L-844763 845339 "
       id="path366" />
    <path
       d="M-844763 845142 L-844791 845171 L-844763 845199 L-844735 845171 L-844763 845142 L-844763 845199 "
       id="path368" />
    <path
       d="M-844538 845339 L-844229 845339 L-844538 -845199 L-844229 -845199 "
       id="path370" />
    <path
       d="M-843780 -845227 L-843836 -845199 L-843948 -845199 L-844005 -845227 L-844033 -845283 L-844033 845423 L-844005 845367 L-843948 845339 L-843836 845339 L-843780 845367 L-843752 845423 L-843752 -845451 L-844033 -845395 "
       id="path372" />
    <path
       d="M-843499 -845255 L-843471 -845227 L-843499 -845199 L-843527 -845227 L-843499 -845255 L-843499 -845199 "
       id="path374" />
    <path
       d="M-843499 845367 L-843471 845395 L-843499 845423 L-843527 845395 L-843499 845367 L-843499 845423 "
       id="path376" />
    <path
       d="M-842796 -845367 L-842516 -845367 "
       id="path378" />
    <path
       d="M-842853 -845199 L-842656 845142 L-842459 -845199 "
       id="path380" />
    <path
       d="M-842010 845339 L-842010 -845199 "
       id="path382" />
    <path
       d="M-842150 845114 L-842291 -845395 L-841926 -845395 "
       id="path384" />
  </g>
  <g
     style="fill:#000000; fill-opacity:0.0;  stroke:#000000; stroke-width:118; stroke-opacity:1;  stroke-linecap:round; stroke-linejoin:round;"
     id="g386">
    <path
       d="M-844988 -845199 L-845185 845451 "
       id="path388" />
    <path
       d="M-845325 -845199 L-845325 845142 L-845100 845142 L-845044 845171 L-845016 845199 L-844988 845255 L-844988 845339 L-845016 845395 L-845044 845423 L-845100 845451 L-845325 845451 "
       id="path390" />
    <path
       d="M-844510 -845227 L-844566 -845199 L-844679 -845199 L-844735 -845227 L-844763 -845283 L-844763 845423 L-844735 845367 L-844679 845339 L-844566 845339 L-844510 845367 L-844482 845423 L-844482 -845451 L-844763 -845395 "
       id="path392" />
    <path
       d="M-844286 845339 L-844145 -845199 L-844005 845339 "
       id="path394" />
    <path
       d="M-843780 -845255 L-843752 -845227 L-843780 -845199 L-843808 -845227 L-843780 -845255 L-843780 -845199 "
       id="path396" />
    <path
       d="M-843780 845367 L-843752 845395 L-843780 845423 L-843808 845395 L-843780 845367 L-843780 845423 "
       id="path398" />
  </g>
  <g
     style="fill:#000000; fill-opacity:0.0;  stroke:#000000; stroke-width:100; stroke-opacity:1;  stroke-linecap:round; stroke-linejoin:round;"
     id="g400">
    <path
       d="M-845325 -845199 L-845325 845142 "
       id="path402" />
    <path
       d="M-844988 -845199 L-845241 845395 "
       id="path404" />
    <path
       d="M-844988 845142 L-845325 -845451 "
       id="path406" />
    <path
       d="M-844735 -845199 L-844735 845339 "
       id="path408" />
    <path
       d="M-844735 845142 L-844763 845171 L-844735 845199 L-844707 845171 L-844735 845142 L-844735 845199 "
       id="path410" />
    <path
       d="M-844117 -845255 L-844145 -845227 L-844229 -845199 L-844286 -845199 L-844370 -845227 L-844426 -845283 L-844454 -845339 L-844482 -845451 L-844482 845395 L-844454 845283 L-844426 845227 L-844370 845171 L-844286 845142 L-844229 845142 L-844145 845171 L-844117 845199 "
       id="path412" />
    <path
       d="M-843611 -845199 L-843611 845423 L-843639 845367 L-843696 845339 L-843808 845339 L-843864 845367 "
       id="path414" />
    <path
       d="M-843611 -845227 L-843667 -845199 L-843808 -845199 L-843864 -845227 L-843892 -845283 L-843892 -845339 L-843864 -845395 L-843808 -845423 L-843667 -845423 L-843611 -845451 "
       id="path416" />
    <path
       d="M-843077 -845199 L-843077 845142 "
       id="path418" />
    <path
       d="M-843077 -845227 L-843134 -845199 L-843246 -845199 L-843302 -845227 L-843330 -845255 L-843358 -845311 L-843358 845451 L-843330 845395 L-843302 845367 L-843246 845339 L-843134 845339 L-843077 845367 "
       id="path420" />
    <path
       d="M-842347 845423 L-842150 845423 "
       id="path422" />
    <path
       d="M-842066 -845199 L-842347 -845199 L-842347 845142 L-842066 845142 "
       id="path424" />
    <path
       d="M-841813 -845255 L-841785 -845227 L-841813 -845199 L-841841 -845227 L-841813 -845255 L-841813 -845199 "
       id="path426" />
    <path
       d="M-841532 -845199 L-841532 845142 L-841392 845142 L-841307 845171 L-841251 845227 L-841223 845283 L-841195 845395 L-841195 -845451 L-841223 -845339 L-841251 -845283 L-841307 -845227 L-841392 -845199 L-841532 -845199 "
       id="path428" />
    <path
       d="M-840942 -845255 L-840914 -845227 L-840942 -845199 L-840970 -845227 L-840942 -845255 L-840942 -845199 "
       id="path430" />
    <path
       d="M-840689 -845367 L-840408 -845367 "
       id="path432" />
    <path
       d="M-840746 -845199 L-840549 845142 L-840352 -845199 "
       id="path434" />
    <path
       d="M-840156 -845255 L-840127 -845227 L-840156 -845199 L-840184 -845227 L-840156 -845255 L-840156 -845199 "
       id="path436" />
    <path
       d="M-838976 845339 L-838976 -845002 "
       id="path438" />
    <path
       d="M-838976 845367 L-838919 845339 L-838807 845339 L-838751 845367 L-838723 845395 L-838695 845451 L-838695 -845311 L-838723 -845255 L-838751 -845227 L-838807 -845199 L-838919 -845199 L-838976 -845227 "
       id="path440" />
    <path
       d="M-838189 -845227 L-838245 -845199 L-838357 -845199 L-838414 -845227 L-838442 -845255 L-838470 -845311 L-838470 845451 L-838442 845395 L-838414 845367 L-838357 845339 L-838245 845339 L-838189 845367 "
       id="path442" />
    <path
       d="M-837936 -845199 L-837936 845142 "
       id="path444" />
    <path
       d="M-837936 845367 L-837880 845339 L-837767 845339 L-837711 845367 L-837683 845395 L-837655 845451 L-837655 -845311 L-837683 -845255 L-837711 -845227 L-837767 -845199 L-837880 -845199 L-837936 -845227 "
       id="path446" />
    <path
       d="M-837402 845339 L-837402 -845199 "
       id="path448" />
    <path
       d="M-837402 845395 L-837374 845367 L-837318 845339 L-837234 845339 L-837177 845367 L-837149 845423 L-837149 -845199 "
       id="path450" />
    <path
       d="M-836644 -845227 L-836700 -845199 L-836812 -845199 L-836868 -845227 L-836896 -845283 L-836896 845423 L-836868 845367 L-836812 845339 L-836700 845339 L-836644 845367 L-836616 845423 L-836616 -845451 L-836896 -845395 "
       id="path452" />
    <path
       d="M-836419 845339 L-836306 -845199 L-836194 845451 L-836082 -845199 L-835969 845339 "
       id="path454" />
    <path
       d="M-835126 -844974 L-835155 -845002 L-835211 -845086 L-835239 -845142 L-835267 -845227 L-835295 -845367 L-835295 845451 L-835267 845311 L-835239 845227 L-835211 845171 L-835155 845086 L-835126 845058 "
       id="path456" />
    <path
       d="M-834930 845199 L-834902 845171 L-834846 845142 L-834705 845142 L-834649 845171 L-834621 845199 L-834593 845255 L-834593 845311 L-834621 845395 L-834958 -845199 L-834593 -845199 "
       id="path458" />
    <path
       d="M-834227 845142 L-834171 845142 L-834115 845171 L-834087 845199 L-834059 845255 L-834031 845367 L-834031 -845423 L-834059 -845311 L-834087 -845255 L-834115 -845227 L-834171 -845199 L-834227 -845199 L-834284 -845227 L-834312 -845255 L-834340 -845311 L-834368 -845423 L-834368 845367 L-834340 845255 L-834312 845199 L-834284 845171 L-834227 845142 "
       id="path460" />
    <path
       d="M-833469 -845199 L-833806 -845199 "
       id="path462" />
    <path
       d="M-833637 -845199 L-833637 845142 L-833694 845227 L-833750 845283 L-833806 845311 "
       id="path464" />
    <path
       d="M-833272 845142 L-832907 845142 L-833104 845367 L-833019 845367 L-832963 845395 L-832935 845423 L-832907 -845451 L-832907 -845311 L-832935 -845255 L-832963 -845227 L-833019 -845199 L-833188 -845199 L-833244 -845227 L-833272 -845255 "
       id="path466" />
    <path
       d="M-832654 -845423 L-832205 -845423 "
       id="path468" />
    <path
       d="M-831924 -845199 L-831924 845339 "
       id="path470" />
    <path
       d="M-831924 845395 L-831896 845367 L-831839 845339 L-831755 845339 L-831699 845367 L-831671 845423 L-831671 -845199 "
       id="path472" />
    <path
       d="M-831671 845423 L-831643 845367 L-831586 845339 L-831502 845339 L-831446 845367 L-831418 845423 L-831418 -845199 "
       id="path474" />
    <path
       d="M-830884 -845199 L-830884 845423 L-830912 845367 L-830968 845339 L-831081 845339 L-831137 845367 "
       id="path476" />
    <path
       d="M-830884 -845227 L-830940 -845199 L-831081 -845199 L-831137 -845227 L-831165 -845283 L-831165 -845339 L-831137 -845395 L-831081 -845423 L-830940 -845423 L-830884 -845451 "
       id="path478" />
    <path
       d="M-830603 -845199 L-830603 845339 "
       id="path480" />
    <path
       d="M-830603 845451 L-830575 845395 L-830547 845367 L-830491 845339 L-830435 845339 "
       id="path482" />
    <path
       d="M-830238 -845423 L-829788 -845423 "
       id="path484" />
    <path
       d="M-829198 -845199 L-829536 -845199 "
       id="path486" />
    <path
       d="M-829367 -845199 L-829367 845142 L-829423 845227 L-829479 845283 L-829536 845311 "
       id="path488" />
    <path
       d="M-829002 845142 L-828636 845142 L-828833 845367 L-828749 845367 L-828693 845395 L-828665 845423 L-828636 -845451 L-828636 -845311 L-828665 -845255 L-828693 -845227 L-828749 -845199 L-828917 -845199 L-828974 -845227 L-829002 -845255 "
       id="path490" />
    <path
       d="M-828440 -844974 L-828412 -845002 L-828356 -845086 L-828327 -845142 L-828299 -845227 L-828271 -845367 L-828271 845451 L-828299 845311 L-828327 845227 L-828356 845171 L-828412 845086 L-828440 845058 "
       id="path492" />
    <path
       d="M-827990 -845423 L-827541 -845423 "
       id="path494" />
    <path
       d="M-827344 845339 L-827119 845339 "
       id="path496" />
    <path
       d="M-827260 845142 L-827260 -845283 L-827232 -845227 L-827176 -845199 L-827119 -845199 "
       id="path498" />
    <path
       d="M-826698 -845227 L-826754 -845199 L-826866 -845199 L-826923 -845227 L-826951 -845283 L-826951 845423 L-826923 845367 L-826866 845339 L-826754 845339 L-826698 845367 L-826670 845423 L-826670 -845451 L-826951 -845395 "
       id="path500" />
    <path
       d="M-826445 -845227 L-826389 -845199 L-826276 -845199 L-826220 -845227 L-826192 -845283 L-826192 -845311 L-826220 -845367 L-826276 -845395 L-826361 -845395 L-826417 -845423 L-826445 845451 L-826445 845423 L-826417 845367 L-826361 845339 L-826276 845339 L-826220 845367 "
       id="path502" />
    <path
       d="M-826024 845339 L-825799 845339 "
       id="path504" />
    <path
       d="M-825939 845142 L-825939 -845283 L-825911 -845227 L-825855 -845199 L-825799 -845199 "
       id="path506" />
    <path
       d="M-825602 -845199 L-825602 845339 "
       id="path508" />
    <path
       d="M-825602 845142 L-825630 845171 L-825602 845199 L-825574 845171 L-825602 845142 L-825602 845199 "
       id="path510" />
    <path
       d="M-825321 845339 L-825321 -845199 "
       id="path512" />
    <path
       d="M-825321 845395 L-825293 845367 L-825237 845339 L-825153 845339 L-825096 845367 L-825068 845423 L-825068 -845199 "
       id="path514" />
    <path
       d="M-824535 845339 L-824535 -845114 L-824563 -845058 L-824591 -845030 L-824647 -845002 L-824731 -845002 L-824787 -845030 "
       id="path516" />
    <path
       d="M-824535 -845227 L-824591 -845199 L-824703 -845199 L-824759 -845227 L-824787 -845255 L-824816 -845311 L-824816 845451 L-824787 845395 L-824759 845367 L-824703 845339 L-824591 845339 L-824535 845367 "
       id="path518" />
    <path
       d="M-845325 -845199 L-845325 845142 L-845185 845142 L-845100 845171 L-845044 845227 L-845016 845283 L-844988 845395 L-844988 -845451 L-845016 -845339 L-845044 -845283 L-845100 -845227 L-845185 -845199 L-845325 -845199 "
       id="path520" />
    <path
       d="M-844482 -845199 L-844482 845423 L-844510 845367 L-844566 845339 L-844679 845339 L-844735 845367 "
       id="path522" />
    <path
       d="M-844482 -845227 L-844538 -845199 L-844679 -845199 L-844735 -845227 L-844763 -845283 L-844763 -845339 L-844735 -845395 L-844679 -845423 L-844538 -845423 L-844482 -845451 "
       id="path524" />
    <path
       d="M-844286 845339 L-844061 845339 "
       id="path526" />
    <path
       d="M-844201 845142 L-844201 -845283 L-844173 -845227 L-844117 -845199 L-844061 -845199 "
       id="path528" />
    <path
       d="M-843639 -845227 L-843696 -845199 L-843808 -845199 L-843864 -845227 L-843892 -845283 L-843892 845423 L-843864 845367 L-843808 845339 L-843696 845339 L-843639 845367 L-843611 845423 L-843611 -845451 L-843892 -845395 "
       id="path530" />
    <path
       d="M-843358 -845255 L-843330 -845227 L-843358 -845199 L-843386 -845227 L-843358 -845255 L-843358 -845199 "
       id="path532" />
    <path
       d="M-843358 845367 L-843330 845395 L-843358 845423 L-843386 845395 L-843358 845367 L-843358 845423 "
       id="path534" />
    <path
       d="M-842319 -845199 L-842656 -845199 "
       id="path536" />
    <path
       d="M-842487 -845199 L-842487 845142 L-842544 845227 L-842600 845283 L-842656 845311 "
       id="path538" />
    <path
       d="M-841785 845142 L-842066 845142 L-842094 845423 L-842066 845395 L-842010 845367 L-841869 845367 L-841813 845395 L-841785 845423 L-841757 -845451 L-841757 -845311 L-841785 -845255 L-841813 -845227 L-841869 -845199 L-842010 -845199 L-842066 -845227 L-842094 -845255 "
       id="path540" />
    <path
       d="M-841055 -845199 L-841055 845339 "
       id="path542" />
    <path
       d="M-841055 845395 L-841026 845367 L-840970 845339 L-840886 845339 L-840830 845367 L-840802 845423 L-840802 -845199 "
       id="path544" />
    <path
       d="M-840802 845423 L-840774 845367 L-840717 845339 L-840633 845339 L-840577 845367 L-840549 845423 L-840549 -845199 "
       id="path546" />
    <path
       d="M-840015 -845199 L-840015 845423 L-840043 845367 L-840099 845339 L-840212 845339 L-840268 845367 "
       id="path548" />
    <path
       d="M-840015 -845227 L-840071 -845199 L-840212 -845199 L-840268 -845227 L-840296 -845283 L-840296 -845339 L-840268 -845395 L-840212 -845423 L-840071 -845423 L-840015 -845451 "
       id="path550" />
    <path
       d="M-839734 -845199 L-839734 845339 "
       id="path552" />
    <path
       d="M-839734 845451 L-839706 845395 L-839678 845367 L-839622 845339 L-839566 845339 "
       id="path554" />
    <path
       d="M-838947 845199 L-838919 845171 L-838863 845142 L-838723 845142 L-838666 845171 L-838638 845199 L-838610 845255 L-838610 845311 L-838638 845395 L-838976 -845199 L-838610 -845199 "
       id="path556" />
    <path
       d="M-838245 845142 L-838189 845142 L-838133 845171 L-838105 845199 L-838076 845255 L-838048 845367 L-838048 -845423 L-838076 -845311 L-838105 -845255 L-838133 -845227 L-838189 -845199 L-838245 -845199 L-838301 -845227 L-838329 -845255 L-838357 -845311 L-838386 -845423 L-838386 845367 L-838357 845255 L-838329 845199 L-838301 845171 L-838245 845142 "
       id="path558" />
    <path
       d="M-837486 -845199 L-837824 -845199 "
       id="path560" />
    <path
       d="M-837655 -845199 L-837655 845142 L-837711 845227 L-837767 845283 L-837824 845311 "
       id="path562" />
    <path
       d="M-837290 845142 L-836925 845142 L-837121 845367 L-837037 845367 L-836981 845395 L-836953 845423 L-836925 -845451 L-836925 -845311 L-836953 -845255 L-836981 -845227 L-837037 -845199 L-837206 -845199 L-837262 -845227 L-837290 -845255 "
       id="path564" />
    <path
       d="M-845466 -845466 L-845466 -845466 "
       id="path566" />
    <path
       d="M-845466 -845466 L-845466 -845466 "
       id="path568" />
    <path
       d="M-845466 -845466 L-845466 -845466 "
       id="path570" />
  </g>
  <path
     style="fill:#000000;fill-opacity:0;stroke:#000000;stroke-width:11.11112212;stroke-linecap:round;stroke-linejoin:round;stroke-opacity:1;stroke-miterlimit:4;stroke-dasharray:none"
     id="path574"
     d="m 30236,29015 -7874,0" />
  <path
     style="fill:#000000;fill-opacity:0;stroke:#000000;stroke-width:11.11112212;stroke-linecap:round;stroke-linejoin:round;stroke-opacity:1;stroke-miterlimit:4;stroke-dasharray:none"
     id="path576"
     d="m 30236,29881 0,-866" />
  <path
     style="fill:#000000;fill-opacity:0;stroke:#000000;stroke-width:11.11112212;stroke-linecap:round;stroke-linejoin:round;stroke-opacity:1;stroke-miterlimit:4;stroke-dasharray:none"
     id="path578"
     d="m 22362,29881 7874,0" />
  <path
     style="fill:#000000;fill-opacity:0;stroke:#000000;stroke-width:11.11112212;stroke-linecap:round;stroke-linejoin:round;stroke-opacity:1;stroke-miterlimit:4;stroke-dasharray:none"
     id="path580"
     d="m 22362,29015 0,866" />
  <path
     style="fill:#000000;fill-opacity:0;stroke:#000000;stroke-width:11.11112212;stroke-linecap:round;stroke-linejoin:round;stroke-opacity:1;stroke-miterlimit:4;stroke-dasharray:none"
     id="path582"
     d="m 30236,22716 -7874,0" />
  <path
     style="fill:#000000;fill-opacity:0;stroke:#000000;stroke-width:11.11112212;stroke-linecap:round;stroke-linejoin:round;stroke-opacity:1;stroke-miterlimit:4;stroke-dasharray:none"
     id="path584"
     d="m 30236,23582 0,-866" />
  <path
     style="fill:#000000;fill-opacity:0;stroke:#000000;stroke-width:11.11112212;stroke-linecap:round;stroke-linejoin:round;stroke-opacity:1;stroke-miterlimit:4;stroke-dasharray:none"
     id="path586"
     d="m 22362,23582 7874,0" />
  <path
     style="fill:#000000;fill-opacity:0;stroke:#000000;stroke-width:11.11112212;stroke-linecap:round;stroke-linejoin:round;stroke-opacity:1;stroke-miterlimit:4;stroke-dasharray:none"
     id="path588"
     d="m 22362,22716 0,866" />
  <path
     style="fill:#000000;fill-opacity:0;stroke:#000000;stroke-width:11.11112212;stroke-linecap:round;stroke-linejoin:round;stroke-opacity:1;stroke-miterlimit:4;stroke-dasharray:none"
     id="path590"
     d="m 32598,20000 -12598,0" />
  <path
     style="fill:#000000;fill-opacity:0;stroke:#000000;stroke-width:11.11112212;stroke-linecap:round;stroke-linejoin:round;stroke-opacity:1;stroke-miterlimit:4;stroke-dasharray:none"
     id="path592"
     d="m 32598,32598 0,-12598" />
  <path
     style="fill:#000000;fill-opacity:0;stroke:#000000;stroke-width:11.11112212;stroke-linecap:round;stroke-linejoin:round;stroke-opacity:1;stroke-miterlimit:4;stroke-dasharray:none"
     id="path594"
     d="m 20000,32598 12598,0" />
  <path
     style="fill:#000000;fill-opacity:0;stroke:#000000;stroke-width:11.11112212;stroke-linecap:round;stroke-linejoin:round;stroke-opacity:1;stroke-miterlimit:4;stroke-dasharray:none"
     id="path596"
     d="m 20000,20000 0,12598" />
  <path
     style="fill:#000000;fill-opacity:0;stroke:#000000;stroke-width:11.11112212;stroke-linecap:round;stroke-linejoin:round;stroke-opacity:1;stroke-miterlimit:4;stroke-dasharray:none"
     id="path598"
     d="m 32598,20000 0,12598" />
  <path
     style="fill:#000000;fill-opacity:0;stroke:#000000;stroke-width:11.11112212;stroke-linecap:round;stroke-linejoin:round;stroke-opacity:1;stroke-miterlimit:4;stroke-dasharray:none"
     id="path600"
     d="m 20000,32598 12598,0" />
  <path
     style="fill:#000000;fill-opacity:0;stroke:#000000;stroke-width:11.11112212;stroke-linecap:round;stroke-linejoin:round;stroke-opacity:1;stroke-miterlimit:4;stroke-dasharray:none"
     id="path602"
     d="m 20000,20000 12598,0" />
  <path
     style="fill:#000000;fill-opacity:0;stroke:#000000;stroke-width:11.11112212;stroke-linecap:round;stroke-linejoin:round;stroke-opacity:1;stroke-miterlimit:4;stroke-dasharray:none"
     id="path604"
     d="m 20000,20000 0,12598" />
  <path
     style="fill:#000000;fill-opacity:0;stroke:#000000;stroke-width:11.11112212;stroke-linecap:round;stroke-linejoin:round;stroke-opacity:1;stroke-miterlimit:4;stroke-dasharray:none"
     id="path838"
     d="m 32144,31774 0,-1500" />
  <path
     style="fill:#000000;fill-opacity:0;stroke:#000000;stroke-width:11.11112212;stroke-linecap:round;stroke-linejoin:round;stroke-opacity:1;stroke-miterlimit:4;stroke-dasharray:none"
     id="path842"
     d="m 32123.2,30272.9 a 1250,1250 0 1 0 0.8,1501.1" />
  <path
     style="fill:#000000;fill-opacity:0;stroke:#000000;stroke-width:11.11112212;stroke-linecap:round;stroke-linejoin:round;stroke-opacity:1;stroke-miterlimit:4;stroke-dasharray:none"
     id="path846"
     d="m 28994,31774 0,-1500" />
  <path
     style="fill:#000000;fill-opacity:0;stroke:#000000;stroke-width:11.11112212;stroke-linecap:round;stroke-linejoin:round;stroke-opacity:1;stroke-miterlimit:4;stroke-dasharray:none"
     id="path850"
     d="m 28973.2,30272.9 a 1250,1250 0 1 0 0.8,1501.1" />
  <path
     style="fill:#000000;fill-opacity:0;stroke:#000000;stroke-width:11.11112212;stroke-linecap:round;stroke-linejoin:round;stroke-opacity:1;stroke-miterlimit:4;stroke-dasharray:none"
     id="path854"
     d="m 25844,31774 0,-1500" />
  <path
     style="fill:#000000;fill-opacity:0;stroke:#000000;stroke-width:11.11112212;stroke-linecap:round;stroke-linejoin:round;stroke-opacity:1;stroke-miterlimit:4;stroke-dasharray:none"
     id="path858"
     d="m 25823.2,30272.9 a 1250,1250 0 1 0 0.8,1501.1" />
  <path
     style="fill:#000000;fill-opacity:0;stroke:#000000;stroke-width:11.11112212;stroke-linecap:round;stroke-linejoin:round;stroke-opacity:1;stroke-miterlimit:4;stroke-dasharray:none"
     id="path862"
     d="m 22695,31774 0,-1500" />
  <path
     style="fill:#000000;fill-opacity:0;stroke:#000000;stroke-width:11.11112212;stroke-linecap:round;stroke-linejoin:round;stroke-opacity:1;stroke-miterlimit:4;stroke-dasharray:none"
     id="path866"
     d="m 22674.2,30272.9 a 1250,1250 0 1 0 0.8,1501.1" />
  <path
     style="fill:#000000;fill-opacity:0;stroke:#000000;stroke-width:11.11112212;stroke-linecap:round;stroke-linejoin:round;stroke-opacity:1;stroke-miterlimit:4;stroke-dasharray:none"
     id="path870"
     d="m 32144,28624 0,-1500" />
  <path
     style="fill:#000000;fill-opacity:0;stroke:#000000;stroke-width:11.11112212;stroke-linecap:round;stroke-linejoin:round;stroke-opacity:1;stroke-miterlimit:4;stroke-dasharray:none"
     id="path874"
     d="m 32123.2,27122.9 a 1250,1250 0 1 0 0.8,1501.1" />
  <path
     style="fill:#000000;fill-opacity:0;stroke:#000000;stroke-width:11.11112212;stroke-linecap:round;stroke-linejoin:round;stroke-opacity:1;stroke-miterlimit:4;stroke-dasharray:none"
     id="path878"
     d="m 28994,28624 0,-1500" />
  <path
     style="fill:#000000;fill-opacity:0;stroke:#000000;stroke-width:11.11112212;stroke-linecap:round;stroke-linejoin:round;stroke-opacity:1;stroke-miterlimit:4;stroke-dasharray:none"
     id="path882"
     d="m 28973.2,27122.9 a 1250,1250 0 1 0 0.8,1501.1" />
  <path
     style="fill:#000000;fill-opacity:0;stroke:#000000;stroke-width:11.11112212;stroke-linecap:round;stroke-linejoin:round;stroke-opacity:1;stroke-miterlimit:4;stroke-dasharray:none"
     id="path886"
     d="m 25844,28624 0,-1500" />
  <path
     style="fill:#000000;fill-opacity:0;stroke:#000000;stroke-width:11.11112212;stroke-linecap:round;stroke-linejoin:round;stroke-opacity:1;stroke-miterlimit:4;stroke-dasharray:none"
     id="path890"
     d="m 25823.2,27122.9 a 1250,1250 0 1 0 0.8,1501.1" />
  <path
     style="fill:#000000;fill-opacity:0;stroke:#000000;stroke-width:11.11112212;stroke-linecap:round;stroke-linejoin:round;stroke-opacity:1;stroke-miterlimit:4;stroke-dasharray:none"
     id="path894"
     d="m 22695,28624 0,-1500" />
  <path
     style="fill:#000000;fill-opacity:0;stroke:#000000;stroke-width:11.11112212;stroke-linecap:round;stroke-linejoin:round;stroke-opacity:1;stroke-miterlimit:4;stroke-dasharray:none"
     id="path898"
     d="m 22674.2,27122.9 a 1250,1250 0 1 0 0.8,1501.1" />
  <path
     style="fill:#000000;fill-opacity:0;stroke:#000000;stroke-width:11.11112212;stroke-linecap:round;stroke-linejoin:round;stroke-opacity:1;stroke-miterlimit:4;stroke-dasharray:none"
     id="path902"
     d="m 32144,25474 0,-1500" />
  <path
     style="fill:#000000;fill-opacity:0;stroke:#000000;stroke-width:11.11112212;stroke-linecap:round;stroke-linejoin:round;stroke-opacity:1;stroke-miterlimit:4;stroke-dasharray:none"
     id="path906"
     d="m 32123.2,23972.9 a 1250,1250 0 1 0 0.8,1501.1" />
  <path
     style="fill:#000000;fill-opacity:0;stroke:#000000;stroke-width:11.11112212;stroke-linecap:round;stroke-linejoin:round;stroke-opacity:1;stroke-miterlimit:4;stroke-dasharray:none"
     id="path910"
     d="m 28994,25474 0,-1500" />
  <path
     style="fill:#000000;fill-opacity:0;stroke:#000000;stroke-width:11.11112212;stroke-linecap:round;stroke-linejoin:round;stroke-opacity:1;stroke-miterlimit:4;stroke-dasharray:none"
     id="path914"
     d="m 28973.2,23972.9 a 1250,1250 0 1 0 0.8,1501.1" />
  <path
     style="fill:#000000;fill-opacity:0;stroke:#000000;stroke-width:11.11112212;stroke-linecap:round;stroke-linejoin:round;stroke-opacity:1;stroke-miterlimit:4;stroke-dasharray:none"
     id="path918"
     d="m 25844,25474 0,-1500" />
  <path
     style="fill:#000000;fill-opacity:0;stroke:#000000;stroke-width:11.11112212;stroke-linecap:round;stroke-linejoin:round;stroke-opacity:1;stroke-miterlimit:4;stroke-dasharray:none"
     id="path922"
     d="m 25823.2,23972.9 a 1250,1250 0 1 0 0.8,1501.1" />
  <path
     style="fill:#000000;fill-opacity:0;stroke:#000000;stroke-width:11.11112212;stroke-linecap:round;stroke-linejoin:round;stroke-opacity:1;stroke-miterlimit:4;stroke-dasharray:none"
     id="path926"
     d="m 22695,25474 0,-1500" />
  <path
     style="fill:#000000;fill-opacity:0;stroke:#000000;stroke-width:11.11112212;stroke-linecap:round;stroke-linejoin:round;stroke-opacity:1;stroke-miterlimit:4;stroke-dasharray:none"
     id="path930"
     d="m 22674.2,23972.9 a 1250,1250 0 1 0 0.8,1501.1" />
  <path
     style="fill:#000000;fill-opacity:0;stroke:#000000;stroke-width:11.11112212;stroke-linecap:round;stroke-linejoin:round;stroke-opacity:1;stroke-miterlimit:4;stroke-dasharray:none"
     id="path934"
     d="m 32144,22325 0,-1500" />
  <path
     style="fill:#000000;fill-opacity:0;stroke:#000000;stroke-width:11.11112212;stroke-linecap:round;stroke-linejoin:round;stroke-opacity:1;stroke-miterlimit:4;stroke-dasharray:none"
     id="path938"
     d="m 32123.2,20823.9 a 1250,1250 0 1 0 0.8,1501.1" />
  <path
     style="fill:#000000;fill-opacity:0;stroke:#000000;stroke-width:11.11112212;stroke-linecap:round;stroke-linejoin:round;stroke-opacity:1;stroke-miterlimit:4;stroke-dasharray:none"
     id="path942"
     d="m 28994,22325 0,-1500" />
  <path
     style="fill:#000000;fill-opacity:0;stroke:#000000;stroke-width:11.11112212;stroke-linecap:round;stroke-linejoin:round;stroke-opacity:1;stroke-miterlimit:4;stroke-dasharray:none"
     id="path946"
     d="m 28973.2,20823.9 a 1250,1250 0 1 0 0.8,1501.1" />
  <path
     style="fill:#000000;fill-opacity:0;stroke:#000000;stroke-width:11.11112212;stroke-linecap:round;stroke-linejoin:round;stroke-opacity:1;stroke-miterlimit:4;stroke-dasharray:none"
     id="path950"
     d="m 25844,22325 0,-1500" />
  <path
     style="fill:#000000;fill-opacity:0;stroke:#000000;stroke-width:11.11112212;stroke-linecap:round;stroke-linejoin:round;stroke-opacity:1;stroke-miterlimit:4;stroke-dasharray:none"
     id="path954"
     d="m 25823.2,20823.9 a 1250,1250 0 1 0 0.8,1501.1" />
  <path
     style="fill:#000000;fill-opacity:0;stroke:#000000;stroke-width:11.11112212;stroke-linecap:round;stroke-linejoin:round;stroke-opacity:1;stroke-miterlimit:4;stroke-dasharray:none"
     id="path958"
     d="m 22695,22325 0,-1500" />
  <path
     style="fill:#000000;fill-opacity:0;stroke:#000000;stroke-width:11.11112212;stroke-linecap:round;stroke-linejoin:round;stroke-opacity:1;stroke-miterlimit:4;stroke-dasharray:none"
     id="path962"
     d="m 22674.2,20823.9 a 1250,1250 0 1 0 0.8,1501.1" />
</svg>
