M48
;DRILL file {PCBnew (2011-aug-04)-testing} date Tue 12 Feb 2013 03:11:31 PM PST
;FORMAT={2:4/ absolute / inch / suppress trailing zeros}
FMAT,2
INCH,LZ
T1C0.025
T2C0.040
%
G90
G05
M72
T1
X022799Y-021575
X022799Y-031024
X023799Y-021575
X023799Y-031024
X024799Y-021575
X024799Y-031024
X025799Y-021575
X025799Y-031024
X026799Y-021575
X026799Y-031024
X027799Y-021575
X027799Y-031024
X028799Y-021575
X028799Y-031024
X029799Y-021575
X029799Y-031024
T2
X022799Y-02315
X022799Y-029449
X023799Y-02315
X023799Y-029449
X024799Y-02315
X024799Y-029449
X025799Y-02315
X025799Y-029449
X026799Y-02315
X026799Y-029449
X027799Y-02315
X027799Y-029449
X028799Y-02315
X028799Y-029449
X029799Y-02315
X029799Y-029449
T0
M30
