G04 (created by PCBNEW-RS274X (2011-aug-04)-testing) date Tue 12 Feb 2013 03:11:26 PM PST*
G01*
G70*
G90*
%MOIN*%
G04 Gerber Fmt 3.4, Leading zero omitted, Abs format*
%FSLAX34Y34*%
G04 APERTURE LIST*
%ADD10C,0.006000*%
%ADD11C,0.057000*%
%ADD12R,0.057000X0.057000*%
%ADD13C,0.040000*%
%ADD14R,0.040000X0.040000*%
%ADD15C,0.020000*%
G04 APERTURE END LIST*
G54D10*
G54D11*
X23799Y-29449D03*
X24799Y-29449D03*
X25799Y-29449D03*
X26799Y-29449D03*
X27799Y-29449D03*
X28799Y-29449D03*
G54D12*
X22799Y-29449D03*
G54D11*
X29799Y-29449D03*
X23799Y-23150D03*
X24799Y-23150D03*
X25799Y-23150D03*
X26799Y-23150D03*
X27799Y-23150D03*
X28799Y-23150D03*
G54D12*
X22799Y-23150D03*
G54D11*
X29799Y-23150D03*
G54D13*
X25799Y-31024D03*
X24799Y-31024D03*
X23799Y-31024D03*
G54D14*
X22799Y-31024D03*
G54D13*
X26799Y-31024D03*
X27799Y-31024D03*
X28799Y-31024D03*
X29799Y-31024D03*
X25799Y-21575D03*
X24799Y-21575D03*
X23799Y-21575D03*
G54D14*
X22799Y-21575D03*
G54D13*
X26799Y-21575D03*
X27799Y-21575D03*
X28799Y-21575D03*
X29799Y-21575D03*
G54D15*
X22799Y-23150D02*
X22799Y-21575D01*
X23799Y-23150D02*
X23799Y-21575D01*
X24799Y-23150D02*
X24799Y-21575D01*
X25799Y-23150D02*
X25799Y-21575D01*
X26799Y-23150D02*
X26799Y-21575D01*
X27799Y-23150D02*
X27799Y-21575D01*
X28799Y-23150D02*
X28799Y-21575D01*
X29799Y-23150D02*
X29799Y-21575D01*
X22799Y-29449D02*
X22799Y-31024D01*
X23799Y-29449D02*
X23799Y-31024D01*
X24799Y-29449D02*
X24799Y-31024D01*
X25799Y-29449D02*
X25799Y-31024D01*
X26799Y-29449D02*
X26799Y-31024D01*
X27799Y-29449D02*
X27799Y-31024D01*
X28799Y-29449D02*
X28799Y-31024D01*
X29799Y-29449D02*
X29799Y-31024D01*
M02*
