G04 (created by PCBNEW-RS274X (2011-aug-04)-testing) date Tue 12 Feb 2013 03:11:26 PM PST*
G01*
G70*
G90*
%MOIN*%
G04 Gerber Fmt 3.4, Leading zero omitted, Abs format*
%FSLAX34Y34*%
G04 APERTURE LIST*
%ADD10C,0.006000*%
%ADD11C,0.008000*%
%ADD12C,0.010000*%
G04 APERTURE END LIST*
G54D10*
G54D11*
X22317Y-26262D02*
X22317Y-25862D01*
X22470Y-25862D01*
X22508Y-25881D01*
X22527Y-25900D01*
X22546Y-25938D01*
X22546Y-25995D01*
X22527Y-26033D01*
X22508Y-26052D01*
X22470Y-26071D01*
X22317Y-26071D01*
X22889Y-26262D02*
X22889Y-26052D01*
X22870Y-26014D01*
X22832Y-25995D01*
X22755Y-25995D01*
X22717Y-26014D01*
X22889Y-26243D02*
X22851Y-26262D01*
X22755Y-26262D01*
X22717Y-26243D01*
X22698Y-26205D01*
X22698Y-26167D01*
X22717Y-26129D01*
X22755Y-26110D01*
X22851Y-26110D01*
X22889Y-26090D01*
X23079Y-25995D02*
X23079Y-26262D01*
X23079Y-26033D02*
X23098Y-26014D01*
X23136Y-25995D01*
X23194Y-25995D01*
X23232Y-26014D01*
X23251Y-26052D01*
X23251Y-26262D01*
X23594Y-26243D02*
X23556Y-26262D01*
X23479Y-26262D01*
X23441Y-26243D01*
X23422Y-26205D01*
X23422Y-26052D01*
X23441Y-26014D01*
X23479Y-25995D01*
X23556Y-25995D01*
X23594Y-26014D01*
X23613Y-26052D01*
X23613Y-26090D01*
X23422Y-26129D01*
X23841Y-26262D02*
X23803Y-26243D01*
X23784Y-26205D01*
X23784Y-25862D01*
X24490Y-26262D02*
X24299Y-26262D01*
X24299Y-25862D01*
X24776Y-26243D02*
X24738Y-26262D01*
X24661Y-26262D01*
X24623Y-26243D01*
X24604Y-26205D01*
X24604Y-26052D01*
X24623Y-26014D01*
X24661Y-25995D01*
X24738Y-25995D01*
X24776Y-26014D01*
X24795Y-26052D01*
X24795Y-26090D01*
X24604Y-26129D01*
X25138Y-26262D02*
X25138Y-25862D01*
X25138Y-26243D02*
X25100Y-26262D01*
X25023Y-26262D01*
X24985Y-26243D01*
X24966Y-26224D01*
X24947Y-26186D01*
X24947Y-26071D01*
X24966Y-26033D01*
X24985Y-26014D01*
X25023Y-25995D01*
X25100Y-25995D01*
X25138Y-26014D01*
X25614Y-26148D02*
X25805Y-26148D01*
X25576Y-26262D02*
X25709Y-25862D01*
X25843Y-26262D01*
X25976Y-26262D02*
X25976Y-25995D01*
X25976Y-26071D02*
X25995Y-26033D01*
X26014Y-26014D01*
X26052Y-25995D01*
X26091Y-25995D01*
X26224Y-26262D02*
X26224Y-25995D01*
X26224Y-26071D02*
X26243Y-26033D01*
X26262Y-26014D01*
X26300Y-25995D01*
X26339Y-25995D01*
X26644Y-26262D02*
X26644Y-26052D01*
X26625Y-26014D01*
X26587Y-25995D01*
X26510Y-25995D01*
X26472Y-26014D01*
X26644Y-26243D02*
X26606Y-26262D01*
X26510Y-26262D01*
X26472Y-26243D01*
X26453Y-26205D01*
X26453Y-26167D01*
X26472Y-26129D01*
X26510Y-26110D01*
X26606Y-26110D01*
X26644Y-26090D01*
X26796Y-25995D02*
X26891Y-26262D01*
X26987Y-25995D02*
X26891Y-26262D01*
X26853Y-26357D01*
X26834Y-26376D01*
X26796Y-26395D01*
X27425Y-26148D02*
X27616Y-26148D01*
X27387Y-26262D02*
X27520Y-25862D01*
X27654Y-26262D01*
X27959Y-26262D02*
X27959Y-25862D01*
X27959Y-26243D02*
X27921Y-26262D01*
X27844Y-26262D01*
X27806Y-26243D01*
X27787Y-26224D01*
X27768Y-26186D01*
X27768Y-26071D01*
X27787Y-26033D01*
X27806Y-26014D01*
X27844Y-25995D01*
X27921Y-25995D01*
X27959Y-26014D01*
X28321Y-26262D02*
X28321Y-26052D01*
X28302Y-26014D01*
X28264Y-25995D01*
X28187Y-25995D01*
X28149Y-26014D01*
X28321Y-26243D02*
X28283Y-26262D01*
X28187Y-26262D01*
X28149Y-26243D01*
X28130Y-26205D01*
X28130Y-26167D01*
X28149Y-26129D01*
X28187Y-26110D01*
X28283Y-26110D01*
X28321Y-26090D01*
X28511Y-25995D02*
X28511Y-26395D01*
X28511Y-26014D02*
X28549Y-25995D01*
X28626Y-25995D01*
X28664Y-26014D01*
X28683Y-26033D01*
X28702Y-26071D01*
X28702Y-26186D01*
X28683Y-26224D01*
X28664Y-26243D01*
X28626Y-26262D01*
X28549Y-26262D01*
X28511Y-26243D01*
X28816Y-25995D02*
X28968Y-25995D01*
X28873Y-25862D02*
X28873Y-26205D01*
X28892Y-26243D01*
X28930Y-26262D01*
X28968Y-26262D01*
X29159Y-26262D02*
X29121Y-26243D01*
X29102Y-26224D01*
X29083Y-26186D01*
X29083Y-26071D01*
X29102Y-26033D01*
X29121Y-26014D01*
X29159Y-25995D01*
X29217Y-25995D01*
X29255Y-26014D01*
X29274Y-26033D01*
X29293Y-26071D01*
X29293Y-26186D01*
X29274Y-26224D01*
X29255Y-26243D01*
X29217Y-26262D01*
X29159Y-26262D01*
X29464Y-26262D02*
X29464Y-25995D01*
X29464Y-26071D02*
X29483Y-26033D01*
X29502Y-26014D01*
X29540Y-25995D01*
X29579Y-25995D01*
X29979Y-25995D02*
X30074Y-26262D01*
X30170Y-25995D01*
X30532Y-26262D02*
X30303Y-26262D01*
X30417Y-26262D02*
X30417Y-25862D01*
X30379Y-25919D01*
X30341Y-25957D01*
X30303Y-25976D01*
X30703Y-26224D02*
X30722Y-26243D01*
X30703Y-26262D01*
X30684Y-26243D01*
X30703Y-26224D01*
X30703Y-26262D01*
X30969Y-25862D02*
X31008Y-25862D01*
X31046Y-25881D01*
X31065Y-25900D01*
X31084Y-25938D01*
X31103Y-26014D01*
X31103Y-26110D01*
X31084Y-26186D01*
X31065Y-26224D01*
X31046Y-26243D01*
X31008Y-26262D01*
X30969Y-26262D01*
X30931Y-26243D01*
X30912Y-26224D01*
X30893Y-26186D01*
X30874Y-26110D01*
X30874Y-26014D01*
X30893Y-25938D01*
X30912Y-25900D01*
X30931Y-25881D01*
X30969Y-25862D01*
G54D12*
X22349Y-29349D02*
X22349Y-29499D01*
X22349Y-29399D02*
X22349Y-28999D01*
X22349Y-28999D02*
X30199Y-28999D01*
X30199Y-28999D02*
X30249Y-28999D01*
X30249Y-28999D02*
X30249Y-29849D01*
X30249Y-29849D02*
X30249Y-29899D01*
X30249Y-29899D02*
X22349Y-29899D01*
X22349Y-29899D02*
X22349Y-29449D01*
X22349Y-23050D02*
X22349Y-23200D01*
X22349Y-23100D02*
X22349Y-22700D01*
X22349Y-22700D02*
X30199Y-22700D01*
X30199Y-22700D02*
X30249Y-22700D01*
X30249Y-22700D02*
X30249Y-23550D01*
X30249Y-23550D02*
X30249Y-23600D01*
X30249Y-23600D02*
X22349Y-23600D01*
X22349Y-23600D02*
X22349Y-23150D01*
G54D11*
X30505Y-29662D02*
X30505Y-29262D01*
X30658Y-29262D01*
X30696Y-29281D01*
X30715Y-29300D01*
X30734Y-29338D01*
X30734Y-29395D01*
X30715Y-29433D01*
X30696Y-29452D01*
X30658Y-29471D01*
X30505Y-29471D01*
X31115Y-29662D02*
X30886Y-29662D01*
X31000Y-29662D02*
X31000Y-29262D01*
X30962Y-29319D01*
X30924Y-29357D01*
X30886Y-29376D01*
X30505Y-23362D02*
X30505Y-22962D01*
X30658Y-22962D01*
X30696Y-22981D01*
X30715Y-23000D01*
X30734Y-23038D01*
X30734Y-23095D01*
X30715Y-23133D01*
X30696Y-23152D01*
X30658Y-23171D01*
X30505Y-23171D01*
X30867Y-22962D02*
X31115Y-22962D01*
X30981Y-23114D01*
X31039Y-23114D01*
X31077Y-23133D01*
X31096Y-23152D01*
X31115Y-23190D01*
X31115Y-23286D01*
X31096Y-23324D01*
X31077Y-23343D01*
X31039Y-23362D01*
X30924Y-23362D01*
X30886Y-23343D01*
X30867Y-23324D01*
M02*
