G04 (created by PCBNEW (2013-jul-07)-stable) date Mon 22 Dec 2014 11:35:30 AM PST*
%MOIN*%
G04 Gerber Fmt 3.4, Leading zero omitted, Abs format*
%FSLAX34Y34*%
G01*
G70*
G90*
G04 APERTURE LIST*
%ADD10C,0.00590551*%
%ADD11C,0.008*%
%ADD12C,0.012*%
G04 APERTURE END LIST*
G54D10*
G54D11*
X27003Y-28469D02*
X27403Y-28469D01*
X27117Y-28336D01*
X27403Y-28203D01*
X27003Y-28203D01*
X27003Y-28012D02*
X27270Y-28012D01*
X27403Y-28012D02*
X27384Y-28031D01*
X27365Y-28012D01*
X27384Y-27993D01*
X27403Y-28012D01*
X27365Y-28012D01*
X27003Y-27860D02*
X27270Y-27650D01*
X27270Y-27860D02*
X27003Y-27650D01*
X27022Y-27346D02*
X27003Y-27384D01*
X27003Y-27460D01*
X27022Y-27498D01*
X27060Y-27517D01*
X27212Y-27517D01*
X27251Y-27498D01*
X27270Y-27460D01*
X27270Y-27384D01*
X27251Y-27346D01*
X27212Y-27327D01*
X27174Y-27327D01*
X27136Y-27517D01*
X27003Y-26984D02*
X27403Y-26984D01*
X27022Y-26984D02*
X27003Y-27022D01*
X27003Y-27098D01*
X27022Y-27136D01*
X27041Y-27155D01*
X27079Y-27174D01*
X27193Y-27174D01*
X27232Y-27155D01*
X27251Y-27136D01*
X27270Y-27098D01*
X27270Y-27022D01*
X27251Y-26984D01*
X27403Y-26489D02*
X27079Y-26489D01*
X27041Y-26469D01*
X27022Y-26450D01*
X27003Y-26412D01*
X27003Y-26336D01*
X27022Y-26298D01*
X27041Y-26279D01*
X27079Y-26260D01*
X27403Y-26260D01*
X27403Y-26127D02*
X27003Y-25993D01*
X27403Y-25860D01*
X27422Y-25441D02*
X26908Y-25784D01*
X27384Y-25098D02*
X27403Y-25136D01*
X27403Y-25193D01*
X27384Y-25250D01*
X27346Y-25289D01*
X27308Y-25308D01*
X27232Y-25327D01*
X27174Y-25327D01*
X27098Y-25308D01*
X27060Y-25289D01*
X27022Y-25250D01*
X27003Y-25193D01*
X27003Y-25155D01*
X27022Y-25098D01*
X27041Y-25079D01*
X27174Y-25079D01*
X27174Y-25155D01*
X27003Y-24908D02*
X27270Y-24908D01*
X27193Y-24908D02*
X27232Y-24889D01*
X27251Y-24869D01*
X27270Y-24831D01*
X27270Y-24793D01*
X27022Y-24508D02*
X27003Y-24546D01*
X27003Y-24622D01*
X27022Y-24660D01*
X27060Y-24679D01*
X27212Y-24679D01*
X27251Y-24660D01*
X27270Y-24622D01*
X27270Y-24546D01*
X27251Y-24508D01*
X27212Y-24489D01*
X27174Y-24489D01*
X27136Y-24679D01*
X27022Y-24165D02*
X27003Y-24203D01*
X27003Y-24279D01*
X27022Y-24317D01*
X27060Y-24336D01*
X27212Y-24336D01*
X27251Y-24317D01*
X27270Y-24279D01*
X27270Y-24203D01*
X27251Y-24165D01*
X27212Y-24146D01*
X27174Y-24146D01*
X27136Y-24336D01*
X27270Y-23974D02*
X27003Y-23974D01*
X27232Y-23974D02*
X27251Y-23955D01*
X27270Y-23917D01*
X27270Y-23860D01*
X27251Y-23822D01*
X27212Y-23803D01*
X27003Y-23803D01*
X26592Y-28774D02*
X26611Y-28812D01*
X26630Y-28831D01*
X26668Y-28850D01*
X26687Y-28850D01*
X26725Y-28831D01*
X26744Y-28812D01*
X26763Y-28774D01*
X26763Y-28698D01*
X26744Y-28660D01*
X26725Y-28641D01*
X26687Y-28622D01*
X26668Y-28622D01*
X26630Y-28641D01*
X26611Y-28660D01*
X26592Y-28698D01*
X26592Y-28774D01*
X26572Y-28812D01*
X26553Y-28831D01*
X26515Y-28850D01*
X26439Y-28850D01*
X26401Y-28831D01*
X26382Y-28812D01*
X26363Y-28774D01*
X26363Y-28698D01*
X26382Y-28660D01*
X26401Y-28641D01*
X26439Y-28622D01*
X26515Y-28622D01*
X26553Y-28641D01*
X26572Y-28660D01*
X26592Y-28698D01*
X26363Y-28489D02*
X26630Y-28279D01*
X26630Y-28489D02*
X26363Y-28279D01*
X26592Y-28069D02*
X26611Y-28108D01*
X26630Y-28127D01*
X26668Y-28146D01*
X26687Y-28146D01*
X26725Y-28127D01*
X26744Y-28108D01*
X26763Y-28069D01*
X26763Y-27993D01*
X26744Y-27955D01*
X26725Y-27936D01*
X26687Y-27917D01*
X26668Y-27917D01*
X26630Y-27936D01*
X26611Y-27955D01*
X26592Y-27993D01*
X26592Y-28069D01*
X26572Y-28108D01*
X26553Y-28127D01*
X26515Y-28146D01*
X26439Y-28146D01*
X26401Y-28127D01*
X26382Y-28108D01*
X26363Y-28069D01*
X26363Y-27993D01*
X26382Y-27955D01*
X26401Y-27936D01*
X26439Y-27917D01*
X26515Y-27917D01*
X26553Y-27936D01*
X26572Y-27955D01*
X26592Y-27993D01*
X26363Y-27250D02*
X26363Y-27441D01*
X26763Y-27441D01*
X26572Y-27117D02*
X26572Y-26984D01*
X26363Y-26927D02*
X26363Y-27117D01*
X26763Y-27117D01*
X26763Y-26927D01*
X26363Y-26755D02*
X26763Y-26755D01*
X26763Y-26660D01*
X26744Y-26603D01*
X26706Y-26565D01*
X26668Y-26546D01*
X26592Y-26527D01*
X26534Y-26527D01*
X26458Y-26546D01*
X26420Y-26565D01*
X26382Y-26603D01*
X26363Y-26660D01*
X26363Y-26755D01*
X26477Y-26069D02*
X26477Y-25879D01*
X26363Y-26108D02*
X26763Y-25974D01*
X26363Y-25841D01*
X26363Y-25708D02*
X26630Y-25708D01*
X26553Y-25708D02*
X26592Y-25689D01*
X26611Y-25669D01*
X26630Y-25631D01*
X26630Y-25593D01*
X26363Y-25460D02*
X26630Y-25460D01*
X26553Y-25460D02*
X26592Y-25441D01*
X26611Y-25422D01*
X26630Y-25384D01*
X26630Y-25346D01*
X26363Y-25041D02*
X26572Y-25041D01*
X26611Y-25060D01*
X26630Y-25098D01*
X26630Y-25174D01*
X26611Y-25212D01*
X26382Y-25041D02*
X26363Y-25079D01*
X26363Y-25174D01*
X26382Y-25212D01*
X26420Y-25231D01*
X26458Y-25231D01*
X26496Y-25212D01*
X26515Y-25174D01*
X26515Y-25079D01*
X26534Y-25041D01*
X26630Y-24889D02*
X26363Y-24793D01*
X26630Y-24698D02*
X26363Y-24793D01*
X26268Y-24831D01*
X26249Y-24850D01*
X26230Y-24889D01*
X26763Y-24298D02*
X26363Y-24165D01*
X26763Y-24031D01*
X26763Y-23822D02*
X26763Y-23784D01*
X26744Y-23746D01*
X26725Y-23727D01*
X26687Y-23708D01*
X26611Y-23689D01*
X26515Y-23689D01*
X26439Y-23708D01*
X26401Y-23727D01*
X26382Y-23746D01*
X26363Y-23784D01*
X26363Y-23822D01*
X26382Y-23860D01*
X26401Y-23879D01*
X26439Y-23898D01*
X26515Y-23917D01*
X26611Y-23917D01*
X26687Y-23898D01*
X26725Y-23879D01*
X26744Y-23860D01*
X26763Y-23822D01*
X26401Y-23517D02*
X26382Y-23498D01*
X26363Y-23517D01*
X26382Y-23536D01*
X26401Y-23517D01*
X26363Y-23517D01*
X26725Y-23346D02*
X26744Y-23327D01*
X26763Y-23289D01*
X26763Y-23193D01*
X26744Y-23155D01*
X26725Y-23136D01*
X26687Y-23117D01*
X26649Y-23117D01*
X26592Y-23136D01*
X26363Y-23365D01*
X26363Y-23117D01*
X25990Y-28479D02*
X25723Y-28403D01*
X25913Y-28327D01*
X25723Y-28250D01*
X25990Y-28174D01*
X25990Y-28060D02*
X25723Y-27984D01*
X25913Y-27908D01*
X25723Y-27831D01*
X25990Y-27755D01*
X25990Y-27641D02*
X25723Y-27565D01*
X25913Y-27489D01*
X25723Y-27412D01*
X25990Y-27336D01*
X25761Y-27184D02*
X25742Y-27165D01*
X25723Y-27184D01*
X25742Y-27203D01*
X25761Y-27184D01*
X25723Y-27184D01*
X25723Y-26993D02*
X25990Y-26993D01*
X26123Y-26993D02*
X26104Y-27012D01*
X26085Y-26993D01*
X26104Y-26974D01*
X26123Y-26993D01*
X26085Y-26993D01*
X25723Y-26746D02*
X25742Y-26784D01*
X25761Y-26803D01*
X25799Y-26822D01*
X25913Y-26822D01*
X25952Y-26803D01*
X25971Y-26784D01*
X25990Y-26746D01*
X25990Y-26689D01*
X25971Y-26650D01*
X25952Y-26631D01*
X25913Y-26612D01*
X25799Y-26612D01*
X25761Y-26631D01*
X25742Y-26650D01*
X25723Y-26689D01*
X25723Y-26746D01*
X25723Y-26441D02*
X25990Y-26441D01*
X25913Y-26441D02*
X25952Y-26422D01*
X25971Y-26403D01*
X25990Y-26365D01*
X25990Y-26327D01*
X25723Y-26136D02*
X25742Y-26174D01*
X25761Y-26193D01*
X25799Y-26212D01*
X25913Y-26212D01*
X25952Y-26193D01*
X25971Y-26174D01*
X25990Y-26136D01*
X25990Y-26079D01*
X25971Y-26041D01*
X25952Y-26022D01*
X25913Y-26003D01*
X25799Y-26003D01*
X25761Y-26022D01*
X25742Y-26041D01*
X25723Y-26079D01*
X25723Y-26136D01*
X25723Y-25660D02*
X26123Y-25660D01*
X25742Y-25660D02*
X25723Y-25698D01*
X25723Y-25774D01*
X25742Y-25812D01*
X25761Y-25831D01*
X25799Y-25850D01*
X25913Y-25850D01*
X25952Y-25831D01*
X25971Y-25812D01*
X25990Y-25774D01*
X25990Y-25698D01*
X25971Y-25660D01*
X25742Y-25317D02*
X25723Y-25355D01*
X25723Y-25431D01*
X25742Y-25469D01*
X25780Y-25489D01*
X25932Y-25489D01*
X25971Y-25469D01*
X25990Y-25431D01*
X25990Y-25355D01*
X25971Y-25317D01*
X25932Y-25298D01*
X25894Y-25298D01*
X25856Y-25489D01*
X25723Y-25069D02*
X25742Y-25108D01*
X25761Y-25127D01*
X25799Y-25146D01*
X25913Y-25146D01*
X25952Y-25127D01*
X25971Y-25108D01*
X25990Y-25069D01*
X25990Y-25012D01*
X25971Y-24974D01*
X25952Y-24955D01*
X25913Y-24936D01*
X25799Y-24936D01*
X25761Y-24955D01*
X25742Y-24974D01*
X25723Y-25012D01*
X25723Y-25069D01*
X25761Y-24765D02*
X25742Y-24746D01*
X25723Y-24765D01*
X25742Y-24784D01*
X25761Y-24765D01*
X25723Y-24765D01*
X25742Y-24403D02*
X25723Y-24441D01*
X25723Y-24517D01*
X25742Y-24555D01*
X25761Y-24574D01*
X25799Y-24593D01*
X25913Y-24593D01*
X25952Y-24574D01*
X25971Y-24555D01*
X25990Y-24517D01*
X25990Y-24441D01*
X25971Y-24403D01*
X25723Y-24174D02*
X25742Y-24212D01*
X25761Y-24231D01*
X25799Y-24250D01*
X25913Y-24250D01*
X25952Y-24231D01*
X25971Y-24212D01*
X25990Y-24174D01*
X25990Y-24117D01*
X25971Y-24079D01*
X25952Y-24060D01*
X25913Y-24041D01*
X25799Y-24041D01*
X25761Y-24060D01*
X25742Y-24079D01*
X25723Y-24117D01*
X25723Y-24174D01*
X25723Y-23869D02*
X25990Y-23869D01*
X25952Y-23869D02*
X25971Y-23850D01*
X25990Y-23812D01*
X25990Y-23755D01*
X25971Y-23717D01*
X25932Y-23698D01*
X25723Y-23698D01*
X25932Y-23698D02*
X25971Y-23679D01*
X25990Y-23641D01*
X25990Y-23584D01*
X25971Y-23546D01*
X25932Y-23527D01*
X25723Y-23527D01*
G54D12*
X20961Y-27620D02*
X20923Y-27535D01*
X20885Y-27506D01*
X20808Y-27477D01*
X20694Y-27477D01*
X20618Y-27506D01*
X20580Y-27535D01*
X20542Y-27592D01*
X20542Y-27820D01*
X21342Y-27820D01*
X21342Y-27620D01*
X21304Y-27563D01*
X21266Y-27535D01*
X21189Y-27506D01*
X21113Y-27506D01*
X21037Y-27535D01*
X20999Y-27563D01*
X20961Y-27620D01*
X20961Y-27820D01*
X20542Y-27135D02*
X20580Y-27192D01*
X20618Y-27220D01*
X20694Y-27249D01*
X20923Y-27249D01*
X20999Y-27220D01*
X21037Y-27192D01*
X21075Y-27135D01*
X21075Y-27049D01*
X21037Y-26992D01*
X20999Y-26963D01*
X20923Y-26935D01*
X20694Y-26935D01*
X20618Y-26963D01*
X20580Y-26992D01*
X20542Y-27049D01*
X20542Y-27135D01*
X21075Y-26763D02*
X21075Y-26535D01*
X21342Y-26677D02*
X20656Y-26677D01*
X20580Y-26649D01*
X20542Y-26592D01*
X20542Y-26535D01*
X21075Y-26420D02*
X21075Y-26192D01*
X21342Y-26335D02*
X20656Y-26335D01*
X20580Y-26306D01*
X20542Y-26249D01*
X20542Y-26192D01*
X20542Y-25906D02*
X20580Y-25963D01*
X20618Y-25992D01*
X20694Y-26020D01*
X20923Y-26020D01*
X20999Y-25992D01*
X21037Y-25963D01*
X21075Y-25906D01*
X21075Y-25820D01*
X21037Y-25763D01*
X20999Y-25735D01*
X20923Y-25706D01*
X20694Y-25706D01*
X20618Y-25735D01*
X20580Y-25763D01*
X20542Y-25820D01*
X20542Y-25906D01*
X20542Y-25449D02*
X21075Y-25449D01*
X20999Y-25449D02*
X21037Y-25420D01*
X21075Y-25363D01*
X21075Y-25277D01*
X21037Y-25220D01*
X20961Y-25192D01*
X20542Y-25192D01*
X20961Y-25192D02*
X21037Y-25163D01*
X21075Y-25106D01*
X21075Y-25020D01*
X21037Y-24963D01*
X20961Y-24935D01*
X20542Y-24935D01*
G54D11*
X32246Y-27485D02*
X32246Y-27143D01*
X31646Y-27314D02*
X32246Y-27314D01*
X31646Y-26857D02*
X31675Y-26914D01*
X31704Y-26943D01*
X31761Y-26971D01*
X31932Y-26971D01*
X31989Y-26943D01*
X32018Y-26914D01*
X32046Y-26857D01*
X32046Y-26771D01*
X32018Y-26714D01*
X31989Y-26685D01*
X31932Y-26657D01*
X31761Y-26657D01*
X31704Y-26685D01*
X31675Y-26714D01*
X31646Y-26771D01*
X31646Y-26857D01*
X32046Y-26400D02*
X31446Y-26400D01*
X32018Y-26400D02*
X32046Y-26343D01*
X32046Y-26228D01*
X32018Y-26171D01*
X31989Y-26143D01*
X31932Y-26114D01*
X31761Y-26114D01*
X31704Y-26143D01*
X31675Y-26171D01*
X31646Y-26228D01*
X31646Y-26343D01*
X31675Y-26400D01*
X22499Y-32224D02*
G75*
G03X22499Y-32224I-100J0D01*
G74*
G01*
X22399Y-32224D02*
X22399Y-29824D01*
X22399Y-29824D02*
X30199Y-29824D01*
X30199Y-29824D02*
X30199Y-32224D01*
X30199Y-32224D02*
X22399Y-32224D01*
X22499Y-22775D02*
G75*
G03X22499Y-22775I-100J0D01*
G74*
G01*
X22399Y-22775D02*
X22399Y-20375D01*
X22399Y-20375D02*
X30199Y-20375D01*
X30199Y-20375D02*
X30199Y-22775D01*
X30199Y-22775D02*
X22399Y-22775D01*
X31102Y-31205D02*
X31102Y-30805D01*
X30949Y-30805D01*
X30911Y-30824D01*
X30892Y-30843D01*
X30873Y-30881D01*
X30873Y-30938D01*
X30892Y-30976D01*
X30911Y-30995D01*
X30949Y-31014D01*
X31102Y-31014D01*
X30492Y-31205D02*
X30721Y-31205D01*
X30607Y-31205D02*
X30607Y-30805D01*
X30645Y-30862D01*
X30683Y-30900D01*
X30721Y-30919D01*
X30964Y-21736D02*
X30964Y-21336D01*
X30812Y-21336D01*
X30774Y-21355D01*
X30755Y-21374D01*
X30735Y-21412D01*
X30735Y-21470D01*
X30755Y-21508D01*
X30774Y-21527D01*
X30812Y-21546D01*
X30964Y-21546D01*
X30583Y-21374D02*
X30564Y-21355D01*
X30526Y-21336D01*
X30431Y-21336D01*
X30393Y-21355D01*
X30374Y-21374D01*
X30355Y-21412D01*
X30355Y-21450D01*
X30374Y-21508D01*
X30602Y-21736D01*
X30355Y-21736D01*
M02*
