G04 (created by PCBNEW (2013-jul-07)-stable) date Mon 22 Dec 2014 11:35:30 AM PST*
%MOIN*%
G04 Gerber Fmt 3.4, Leading zero omitted, Abs format*
%FSLAX34Y34*%
G01*
G70*
G90*
G04 APERTURE LIST*
%ADD10C,0.00590551*%
%ADD11R,0.045X0.095*%
%ADD12C,0.03*%
%ADD13C,0.009*%
G04 APERTURE END LIST*
G54D10*
G54D11*
X22799Y-31549D03*
X23799Y-30499D03*
X24799Y-31549D03*
X25799Y-30499D03*
X26799Y-31549D03*
X27799Y-30499D03*
X28799Y-31549D03*
X29799Y-30499D03*
X22799Y-22100D03*
X23799Y-21050D03*
X24799Y-22100D03*
X25799Y-21050D03*
X26799Y-22100D03*
X27799Y-21050D03*
X28799Y-22100D03*
X29799Y-21050D03*
G54D12*
X26555Y-26836D03*
X29661Y-26649D03*
X23414Y-27062D03*
X26597Y-23307D03*
X27617Y-20315D03*
X28171Y-22940D03*
X22855Y-25080D03*
X27764Y-26295D03*
X29181Y-26101D03*
X24980Y-25424D03*
X20293Y-21278D03*
X24942Y-22828D03*
X28088Y-22355D03*
X29780Y-27860D03*
X29235Y-25367D03*
X30932Y-23192D03*
X32320Y-27836D03*
X29428Y-29461D03*
X31665Y-29581D03*
X26555Y-30161D03*
X23474Y-29419D03*
X22852Y-32276D03*
X21540Y-29415D03*
X21540Y-26277D03*
X21686Y-23201D03*
X24466Y-30230D03*
X26043Y-32053D03*
X30871Y-31038D03*
X23405Y-29838D03*
X27617Y-29773D03*
X28087Y-28749D03*
X25021Y-28374D03*
X29185Y-28217D03*
X23416Y-27696D03*
X23373Y-23851D03*
X26266Y-24728D03*
X29487Y-24749D03*
X29746Y-20319D03*
G54D13*
X26742Y-26649D02*
X29661Y-26649D01*
X26555Y-26836D02*
X26742Y-26649D01*
X26329Y-27062D02*
X26555Y-26836D01*
X23414Y-27062D02*
X26329Y-27062D01*
X22799Y-27677D02*
X23414Y-27062D01*
X22799Y-31549D02*
X22799Y-27677D01*
X28799Y-22100D02*
X28799Y-22720D01*
X28799Y-22730D02*
X28799Y-22720D01*
X28222Y-23307D02*
X28799Y-22730D01*
X26597Y-23307D02*
X28222Y-23307D01*
X27731Y-20429D02*
X27617Y-20315D01*
X27799Y-20429D02*
X27731Y-20429D01*
X27799Y-20739D02*
X27799Y-20429D01*
X27799Y-20739D02*
X27799Y-21050D01*
X27799Y-21050D02*
X27799Y-21670D01*
X28383Y-22728D02*
X28171Y-22940D01*
X28383Y-22208D02*
X28383Y-22728D01*
X27845Y-21670D02*
X28383Y-22208D01*
X27799Y-21670D02*
X27845Y-21670D01*
X28987Y-26295D02*
X27764Y-26295D01*
X29181Y-26101D02*
X28987Y-26295D01*
X25851Y-26295D02*
X27764Y-26295D01*
X24980Y-25424D02*
X25851Y-26295D01*
X23199Y-25424D02*
X24980Y-25424D01*
X22855Y-25080D02*
X23199Y-25424D01*
X22218Y-24443D02*
X22855Y-25080D01*
X22218Y-21461D02*
X22218Y-24443D01*
X23250Y-20429D02*
X22218Y-21461D01*
X24092Y-20429D02*
X23250Y-20429D01*
X24282Y-20619D02*
X24092Y-20429D01*
X24282Y-22602D02*
X24282Y-20619D01*
X24816Y-23136D02*
X24282Y-22602D01*
X25762Y-23136D02*
X24816Y-23136D01*
X26178Y-22720D02*
X25762Y-23136D01*
X26799Y-22720D02*
X26178Y-22720D01*
X26799Y-22100D02*
X26799Y-22720D01*
X21340Y-20231D02*
X20293Y-21278D01*
X25600Y-20231D02*
X21340Y-20231D01*
X25799Y-20429D02*
X25600Y-20231D01*
X25799Y-21050D02*
X25799Y-20429D01*
X24799Y-22100D02*
X24799Y-22720D01*
X24906Y-22828D02*
X24942Y-22828D01*
X24799Y-22720D02*
X24906Y-22828D01*
X27211Y-21479D02*
X28088Y-22355D01*
X26346Y-21479D02*
X27211Y-21479D01*
X24998Y-22828D02*
X26346Y-21479D01*
X24942Y-22828D02*
X24998Y-22828D01*
X29964Y-26096D02*
X29235Y-25367D01*
X29964Y-27675D02*
X29964Y-26096D01*
X29780Y-27860D02*
X29964Y-27675D01*
X23799Y-21050D02*
X23799Y-21670D01*
X23484Y-21670D02*
X23799Y-21670D01*
X23285Y-21470D02*
X23484Y-21670D01*
X22499Y-21470D02*
X23285Y-21470D01*
X22409Y-21561D02*
X22499Y-21470D01*
X22409Y-23311D02*
X22409Y-21561D01*
X24226Y-25129D02*
X22409Y-23311D01*
X28996Y-25129D02*
X24226Y-25129D01*
X29235Y-25367D02*
X28996Y-25129D01*
X22799Y-22100D02*
X22799Y-22720D01*
X32320Y-25761D02*
X32320Y-27836D01*
X30636Y-24076D02*
X32320Y-25761D01*
X30932Y-23780D02*
X30932Y-23192D01*
X30636Y-24076D02*
X30932Y-23780D01*
X24155Y-24076D02*
X30636Y-24076D01*
X22799Y-22720D02*
X24155Y-24076D01*
X29428Y-31082D02*
X29472Y-31125D01*
X29428Y-29461D02*
X29428Y-31082D01*
X30121Y-31125D02*
X31665Y-29581D01*
X29472Y-31125D02*
X30121Y-31125D01*
X29472Y-31784D02*
X29472Y-31125D01*
X29087Y-32169D02*
X29472Y-31784D01*
X28513Y-32169D02*
X29087Y-32169D01*
X26555Y-30210D02*
X28513Y-32169D01*
X26555Y-30161D02*
X26555Y-30210D01*
X23799Y-30499D02*
X23799Y-29878D01*
X23866Y-29811D02*
X23474Y-29419D01*
X23799Y-29878D02*
X23866Y-29811D01*
X26071Y-29677D02*
X26555Y-30161D01*
X24000Y-29677D02*
X26071Y-29677D01*
X23866Y-29811D02*
X24000Y-29677D01*
X24799Y-31549D02*
X24799Y-32169D01*
X22852Y-32276D02*
X22852Y-32169D01*
X22852Y-32169D02*
X24799Y-32169D01*
X21540Y-31216D02*
X21540Y-29415D01*
X22493Y-32169D02*
X21540Y-31216D01*
X22852Y-32169D02*
X22493Y-32169D01*
X21540Y-29415D02*
X21540Y-26277D01*
X21540Y-23347D02*
X21686Y-23201D01*
X21540Y-26277D02*
X21540Y-23347D01*
X25799Y-30499D02*
X25799Y-29878D01*
X24818Y-29878D02*
X25799Y-29878D01*
X24466Y-30230D02*
X24818Y-29878D01*
X26159Y-32169D02*
X26043Y-32053D01*
X26799Y-32169D02*
X26159Y-32169D01*
X26799Y-31549D02*
X26799Y-32169D01*
X29530Y-32378D02*
X30871Y-31038D01*
X27008Y-32378D02*
X29530Y-32378D01*
X26799Y-32169D02*
X27008Y-32378D01*
X23405Y-31035D02*
X23405Y-29838D01*
X23489Y-31119D02*
X23405Y-31035D01*
X24300Y-31119D02*
X23489Y-31119D01*
X24490Y-30928D02*
X24300Y-31119D01*
X25110Y-30928D02*
X24490Y-30928D01*
X26043Y-31862D02*
X25110Y-30928D01*
X26043Y-32053D02*
X26043Y-31862D01*
X27723Y-29878D02*
X27617Y-29773D01*
X27799Y-29878D02*
X27723Y-29878D01*
X27799Y-30499D02*
X27799Y-29878D01*
X28087Y-28636D02*
X28087Y-28749D01*
X29185Y-28250D02*
X29185Y-28217D01*
X28799Y-28636D02*
X29185Y-28250D01*
X28799Y-31549D02*
X28799Y-28636D01*
X28799Y-28636D02*
X28087Y-28636D01*
X27824Y-28374D02*
X25021Y-28374D01*
X28087Y-28636D02*
X27824Y-28374D01*
X24094Y-28374D02*
X23416Y-27696D01*
X25021Y-28374D02*
X24094Y-28374D01*
X29799Y-30499D02*
X29799Y-29878D01*
X24250Y-24728D02*
X26266Y-24728D01*
X23373Y-23851D02*
X24250Y-24728D01*
X29466Y-24728D02*
X29487Y-24749D01*
X26266Y-24728D02*
X29466Y-24728D01*
X30165Y-29512D02*
X29799Y-29878D01*
X30165Y-25427D02*
X30165Y-29512D01*
X29487Y-24749D02*
X30165Y-25427D01*
X29746Y-20377D02*
X29746Y-20319D01*
X29799Y-20429D02*
X29746Y-20377D01*
X29799Y-21050D02*
X29799Y-20429D01*
M02*
