M48
;DRILL file {Pcbnew (2013-jul-07)-stable} date Mon 22 Dec 2014 11:35:34 AM PST
;FORMAT={-:-/ absolute / inch / decimal}
FMAT,2
INCH,TZ
T1C0.020
%
G90
G05
M72
T1
X2.0294Y-2.1279
X2.1541Y-2.6277
X2.1541Y-2.9415
X2.1686Y-2.3202
X2.2853Y-3.2276
X2.2856Y-2.508
X2.3373Y-2.3851
X2.3406Y-2.9838
X2.3415Y-2.7062
X2.3417Y-2.7696
X2.3474Y-2.942
X2.4466Y-3.0231
X2.4943Y-2.2828
X2.4981Y-2.5424
X2.5021Y-2.8374
X2.6044Y-3.2053
X2.6266Y-2.4729
X2.6556Y-2.6836
X2.6556Y-3.0161
X2.6597Y-2.3307
X2.7618Y-2.0316
X2.7618Y-2.9773
X2.7765Y-2.6295
X2.8087Y-2.8749
X2.8088Y-2.2356
X2.8172Y-2.2941
X2.9181Y-2.6102
X2.9185Y-2.8218
X2.9235Y-2.5368
X2.9429Y-2.9462
X2.9487Y-2.4749
X2.9662Y-2.6649
X2.9747Y-2.032
X2.978Y-2.786
X3.0871Y-3.1038
X3.0933Y-2.3193
X3.1665Y-2.9581
X3.2321Y-2.7837
T0
M30
