G04 (created by PCBNEW (2013-jul-07)-stable) date Mon 22 Dec 2014 11:35:30 AM PST*
%MOIN*%
G04 Gerber Fmt 3.4, Leading zero omitted, Abs format*
%FSLAX34Y34*%
G01*
G70*
G90*
G04 APERTURE LIST*
%ADD10C,0.00590551*%
%ADD11C,0.008*%
%ADD12C,0.005*%
G04 APERTURE END LIST*
G54D10*
G54D11*
X31810Y-31610D02*
X31968Y-31610D01*
X31810Y-31610D02*
X31653Y-31610D01*
X31810Y-31767D02*
X31653Y-31767D01*
X31653Y-31767D02*
X31810Y-31610D01*
X31810Y-31610D02*
X31968Y-31767D01*
X31968Y-31767D02*
X31810Y-31767D01*
X28660Y-31610D02*
X28818Y-31610D01*
X28660Y-31610D02*
X28503Y-31610D01*
X28660Y-31767D02*
X28503Y-31767D01*
X28503Y-31767D02*
X28660Y-31610D01*
X28660Y-31610D02*
X28818Y-31767D01*
X28818Y-31767D02*
X28660Y-31767D01*
X25512Y-31610D02*
X25669Y-31610D01*
X25512Y-31610D02*
X25354Y-31610D01*
X25512Y-31767D02*
X25354Y-31767D01*
X25354Y-31767D02*
X25512Y-31610D01*
X25512Y-31610D02*
X25669Y-31767D01*
X25669Y-31767D02*
X25512Y-31767D01*
X22362Y-31610D02*
X22519Y-31610D01*
X22362Y-31610D02*
X22204Y-31610D01*
X22362Y-31767D02*
X22204Y-31767D01*
X22204Y-31767D02*
X22362Y-31610D01*
X22362Y-31610D02*
X22519Y-31767D01*
X22519Y-31767D02*
X22362Y-31767D01*
X30235Y-30120D02*
X30393Y-30120D01*
X30235Y-30120D02*
X30078Y-30120D01*
X30235Y-30277D02*
X30078Y-30277D01*
X30078Y-30277D02*
X30235Y-30120D01*
X30235Y-30120D02*
X30393Y-30277D01*
X30393Y-30277D02*
X30235Y-30277D01*
X27087Y-30120D02*
X27244Y-30120D01*
X27087Y-30120D02*
X26929Y-30120D01*
X27087Y-30277D02*
X26929Y-30277D01*
X26929Y-30277D02*
X27087Y-30120D01*
X27087Y-30120D02*
X27244Y-30277D01*
X27244Y-30277D02*
X27087Y-30277D01*
X23937Y-30120D02*
X24094Y-30120D01*
X23937Y-30120D02*
X23779Y-30120D01*
X23937Y-30277D02*
X23779Y-30277D01*
X23779Y-30277D02*
X23937Y-30120D01*
X23937Y-30120D02*
X24094Y-30277D01*
X24094Y-30277D02*
X23937Y-30277D01*
X20787Y-30120D02*
X20944Y-30120D01*
X20787Y-30120D02*
X20629Y-30120D01*
X20787Y-30277D02*
X20629Y-30277D01*
X20629Y-30277D02*
X20787Y-30120D01*
X20787Y-30120D02*
X20944Y-30277D01*
X20944Y-30277D02*
X20787Y-30277D01*
X31810Y-28552D02*
X31968Y-28552D01*
X31810Y-28552D02*
X31653Y-28552D01*
X31810Y-28709D02*
X31653Y-28709D01*
X31653Y-28709D02*
X31810Y-28552D01*
X31810Y-28552D02*
X31968Y-28709D01*
X31968Y-28709D02*
X31810Y-28709D01*
X28660Y-28552D02*
X28818Y-28552D01*
X28660Y-28552D02*
X28503Y-28552D01*
X28660Y-28709D02*
X28503Y-28709D01*
X28503Y-28709D02*
X28660Y-28552D01*
X28660Y-28552D02*
X28818Y-28709D01*
X28818Y-28709D02*
X28660Y-28709D01*
X25512Y-28552D02*
X25669Y-28552D01*
X25512Y-28552D02*
X25354Y-28552D01*
X25512Y-28709D02*
X25354Y-28709D01*
X25354Y-28709D02*
X25512Y-28552D01*
X25512Y-28552D02*
X25669Y-28709D01*
X25669Y-28709D02*
X25512Y-28709D01*
X22362Y-28552D02*
X22519Y-28552D01*
X22362Y-28552D02*
X22204Y-28552D01*
X22362Y-28709D02*
X22204Y-28709D01*
X22204Y-28709D02*
X22362Y-28552D01*
X22362Y-28552D02*
X22519Y-28709D01*
X22519Y-28709D02*
X22362Y-28709D01*
X30235Y-26983D02*
X30393Y-26983D01*
X30235Y-26983D02*
X30078Y-26983D01*
X30235Y-27140D02*
X30078Y-27140D01*
X30078Y-27140D02*
X30235Y-26983D01*
X30235Y-26983D02*
X30393Y-27140D01*
X30393Y-27140D02*
X30235Y-27140D01*
X27087Y-26983D02*
X27244Y-26983D01*
X27087Y-26983D02*
X26929Y-26983D01*
X27087Y-27140D02*
X26929Y-27140D01*
X26929Y-27140D02*
X27087Y-26983D01*
X27087Y-26983D02*
X27244Y-27140D01*
X27244Y-27140D02*
X27087Y-27140D01*
X23937Y-26983D02*
X24094Y-26983D01*
X23937Y-26983D02*
X23779Y-26983D01*
X23937Y-27140D02*
X23779Y-27140D01*
X23779Y-27140D02*
X23937Y-26983D01*
X23937Y-26983D02*
X24094Y-27140D01*
X24094Y-27140D02*
X23937Y-27140D01*
X20787Y-26983D02*
X20944Y-26983D01*
X20787Y-26983D02*
X20629Y-26983D01*
X20787Y-27140D02*
X20629Y-27140D01*
X20629Y-27140D02*
X20787Y-26983D01*
X20787Y-26983D02*
X20944Y-27140D01*
X20944Y-27140D02*
X20787Y-27140D01*
X31810Y-25414D02*
X31968Y-25414D01*
X31810Y-25414D02*
X31653Y-25414D01*
X31810Y-25571D02*
X31653Y-25571D01*
X31653Y-25571D02*
X31810Y-25414D01*
X31810Y-25414D02*
X31968Y-25571D01*
X31968Y-25571D02*
X31810Y-25571D01*
X28660Y-25414D02*
X28818Y-25414D01*
X28660Y-25414D02*
X28503Y-25414D01*
X28660Y-25571D02*
X28503Y-25571D01*
X28503Y-25571D02*
X28660Y-25414D01*
X28660Y-25414D02*
X28818Y-25571D01*
X28818Y-25571D02*
X28660Y-25571D01*
X25512Y-25414D02*
X25669Y-25414D01*
X25512Y-25414D02*
X25354Y-25414D01*
X25512Y-25571D02*
X25354Y-25571D01*
X25354Y-25571D02*
X25512Y-25414D01*
X25512Y-25414D02*
X25669Y-25571D01*
X25669Y-25571D02*
X25512Y-25571D01*
X22362Y-25414D02*
X22519Y-25414D01*
X22362Y-25414D02*
X22204Y-25414D01*
X22362Y-25571D02*
X22204Y-25571D01*
X22204Y-25571D02*
X22362Y-25414D01*
X22362Y-25414D02*
X22519Y-25571D01*
X22519Y-25571D02*
X22362Y-25571D01*
X30235Y-23846D02*
X30393Y-23846D01*
X30235Y-23846D02*
X30078Y-23846D01*
X30235Y-24003D02*
X30078Y-24003D01*
X30078Y-24003D02*
X30235Y-23846D01*
X30235Y-23846D02*
X30393Y-24003D01*
X30393Y-24003D02*
X30235Y-24003D01*
X27087Y-23846D02*
X27244Y-23846D01*
X27087Y-23846D02*
X26929Y-23846D01*
X27087Y-24003D02*
X26929Y-24003D01*
X26929Y-24003D02*
X27087Y-23846D01*
X27087Y-23846D02*
X27244Y-24003D01*
X27244Y-24003D02*
X27087Y-24003D01*
X23937Y-23846D02*
X24094Y-23846D01*
X23937Y-23846D02*
X23779Y-23846D01*
X23937Y-24003D02*
X23779Y-24003D01*
X23779Y-24003D02*
X23937Y-23846D01*
X23937Y-23846D02*
X24094Y-24003D01*
X24094Y-24003D02*
X23937Y-24003D01*
X20787Y-23846D02*
X20944Y-23846D01*
X20787Y-23846D02*
X20629Y-23846D01*
X20787Y-24003D02*
X20629Y-24003D01*
X20629Y-24003D02*
X20787Y-23846D01*
X20787Y-23846D02*
X20944Y-24003D01*
X20944Y-24003D02*
X20787Y-24003D01*
X31810Y-22277D02*
X31968Y-22277D01*
X31810Y-22277D02*
X31653Y-22277D01*
X31810Y-22434D02*
X31653Y-22434D01*
X31653Y-22434D02*
X31810Y-22277D01*
X31810Y-22277D02*
X31968Y-22434D01*
X31968Y-22434D02*
X31810Y-22434D01*
X28660Y-22277D02*
X28818Y-22277D01*
X28660Y-22277D02*
X28503Y-22277D01*
X28660Y-22434D02*
X28503Y-22434D01*
X28503Y-22434D02*
X28660Y-22277D01*
X28660Y-22277D02*
X28818Y-22434D01*
X28818Y-22434D02*
X28660Y-22434D01*
X25512Y-22277D02*
X25669Y-22277D01*
X25512Y-22277D02*
X25354Y-22277D01*
X25512Y-22434D02*
X25354Y-22434D01*
X25354Y-22434D02*
X25512Y-22277D01*
X25512Y-22277D02*
X25669Y-22434D01*
X25669Y-22434D02*
X25512Y-22434D01*
X22362Y-22277D02*
X22519Y-22277D01*
X22362Y-22277D02*
X22204Y-22277D01*
X22362Y-22434D02*
X22204Y-22434D01*
X22204Y-22434D02*
X22362Y-22277D01*
X22362Y-22277D02*
X22519Y-22434D01*
X22519Y-22434D02*
X22362Y-22434D01*
X30235Y-20787D02*
X30393Y-20787D01*
X30235Y-20787D02*
X30078Y-20787D01*
X30235Y-20944D02*
X30078Y-20944D01*
X30078Y-20944D02*
X30235Y-20787D01*
X30235Y-20787D02*
X30393Y-20944D01*
X30393Y-20944D02*
X30235Y-20944D01*
X27087Y-20787D02*
X27244Y-20787D01*
X27087Y-20787D02*
X26929Y-20787D01*
X27087Y-20944D02*
X26929Y-20944D01*
X26929Y-20944D02*
X27087Y-20787D01*
X27087Y-20787D02*
X27244Y-20944D01*
X27244Y-20944D02*
X27087Y-20944D01*
X23937Y-20787D02*
X24094Y-20787D01*
X23937Y-20787D02*
X23779Y-20787D01*
X23937Y-20944D02*
X23779Y-20944D01*
X23779Y-20944D02*
X23937Y-20787D01*
X23937Y-20787D02*
X24094Y-20944D01*
X24094Y-20944D02*
X23937Y-20944D01*
X20787Y-20787D02*
X20944Y-20787D01*
X20787Y-20787D02*
X20629Y-20787D01*
X20787Y-20944D02*
X20629Y-20944D01*
X20629Y-20944D02*
X20787Y-20787D01*
X20787Y-20787D02*
X20944Y-20944D01*
X20944Y-20944D02*
X20787Y-20944D01*
X22204Y-20629D02*
X22480Y-20787D01*
X22480Y-20787D02*
X22204Y-20983D01*
X22204Y-20787D02*
X22204Y-20983D01*
X22204Y-20787D02*
X22204Y-20629D01*
X22480Y-20629D02*
X22480Y-20983D01*
X25354Y-20629D02*
X25630Y-20787D01*
X25630Y-20787D02*
X25354Y-20983D01*
X25354Y-20787D02*
X25354Y-20983D01*
X25354Y-20787D02*
X25354Y-20629D01*
X25630Y-20629D02*
X25630Y-20983D01*
X28503Y-20629D02*
X28779Y-20787D01*
X28779Y-20787D02*
X28503Y-20983D01*
X28503Y-20787D02*
X28503Y-20983D01*
X28503Y-20787D02*
X28503Y-20629D01*
X28779Y-20629D02*
X28779Y-20983D01*
X31475Y-20629D02*
X31751Y-20787D01*
X31751Y-20787D02*
X31475Y-20983D01*
X31475Y-20787D02*
X31475Y-20983D01*
X31475Y-20787D02*
X31475Y-20629D01*
X31751Y-20629D02*
X31751Y-20983D01*
X20807Y-22198D02*
X21082Y-22355D01*
X21082Y-22355D02*
X20807Y-22552D01*
X20807Y-22355D02*
X20807Y-22552D01*
X20807Y-22355D02*
X20807Y-22198D01*
X21082Y-22198D02*
X21082Y-22552D01*
X23779Y-22198D02*
X24055Y-22355D01*
X24055Y-22355D02*
X23779Y-22552D01*
X23779Y-22355D02*
X23779Y-22552D01*
X23779Y-22355D02*
X23779Y-22198D01*
X24055Y-22198D02*
X24055Y-22552D01*
X26929Y-22198D02*
X27205Y-22355D01*
X27205Y-22355D02*
X26929Y-22552D01*
X26929Y-22355D02*
X26929Y-22552D01*
X26929Y-22355D02*
X26929Y-22198D01*
X27205Y-22198D02*
X27205Y-22552D01*
X30078Y-22198D02*
X30354Y-22355D01*
X30354Y-22355D02*
X30078Y-22552D01*
X30078Y-22355D02*
X30078Y-22552D01*
X30078Y-22355D02*
X30078Y-22198D01*
X30354Y-22198D02*
X30354Y-22552D01*
X22204Y-23767D02*
X22480Y-23925D01*
X22480Y-23925D02*
X22204Y-24121D01*
X22204Y-23925D02*
X22204Y-24121D01*
X22204Y-23925D02*
X22204Y-23767D01*
X22480Y-23767D02*
X22480Y-24121D01*
X25354Y-23767D02*
X25630Y-23925D01*
X25630Y-23925D02*
X25354Y-24121D01*
X25354Y-23925D02*
X25354Y-24121D01*
X25354Y-23925D02*
X25354Y-23767D01*
X25630Y-23767D02*
X25630Y-24121D01*
X28503Y-23767D02*
X28779Y-23925D01*
X28779Y-23925D02*
X28503Y-24121D01*
X28503Y-23925D02*
X28503Y-24121D01*
X28503Y-23925D02*
X28503Y-23767D01*
X28779Y-23767D02*
X28779Y-24121D01*
X31475Y-23767D02*
X31751Y-23925D01*
X31751Y-23925D02*
X31475Y-24121D01*
X31475Y-23925D02*
X31475Y-24121D01*
X31475Y-23925D02*
X31475Y-23767D01*
X31751Y-23767D02*
X31751Y-24121D01*
X20807Y-25335D02*
X21082Y-25492D01*
X21082Y-25492D02*
X20807Y-25689D01*
X20807Y-25492D02*
X20807Y-25689D01*
X20807Y-25492D02*
X20807Y-25335D01*
X21082Y-25335D02*
X21082Y-25689D01*
X23779Y-25335D02*
X24055Y-25492D01*
X24055Y-25492D02*
X23779Y-25689D01*
X23779Y-25492D02*
X23779Y-25689D01*
X23779Y-25492D02*
X23779Y-25335D01*
X24055Y-25335D02*
X24055Y-25689D01*
X26929Y-25335D02*
X27205Y-25492D01*
X27205Y-25492D02*
X26929Y-25689D01*
X26929Y-25492D02*
X26929Y-25689D01*
X26929Y-25492D02*
X26929Y-25335D01*
X27205Y-25335D02*
X27205Y-25689D01*
X30078Y-25335D02*
X30354Y-25492D01*
X30354Y-25492D02*
X30078Y-25689D01*
X30078Y-25492D02*
X30078Y-25689D01*
X30078Y-25492D02*
X30078Y-25335D01*
X30354Y-25335D02*
X30354Y-25689D01*
X22204Y-26904D02*
X22480Y-27062D01*
X22480Y-27062D02*
X22204Y-27258D01*
X22204Y-27062D02*
X22204Y-27258D01*
X22204Y-27062D02*
X22204Y-26904D01*
X22480Y-26904D02*
X22480Y-27258D01*
X25354Y-26904D02*
X25630Y-27062D01*
X25630Y-27062D02*
X25354Y-27258D01*
X25354Y-27062D02*
X25354Y-27258D01*
X25354Y-27062D02*
X25354Y-26904D01*
X25630Y-26904D02*
X25630Y-27258D01*
X28503Y-26904D02*
X28779Y-27062D01*
X28779Y-27062D02*
X28503Y-27258D01*
X28503Y-27062D02*
X28503Y-27258D01*
X28503Y-27062D02*
X28503Y-26904D01*
X28779Y-26904D02*
X28779Y-27258D01*
X31475Y-26904D02*
X31751Y-27062D01*
X31751Y-27062D02*
X31475Y-27258D01*
X31475Y-27062D02*
X31475Y-27258D01*
X31475Y-27062D02*
X31475Y-26904D01*
X31751Y-26904D02*
X31751Y-27258D01*
X20807Y-28473D02*
X21082Y-28630D01*
X21082Y-28630D02*
X20807Y-28827D01*
X20807Y-28630D02*
X20807Y-28827D01*
X20807Y-28630D02*
X20807Y-28473D01*
X21082Y-28473D02*
X21082Y-28827D01*
X23779Y-28473D02*
X24055Y-28630D01*
X24055Y-28630D02*
X23779Y-28827D01*
X23779Y-28630D02*
X23779Y-28827D01*
X23779Y-28630D02*
X23779Y-28473D01*
X24055Y-28473D02*
X24055Y-28827D01*
X26929Y-28473D02*
X27205Y-28630D01*
X27205Y-28630D02*
X26929Y-28827D01*
X26929Y-28630D02*
X26929Y-28827D01*
X26929Y-28630D02*
X26929Y-28473D01*
X27205Y-28473D02*
X27205Y-28827D01*
X30078Y-28473D02*
X30354Y-28630D01*
X30354Y-28630D02*
X30078Y-28827D01*
X30078Y-28630D02*
X30078Y-28827D01*
X30078Y-28630D02*
X30078Y-28473D01*
X30354Y-28473D02*
X30354Y-28827D01*
X22204Y-30041D02*
X22480Y-30199D01*
X22480Y-30199D02*
X22204Y-30395D01*
X22204Y-30199D02*
X22204Y-30395D01*
X22204Y-30199D02*
X22204Y-30041D01*
X22480Y-30041D02*
X22480Y-30395D01*
X25354Y-30041D02*
X25630Y-30199D01*
X25630Y-30199D02*
X25354Y-30395D01*
X25354Y-30199D02*
X25354Y-30395D01*
X25354Y-30199D02*
X25354Y-30041D01*
X25630Y-30041D02*
X25630Y-30395D01*
X28503Y-30041D02*
X28779Y-30199D01*
X28779Y-30199D02*
X28503Y-30395D01*
X28503Y-30199D02*
X28503Y-30395D01*
X28503Y-30199D02*
X28503Y-30041D01*
X28779Y-30041D02*
X28779Y-30395D01*
X31475Y-30041D02*
X31751Y-30199D01*
X31751Y-30199D02*
X31475Y-30395D01*
X31475Y-30199D02*
X31475Y-30395D01*
X31475Y-30199D02*
X31475Y-30041D01*
X31751Y-30041D02*
X31751Y-30395D01*
X20807Y-31610D02*
X21082Y-31767D01*
X21082Y-31767D02*
X20807Y-31964D01*
X20807Y-31767D02*
X20807Y-31964D01*
X20807Y-31767D02*
X20807Y-31610D01*
X21082Y-31610D02*
X21082Y-31964D01*
X23779Y-31610D02*
X24055Y-31767D01*
X24055Y-31767D02*
X23779Y-31964D01*
X23779Y-31767D02*
X23779Y-31964D01*
X23779Y-31767D02*
X23779Y-31610D01*
X24055Y-31610D02*
X24055Y-31964D01*
X26929Y-31610D02*
X27205Y-31767D01*
X27205Y-31767D02*
X26929Y-31964D01*
X26929Y-31767D02*
X26929Y-31964D01*
X26929Y-31767D02*
X26929Y-31610D01*
X27205Y-31610D02*
X27205Y-31964D01*
X30078Y-31610D02*
X30354Y-31767D01*
X30354Y-31767D02*
X30078Y-31964D01*
X30078Y-31767D02*
X30078Y-31964D01*
X30078Y-31767D02*
X30078Y-31610D01*
X30354Y-31610D02*
X30354Y-31964D01*
G54D12*
X31656Y-32053D02*
X31356Y-32053D01*
X31356Y-31982D01*
X31371Y-31939D01*
X31399Y-31910D01*
X31428Y-31896D01*
X31485Y-31882D01*
X31528Y-31882D01*
X31585Y-31896D01*
X31613Y-31910D01*
X31642Y-31939D01*
X31656Y-31982D01*
X31656Y-32053D01*
X31356Y-31624D02*
X31356Y-31682D01*
X31371Y-31710D01*
X31385Y-31724D01*
X31428Y-31753D01*
X31485Y-31767D01*
X31599Y-31767D01*
X31628Y-31753D01*
X31642Y-31739D01*
X31656Y-31710D01*
X31656Y-31653D01*
X31642Y-31624D01*
X31628Y-31610D01*
X31599Y-31596D01*
X31528Y-31596D01*
X31499Y-31610D01*
X31485Y-31624D01*
X31471Y-31653D01*
X31471Y-31710D01*
X31485Y-31739D01*
X31499Y-31753D01*
X31528Y-31767D01*
X31456Y-31339D02*
X31656Y-31339D01*
X31342Y-31410D02*
X31556Y-31482D01*
X31556Y-31296D01*
X28506Y-32053D02*
X28206Y-32053D01*
X28206Y-31982D01*
X28221Y-31939D01*
X28249Y-31910D01*
X28278Y-31896D01*
X28335Y-31882D01*
X28378Y-31882D01*
X28435Y-31896D01*
X28463Y-31910D01*
X28492Y-31939D01*
X28506Y-31982D01*
X28506Y-32053D01*
X28206Y-31624D02*
X28206Y-31682D01*
X28221Y-31710D01*
X28235Y-31724D01*
X28278Y-31753D01*
X28335Y-31767D01*
X28449Y-31767D01*
X28478Y-31753D01*
X28492Y-31739D01*
X28506Y-31710D01*
X28506Y-31653D01*
X28492Y-31624D01*
X28478Y-31610D01*
X28449Y-31596D01*
X28378Y-31596D01*
X28349Y-31610D01*
X28335Y-31624D01*
X28321Y-31653D01*
X28321Y-31710D01*
X28335Y-31739D01*
X28349Y-31753D01*
X28378Y-31767D01*
X28235Y-31482D02*
X28221Y-31467D01*
X28206Y-31439D01*
X28206Y-31367D01*
X28221Y-31339D01*
X28235Y-31324D01*
X28263Y-31310D01*
X28292Y-31310D01*
X28335Y-31324D01*
X28506Y-31496D01*
X28506Y-31310D01*
X25357Y-32053D02*
X25057Y-32053D01*
X25057Y-31982D01*
X25072Y-31939D01*
X25100Y-31910D01*
X25129Y-31896D01*
X25186Y-31882D01*
X25229Y-31882D01*
X25286Y-31896D01*
X25314Y-31910D01*
X25343Y-31939D01*
X25357Y-31982D01*
X25357Y-32053D01*
X25057Y-31624D02*
X25057Y-31682D01*
X25072Y-31710D01*
X25086Y-31724D01*
X25129Y-31753D01*
X25186Y-31767D01*
X25300Y-31767D01*
X25329Y-31753D01*
X25343Y-31739D01*
X25357Y-31710D01*
X25357Y-31653D01*
X25343Y-31624D01*
X25329Y-31610D01*
X25300Y-31596D01*
X25229Y-31596D01*
X25200Y-31610D01*
X25186Y-31624D01*
X25172Y-31653D01*
X25172Y-31710D01*
X25186Y-31739D01*
X25200Y-31753D01*
X25229Y-31767D01*
X25057Y-31410D02*
X25057Y-31382D01*
X25072Y-31353D01*
X25086Y-31339D01*
X25114Y-31324D01*
X25172Y-31310D01*
X25243Y-31310D01*
X25300Y-31324D01*
X25329Y-31339D01*
X25343Y-31353D01*
X25357Y-31382D01*
X25357Y-31410D01*
X25343Y-31439D01*
X25329Y-31453D01*
X25300Y-31467D01*
X25243Y-31482D01*
X25172Y-31482D01*
X25114Y-31467D01*
X25086Y-31453D01*
X25072Y-31439D01*
X25057Y-31410D01*
X22207Y-32053D02*
X21907Y-32053D01*
X21907Y-31982D01*
X21922Y-31939D01*
X21950Y-31910D01*
X21979Y-31896D01*
X22036Y-31882D01*
X22079Y-31882D01*
X22136Y-31896D01*
X22164Y-31910D01*
X22193Y-31939D01*
X22207Y-31982D01*
X22207Y-32053D01*
X21907Y-31610D02*
X21907Y-31753D01*
X22050Y-31767D01*
X22036Y-31753D01*
X22022Y-31724D01*
X22022Y-31653D01*
X22036Y-31624D01*
X22050Y-31610D01*
X22079Y-31596D01*
X22150Y-31596D01*
X22179Y-31610D01*
X22193Y-31624D01*
X22207Y-31653D01*
X22207Y-31724D01*
X22193Y-31753D01*
X22179Y-31767D01*
X22036Y-31424D02*
X22022Y-31453D01*
X22007Y-31467D01*
X21979Y-31482D01*
X21964Y-31482D01*
X21936Y-31467D01*
X21922Y-31453D01*
X21907Y-31424D01*
X21907Y-31367D01*
X21922Y-31339D01*
X21936Y-31324D01*
X21964Y-31310D01*
X21979Y-31310D01*
X22007Y-31324D01*
X22022Y-31339D01*
X22036Y-31367D01*
X22036Y-31424D01*
X22050Y-31453D01*
X22064Y-31467D01*
X22093Y-31482D01*
X22150Y-31482D01*
X22179Y-31467D01*
X22193Y-31453D01*
X22207Y-31424D01*
X22207Y-31367D01*
X22193Y-31339D01*
X22179Y-31324D01*
X22150Y-31310D01*
X22093Y-31310D01*
X22064Y-31324D01*
X22050Y-31339D01*
X22036Y-31367D01*
X30081Y-30563D02*
X29781Y-30563D01*
X29781Y-30491D01*
X29796Y-30449D01*
X29824Y-30420D01*
X29853Y-30406D01*
X29910Y-30391D01*
X29953Y-30391D01*
X30010Y-30406D01*
X30038Y-30420D01*
X30067Y-30449D01*
X30081Y-30491D01*
X30081Y-30563D01*
X29781Y-30120D02*
X29781Y-30263D01*
X29924Y-30277D01*
X29910Y-30263D01*
X29896Y-30234D01*
X29896Y-30163D01*
X29910Y-30134D01*
X29924Y-30120D01*
X29953Y-30106D01*
X30024Y-30106D01*
X30053Y-30120D01*
X30067Y-30134D01*
X30081Y-30163D01*
X30081Y-30234D01*
X30067Y-30263D01*
X30053Y-30277D01*
X29781Y-29834D02*
X29781Y-29977D01*
X29924Y-29991D01*
X29910Y-29977D01*
X29896Y-29949D01*
X29896Y-29877D01*
X29910Y-29849D01*
X29924Y-29834D01*
X29953Y-29820D01*
X30024Y-29820D01*
X30053Y-29834D01*
X30067Y-29849D01*
X30081Y-29877D01*
X30081Y-29949D01*
X30067Y-29977D01*
X30053Y-29991D01*
X26932Y-30563D02*
X26632Y-30563D01*
X26632Y-30491D01*
X26647Y-30449D01*
X26675Y-30420D01*
X26704Y-30406D01*
X26761Y-30391D01*
X26804Y-30391D01*
X26861Y-30406D01*
X26889Y-30420D01*
X26918Y-30449D01*
X26932Y-30491D01*
X26932Y-30563D01*
X26632Y-30120D02*
X26632Y-30263D01*
X26775Y-30277D01*
X26761Y-30263D01*
X26747Y-30234D01*
X26747Y-30163D01*
X26761Y-30134D01*
X26775Y-30120D01*
X26804Y-30106D01*
X26875Y-30106D01*
X26904Y-30120D01*
X26918Y-30134D01*
X26932Y-30163D01*
X26932Y-30234D01*
X26918Y-30263D01*
X26904Y-30277D01*
X26632Y-30006D02*
X26632Y-29820D01*
X26747Y-29920D01*
X26747Y-29877D01*
X26761Y-29849D01*
X26775Y-29834D01*
X26804Y-29820D01*
X26875Y-29820D01*
X26904Y-29834D01*
X26918Y-29849D01*
X26932Y-29877D01*
X26932Y-29963D01*
X26918Y-29991D01*
X26904Y-30006D01*
X23782Y-30563D02*
X23482Y-30563D01*
X23482Y-30491D01*
X23497Y-30449D01*
X23525Y-30420D01*
X23554Y-30406D01*
X23611Y-30391D01*
X23654Y-30391D01*
X23711Y-30406D01*
X23739Y-30420D01*
X23768Y-30449D01*
X23782Y-30491D01*
X23782Y-30563D01*
X23482Y-30120D02*
X23482Y-30263D01*
X23625Y-30277D01*
X23611Y-30263D01*
X23597Y-30234D01*
X23597Y-30163D01*
X23611Y-30134D01*
X23625Y-30120D01*
X23654Y-30106D01*
X23725Y-30106D01*
X23754Y-30120D01*
X23768Y-30134D01*
X23782Y-30163D01*
X23782Y-30234D01*
X23768Y-30263D01*
X23754Y-30277D01*
X23782Y-29820D02*
X23782Y-29991D01*
X23782Y-29906D02*
X23482Y-29906D01*
X23525Y-29934D01*
X23554Y-29963D01*
X23568Y-29991D01*
X20632Y-30563D02*
X20332Y-30563D01*
X20332Y-30491D01*
X20347Y-30449D01*
X20375Y-30420D01*
X20404Y-30406D01*
X20461Y-30391D01*
X20504Y-30391D01*
X20561Y-30406D01*
X20589Y-30420D01*
X20618Y-30449D01*
X20632Y-30491D01*
X20632Y-30563D01*
X20432Y-30134D02*
X20632Y-30134D01*
X20318Y-30206D02*
X20532Y-30277D01*
X20532Y-30091D01*
X20632Y-29963D02*
X20632Y-29906D01*
X20618Y-29877D01*
X20604Y-29863D01*
X20561Y-29834D01*
X20504Y-29820D01*
X20389Y-29820D01*
X20361Y-29834D01*
X20347Y-29849D01*
X20332Y-29877D01*
X20332Y-29934D01*
X20347Y-29963D01*
X20361Y-29977D01*
X20389Y-29991D01*
X20461Y-29991D01*
X20489Y-29977D01*
X20504Y-29963D01*
X20518Y-29934D01*
X20518Y-29877D01*
X20504Y-29849D01*
X20489Y-29834D01*
X20461Y-29820D01*
X31656Y-28995D02*
X31356Y-28995D01*
X31356Y-28923D01*
X31371Y-28880D01*
X31399Y-28852D01*
X31428Y-28838D01*
X31485Y-28823D01*
X31528Y-28823D01*
X31585Y-28838D01*
X31613Y-28852D01*
X31642Y-28880D01*
X31656Y-28923D01*
X31656Y-28995D01*
X31456Y-28566D02*
X31656Y-28566D01*
X31342Y-28638D02*
X31556Y-28709D01*
X31556Y-28523D01*
X31485Y-28366D02*
X31471Y-28395D01*
X31456Y-28409D01*
X31428Y-28423D01*
X31413Y-28423D01*
X31385Y-28409D01*
X31371Y-28395D01*
X31356Y-28366D01*
X31356Y-28309D01*
X31371Y-28280D01*
X31385Y-28266D01*
X31413Y-28252D01*
X31428Y-28252D01*
X31456Y-28266D01*
X31471Y-28280D01*
X31485Y-28309D01*
X31485Y-28366D01*
X31499Y-28395D01*
X31513Y-28409D01*
X31542Y-28423D01*
X31599Y-28423D01*
X31628Y-28409D01*
X31642Y-28395D01*
X31656Y-28366D01*
X31656Y-28309D01*
X31642Y-28280D01*
X31628Y-28266D01*
X31599Y-28252D01*
X31542Y-28252D01*
X31513Y-28266D01*
X31499Y-28280D01*
X31485Y-28309D01*
X28506Y-28995D02*
X28206Y-28995D01*
X28206Y-28923D01*
X28221Y-28880D01*
X28249Y-28852D01*
X28278Y-28838D01*
X28335Y-28823D01*
X28378Y-28823D01*
X28435Y-28838D01*
X28463Y-28852D01*
X28492Y-28880D01*
X28506Y-28923D01*
X28506Y-28995D01*
X28306Y-28566D02*
X28506Y-28566D01*
X28192Y-28638D02*
X28406Y-28709D01*
X28406Y-28523D01*
X28206Y-28280D02*
X28206Y-28338D01*
X28221Y-28366D01*
X28235Y-28380D01*
X28278Y-28409D01*
X28335Y-28423D01*
X28449Y-28423D01*
X28478Y-28409D01*
X28492Y-28395D01*
X28506Y-28366D01*
X28506Y-28309D01*
X28492Y-28280D01*
X28478Y-28266D01*
X28449Y-28252D01*
X28378Y-28252D01*
X28349Y-28266D01*
X28335Y-28280D01*
X28321Y-28309D01*
X28321Y-28366D01*
X28335Y-28395D01*
X28349Y-28409D01*
X28378Y-28423D01*
X25357Y-28995D02*
X25057Y-28995D01*
X25057Y-28923D01*
X25072Y-28880D01*
X25100Y-28852D01*
X25129Y-28838D01*
X25186Y-28823D01*
X25229Y-28823D01*
X25286Y-28838D01*
X25314Y-28852D01*
X25343Y-28880D01*
X25357Y-28923D01*
X25357Y-28995D01*
X25157Y-28566D02*
X25357Y-28566D01*
X25043Y-28638D02*
X25257Y-28709D01*
X25257Y-28523D01*
X25157Y-28280D02*
X25357Y-28280D01*
X25043Y-28352D02*
X25257Y-28423D01*
X25257Y-28238D01*
X22207Y-28995D02*
X21907Y-28995D01*
X21907Y-28923D01*
X21922Y-28880D01*
X21950Y-28852D01*
X21979Y-28838D01*
X22036Y-28823D01*
X22079Y-28823D01*
X22136Y-28838D01*
X22164Y-28852D01*
X22193Y-28880D01*
X22207Y-28923D01*
X22207Y-28995D01*
X22007Y-28566D02*
X22207Y-28566D01*
X21893Y-28638D02*
X22107Y-28709D01*
X22107Y-28523D01*
X21936Y-28423D02*
X21922Y-28409D01*
X21907Y-28380D01*
X21907Y-28309D01*
X21922Y-28280D01*
X21936Y-28266D01*
X21964Y-28252D01*
X21993Y-28252D01*
X22036Y-28266D01*
X22207Y-28438D01*
X22207Y-28252D01*
X30081Y-27426D02*
X29781Y-27426D01*
X29781Y-27354D01*
X29796Y-27312D01*
X29824Y-27283D01*
X29853Y-27269D01*
X29910Y-27254D01*
X29953Y-27254D01*
X30010Y-27269D01*
X30038Y-27283D01*
X30067Y-27312D01*
X30081Y-27354D01*
X30081Y-27426D01*
X29781Y-27154D02*
X29781Y-26969D01*
X29896Y-27069D01*
X29896Y-27026D01*
X29910Y-26997D01*
X29924Y-26983D01*
X29953Y-26969D01*
X30024Y-26969D01*
X30053Y-26983D01*
X30067Y-26997D01*
X30081Y-27026D01*
X30081Y-27112D01*
X30067Y-27140D01*
X30053Y-27154D01*
X30081Y-26826D02*
X30081Y-26769D01*
X30067Y-26740D01*
X30053Y-26726D01*
X30010Y-26697D01*
X29953Y-26683D01*
X29838Y-26683D01*
X29810Y-26697D01*
X29796Y-26712D01*
X29781Y-26740D01*
X29781Y-26797D01*
X29796Y-26826D01*
X29810Y-26840D01*
X29838Y-26854D01*
X29910Y-26854D01*
X29938Y-26840D01*
X29953Y-26826D01*
X29967Y-26797D01*
X29967Y-26740D01*
X29953Y-26712D01*
X29938Y-26697D01*
X29910Y-26683D01*
X26932Y-27426D02*
X26632Y-27426D01*
X26632Y-27354D01*
X26647Y-27312D01*
X26675Y-27283D01*
X26704Y-27269D01*
X26761Y-27254D01*
X26804Y-27254D01*
X26861Y-27269D01*
X26889Y-27283D01*
X26918Y-27312D01*
X26932Y-27354D01*
X26932Y-27426D01*
X26632Y-27154D02*
X26632Y-26969D01*
X26747Y-27069D01*
X26747Y-27026D01*
X26761Y-26997D01*
X26775Y-26983D01*
X26804Y-26969D01*
X26875Y-26969D01*
X26904Y-26983D01*
X26918Y-26997D01*
X26932Y-27026D01*
X26932Y-27112D01*
X26918Y-27140D01*
X26904Y-27154D01*
X26632Y-26869D02*
X26632Y-26669D01*
X26932Y-26797D01*
X23782Y-27426D02*
X23482Y-27426D01*
X23482Y-27354D01*
X23497Y-27312D01*
X23525Y-27283D01*
X23554Y-27269D01*
X23611Y-27254D01*
X23654Y-27254D01*
X23711Y-27269D01*
X23739Y-27283D01*
X23768Y-27312D01*
X23782Y-27354D01*
X23782Y-27426D01*
X23482Y-27154D02*
X23482Y-26969D01*
X23597Y-27069D01*
X23597Y-27026D01*
X23611Y-26997D01*
X23625Y-26983D01*
X23654Y-26969D01*
X23725Y-26969D01*
X23754Y-26983D01*
X23768Y-26997D01*
X23782Y-27026D01*
X23782Y-27112D01*
X23768Y-27140D01*
X23754Y-27154D01*
X23482Y-26697D02*
X23482Y-26840D01*
X23625Y-26854D01*
X23611Y-26840D01*
X23597Y-26812D01*
X23597Y-26740D01*
X23611Y-26712D01*
X23625Y-26697D01*
X23654Y-26683D01*
X23725Y-26683D01*
X23754Y-26697D01*
X23768Y-26712D01*
X23782Y-26740D01*
X23782Y-26812D01*
X23768Y-26840D01*
X23754Y-26854D01*
X20632Y-27426D02*
X20332Y-27426D01*
X20332Y-27354D01*
X20347Y-27312D01*
X20375Y-27283D01*
X20404Y-27269D01*
X20461Y-27254D01*
X20504Y-27254D01*
X20561Y-27269D01*
X20589Y-27283D01*
X20618Y-27312D01*
X20632Y-27354D01*
X20632Y-27426D01*
X20332Y-27154D02*
X20332Y-26969D01*
X20447Y-27069D01*
X20447Y-27026D01*
X20461Y-26997D01*
X20475Y-26983D01*
X20504Y-26969D01*
X20575Y-26969D01*
X20604Y-26983D01*
X20618Y-26997D01*
X20632Y-27026D01*
X20632Y-27112D01*
X20618Y-27140D01*
X20604Y-27154D01*
X20332Y-26869D02*
X20332Y-26683D01*
X20447Y-26783D01*
X20447Y-26740D01*
X20461Y-26712D01*
X20475Y-26697D01*
X20504Y-26683D01*
X20575Y-26683D01*
X20604Y-26697D01*
X20618Y-26712D01*
X20632Y-26740D01*
X20632Y-26826D01*
X20618Y-26854D01*
X20604Y-26869D01*
X31656Y-25857D02*
X31356Y-25857D01*
X31356Y-25785D01*
X31371Y-25742D01*
X31399Y-25714D01*
X31428Y-25700D01*
X31485Y-25685D01*
X31528Y-25685D01*
X31585Y-25700D01*
X31613Y-25714D01*
X31642Y-25742D01*
X31656Y-25785D01*
X31656Y-25857D01*
X31356Y-25585D02*
X31356Y-25400D01*
X31471Y-25500D01*
X31471Y-25457D01*
X31485Y-25428D01*
X31499Y-25414D01*
X31528Y-25400D01*
X31599Y-25400D01*
X31628Y-25414D01*
X31642Y-25428D01*
X31656Y-25457D01*
X31656Y-25542D01*
X31642Y-25571D01*
X31628Y-25585D01*
X31385Y-25285D02*
X31371Y-25271D01*
X31356Y-25242D01*
X31356Y-25171D01*
X31371Y-25142D01*
X31385Y-25128D01*
X31413Y-25114D01*
X31442Y-25114D01*
X31485Y-25128D01*
X31656Y-25300D01*
X31656Y-25114D01*
X28506Y-25857D02*
X28206Y-25857D01*
X28206Y-25785D01*
X28221Y-25742D01*
X28249Y-25714D01*
X28278Y-25700D01*
X28335Y-25685D01*
X28378Y-25685D01*
X28435Y-25700D01*
X28463Y-25714D01*
X28492Y-25742D01*
X28506Y-25785D01*
X28506Y-25857D01*
X28206Y-25585D02*
X28206Y-25400D01*
X28321Y-25500D01*
X28321Y-25457D01*
X28335Y-25428D01*
X28349Y-25414D01*
X28378Y-25400D01*
X28449Y-25400D01*
X28478Y-25414D01*
X28492Y-25428D01*
X28506Y-25457D01*
X28506Y-25542D01*
X28492Y-25571D01*
X28478Y-25585D01*
X28206Y-25214D02*
X28206Y-25185D01*
X28221Y-25157D01*
X28235Y-25142D01*
X28263Y-25128D01*
X28321Y-25114D01*
X28392Y-25114D01*
X28449Y-25128D01*
X28478Y-25142D01*
X28492Y-25157D01*
X28506Y-25185D01*
X28506Y-25214D01*
X28492Y-25242D01*
X28478Y-25257D01*
X28449Y-25271D01*
X28392Y-25285D01*
X28321Y-25285D01*
X28263Y-25271D01*
X28235Y-25257D01*
X28221Y-25242D01*
X28206Y-25214D01*
X25357Y-25857D02*
X25057Y-25857D01*
X25057Y-25785D01*
X25072Y-25742D01*
X25100Y-25714D01*
X25129Y-25700D01*
X25186Y-25685D01*
X25229Y-25685D01*
X25286Y-25700D01*
X25314Y-25714D01*
X25343Y-25742D01*
X25357Y-25785D01*
X25357Y-25857D01*
X25086Y-25571D02*
X25072Y-25557D01*
X25057Y-25528D01*
X25057Y-25457D01*
X25072Y-25428D01*
X25086Y-25414D01*
X25114Y-25400D01*
X25143Y-25400D01*
X25186Y-25414D01*
X25357Y-25585D01*
X25357Y-25400D01*
X25186Y-25228D02*
X25172Y-25257D01*
X25157Y-25271D01*
X25129Y-25285D01*
X25114Y-25285D01*
X25086Y-25271D01*
X25072Y-25257D01*
X25057Y-25228D01*
X25057Y-25171D01*
X25072Y-25142D01*
X25086Y-25128D01*
X25114Y-25114D01*
X25129Y-25114D01*
X25157Y-25128D01*
X25172Y-25142D01*
X25186Y-25171D01*
X25186Y-25228D01*
X25200Y-25257D01*
X25214Y-25271D01*
X25243Y-25285D01*
X25300Y-25285D01*
X25329Y-25271D01*
X25343Y-25257D01*
X25357Y-25228D01*
X25357Y-25171D01*
X25343Y-25142D01*
X25329Y-25128D01*
X25300Y-25114D01*
X25243Y-25114D01*
X25214Y-25128D01*
X25200Y-25142D01*
X25186Y-25171D01*
X22207Y-25857D02*
X21907Y-25857D01*
X21907Y-25785D01*
X21922Y-25742D01*
X21950Y-25714D01*
X21979Y-25700D01*
X22036Y-25685D01*
X22079Y-25685D01*
X22136Y-25700D01*
X22164Y-25714D01*
X22193Y-25742D01*
X22207Y-25785D01*
X22207Y-25857D01*
X21936Y-25571D02*
X21922Y-25557D01*
X21907Y-25528D01*
X21907Y-25457D01*
X21922Y-25428D01*
X21936Y-25414D01*
X21964Y-25400D01*
X21993Y-25400D01*
X22036Y-25414D01*
X22207Y-25585D01*
X22207Y-25400D01*
X21907Y-25142D02*
X21907Y-25200D01*
X21922Y-25228D01*
X21936Y-25242D01*
X21979Y-25271D01*
X22036Y-25285D01*
X22150Y-25285D01*
X22179Y-25271D01*
X22193Y-25257D01*
X22207Y-25228D01*
X22207Y-25171D01*
X22193Y-25142D01*
X22179Y-25128D01*
X22150Y-25114D01*
X22079Y-25114D01*
X22050Y-25128D01*
X22036Y-25142D01*
X22022Y-25171D01*
X22022Y-25228D01*
X22036Y-25257D01*
X22050Y-25271D01*
X22079Y-25285D01*
X30081Y-24289D02*
X29781Y-24289D01*
X29781Y-24217D01*
X29796Y-24175D01*
X29824Y-24146D01*
X29853Y-24132D01*
X29910Y-24117D01*
X29953Y-24117D01*
X30010Y-24132D01*
X30038Y-24146D01*
X30067Y-24175D01*
X30081Y-24217D01*
X30081Y-24289D01*
X29810Y-24003D02*
X29796Y-23989D01*
X29781Y-23960D01*
X29781Y-23889D01*
X29796Y-23860D01*
X29810Y-23846D01*
X29838Y-23832D01*
X29867Y-23832D01*
X29910Y-23846D01*
X30081Y-24017D01*
X30081Y-23832D01*
X29781Y-23732D02*
X29781Y-23546D01*
X29896Y-23646D01*
X29896Y-23603D01*
X29910Y-23575D01*
X29924Y-23560D01*
X29953Y-23546D01*
X30024Y-23546D01*
X30053Y-23560D01*
X30067Y-23575D01*
X30081Y-23603D01*
X30081Y-23689D01*
X30067Y-23717D01*
X30053Y-23732D01*
X26932Y-24289D02*
X26632Y-24289D01*
X26632Y-24217D01*
X26647Y-24175D01*
X26675Y-24146D01*
X26704Y-24132D01*
X26761Y-24117D01*
X26804Y-24117D01*
X26861Y-24132D01*
X26889Y-24146D01*
X26918Y-24175D01*
X26932Y-24217D01*
X26932Y-24289D01*
X26661Y-24003D02*
X26647Y-23989D01*
X26632Y-23960D01*
X26632Y-23889D01*
X26647Y-23860D01*
X26661Y-23846D01*
X26689Y-23832D01*
X26718Y-23832D01*
X26761Y-23846D01*
X26932Y-24017D01*
X26932Y-23832D01*
X26932Y-23546D02*
X26932Y-23717D01*
X26932Y-23632D02*
X26632Y-23632D01*
X26675Y-23660D01*
X26704Y-23689D01*
X26718Y-23717D01*
X23782Y-24289D02*
X23482Y-24289D01*
X23482Y-24217D01*
X23497Y-24175D01*
X23525Y-24146D01*
X23554Y-24132D01*
X23611Y-24117D01*
X23654Y-24117D01*
X23711Y-24132D01*
X23739Y-24146D01*
X23768Y-24175D01*
X23782Y-24217D01*
X23782Y-24289D01*
X23782Y-23832D02*
X23782Y-24003D01*
X23782Y-23917D02*
X23482Y-23917D01*
X23525Y-23946D01*
X23554Y-23975D01*
X23568Y-24003D01*
X23782Y-23689D02*
X23782Y-23632D01*
X23768Y-23603D01*
X23754Y-23589D01*
X23711Y-23560D01*
X23654Y-23546D01*
X23539Y-23546D01*
X23511Y-23560D01*
X23497Y-23575D01*
X23482Y-23603D01*
X23482Y-23660D01*
X23497Y-23689D01*
X23511Y-23703D01*
X23539Y-23717D01*
X23611Y-23717D01*
X23639Y-23703D01*
X23654Y-23689D01*
X23668Y-23660D01*
X23668Y-23603D01*
X23654Y-23575D01*
X23639Y-23560D01*
X23611Y-23546D01*
X20632Y-24289D02*
X20332Y-24289D01*
X20332Y-24217D01*
X20347Y-24175D01*
X20375Y-24146D01*
X20404Y-24132D01*
X20461Y-24117D01*
X20504Y-24117D01*
X20561Y-24132D01*
X20589Y-24146D01*
X20618Y-24175D01*
X20632Y-24217D01*
X20632Y-24289D01*
X20632Y-23832D02*
X20632Y-24003D01*
X20632Y-23917D02*
X20332Y-23917D01*
X20375Y-23946D01*
X20404Y-23975D01*
X20418Y-24003D01*
X20332Y-23732D02*
X20332Y-23532D01*
X20632Y-23660D01*
X31656Y-22720D02*
X31356Y-22720D01*
X31356Y-22648D01*
X31371Y-22605D01*
X31399Y-22577D01*
X31428Y-22563D01*
X31485Y-22548D01*
X31528Y-22548D01*
X31585Y-22563D01*
X31613Y-22577D01*
X31642Y-22605D01*
X31656Y-22648D01*
X31656Y-22720D01*
X31656Y-22263D02*
X31656Y-22434D01*
X31656Y-22348D02*
X31356Y-22348D01*
X31399Y-22377D01*
X31428Y-22405D01*
X31442Y-22434D01*
X31356Y-22005D02*
X31356Y-22063D01*
X31371Y-22091D01*
X31385Y-22105D01*
X31428Y-22134D01*
X31485Y-22148D01*
X31599Y-22148D01*
X31628Y-22134D01*
X31642Y-22120D01*
X31656Y-22091D01*
X31656Y-22034D01*
X31642Y-22005D01*
X31628Y-21991D01*
X31599Y-21977D01*
X31528Y-21977D01*
X31499Y-21991D01*
X31485Y-22005D01*
X31471Y-22034D01*
X31471Y-22091D01*
X31485Y-22120D01*
X31499Y-22134D01*
X31528Y-22148D01*
X28506Y-22720D02*
X28206Y-22720D01*
X28206Y-22648D01*
X28221Y-22605D01*
X28249Y-22577D01*
X28278Y-22563D01*
X28335Y-22548D01*
X28378Y-22548D01*
X28435Y-22563D01*
X28463Y-22577D01*
X28492Y-22605D01*
X28506Y-22648D01*
X28506Y-22720D01*
X28506Y-22263D02*
X28506Y-22434D01*
X28506Y-22348D02*
X28206Y-22348D01*
X28249Y-22377D01*
X28278Y-22405D01*
X28292Y-22434D01*
X28306Y-22005D02*
X28506Y-22005D01*
X28192Y-22077D02*
X28406Y-22148D01*
X28406Y-21963D01*
X25357Y-22720D02*
X25057Y-22720D01*
X25057Y-22648D01*
X25072Y-22605D01*
X25100Y-22577D01*
X25129Y-22563D01*
X25186Y-22548D01*
X25229Y-22548D01*
X25286Y-22563D01*
X25314Y-22577D01*
X25343Y-22605D01*
X25357Y-22648D01*
X25357Y-22720D01*
X25357Y-22263D02*
X25357Y-22434D01*
X25357Y-22348D02*
X25057Y-22348D01*
X25100Y-22377D01*
X25129Y-22405D01*
X25143Y-22434D01*
X25086Y-22148D02*
X25072Y-22134D01*
X25057Y-22105D01*
X25057Y-22034D01*
X25072Y-22005D01*
X25086Y-21991D01*
X25114Y-21977D01*
X25143Y-21977D01*
X25186Y-21991D01*
X25357Y-22163D01*
X25357Y-21977D01*
X22207Y-22720D02*
X21907Y-22720D01*
X21907Y-22648D01*
X21922Y-22605D01*
X21950Y-22577D01*
X21979Y-22563D01*
X22036Y-22548D01*
X22079Y-22548D01*
X22136Y-22563D01*
X22164Y-22577D01*
X22193Y-22605D01*
X22207Y-22648D01*
X22207Y-22720D01*
X22207Y-22263D02*
X22207Y-22434D01*
X22207Y-22348D02*
X21907Y-22348D01*
X21950Y-22377D01*
X21979Y-22405D01*
X21993Y-22434D01*
X21907Y-22077D02*
X21907Y-22048D01*
X21922Y-22020D01*
X21936Y-22005D01*
X21964Y-21991D01*
X22022Y-21977D01*
X22093Y-21977D01*
X22150Y-21991D01*
X22179Y-22005D01*
X22193Y-22020D01*
X22207Y-22048D01*
X22207Y-22077D01*
X22193Y-22105D01*
X22179Y-22120D01*
X22150Y-22134D01*
X22093Y-22148D01*
X22022Y-22148D01*
X21964Y-22134D01*
X21936Y-22120D01*
X21922Y-22105D01*
X21907Y-22077D01*
X30081Y-21087D02*
X29781Y-21087D01*
X29781Y-21015D01*
X29796Y-20972D01*
X29824Y-20944D01*
X29853Y-20930D01*
X29910Y-20915D01*
X29953Y-20915D01*
X30010Y-20930D01*
X30038Y-20944D01*
X30067Y-20972D01*
X30081Y-21015D01*
X30081Y-21087D01*
X29781Y-20815D02*
X29781Y-20615D01*
X30081Y-20744D01*
X26932Y-21087D02*
X26632Y-21087D01*
X26632Y-21015D01*
X26647Y-20972D01*
X26675Y-20944D01*
X26704Y-20930D01*
X26761Y-20915D01*
X26804Y-20915D01*
X26861Y-20930D01*
X26889Y-20944D01*
X26918Y-20972D01*
X26932Y-21015D01*
X26932Y-21087D01*
X26632Y-20644D02*
X26632Y-20787D01*
X26775Y-20801D01*
X26761Y-20787D01*
X26747Y-20758D01*
X26747Y-20687D01*
X26761Y-20658D01*
X26775Y-20644D01*
X26804Y-20630D01*
X26875Y-20630D01*
X26904Y-20644D01*
X26918Y-20658D01*
X26932Y-20687D01*
X26932Y-20758D01*
X26918Y-20787D01*
X26904Y-20801D01*
X23782Y-21087D02*
X23482Y-21087D01*
X23482Y-21015D01*
X23497Y-20972D01*
X23525Y-20944D01*
X23554Y-20930D01*
X23611Y-20915D01*
X23654Y-20915D01*
X23711Y-20930D01*
X23739Y-20944D01*
X23768Y-20972D01*
X23782Y-21015D01*
X23782Y-21087D01*
X23482Y-20815D02*
X23482Y-20630D01*
X23597Y-20730D01*
X23597Y-20687D01*
X23611Y-20658D01*
X23625Y-20644D01*
X23654Y-20630D01*
X23725Y-20630D01*
X23754Y-20644D01*
X23768Y-20658D01*
X23782Y-20687D01*
X23782Y-20772D01*
X23768Y-20801D01*
X23754Y-20815D01*
X20632Y-21087D02*
X20332Y-21087D01*
X20332Y-21015D01*
X20347Y-20972D01*
X20375Y-20944D01*
X20404Y-20930D01*
X20461Y-20915D01*
X20504Y-20915D01*
X20561Y-20930D01*
X20589Y-20944D01*
X20618Y-20972D01*
X20632Y-21015D01*
X20632Y-21087D01*
X20632Y-20630D02*
X20632Y-20801D01*
X20632Y-20715D02*
X20332Y-20715D01*
X20375Y-20744D01*
X20404Y-20772D01*
X20418Y-20801D01*
X22140Y-21302D02*
X22140Y-21002D01*
X22212Y-21002D01*
X22254Y-21016D01*
X22283Y-21044D01*
X22297Y-21073D01*
X22312Y-21130D01*
X22312Y-21173D01*
X22297Y-21230D01*
X22283Y-21259D01*
X22254Y-21287D01*
X22212Y-21302D01*
X22140Y-21302D01*
X22426Y-21030D02*
X22440Y-21016D01*
X22469Y-21002D01*
X22540Y-21002D01*
X22569Y-21016D01*
X22583Y-21030D01*
X22597Y-21059D01*
X22597Y-21087D01*
X22583Y-21130D01*
X22412Y-21302D01*
X22597Y-21302D01*
X25290Y-21302D02*
X25290Y-21002D01*
X25362Y-21002D01*
X25404Y-21016D01*
X25433Y-21044D01*
X25447Y-21073D01*
X25462Y-21130D01*
X25462Y-21173D01*
X25447Y-21230D01*
X25433Y-21259D01*
X25404Y-21287D01*
X25362Y-21302D01*
X25290Y-21302D01*
X25719Y-21102D02*
X25719Y-21302D01*
X25647Y-20987D02*
X25576Y-21202D01*
X25762Y-21202D01*
X28439Y-21302D02*
X28439Y-21002D01*
X28510Y-21002D01*
X28553Y-21016D01*
X28582Y-21044D01*
X28596Y-21073D01*
X28610Y-21130D01*
X28610Y-21173D01*
X28596Y-21230D01*
X28582Y-21259D01*
X28553Y-21287D01*
X28510Y-21302D01*
X28439Y-21302D01*
X28868Y-21002D02*
X28810Y-21002D01*
X28782Y-21016D01*
X28768Y-21030D01*
X28739Y-21073D01*
X28725Y-21130D01*
X28725Y-21244D01*
X28739Y-21273D01*
X28753Y-21287D01*
X28782Y-21302D01*
X28839Y-21302D01*
X28868Y-21287D01*
X28882Y-21273D01*
X28896Y-21244D01*
X28896Y-21173D01*
X28882Y-21144D01*
X28868Y-21130D01*
X28839Y-21116D01*
X28782Y-21116D01*
X28753Y-21130D01*
X28739Y-21144D01*
X28725Y-21173D01*
X31411Y-21302D02*
X31411Y-21002D01*
X31483Y-21002D01*
X31526Y-21016D01*
X31554Y-21044D01*
X31569Y-21073D01*
X31583Y-21130D01*
X31583Y-21173D01*
X31569Y-21230D01*
X31554Y-21259D01*
X31526Y-21287D01*
X31483Y-21302D01*
X31411Y-21302D01*
X31754Y-21130D02*
X31726Y-21116D01*
X31711Y-21102D01*
X31697Y-21073D01*
X31697Y-21059D01*
X31711Y-21030D01*
X31726Y-21016D01*
X31754Y-21002D01*
X31811Y-21002D01*
X31840Y-21016D01*
X31854Y-21030D01*
X31869Y-21059D01*
X31869Y-21073D01*
X31854Y-21102D01*
X31840Y-21116D01*
X31811Y-21130D01*
X31754Y-21130D01*
X31726Y-21144D01*
X31711Y-21159D01*
X31697Y-21187D01*
X31697Y-21244D01*
X31711Y-21273D01*
X31726Y-21287D01*
X31754Y-21302D01*
X31811Y-21302D01*
X31840Y-21287D01*
X31854Y-21273D01*
X31869Y-21244D01*
X31869Y-21187D01*
X31854Y-21159D01*
X31840Y-21144D01*
X31811Y-21130D01*
X20743Y-22871D02*
X20743Y-22571D01*
X20814Y-22571D01*
X20857Y-22585D01*
X20885Y-22613D01*
X20900Y-22642D01*
X20914Y-22699D01*
X20914Y-22742D01*
X20900Y-22799D01*
X20885Y-22828D01*
X20857Y-22856D01*
X20814Y-22871D01*
X20743Y-22871D01*
X21057Y-22871D02*
X21114Y-22871D01*
X21143Y-22856D01*
X21157Y-22842D01*
X21185Y-22799D01*
X21200Y-22742D01*
X21200Y-22628D01*
X21185Y-22599D01*
X21171Y-22585D01*
X21143Y-22571D01*
X21085Y-22571D01*
X21057Y-22585D01*
X21043Y-22599D01*
X21028Y-22628D01*
X21028Y-22699D01*
X21043Y-22728D01*
X21057Y-22742D01*
X21085Y-22756D01*
X21143Y-22756D01*
X21171Y-22742D01*
X21185Y-22728D01*
X21200Y-22699D01*
X23572Y-22871D02*
X23572Y-22571D01*
X23644Y-22571D01*
X23687Y-22585D01*
X23715Y-22613D01*
X23729Y-22642D01*
X23744Y-22699D01*
X23744Y-22742D01*
X23729Y-22799D01*
X23715Y-22828D01*
X23687Y-22856D01*
X23644Y-22871D01*
X23572Y-22871D01*
X24029Y-22871D02*
X23858Y-22871D01*
X23944Y-22871D02*
X23944Y-22571D01*
X23915Y-22613D01*
X23887Y-22642D01*
X23858Y-22656D01*
X24315Y-22871D02*
X24144Y-22871D01*
X24229Y-22871D02*
X24229Y-22571D01*
X24201Y-22613D01*
X24172Y-22642D01*
X24144Y-22656D01*
X26722Y-22871D02*
X26722Y-22571D01*
X26794Y-22571D01*
X26837Y-22585D01*
X26865Y-22613D01*
X26879Y-22642D01*
X26894Y-22699D01*
X26894Y-22742D01*
X26879Y-22799D01*
X26865Y-22828D01*
X26837Y-22856D01*
X26794Y-22871D01*
X26722Y-22871D01*
X27179Y-22871D02*
X27008Y-22871D01*
X27094Y-22871D02*
X27094Y-22571D01*
X27065Y-22613D01*
X27037Y-22642D01*
X27008Y-22656D01*
X27279Y-22571D02*
X27465Y-22571D01*
X27365Y-22685D01*
X27408Y-22685D01*
X27437Y-22699D01*
X27451Y-22713D01*
X27465Y-22742D01*
X27465Y-22813D01*
X27451Y-22842D01*
X27437Y-22856D01*
X27408Y-22871D01*
X27322Y-22871D01*
X27294Y-22856D01*
X27279Y-22842D01*
X29871Y-22871D02*
X29871Y-22571D01*
X29943Y-22571D01*
X29985Y-22585D01*
X30014Y-22613D01*
X30028Y-22642D01*
X30043Y-22699D01*
X30043Y-22742D01*
X30028Y-22799D01*
X30014Y-22828D01*
X29985Y-22856D01*
X29943Y-22871D01*
X29871Y-22871D01*
X30328Y-22871D02*
X30157Y-22871D01*
X30243Y-22871D02*
X30243Y-22571D01*
X30214Y-22613D01*
X30185Y-22642D01*
X30157Y-22656D01*
X30600Y-22571D02*
X30457Y-22571D01*
X30443Y-22713D01*
X30457Y-22699D01*
X30485Y-22685D01*
X30557Y-22685D01*
X30585Y-22699D01*
X30600Y-22713D01*
X30614Y-22742D01*
X30614Y-22813D01*
X30600Y-22842D01*
X30585Y-22856D01*
X30557Y-22871D01*
X30485Y-22871D01*
X30457Y-22856D01*
X30443Y-22842D01*
X21997Y-24440D02*
X21997Y-24140D01*
X22069Y-24140D01*
X22112Y-24154D01*
X22140Y-24182D01*
X22154Y-24211D01*
X22169Y-24268D01*
X22169Y-24311D01*
X22154Y-24368D01*
X22140Y-24397D01*
X22112Y-24425D01*
X22069Y-24440D01*
X21997Y-24440D01*
X22454Y-24440D02*
X22283Y-24440D01*
X22369Y-24440D02*
X22369Y-24140D01*
X22340Y-24182D01*
X22312Y-24211D01*
X22283Y-24225D01*
X22626Y-24268D02*
X22597Y-24254D01*
X22583Y-24240D01*
X22569Y-24211D01*
X22569Y-24197D01*
X22583Y-24168D01*
X22597Y-24154D01*
X22626Y-24140D01*
X22683Y-24140D01*
X22712Y-24154D01*
X22726Y-24168D01*
X22740Y-24197D01*
X22740Y-24211D01*
X22726Y-24240D01*
X22712Y-24254D01*
X22683Y-24268D01*
X22626Y-24268D01*
X22597Y-24282D01*
X22583Y-24297D01*
X22569Y-24325D01*
X22569Y-24382D01*
X22583Y-24411D01*
X22597Y-24425D01*
X22626Y-24440D01*
X22683Y-24440D01*
X22712Y-24425D01*
X22726Y-24411D01*
X22740Y-24382D01*
X22740Y-24325D01*
X22726Y-24297D01*
X22712Y-24282D01*
X22683Y-24268D01*
X25147Y-24440D02*
X25147Y-24140D01*
X25219Y-24140D01*
X25262Y-24154D01*
X25290Y-24182D01*
X25304Y-24211D01*
X25319Y-24268D01*
X25319Y-24311D01*
X25304Y-24368D01*
X25290Y-24397D01*
X25262Y-24425D01*
X25219Y-24440D01*
X25147Y-24440D01*
X25433Y-24168D02*
X25447Y-24154D01*
X25476Y-24140D01*
X25547Y-24140D01*
X25576Y-24154D01*
X25590Y-24168D01*
X25604Y-24197D01*
X25604Y-24225D01*
X25590Y-24268D01*
X25419Y-24440D01*
X25604Y-24440D01*
X25790Y-24140D02*
X25819Y-24140D01*
X25847Y-24154D01*
X25862Y-24168D01*
X25876Y-24197D01*
X25890Y-24254D01*
X25890Y-24325D01*
X25876Y-24382D01*
X25862Y-24411D01*
X25847Y-24425D01*
X25819Y-24440D01*
X25790Y-24440D01*
X25762Y-24425D01*
X25747Y-24411D01*
X25733Y-24382D01*
X25719Y-24325D01*
X25719Y-24254D01*
X25733Y-24197D01*
X25747Y-24168D01*
X25762Y-24154D01*
X25790Y-24140D01*
X28296Y-24440D02*
X28296Y-24140D01*
X28368Y-24140D01*
X28410Y-24154D01*
X28439Y-24182D01*
X28453Y-24211D01*
X28468Y-24268D01*
X28468Y-24311D01*
X28453Y-24368D01*
X28439Y-24397D01*
X28410Y-24425D01*
X28368Y-24440D01*
X28296Y-24440D01*
X28582Y-24168D02*
X28596Y-24154D01*
X28625Y-24140D01*
X28696Y-24140D01*
X28725Y-24154D01*
X28739Y-24168D01*
X28753Y-24197D01*
X28753Y-24225D01*
X28739Y-24268D01*
X28568Y-24440D01*
X28753Y-24440D01*
X28868Y-24168D02*
X28882Y-24154D01*
X28910Y-24140D01*
X28982Y-24140D01*
X29010Y-24154D01*
X29025Y-24168D01*
X29039Y-24197D01*
X29039Y-24225D01*
X29025Y-24268D01*
X28853Y-24440D01*
X29039Y-24440D01*
X31269Y-24440D02*
X31269Y-24140D01*
X31340Y-24140D01*
X31383Y-24154D01*
X31411Y-24182D01*
X31426Y-24211D01*
X31440Y-24268D01*
X31440Y-24311D01*
X31426Y-24368D01*
X31411Y-24397D01*
X31383Y-24425D01*
X31340Y-24440D01*
X31269Y-24440D01*
X31554Y-24168D02*
X31569Y-24154D01*
X31597Y-24140D01*
X31669Y-24140D01*
X31697Y-24154D01*
X31711Y-24168D01*
X31726Y-24197D01*
X31726Y-24225D01*
X31711Y-24268D01*
X31540Y-24440D01*
X31726Y-24440D01*
X31983Y-24240D02*
X31983Y-24440D01*
X31911Y-24125D02*
X31840Y-24340D01*
X32026Y-24340D01*
X20600Y-26008D02*
X20600Y-25708D01*
X20671Y-25708D01*
X20714Y-25722D01*
X20743Y-25750D01*
X20757Y-25779D01*
X20771Y-25836D01*
X20771Y-25879D01*
X20757Y-25936D01*
X20743Y-25965D01*
X20714Y-25993D01*
X20671Y-26008D01*
X20600Y-26008D01*
X20885Y-25736D02*
X20900Y-25722D01*
X20928Y-25708D01*
X21000Y-25708D01*
X21028Y-25722D01*
X21043Y-25736D01*
X21057Y-25765D01*
X21057Y-25793D01*
X21043Y-25836D01*
X20871Y-26008D01*
X21057Y-26008D01*
X21328Y-25708D02*
X21185Y-25708D01*
X21171Y-25850D01*
X21185Y-25836D01*
X21214Y-25822D01*
X21285Y-25822D01*
X21314Y-25836D01*
X21328Y-25850D01*
X21343Y-25879D01*
X21343Y-25950D01*
X21328Y-25979D01*
X21314Y-25993D01*
X21285Y-26008D01*
X21214Y-26008D01*
X21185Y-25993D01*
X21171Y-25979D01*
X23572Y-26008D02*
X23572Y-25708D01*
X23644Y-25708D01*
X23687Y-25722D01*
X23715Y-25750D01*
X23729Y-25779D01*
X23744Y-25836D01*
X23744Y-25879D01*
X23729Y-25936D01*
X23715Y-25965D01*
X23687Y-25993D01*
X23644Y-26008D01*
X23572Y-26008D01*
X23858Y-25736D02*
X23872Y-25722D01*
X23901Y-25708D01*
X23972Y-25708D01*
X24001Y-25722D01*
X24015Y-25736D01*
X24029Y-25765D01*
X24029Y-25793D01*
X24015Y-25836D01*
X23844Y-26008D01*
X24029Y-26008D01*
X24129Y-25708D02*
X24329Y-25708D01*
X24201Y-26008D01*
X26722Y-26008D02*
X26722Y-25708D01*
X26794Y-25708D01*
X26837Y-25722D01*
X26865Y-25750D01*
X26879Y-25779D01*
X26894Y-25836D01*
X26894Y-25879D01*
X26879Y-25936D01*
X26865Y-25965D01*
X26837Y-25993D01*
X26794Y-26008D01*
X26722Y-26008D01*
X27008Y-25736D02*
X27022Y-25722D01*
X27051Y-25708D01*
X27122Y-25708D01*
X27151Y-25722D01*
X27165Y-25736D01*
X27179Y-25765D01*
X27179Y-25793D01*
X27165Y-25836D01*
X26994Y-26008D01*
X27179Y-26008D01*
X27322Y-26008D02*
X27379Y-26008D01*
X27408Y-25993D01*
X27422Y-25979D01*
X27451Y-25936D01*
X27465Y-25879D01*
X27465Y-25765D01*
X27451Y-25736D01*
X27437Y-25722D01*
X27408Y-25708D01*
X27351Y-25708D01*
X27322Y-25722D01*
X27308Y-25736D01*
X27294Y-25765D01*
X27294Y-25836D01*
X27308Y-25865D01*
X27322Y-25879D01*
X27351Y-25893D01*
X27408Y-25893D01*
X27437Y-25879D01*
X27451Y-25865D01*
X27465Y-25836D01*
X29871Y-26008D02*
X29871Y-25708D01*
X29943Y-25708D01*
X29985Y-25722D01*
X30014Y-25750D01*
X30028Y-25779D01*
X30043Y-25836D01*
X30043Y-25879D01*
X30028Y-25936D01*
X30014Y-25965D01*
X29985Y-25993D01*
X29943Y-26008D01*
X29871Y-26008D01*
X30143Y-25708D02*
X30328Y-25708D01*
X30228Y-25822D01*
X30271Y-25822D01*
X30300Y-25836D01*
X30314Y-25850D01*
X30328Y-25879D01*
X30328Y-25950D01*
X30314Y-25979D01*
X30300Y-25993D01*
X30271Y-26008D01*
X30185Y-26008D01*
X30157Y-25993D01*
X30143Y-25979D01*
X30614Y-26008D02*
X30443Y-26008D01*
X30528Y-26008D02*
X30528Y-25708D01*
X30500Y-25750D01*
X30471Y-25779D01*
X30443Y-25793D01*
X21997Y-27577D02*
X21997Y-27277D01*
X22069Y-27277D01*
X22112Y-27291D01*
X22140Y-27319D01*
X22154Y-27348D01*
X22169Y-27405D01*
X22169Y-27448D01*
X22154Y-27505D01*
X22140Y-27534D01*
X22112Y-27562D01*
X22069Y-27577D01*
X21997Y-27577D01*
X22269Y-27277D02*
X22454Y-27277D01*
X22354Y-27391D01*
X22397Y-27391D01*
X22426Y-27405D01*
X22440Y-27419D01*
X22454Y-27448D01*
X22454Y-27519D01*
X22440Y-27548D01*
X22426Y-27562D01*
X22397Y-27577D01*
X22312Y-27577D01*
X22283Y-27562D01*
X22269Y-27548D01*
X22712Y-27377D02*
X22712Y-27577D01*
X22640Y-27262D02*
X22569Y-27477D01*
X22754Y-27477D01*
X25147Y-27577D02*
X25147Y-27277D01*
X25219Y-27277D01*
X25262Y-27291D01*
X25290Y-27319D01*
X25304Y-27348D01*
X25319Y-27405D01*
X25319Y-27448D01*
X25304Y-27505D01*
X25290Y-27534D01*
X25262Y-27562D01*
X25219Y-27577D01*
X25147Y-27577D01*
X25419Y-27277D02*
X25604Y-27277D01*
X25504Y-27391D01*
X25547Y-27391D01*
X25576Y-27405D01*
X25590Y-27419D01*
X25604Y-27448D01*
X25604Y-27519D01*
X25590Y-27548D01*
X25576Y-27562D01*
X25547Y-27577D01*
X25462Y-27577D01*
X25433Y-27562D01*
X25419Y-27548D01*
X25862Y-27277D02*
X25804Y-27277D01*
X25776Y-27291D01*
X25762Y-27305D01*
X25733Y-27348D01*
X25719Y-27405D01*
X25719Y-27519D01*
X25733Y-27548D01*
X25747Y-27562D01*
X25776Y-27577D01*
X25833Y-27577D01*
X25862Y-27562D01*
X25876Y-27548D01*
X25890Y-27519D01*
X25890Y-27448D01*
X25876Y-27419D01*
X25862Y-27405D01*
X25833Y-27391D01*
X25776Y-27391D01*
X25747Y-27405D01*
X25733Y-27419D01*
X25719Y-27448D01*
X28296Y-27577D02*
X28296Y-27277D01*
X28368Y-27277D01*
X28410Y-27291D01*
X28439Y-27319D01*
X28453Y-27348D01*
X28468Y-27405D01*
X28468Y-27448D01*
X28453Y-27505D01*
X28439Y-27534D01*
X28410Y-27562D01*
X28368Y-27577D01*
X28296Y-27577D01*
X28568Y-27277D02*
X28753Y-27277D01*
X28653Y-27391D01*
X28696Y-27391D01*
X28725Y-27405D01*
X28739Y-27419D01*
X28753Y-27448D01*
X28753Y-27519D01*
X28739Y-27548D01*
X28725Y-27562D01*
X28696Y-27577D01*
X28610Y-27577D01*
X28582Y-27562D01*
X28568Y-27548D01*
X28925Y-27405D02*
X28896Y-27391D01*
X28882Y-27377D01*
X28868Y-27348D01*
X28868Y-27334D01*
X28882Y-27305D01*
X28896Y-27291D01*
X28925Y-27277D01*
X28982Y-27277D01*
X29010Y-27291D01*
X29025Y-27305D01*
X29039Y-27334D01*
X29039Y-27348D01*
X29025Y-27377D01*
X29010Y-27391D01*
X28982Y-27405D01*
X28925Y-27405D01*
X28896Y-27419D01*
X28882Y-27434D01*
X28868Y-27462D01*
X28868Y-27519D01*
X28882Y-27548D01*
X28896Y-27562D01*
X28925Y-27577D01*
X28982Y-27577D01*
X29010Y-27562D01*
X29025Y-27548D01*
X29039Y-27519D01*
X29039Y-27462D01*
X29025Y-27434D01*
X29010Y-27419D01*
X28982Y-27405D01*
X31269Y-27577D02*
X31269Y-27277D01*
X31340Y-27277D01*
X31383Y-27291D01*
X31411Y-27319D01*
X31426Y-27348D01*
X31440Y-27405D01*
X31440Y-27448D01*
X31426Y-27505D01*
X31411Y-27534D01*
X31383Y-27562D01*
X31340Y-27577D01*
X31269Y-27577D01*
X31697Y-27377D02*
X31697Y-27577D01*
X31626Y-27262D02*
X31554Y-27477D01*
X31740Y-27477D01*
X31911Y-27277D02*
X31940Y-27277D01*
X31969Y-27291D01*
X31983Y-27305D01*
X31997Y-27334D01*
X32011Y-27391D01*
X32011Y-27462D01*
X31997Y-27519D01*
X31983Y-27548D01*
X31969Y-27562D01*
X31940Y-27577D01*
X31911Y-27577D01*
X31883Y-27562D01*
X31869Y-27548D01*
X31854Y-27519D01*
X31840Y-27462D01*
X31840Y-27391D01*
X31854Y-27334D01*
X31869Y-27305D01*
X31883Y-27291D01*
X31911Y-27277D01*
X20600Y-29146D02*
X20600Y-28846D01*
X20671Y-28846D01*
X20714Y-28860D01*
X20743Y-28888D01*
X20757Y-28917D01*
X20771Y-28974D01*
X20771Y-29017D01*
X20757Y-29074D01*
X20743Y-29103D01*
X20714Y-29131D01*
X20671Y-29146D01*
X20600Y-29146D01*
X21028Y-28946D02*
X21028Y-29146D01*
X20957Y-28831D02*
X20885Y-29046D01*
X21071Y-29046D01*
X21343Y-29146D02*
X21171Y-29146D01*
X21257Y-29146D02*
X21257Y-28846D01*
X21228Y-28888D01*
X21200Y-28917D01*
X21171Y-28931D01*
X23572Y-29146D02*
X23572Y-28846D01*
X23644Y-28846D01*
X23687Y-28860D01*
X23715Y-28888D01*
X23729Y-28917D01*
X23744Y-28974D01*
X23744Y-29017D01*
X23729Y-29074D01*
X23715Y-29103D01*
X23687Y-29131D01*
X23644Y-29146D01*
X23572Y-29146D01*
X24001Y-28946D02*
X24001Y-29146D01*
X23929Y-28831D02*
X23858Y-29046D01*
X24044Y-29046D01*
X24129Y-28846D02*
X24315Y-28846D01*
X24215Y-28960D01*
X24258Y-28960D01*
X24287Y-28974D01*
X24301Y-28988D01*
X24315Y-29017D01*
X24315Y-29088D01*
X24301Y-29117D01*
X24287Y-29131D01*
X24258Y-29146D01*
X24172Y-29146D01*
X24144Y-29131D01*
X24129Y-29117D01*
X26722Y-29146D02*
X26722Y-28846D01*
X26794Y-28846D01*
X26837Y-28860D01*
X26865Y-28888D01*
X26879Y-28917D01*
X26894Y-28974D01*
X26894Y-29017D01*
X26879Y-29074D01*
X26865Y-29103D01*
X26837Y-29131D01*
X26794Y-29146D01*
X26722Y-29146D01*
X27151Y-28946D02*
X27151Y-29146D01*
X27079Y-28831D02*
X27008Y-29046D01*
X27194Y-29046D01*
X27451Y-28846D02*
X27308Y-28846D01*
X27294Y-28988D01*
X27308Y-28974D01*
X27337Y-28960D01*
X27408Y-28960D01*
X27437Y-28974D01*
X27451Y-28988D01*
X27465Y-29017D01*
X27465Y-29088D01*
X27451Y-29117D01*
X27437Y-29131D01*
X27408Y-29146D01*
X27337Y-29146D01*
X27308Y-29131D01*
X27294Y-29117D01*
X29871Y-29146D02*
X29871Y-28846D01*
X29943Y-28846D01*
X29985Y-28860D01*
X30014Y-28888D01*
X30028Y-28917D01*
X30043Y-28974D01*
X30043Y-29017D01*
X30028Y-29074D01*
X30014Y-29103D01*
X29985Y-29131D01*
X29943Y-29146D01*
X29871Y-29146D01*
X30300Y-28946D02*
X30300Y-29146D01*
X30228Y-28831D02*
X30157Y-29046D01*
X30343Y-29046D01*
X30428Y-28846D02*
X30628Y-28846D01*
X30500Y-29146D01*
X21997Y-30714D02*
X21997Y-30414D01*
X22069Y-30414D01*
X22112Y-30428D01*
X22140Y-30457D01*
X22154Y-30485D01*
X22169Y-30542D01*
X22169Y-30585D01*
X22154Y-30642D01*
X22140Y-30671D01*
X22112Y-30699D01*
X22069Y-30714D01*
X21997Y-30714D01*
X22440Y-30414D02*
X22297Y-30414D01*
X22283Y-30557D01*
X22297Y-30542D01*
X22326Y-30528D01*
X22397Y-30528D01*
X22426Y-30542D01*
X22440Y-30557D01*
X22454Y-30585D01*
X22454Y-30657D01*
X22440Y-30685D01*
X22426Y-30699D01*
X22397Y-30714D01*
X22326Y-30714D01*
X22297Y-30699D01*
X22283Y-30685D01*
X22640Y-30414D02*
X22669Y-30414D01*
X22697Y-30428D01*
X22712Y-30442D01*
X22726Y-30471D01*
X22740Y-30528D01*
X22740Y-30599D01*
X22726Y-30657D01*
X22712Y-30685D01*
X22697Y-30699D01*
X22669Y-30714D01*
X22640Y-30714D01*
X22612Y-30699D01*
X22597Y-30685D01*
X22583Y-30657D01*
X22569Y-30599D01*
X22569Y-30528D01*
X22583Y-30471D01*
X22597Y-30442D01*
X22612Y-30428D01*
X22640Y-30414D01*
X25147Y-30714D02*
X25147Y-30414D01*
X25219Y-30414D01*
X25262Y-30428D01*
X25290Y-30457D01*
X25304Y-30485D01*
X25319Y-30542D01*
X25319Y-30585D01*
X25304Y-30642D01*
X25290Y-30671D01*
X25262Y-30699D01*
X25219Y-30714D01*
X25147Y-30714D01*
X25590Y-30414D02*
X25447Y-30414D01*
X25433Y-30557D01*
X25447Y-30542D01*
X25476Y-30528D01*
X25547Y-30528D01*
X25576Y-30542D01*
X25590Y-30557D01*
X25604Y-30585D01*
X25604Y-30657D01*
X25590Y-30685D01*
X25576Y-30699D01*
X25547Y-30714D01*
X25476Y-30714D01*
X25447Y-30699D01*
X25433Y-30685D01*
X25719Y-30442D02*
X25733Y-30428D01*
X25762Y-30414D01*
X25833Y-30414D01*
X25862Y-30428D01*
X25876Y-30442D01*
X25890Y-30471D01*
X25890Y-30499D01*
X25876Y-30542D01*
X25704Y-30714D01*
X25890Y-30714D01*
X28296Y-30714D02*
X28296Y-30414D01*
X28368Y-30414D01*
X28410Y-30428D01*
X28439Y-30457D01*
X28453Y-30485D01*
X28468Y-30542D01*
X28468Y-30585D01*
X28453Y-30642D01*
X28439Y-30671D01*
X28410Y-30699D01*
X28368Y-30714D01*
X28296Y-30714D01*
X28739Y-30414D02*
X28596Y-30414D01*
X28582Y-30557D01*
X28596Y-30542D01*
X28625Y-30528D01*
X28696Y-30528D01*
X28725Y-30542D01*
X28739Y-30557D01*
X28753Y-30585D01*
X28753Y-30657D01*
X28739Y-30685D01*
X28725Y-30699D01*
X28696Y-30714D01*
X28625Y-30714D01*
X28596Y-30699D01*
X28582Y-30685D01*
X29010Y-30514D02*
X29010Y-30714D01*
X28939Y-30399D02*
X28868Y-30614D01*
X29053Y-30614D01*
X31269Y-30714D02*
X31269Y-30414D01*
X31340Y-30414D01*
X31383Y-30428D01*
X31411Y-30457D01*
X31426Y-30485D01*
X31440Y-30542D01*
X31440Y-30585D01*
X31426Y-30642D01*
X31411Y-30671D01*
X31383Y-30699D01*
X31340Y-30714D01*
X31269Y-30714D01*
X31711Y-30414D02*
X31569Y-30414D01*
X31554Y-30557D01*
X31569Y-30542D01*
X31597Y-30528D01*
X31669Y-30528D01*
X31697Y-30542D01*
X31711Y-30557D01*
X31726Y-30585D01*
X31726Y-30657D01*
X31711Y-30685D01*
X31697Y-30699D01*
X31669Y-30714D01*
X31597Y-30714D01*
X31569Y-30699D01*
X31554Y-30685D01*
X31983Y-30414D02*
X31926Y-30414D01*
X31897Y-30428D01*
X31883Y-30442D01*
X31854Y-30485D01*
X31840Y-30542D01*
X31840Y-30657D01*
X31854Y-30685D01*
X31869Y-30699D01*
X31897Y-30714D01*
X31954Y-30714D01*
X31983Y-30699D01*
X31997Y-30685D01*
X32011Y-30657D01*
X32011Y-30585D01*
X31997Y-30557D01*
X31983Y-30542D01*
X31954Y-30528D01*
X31897Y-30528D01*
X31869Y-30542D01*
X31854Y-30557D01*
X31840Y-30585D01*
X20600Y-32283D02*
X20600Y-31983D01*
X20671Y-31983D01*
X20714Y-31997D01*
X20743Y-32025D01*
X20757Y-32054D01*
X20771Y-32111D01*
X20771Y-32154D01*
X20757Y-32211D01*
X20743Y-32240D01*
X20714Y-32268D01*
X20671Y-32283D01*
X20600Y-32283D01*
X21043Y-31983D02*
X20900Y-31983D01*
X20885Y-32125D01*
X20900Y-32111D01*
X20928Y-32097D01*
X21000Y-32097D01*
X21028Y-32111D01*
X21043Y-32125D01*
X21057Y-32154D01*
X21057Y-32225D01*
X21043Y-32254D01*
X21028Y-32268D01*
X21000Y-32283D01*
X20928Y-32283D01*
X20900Y-32268D01*
X20885Y-32254D01*
X21157Y-31983D02*
X21357Y-31983D01*
X21228Y-32283D01*
X23572Y-32283D02*
X23572Y-31983D01*
X23644Y-31983D01*
X23687Y-31997D01*
X23715Y-32025D01*
X23729Y-32054D01*
X23744Y-32111D01*
X23744Y-32154D01*
X23729Y-32211D01*
X23715Y-32240D01*
X23687Y-32268D01*
X23644Y-32283D01*
X23572Y-32283D01*
X24015Y-31983D02*
X23872Y-31983D01*
X23858Y-32125D01*
X23872Y-32111D01*
X23901Y-32097D01*
X23972Y-32097D01*
X24001Y-32111D01*
X24015Y-32125D01*
X24029Y-32154D01*
X24029Y-32225D01*
X24015Y-32254D01*
X24001Y-32268D01*
X23972Y-32283D01*
X23901Y-32283D01*
X23872Y-32268D01*
X23858Y-32254D01*
X24172Y-32283D02*
X24229Y-32283D01*
X24258Y-32268D01*
X24272Y-32254D01*
X24301Y-32211D01*
X24315Y-32154D01*
X24315Y-32040D01*
X24301Y-32011D01*
X24287Y-31997D01*
X24258Y-31983D01*
X24201Y-31983D01*
X24172Y-31997D01*
X24158Y-32011D01*
X24144Y-32040D01*
X24144Y-32111D01*
X24158Y-32140D01*
X24172Y-32154D01*
X24201Y-32168D01*
X24258Y-32168D01*
X24287Y-32154D01*
X24301Y-32140D01*
X24315Y-32111D01*
X26722Y-32283D02*
X26722Y-31983D01*
X26794Y-31983D01*
X26837Y-31997D01*
X26865Y-32025D01*
X26879Y-32054D01*
X26894Y-32111D01*
X26894Y-32154D01*
X26879Y-32211D01*
X26865Y-32240D01*
X26837Y-32268D01*
X26794Y-32283D01*
X26722Y-32283D01*
X27151Y-31983D02*
X27094Y-31983D01*
X27065Y-31997D01*
X27051Y-32011D01*
X27022Y-32054D01*
X27008Y-32111D01*
X27008Y-32225D01*
X27022Y-32254D01*
X27037Y-32268D01*
X27065Y-32283D01*
X27122Y-32283D01*
X27151Y-32268D01*
X27165Y-32254D01*
X27179Y-32225D01*
X27179Y-32154D01*
X27165Y-32125D01*
X27151Y-32111D01*
X27122Y-32097D01*
X27065Y-32097D01*
X27037Y-32111D01*
X27022Y-32125D01*
X27008Y-32154D01*
X27465Y-32283D02*
X27294Y-32283D01*
X27379Y-32283D02*
X27379Y-31983D01*
X27351Y-32025D01*
X27322Y-32054D01*
X27294Y-32068D01*
X29871Y-32283D02*
X29871Y-31983D01*
X29943Y-31983D01*
X29985Y-31997D01*
X30014Y-32025D01*
X30028Y-32054D01*
X30043Y-32111D01*
X30043Y-32154D01*
X30028Y-32211D01*
X30014Y-32240D01*
X29985Y-32268D01*
X29943Y-32283D01*
X29871Y-32283D01*
X30300Y-31983D02*
X30243Y-31983D01*
X30214Y-31997D01*
X30200Y-32011D01*
X30171Y-32054D01*
X30157Y-32111D01*
X30157Y-32225D01*
X30171Y-32254D01*
X30185Y-32268D01*
X30214Y-32283D01*
X30271Y-32283D01*
X30300Y-32268D01*
X30314Y-32254D01*
X30328Y-32225D01*
X30328Y-32154D01*
X30314Y-32125D01*
X30300Y-32111D01*
X30271Y-32097D01*
X30214Y-32097D01*
X30185Y-32111D01*
X30171Y-32125D01*
X30157Y-32154D01*
X30428Y-31983D02*
X30614Y-31983D01*
X30514Y-32097D01*
X30557Y-32097D01*
X30585Y-32111D01*
X30600Y-32125D01*
X30614Y-32154D01*
X30614Y-32225D01*
X30600Y-32254D01*
X30585Y-32268D01*
X30557Y-32283D01*
X30471Y-32283D01*
X30443Y-32268D01*
X30428Y-32254D01*
M02*
