G04 (created by PCBNEW-RS274X (2011-aug-04)-testing) date Tue 12 Feb 2013 02:33:29 PM PST*
G01*
G70*
G90*
%MOIN*%
G04 Gerber Fmt 3.4, Leading zero omitted, Abs format*
%FSLAX34Y34*%
G04 APERTURE LIST*
%ADD10C,0.006000*%
%ADD11C,0.066000*%
%ADD12C,0.057000*%
%ADD13R,0.057000X0.057000*%
%ADD14C,0.020000*%
G04 APERTURE END LIST*
G54D10*
G54D11*
X30524Y-31024D03*
X31524Y-31024D03*
X27374Y-31024D03*
X28374Y-31024D03*
X24224Y-31024D03*
X25224Y-31024D03*
X21075Y-31024D03*
X22075Y-31024D03*
X30524Y-27874D03*
X31524Y-27874D03*
X27374Y-27874D03*
X28374Y-27874D03*
X24224Y-27874D03*
X25224Y-27874D03*
X21075Y-27874D03*
X22075Y-27874D03*
X30524Y-24724D03*
X31524Y-24724D03*
X27374Y-24724D03*
X28374Y-24724D03*
X24224Y-24724D03*
X25224Y-24724D03*
X21075Y-24724D03*
X22075Y-24724D03*
X30524Y-21575D03*
X31524Y-21575D03*
X27374Y-21575D03*
X28374Y-21575D03*
X24224Y-21575D03*
X25224Y-21575D03*
X21075Y-21575D03*
X22075Y-21575D03*
G54D12*
X23799Y-29449D03*
X24799Y-29449D03*
X25799Y-29449D03*
X26799Y-29449D03*
X27799Y-29449D03*
X28799Y-29449D03*
G54D13*
X22799Y-29449D03*
G54D12*
X29799Y-29449D03*
X23799Y-23150D03*
X24799Y-23150D03*
X25799Y-23150D03*
X26799Y-23150D03*
X27799Y-23150D03*
X28799Y-23150D03*
G54D13*
X22799Y-23150D03*
G54D12*
X29799Y-23150D03*
G54D14*
X30524Y-24724D02*
X30524Y-27874D01*
X30524Y-27874D02*
X30524Y-31024D01*
X25299Y-30949D02*
X25224Y-31024D01*
X25299Y-28783D02*
X25299Y-30949D01*
X26799Y-27283D02*
X25299Y-28783D01*
X26799Y-23150D02*
X26799Y-27283D01*
X21075Y-24724D02*
X21075Y-27874D01*
X21075Y-27874D02*
X21075Y-31024D01*
X24299Y-24649D02*
X24224Y-24724D01*
X24299Y-21650D02*
X24299Y-24649D01*
X24224Y-21575D02*
X24299Y-21650D01*
X24224Y-24724D02*
X24224Y-27874D01*
X24799Y-28449D02*
X24799Y-29449D01*
X24224Y-27874D02*
X24799Y-28449D01*
X24799Y-30449D02*
X24224Y-31024D01*
X24799Y-29449D02*
X24799Y-30449D01*
X25799Y-29449D02*
X27374Y-27874D01*
X25799Y-29449D02*
X27374Y-31024D01*
X27374Y-27874D02*
X27374Y-24724D01*
X27299Y-21650D02*
X27374Y-21575D01*
X27299Y-24649D02*
X27299Y-21650D01*
X27374Y-24724D02*
X27299Y-24649D01*
X30099Y-23000D02*
X31524Y-21575D01*
X29799Y-23000D02*
X30099Y-23000D01*
X29799Y-23150D02*
X29799Y-23000D01*
X29799Y-23000D02*
X28374Y-21575D01*
M02*
