M48
;DRILL file {PCBnew (2011-aug-04)-testing} date Thu 14 Mar 2013 05:21:24 PM PDT
;FORMAT={2:4/ absolute / inch / suppress trailing zeros}
FMAT,2
INCH,LZ
T1C0.032
T2C0.040
%
G90
G05
M72
T1
X021075Y-021575
X021075Y-024724
X021075Y-027874
X021075Y-031024
X022075Y-021575
X022075Y-024724
X022075Y-027874
X022075Y-031024
X024224Y-021575
X024224Y-024724
X024224Y-027874
X024224Y-031024
X025224Y-021575
X025224Y-024724
X025224Y-027874
X025224Y-031024
X027374Y-021575
X027374Y-024724
X027374Y-027874
X027374Y-031024
X028374Y-021575
X028374Y-024724
X028374Y-027874
X028374Y-031024
X030524Y-021575
X030524Y-024724
X030524Y-027874
X030524Y-031024
X031524Y-021575
X031524Y-024724
X031524Y-027874
X031524Y-031024
T2
X022799Y-02315
X022799Y-029449
X023799Y-02315
X023799Y-029449
X024799Y-02315
X024799Y-029449
X025799Y-02315
X025799Y-029449
X026799Y-02315
X026799Y-029449
X027799Y-02315
X027799Y-029449
X028799Y-02315
X028799Y-029449
X029799Y-02315
X029799Y-029449
T0
M30
