G04 (created by PCBNEW-RS274X (2011-aug-04)-testing) date Thu 14 Mar 2013 05:21:25 PM PDT*
G01*
G70*
G90*
%MOIN*%
G04 Gerber Fmt 3.4, Leading zero omitted, Abs format*
%FSLAX34Y34*%
G04 APERTURE LIST*
%ADD10C,0.006000*%
%ADD11C,0.057000*%
%ADD12R,0.057000X0.057000*%
%ADD13C,0.066000*%
%ADD14C,0.020000*%
G04 APERTURE END LIST*
G54D10*
G54D11*
X23799Y-29449D03*
X24799Y-29449D03*
X25799Y-29449D03*
X26799Y-29449D03*
X27799Y-29449D03*
X28799Y-29449D03*
G54D12*
X22799Y-29449D03*
G54D11*
X29799Y-29449D03*
X23799Y-23150D03*
X24799Y-23150D03*
X25799Y-23150D03*
X26799Y-23150D03*
X27799Y-23150D03*
X28799Y-23150D03*
G54D12*
X22799Y-23150D03*
G54D11*
X29799Y-23150D03*
G54D13*
X21075Y-21575D03*
X22075Y-21575D03*
X24224Y-21575D03*
X25224Y-21575D03*
X27374Y-21575D03*
X28374Y-21575D03*
X30524Y-21575D03*
X31524Y-21575D03*
X21075Y-24724D03*
X22075Y-24724D03*
X24224Y-24724D03*
X25224Y-24724D03*
X27374Y-24724D03*
X28374Y-24724D03*
X30524Y-24724D03*
X31524Y-24724D03*
X21075Y-27874D03*
X22075Y-27874D03*
X24224Y-27874D03*
X25224Y-27874D03*
X27374Y-27874D03*
X28374Y-27874D03*
X30524Y-27874D03*
X31524Y-27874D03*
X21075Y-31024D03*
X22075Y-31024D03*
X24224Y-31024D03*
X25224Y-31024D03*
X27374Y-31024D03*
X28374Y-31024D03*
X30524Y-31024D03*
X31524Y-31024D03*
G54D14*
X28950Y-23149D02*
X28950Y-23150D01*
X30524Y-21575D02*
X28950Y-23149D01*
X30524Y-24724D02*
X28950Y-23150D01*
X28950Y-23150D02*
X28799Y-23150D01*
X25224Y-31024D02*
X25224Y-31596D01*
X22647Y-31596D02*
X22075Y-31024D01*
X25224Y-31596D02*
X22647Y-31596D01*
X27802Y-31596D02*
X25224Y-31596D01*
X28374Y-31024D02*
X27802Y-31596D01*
X28946Y-31596D02*
X28374Y-31024D01*
X30952Y-31596D02*
X28946Y-31596D01*
X31524Y-31024D02*
X30952Y-31596D01*
X21075Y-23533D02*
X22054Y-22554D01*
X21075Y-24724D02*
X21075Y-23533D01*
X21075Y-21575D02*
X22054Y-22554D01*
X25203Y-22554D02*
X25799Y-23150D01*
X22054Y-22554D02*
X25203Y-22554D01*
X28946Y-25296D02*
X28374Y-24724D01*
X30952Y-25296D02*
X28946Y-25296D01*
X31524Y-24724D02*
X30952Y-25296D01*
X24799Y-23150D02*
X24799Y-23823D01*
X22976Y-23823D02*
X22075Y-24724D01*
X24799Y-23823D02*
X22976Y-23823D01*
X25462Y-24486D02*
X24799Y-23823D01*
X25224Y-24724D02*
X25462Y-24486D01*
X27840Y-24190D02*
X28374Y-24724D01*
X25758Y-24190D02*
X27840Y-24190D01*
X25462Y-24486D02*
X25758Y-24190D01*
X27374Y-31024D02*
X25799Y-29449D01*
X25224Y-27874D02*
X25224Y-28408D01*
X22609Y-28408D02*
X22075Y-27874D01*
X25224Y-28408D02*
X22609Y-28408D01*
X28374Y-28103D02*
X28374Y-27874D01*
X28069Y-28408D02*
X28374Y-28103D01*
X25224Y-28408D02*
X28069Y-28408D01*
X28453Y-28103D02*
X29799Y-29449D01*
X28374Y-28103D02*
X28453Y-28103D01*
X29949Y-29449D02*
X29799Y-29449D01*
X31524Y-27874D02*
X29949Y-29449D01*
X29949Y-23150D02*
X29799Y-23150D01*
X31524Y-21575D02*
X29949Y-23150D01*
X22711Y-22211D02*
X22075Y-21575D01*
X24588Y-22211D02*
X22711Y-22211D01*
X25224Y-21575D02*
X24588Y-22211D01*
X25757Y-21042D02*
X25224Y-21575D01*
X27841Y-21042D02*
X25757Y-21042D01*
X28374Y-21575D02*
X27841Y-21042D01*
M02*
