G04 (created by PCBNEW-RS274X (2011-aug-04)-testing) date Thu 14 Mar 2013 05:21:25 PM PDT*
G01*
G70*
G90*
%MOIN*%
G04 Gerber Fmt 3.4, Leading zero omitted, Abs format*
%FSLAX34Y34*%
G04 APERTURE LIST*
%ADD10C,0.006000*%
%ADD11C,0.077000*%
%ADD12R,0.077000X0.077000*%
%ADD13C,0.086000*%
G04 APERTURE END LIST*
G54D10*
G54D11*
X23799Y-29449D03*
X24799Y-29449D03*
X25799Y-29449D03*
X26799Y-29449D03*
X27799Y-29449D03*
X28799Y-29449D03*
G54D12*
X22799Y-29449D03*
G54D11*
X29799Y-29449D03*
X23799Y-23150D03*
X24799Y-23150D03*
X25799Y-23150D03*
X26799Y-23150D03*
X27799Y-23150D03*
X28799Y-23150D03*
G54D12*
X22799Y-23150D03*
G54D11*
X29799Y-23150D03*
G54D13*
X21075Y-21575D03*
X22075Y-21575D03*
X24224Y-21575D03*
X25224Y-21575D03*
X27374Y-21575D03*
X28374Y-21575D03*
X30524Y-21575D03*
X31524Y-21575D03*
X21075Y-24724D03*
X22075Y-24724D03*
X24224Y-24724D03*
X25224Y-24724D03*
X27374Y-24724D03*
X28374Y-24724D03*
X30524Y-24724D03*
X31524Y-24724D03*
X21075Y-27874D03*
X22075Y-27874D03*
X24224Y-27874D03*
X25224Y-27874D03*
X27374Y-27874D03*
X28374Y-27874D03*
X30524Y-27874D03*
X31524Y-27874D03*
X21075Y-31024D03*
X22075Y-31024D03*
X24224Y-31024D03*
X25224Y-31024D03*
X27374Y-31024D03*
X28374Y-31024D03*
X30524Y-31024D03*
X31524Y-31024D03*
M02*
