M48
;DRILL file {Pcbnew (2013-mar-13)-testing} date Tue 21 Oct 2014 01:39:36 PM PDT
;FORMAT={2:4/ absolute / inch / suppress trailing zeros}
FMAT,2
INCH,LZ
T1C0.020
%
G90
G05
M72
T1
X020294Y-021279
X021541Y-026277
X021541Y-029415
X021686Y-023202
X022853Y-032276
X022856Y-02508
X023373Y-023851
X023406Y-029838
X023415Y-027062
X023417Y-027696
X023474Y-02942
X024466Y-030231
X024943Y-022828
X024981Y-025424
X025021Y-028374
X026044Y-032053
X026266Y-024729
X026556Y-026836
X026556Y-030161
X026597Y-023307
X027618Y-020316
X027618Y-029773
X027765Y-026295
X028087Y-028749
X028088Y-022356
X028172Y-022941
X029181Y-026102
X029185Y-028218
X029235Y-025368
X029429Y-029462
X029487Y-024749
X029662Y-026649
X029747Y-02032
X02978Y-02786
X030871Y-031038
X030933Y-023193
X031665Y-029581
X032321Y-027837
T0
M30
