G04 (created by PCBNEW (2013-mar-13)-testing) date Tue 21 Oct 2014 01:39:40 PM PDT*
%MOIN*%
G04 Gerber Fmt 3.4, Leading zero omitted, Abs format*
%FSLAX34Y34*%
G01*
G70*
G90*
G04 APERTURE LIST*
%ADD10C,0.005906*%
%ADD11R,0.067200X0.067200*%
%ADD12R,0.070197X0.114488*%
G04 APERTURE END LIST*
G54D10*
G54D11*
X31810Y-32102D03*
X31810Y-31276D03*
X28660Y-32102D03*
X28660Y-31276D03*
X25512Y-32102D03*
X25512Y-31276D03*
X22362Y-32102D03*
X22362Y-31276D03*
X30235Y-30612D03*
X30235Y-29786D03*
X27087Y-30612D03*
X27087Y-29786D03*
X23937Y-30612D03*
X23937Y-29786D03*
X20787Y-30612D03*
X20787Y-29786D03*
X31810Y-29043D03*
X31810Y-28217D03*
X28660Y-29043D03*
X28660Y-28217D03*
X25512Y-29043D03*
X25512Y-28217D03*
X22362Y-29043D03*
X22362Y-28217D03*
X30235Y-27475D03*
X30235Y-26649D03*
X27087Y-27475D03*
X27087Y-26649D03*
X23937Y-27475D03*
X23937Y-26649D03*
X20787Y-27475D03*
X20787Y-26649D03*
X31810Y-25905D03*
X31810Y-25079D03*
X28660Y-25905D03*
X28660Y-25079D03*
X25512Y-25905D03*
X25512Y-25079D03*
X22362Y-25905D03*
X22362Y-25079D03*
X30235Y-24338D03*
X30235Y-23512D03*
X27087Y-24338D03*
X27087Y-23512D03*
X23937Y-24338D03*
X23937Y-23512D03*
X20787Y-24338D03*
X20787Y-23512D03*
X31810Y-22768D03*
X31810Y-21942D03*
X28660Y-22768D03*
X28660Y-21942D03*
X25512Y-22768D03*
X25512Y-21942D03*
X22362Y-22768D03*
X22362Y-21942D03*
X30235Y-21278D03*
X30235Y-20452D03*
X27087Y-21278D03*
X27087Y-20452D03*
X23937Y-21278D03*
X23937Y-20452D03*
X20787Y-21278D03*
X20787Y-20452D03*
G54D12*
X21864Y-20787D03*
X22859Y-20787D03*
X25014Y-20787D03*
X26009Y-20787D03*
X28163Y-20787D03*
X29158Y-20787D03*
X31136Y-20787D03*
X32130Y-20787D03*
X20467Y-22355D03*
X21461Y-22355D03*
X23439Y-22355D03*
X24434Y-22355D03*
X26589Y-22355D03*
X27584Y-22355D03*
X29738Y-22355D03*
X30733Y-22355D03*
X21864Y-23925D03*
X22859Y-23925D03*
X25014Y-23925D03*
X26009Y-23925D03*
X28163Y-23925D03*
X29158Y-23925D03*
X31136Y-23925D03*
X32130Y-23925D03*
X20467Y-25492D03*
X21461Y-25492D03*
X23439Y-25492D03*
X24434Y-25492D03*
X26589Y-25492D03*
X27584Y-25492D03*
X29738Y-25492D03*
X30733Y-25492D03*
X21864Y-27062D03*
X22859Y-27062D03*
X25014Y-27062D03*
X26009Y-27062D03*
X28163Y-27062D03*
X29158Y-27062D03*
X31136Y-27062D03*
X32130Y-27062D03*
X20467Y-28630D03*
X21461Y-28630D03*
X23439Y-28630D03*
X24434Y-28630D03*
X26589Y-28630D03*
X27584Y-28630D03*
X29738Y-28630D03*
X30733Y-28630D03*
X21864Y-30199D03*
X22859Y-30199D03*
X25014Y-30199D03*
X26009Y-30199D03*
X28163Y-30199D03*
X29158Y-30199D03*
X31136Y-30199D03*
X32130Y-30199D03*
X20467Y-31767D03*
X21461Y-31767D03*
X23439Y-31767D03*
X24434Y-31767D03*
X26589Y-31767D03*
X27584Y-31767D03*
X29738Y-31767D03*
X30733Y-31767D03*
M02*
