G04 (created by PCBNEW-RS274X (2011-aug-04)-testing) date Tue 12 Feb 2013 10:47:46 AM PST*
G01*
G70*
G90*
%MOIN*%
G04 Gerber Fmt 3.4, Leading zero omitted, Abs format*
%FSLAX34Y34*%
G04 APERTURE LIST*
%ADD10C,0.006000*%
%ADD11C,0.040000*%
%ADD12R,0.040000X0.040000*%
%ADD13C,0.035000*%
%ADD14C,0.016000*%
G04 APERTURE END LIST*
G54D10*
G54D11*
X25799Y-21575D03*
X24799Y-21575D03*
X23799Y-21575D03*
G54D12*
X22799Y-21575D03*
G54D11*
X26799Y-21575D03*
X27799Y-21575D03*
X28799Y-21575D03*
X29799Y-21575D03*
X25799Y-31024D03*
X24799Y-31024D03*
X23799Y-31024D03*
G54D12*
X22799Y-31024D03*
G54D11*
X26799Y-31024D03*
X27799Y-31024D03*
X28799Y-31024D03*
X29799Y-31024D03*
G54D13*
X22799Y-27599D03*
X25254Y-23411D03*
X25138Y-27846D03*
X25299Y-21327D03*
X25138Y-29678D03*
X25138Y-24840D03*
X28308Y-28028D03*
X28238Y-23402D03*
X28238Y-26014D03*
X28256Y-30719D03*
X26799Y-24935D03*
X21518Y-22910D03*
X22314Y-21855D03*
X21573Y-21834D03*
X30222Y-21266D03*
X30222Y-26521D03*
X30222Y-29107D03*
X30191Y-30714D03*
X30222Y-23452D03*
X31437Y-27595D03*
X31329Y-21838D03*
X31329Y-23410D03*
X31437Y-26014D03*
X31418Y-30720D03*
X22062Y-26014D03*
X21949Y-23396D03*
X22292Y-31064D03*
X22062Y-29157D03*
X23645Y-28055D03*
X23524Y-23403D03*
X23563Y-26014D03*
X23919Y-29694D03*
X26782Y-27668D03*
X26508Y-26014D03*
X27275Y-21840D03*
X27275Y-23272D03*
X28799Y-29252D03*
X29726Y-24463D03*
G54D14*
X22799Y-31024D02*
X22799Y-30641D01*
X22799Y-30641D02*
X22799Y-27599D01*
X28416Y-21192D02*
X28799Y-21575D01*
X26423Y-21192D02*
X28416Y-21192D01*
X26378Y-21237D02*
X26423Y-21192D01*
X25434Y-21192D02*
X25299Y-21327D01*
X26333Y-21192D02*
X25434Y-21192D01*
X26378Y-21237D02*
X26333Y-21192D01*
X25138Y-27846D02*
X25138Y-29678D01*
X26378Y-22287D02*
X25254Y-23411D01*
X26378Y-21237D02*
X26378Y-22287D01*
X25138Y-27846D02*
X25138Y-24840D01*
X25138Y-23527D02*
X25254Y-23411D01*
X25138Y-24840D02*
X25138Y-23527D01*
X28238Y-22014D02*
X28238Y-23402D01*
X27799Y-21575D02*
X28238Y-22014D01*
X28238Y-23402D02*
X28238Y-26014D01*
X28256Y-28028D02*
X28308Y-28028D01*
X28238Y-28010D02*
X28256Y-28028D01*
X28238Y-26014D02*
X28238Y-28010D01*
X28256Y-28028D02*
X28256Y-30719D01*
X26799Y-21575D02*
X26799Y-24935D01*
X24464Y-22910D02*
X25799Y-21575D01*
X21518Y-22910D02*
X24464Y-22910D01*
X22418Y-21959D02*
X22314Y-21855D01*
X24415Y-21959D02*
X22418Y-21959D01*
X24799Y-21575D02*
X24415Y-21959D01*
X21594Y-21855D02*
X21573Y-21834D01*
X22314Y-21855D02*
X21594Y-21855D01*
X24446Y-20928D02*
X23799Y-21575D01*
X29884Y-20928D02*
X24446Y-20928D01*
X30222Y-21266D02*
X29884Y-20928D01*
X30222Y-30683D02*
X30191Y-30714D01*
X30222Y-29107D02*
X30222Y-30683D01*
X30222Y-29107D02*
X30222Y-26521D01*
X30222Y-26521D02*
X30222Y-23452D01*
X30222Y-23452D02*
X30222Y-21266D01*
X22799Y-21575D02*
X23182Y-21575D01*
X29893Y-20402D02*
X31329Y-21838D01*
X24355Y-20402D02*
X29893Y-20402D01*
X23182Y-21575D02*
X24355Y-20402D01*
X31329Y-21838D02*
X31329Y-23410D01*
X31329Y-25906D02*
X31437Y-26014D01*
X31329Y-23410D02*
X31329Y-25906D01*
X31437Y-26014D02*
X31437Y-27595D01*
X31437Y-30701D02*
X31418Y-30720D01*
X31437Y-27595D02*
X31437Y-30701D01*
X22292Y-31214D02*
X22292Y-31064D01*
X22486Y-31408D02*
X22292Y-31214D01*
X24415Y-31408D02*
X22486Y-31408D01*
X24799Y-31024D02*
X24415Y-31408D01*
X22062Y-23509D02*
X22062Y-26014D01*
X21949Y-23396D02*
X22062Y-23509D01*
X22062Y-26014D02*
X22062Y-29157D01*
X22062Y-30834D02*
X22292Y-31064D01*
X22062Y-29157D02*
X22062Y-30834D01*
X23563Y-23442D02*
X23524Y-23403D01*
X23563Y-26014D02*
X23563Y-23442D01*
X23563Y-27973D02*
X23645Y-28055D01*
X23563Y-26014D02*
X23563Y-27973D01*
X23919Y-29694D02*
X24194Y-29419D01*
X23645Y-28870D02*
X24194Y-29419D01*
X23645Y-28055D02*
X23645Y-28870D01*
X24194Y-29419D02*
X25799Y-31024D01*
X27799Y-28685D02*
X27799Y-31024D01*
X26782Y-27668D02*
X27799Y-28685D01*
X26508Y-27394D02*
X26508Y-26014D01*
X26782Y-27668D02*
X26508Y-27394D01*
X27275Y-25247D02*
X27275Y-23272D01*
X26508Y-26014D02*
X27275Y-25247D01*
X27275Y-23272D02*
X27275Y-21840D01*
X28799Y-31024D02*
X28799Y-29252D01*
X29726Y-30951D02*
X29726Y-24463D01*
X29799Y-31024D02*
X29726Y-30951D01*
M02*
