G04 (created by PCBNEW (2013-mar-13)-testing) date Tue 21 Oct 2014 01:39:40 PM PDT*
%MOIN*%
G04 Gerber Fmt 3.4, Leading zero omitted, Abs format*
%FSLAX34Y34*%
G01*
G70*
G90*
G04 APERTURE LIST*
%ADD10C,0.005906*%
%ADD11R,0.047200X0.047200*%
%ADD12R,0.050197X0.094488*%
%ADD13C,0.030000*%
%ADD14C,0.009000*%
G04 APERTURE END LIST*
G54D10*
G54D11*
X31810Y-32102D03*
X31810Y-31276D03*
X28660Y-32102D03*
X28660Y-31276D03*
X25512Y-32102D03*
X25512Y-31276D03*
X22362Y-32102D03*
X22362Y-31276D03*
X30235Y-30612D03*
X30235Y-29786D03*
X27087Y-30612D03*
X27087Y-29786D03*
X23937Y-30612D03*
X23937Y-29786D03*
X20787Y-30612D03*
X20787Y-29786D03*
X31810Y-29043D03*
X31810Y-28217D03*
X28660Y-29043D03*
X28660Y-28217D03*
X25512Y-29043D03*
X25512Y-28217D03*
X22362Y-29043D03*
X22362Y-28217D03*
X30235Y-27475D03*
X30235Y-26649D03*
X27087Y-27475D03*
X27087Y-26649D03*
X23937Y-27475D03*
X23937Y-26649D03*
X20787Y-27475D03*
X20787Y-26649D03*
X31810Y-25905D03*
X31810Y-25079D03*
X28660Y-25905D03*
X28660Y-25079D03*
X25512Y-25905D03*
X25512Y-25079D03*
X22362Y-25905D03*
X22362Y-25079D03*
X30235Y-24338D03*
X30235Y-23512D03*
X27087Y-24338D03*
X27087Y-23512D03*
X23937Y-24338D03*
X23937Y-23512D03*
X20787Y-24338D03*
X20787Y-23512D03*
X31810Y-22768D03*
X31810Y-21942D03*
X28660Y-22768D03*
X28660Y-21942D03*
X25512Y-22768D03*
X25512Y-21942D03*
X22362Y-22768D03*
X22362Y-21942D03*
X30235Y-21278D03*
X30235Y-20452D03*
X27087Y-21278D03*
X27087Y-20452D03*
X23937Y-21278D03*
X23937Y-20452D03*
X20787Y-21278D03*
X20787Y-20452D03*
G54D12*
X21864Y-20787D03*
X22859Y-20787D03*
X25014Y-20787D03*
X26009Y-20787D03*
X28163Y-20787D03*
X29158Y-20787D03*
X31136Y-20787D03*
X32130Y-20787D03*
X20467Y-22355D03*
X21461Y-22355D03*
X23439Y-22355D03*
X24434Y-22355D03*
X26589Y-22355D03*
X27584Y-22355D03*
X29738Y-22355D03*
X30733Y-22355D03*
X21864Y-23925D03*
X22859Y-23925D03*
X25014Y-23925D03*
X26009Y-23925D03*
X28163Y-23925D03*
X29158Y-23925D03*
X31136Y-23925D03*
X32130Y-23925D03*
X20467Y-25492D03*
X21461Y-25492D03*
X23439Y-25492D03*
X24434Y-25492D03*
X26589Y-25492D03*
X27584Y-25492D03*
X29738Y-25492D03*
X30733Y-25492D03*
X21864Y-27062D03*
X22859Y-27062D03*
X25014Y-27062D03*
X26009Y-27062D03*
X28163Y-27062D03*
X29158Y-27062D03*
X31136Y-27062D03*
X32130Y-27062D03*
X20467Y-28630D03*
X21461Y-28630D03*
X23439Y-28630D03*
X24434Y-28630D03*
X26589Y-28630D03*
X27584Y-28630D03*
X29738Y-28630D03*
X30733Y-28630D03*
X21864Y-30199D03*
X22859Y-30199D03*
X25014Y-30199D03*
X26009Y-30199D03*
X28163Y-30199D03*
X29158Y-30199D03*
X31136Y-30199D03*
X32130Y-30199D03*
X20467Y-31767D03*
X21461Y-31767D03*
X23439Y-31767D03*
X24434Y-31767D03*
X26589Y-31767D03*
X27584Y-31767D03*
X29738Y-31767D03*
X30733Y-31767D03*
G54D13*
X26555Y-26836D03*
X29661Y-26649D03*
X23414Y-27062D03*
X26597Y-23307D03*
X27617Y-20315D03*
X28171Y-22940D03*
X22855Y-25080D03*
X27764Y-26295D03*
X29181Y-26101D03*
X24980Y-25424D03*
X20293Y-21278D03*
X24942Y-22828D03*
X28088Y-22355D03*
X29780Y-27860D03*
X29235Y-25367D03*
X30932Y-23192D03*
X32320Y-27836D03*
X29428Y-29461D03*
X31665Y-29581D03*
X26555Y-30161D03*
X23474Y-29419D03*
X22852Y-32276D03*
X21540Y-29415D03*
X21540Y-26277D03*
X21686Y-23201D03*
X24466Y-30230D03*
X26043Y-32053D03*
X30871Y-31038D03*
X23405Y-29838D03*
X27617Y-29773D03*
X28087Y-28749D03*
X25021Y-28374D03*
X29185Y-28217D03*
X23416Y-27696D03*
X23373Y-23851D03*
X26266Y-24728D03*
X29487Y-24749D03*
X29746Y-20319D03*
G54D14*
X29158Y-27062D02*
X29158Y-26753D01*
X21278Y-27140D02*
X20787Y-26649D01*
X21278Y-27428D02*
X21278Y-27140D01*
X21530Y-27679D02*
X21278Y-27428D01*
X22191Y-27679D02*
X21530Y-27679D01*
X22462Y-27408D02*
X22191Y-27679D01*
X22462Y-27062D02*
X22462Y-27408D01*
X22753Y-27062D02*
X22462Y-27062D01*
X22753Y-27062D02*
X22859Y-27062D01*
X26009Y-27062D02*
X26405Y-27062D01*
X27087Y-26649D02*
X26705Y-26649D01*
X26555Y-26911D02*
X26555Y-26836D01*
X26405Y-27062D02*
X26555Y-26911D01*
X26705Y-26685D02*
X26705Y-26649D01*
X26555Y-26836D02*
X26705Y-26685D01*
X22859Y-27062D02*
X23255Y-27062D01*
X23255Y-27062D02*
X23414Y-27062D01*
X23555Y-26921D02*
X23555Y-26649D01*
X23414Y-27062D02*
X23555Y-26921D01*
X23937Y-26649D02*
X23555Y-26649D01*
X32192Y-26382D02*
X32130Y-26444D01*
X32192Y-25608D02*
X32192Y-26382D01*
X32108Y-25524D02*
X32192Y-25608D01*
X31498Y-25524D02*
X32108Y-25524D01*
X31366Y-25656D02*
X31498Y-25524D01*
X31366Y-25899D02*
X31366Y-25656D01*
X30617Y-26649D02*
X31366Y-25899D01*
X30235Y-26649D02*
X30617Y-26649D01*
X32130Y-27062D02*
X32130Y-26444D01*
X30235Y-26649D02*
X29854Y-26649D01*
X29557Y-26753D02*
X29661Y-26649D01*
X29158Y-26753D02*
X29557Y-26753D01*
X29661Y-26649D02*
X29854Y-26649D01*
X25354Y-26444D02*
X25512Y-26287D01*
X25014Y-26444D02*
X25354Y-26444D01*
X25512Y-25905D02*
X25512Y-26287D01*
X25014Y-23925D02*
X25213Y-23925D01*
X24847Y-32385D02*
X25130Y-32102D01*
X24122Y-32385D02*
X24847Y-32385D01*
X24037Y-32301D02*
X24122Y-32385D01*
X24037Y-31233D02*
X24037Y-32301D01*
X24454Y-30816D02*
X24037Y-31233D01*
X25014Y-30816D02*
X24454Y-30816D01*
X25014Y-30199D02*
X25014Y-30816D01*
X25512Y-32102D02*
X25130Y-32102D01*
X25014Y-30199D02*
X25411Y-30199D01*
X25411Y-29526D02*
X25411Y-30199D01*
X25512Y-29425D02*
X25411Y-29526D01*
X25512Y-29043D02*
X25512Y-29425D01*
X25014Y-27003D02*
X25014Y-26444D01*
X25744Y-25524D02*
X25512Y-25524D01*
X25893Y-25376D02*
X25744Y-25524D01*
X25893Y-24747D02*
X25893Y-25376D01*
X25213Y-24067D02*
X25893Y-24747D01*
X25213Y-23925D02*
X25213Y-24067D01*
X25512Y-25905D02*
X25512Y-25524D01*
X25512Y-22768D02*
X25512Y-23150D01*
X25750Y-22387D02*
X25512Y-22387D01*
X25893Y-22245D02*
X25750Y-22387D01*
X25893Y-21632D02*
X25893Y-22245D01*
X25411Y-21150D02*
X25893Y-21632D01*
X25411Y-20787D02*
X25411Y-21150D01*
X25014Y-20787D02*
X25411Y-20787D01*
X25512Y-22768D02*
X25512Y-22387D01*
X25213Y-23777D02*
X25676Y-23314D01*
X25213Y-23925D02*
X25213Y-23777D01*
X25676Y-23314D02*
X25512Y-23150D01*
X25682Y-23307D02*
X26597Y-23307D01*
X25676Y-23314D02*
X25682Y-23307D01*
X25512Y-29043D02*
X25512Y-28662D01*
X25014Y-27003D02*
X25014Y-27062D01*
X25750Y-28662D02*
X25512Y-28662D01*
X25893Y-28520D02*
X25750Y-28662D01*
X25893Y-27911D02*
X25893Y-28520D01*
X25411Y-27429D02*
X25893Y-27911D01*
X25411Y-27062D02*
X25411Y-27429D01*
X25014Y-27062D02*
X25411Y-27062D01*
X27885Y-20583D02*
X27885Y-20787D01*
X27617Y-20315D02*
X27885Y-20583D01*
X28660Y-28996D02*
X28660Y-28662D01*
X28163Y-28404D02*
X28163Y-27062D01*
X28422Y-28662D02*
X28163Y-28404D01*
X28660Y-28662D02*
X28422Y-28662D01*
X28503Y-26444D02*
X28163Y-26444D01*
X28660Y-26287D02*
X28503Y-26444D01*
X28660Y-25905D02*
X28660Y-26287D01*
X28163Y-27062D02*
X28163Y-26444D01*
X28163Y-30199D02*
X28467Y-30199D01*
X28660Y-32102D02*
X28660Y-31721D01*
X28660Y-28996D02*
X28660Y-29043D01*
X28660Y-30008D02*
X28470Y-30199D01*
X28660Y-29043D02*
X28660Y-30008D01*
X28467Y-30199D02*
X28470Y-30199D01*
X28899Y-31721D02*
X28660Y-31721D01*
X29042Y-31578D02*
X28899Y-31721D01*
X29042Y-30977D02*
X29042Y-31578D01*
X28881Y-30816D02*
X29042Y-30977D01*
X28827Y-30816D02*
X28881Y-30816D01*
X28470Y-30458D02*
X28827Y-30816D01*
X28470Y-30199D02*
X28470Y-30458D01*
X28660Y-25905D02*
X28660Y-25524D01*
X28024Y-20787D02*
X28163Y-20787D01*
X28163Y-25266D02*
X28163Y-23925D01*
X28422Y-25524D02*
X28163Y-25266D01*
X28660Y-25524D02*
X28422Y-25524D01*
X28024Y-20787D02*
X27885Y-20787D01*
X28660Y-22768D02*
X28660Y-22872D01*
X28239Y-22872D02*
X28171Y-22940D01*
X28660Y-22872D02*
X28239Y-22872D01*
X28163Y-22948D02*
X28163Y-23925D01*
X28171Y-22940D02*
X28163Y-22948D01*
X31542Y-25080D02*
X31129Y-25492D01*
X31620Y-25080D02*
X31542Y-25080D01*
X30733Y-25492D02*
X31129Y-25492D01*
X31715Y-25080D02*
X31620Y-25080D01*
X31715Y-25080D02*
X31810Y-25080D01*
X28660Y-25080D02*
X28660Y-25175D01*
X30733Y-25492D02*
X30336Y-25492D01*
X22362Y-25080D02*
X22362Y-25270D01*
X22080Y-25270D02*
X21857Y-25492D01*
X22362Y-25270D02*
X22080Y-25270D01*
X21461Y-25492D02*
X21857Y-25492D01*
X22362Y-25080D02*
X22743Y-25080D01*
X27584Y-25492D02*
X27584Y-26110D01*
X27584Y-26114D02*
X27764Y-26295D01*
X27584Y-26110D02*
X27584Y-26114D01*
X28660Y-25227D02*
X28660Y-25175D01*
X29250Y-25816D02*
X28660Y-25227D01*
X29250Y-26032D02*
X29250Y-25816D01*
X29181Y-26101D02*
X29250Y-26032D01*
X30336Y-25839D02*
X30336Y-25492D01*
X30062Y-26114D02*
X30336Y-25839D01*
X29332Y-26114D02*
X30062Y-26114D01*
X29250Y-26032D02*
X29332Y-26114D01*
X22743Y-25080D02*
X22855Y-25080D01*
X25512Y-25080D02*
X25130Y-25080D01*
X24434Y-25492D02*
X24830Y-25492D01*
X24899Y-25424D02*
X24980Y-25424D01*
X24830Y-25492D02*
X24899Y-25424D01*
X24980Y-25230D02*
X25130Y-25080D01*
X24980Y-25424D02*
X24980Y-25230D01*
X20624Y-30993D02*
X20787Y-30993D01*
X20467Y-31150D02*
X20624Y-30993D01*
X20467Y-31767D02*
X20467Y-31150D01*
X20787Y-30612D02*
X20787Y-30993D01*
X20624Y-27856D02*
X20787Y-27856D01*
X20467Y-28013D02*
X20624Y-27856D01*
X20787Y-27475D02*
X20787Y-27856D01*
X20623Y-24719D02*
X20787Y-24719D01*
X20467Y-24875D02*
X20623Y-24719D01*
X20787Y-24337D02*
X20787Y-24719D01*
X20467Y-25492D02*
X20467Y-25184D01*
X20467Y-25184D02*
X20467Y-24875D01*
X20787Y-27475D02*
X20787Y-27093D01*
X20467Y-28630D02*
X20467Y-28322D01*
X20467Y-28322D02*
X20467Y-28013D01*
X20548Y-30230D02*
X20787Y-30230D01*
X20405Y-30088D02*
X20548Y-30230D01*
X20405Y-28383D02*
X20405Y-30088D01*
X20467Y-28322D02*
X20405Y-28383D01*
X20787Y-30612D02*
X20787Y-30230D01*
X20548Y-23956D02*
X20787Y-23956D01*
X20405Y-23814D02*
X20548Y-23956D01*
X20405Y-23035D02*
X20405Y-23814D01*
X20467Y-22973D02*
X20405Y-23035D01*
X20467Y-22355D02*
X20467Y-22973D01*
X20787Y-24337D02*
X20787Y-23956D01*
X20546Y-21659D02*
X20467Y-21738D01*
X20787Y-21659D02*
X20546Y-21659D01*
X20467Y-22355D02*
X20467Y-21738D01*
X20548Y-27093D02*
X20787Y-27093D01*
X20405Y-26951D02*
X20548Y-27093D01*
X20405Y-25245D02*
X20405Y-26951D01*
X20467Y-25184D02*
X20405Y-25245D01*
X20787Y-21278D02*
X20787Y-21659D01*
X20787Y-21278D02*
X20405Y-21278D01*
X20405Y-21278D02*
X20293Y-21278D01*
X30733Y-22355D02*
X31129Y-22355D01*
X21461Y-22355D02*
X21857Y-22355D01*
X21857Y-22066D02*
X21980Y-21942D01*
X21857Y-22355D02*
X21857Y-22066D01*
X22362Y-21942D02*
X21980Y-21942D01*
X25130Y-22055D02*
X25130Y-21942D01*
X24830Y-22355D02*
X25130Y-22055D01*
X24434Y-22355D02*
X24830Y-22355D01*
X25321Y-21942D02*
X25190Y-21942D01*
X25190Y-21942D02*
X25130Y-21942D01*
X25512Y-21942D02*
X25321Y-21942D01*
X23275Y-21410D02*
X22743Y-21942D01*
X23275Y-21261D02*
X23275Y-21410D01*
X23639Y-20897D02*
X23275Y-21261D01*
X24233Y-20897D02*
X23639Y-20897D01*
X24618Y-21282D02*
X24233Y-20897D01*
X24618Y-21371D02*
X24618Y-21282D01*
X25190Y-21942D02*
X24618Y-21371D01*
X22362Y-21942D02*
X22743Y-21942D01*
X24830Y-22715D02*
X24942Y-22828D01*
X24830Y-22355D02*
X24830Y-22715D01*
X31810Y-21942D02*
X31620Y-21942D01*
X27584Y-22355D02*
X27980Y-22355D01*
X31154Y-21941D02*
X31154Y-21942D01*
X30617Y-21404D02*
X31154Y-21941D01*
X30617Y-20977D02*
X30617Y-21404D01*
X30537Y-20897D02*
X30617Y-20977D01*
X29929Y-20897D02*
X30537Y-20897D01*
X29778Y-21048D02*
X29929Y-20897D01*
X29778Y-21206D02*
X29778Y-21048D01*
X29042Y-21942D02*
X29778Y-21206D01*
X31620Y-21942D02*
X31154Y-21942D01*
X31129Y-21967D02*
X31129Y-22355D01*
X31154Y-21942D02*
X31129Y-21967D01*
X28660Y-21942D02*
X29042Y-21942D01*
X27980Y-22355D02*
X28088Y-22355D01*
X28279Y-22164D02*
X28279Y-21942D01*
X28088Y-22355D02*
X28279Y-22164D01*
X28660Y-21942D02*
X28279Y-21942D01*
X30078Y-31150D02*
X30235Y-30993D01*
X29738Y-31150D02*
X30078Y-31150D01*
X29738Y-31767D02*
X29738Y-31150D01*
X30235Y-30802D02*
X30235Y-30993D01*
X30235Y-30802D02*
X30235Y-30612D01*
X30474Y-30230D02*
X30235Y-30230D01*
X30617Y-30088D02*
X30474Y-30230D01*
X30617Y-29453D02*
X30617Y-30088D01*
X29937Y-28773D02*
X30617Y-29453D01*
X29937Y-28630D02*
X29937Y-28773D01*
X30235Y-30612D02*
X30235Y-30230D01*
X29738Y-28630D02*
X29837Y-28630D01*
X29837Y-28630D02*
X29937Y-28630D01*
X29778Y-28571D02*
X29778Y-27858D01*
X29837Y-28630D02*
X29778Y-28571D01*
X30235Y-27475D02*
X29941Y-27475D01*
X29941Y-27695D02*
X29941Y-27475D01*
X29778Y-27858D02*
X29941Y-27695D01*
X30235Y-24337D02*
X30235Y-24719D01*
X29778Y-27858D02*
X29780Y-27860D01*
X29738Y-25492D02*
X29342Y-25492D01*
X29738Y-25492D02*
X29738Y-24922D01*
X29942Y-24719D02*
X30235Y-24719D01*
X29738Y-24922D02*
X29942Y-24719D01*
X29342Y-25475D02*
X29235Y-25367D01*
X29342Y-25492D02*
X29342Y-25475D01*
X29738Y-22355D02*
X29802Y-22355D01*
X29235Y-24954D02*
X29235Y-25367D01*
X28761Y-24480D02*
X29235Y-24954D01*
X28761Y-23388D02*
X28761Y-24480D01*
X29794Y-22355D02*
X28761Y-23388D01*
X29802Y-22355D02*
X29794Y-22355D01*
X29802Y-22093D02*
X30235Y-21659D01*
X29802Y-22355D02*
X29802Y-22093D01*
X30235Y-21278D02*
X30235Y-21659D01*
X31810Y-29043D02*
X31810Y-28662D01*
X31136Y-30199D02*
X31284Y-30199D01*
X31810Y-29043D02*
X31429Y-29043D01*
X31810Y-22768D02*
X31429Y-22768D01*
X32049Y-22387D02*
X31810Y-22387D01*
X32192Y-22245D02*
X32049Y-22387D01*
X32192Y-21623D02*
X32192Y-22245D01*
X31973Y-21404D02*
X32192Y-21623D01*
X31808Y-21404D02*
X31973Y-21404D01*
X31532Y-21128D02*
X31808Y-21404D01*
X31532Y-20787D02*
X31532Y-21128D01*
X31136Y-20787D02*
X31532Y-20787D01*
X31810Y-22768D02*
X31810Y-22387D01*
X31284Y-29189D02*
X31284Y-30199D01*
X31429Y-29043D02*
X31284Y-29189D01*
X32049Y-31721D02*
X31810Y-31721D01*
X32192Y-31578D02*
X32049Y-31721D01*
X32192Y-30957D02*
X32192Y-31578D01*
X32050Y-30816D02*
X32192Y-30957D01*
X31815Y-30816D02*
X32050Y-30816D01*
X31284Y-30285D02*
X31815Y-30816D01*
X31284Y-30199D02*
X31284Y-30285D01*
X31810Y-32102D02*
X31810Y-31721D01*
X31136Y-27062D02*
X31334Y-27062D01*
X31334Y-27062D02*
X31532Y-27062D01*
X31334Y-26763D02*
X31810Y-26287D01*
X31334Y-27062D02*
X31334Y-26763D01*
X31810Y-25905D02*
X31810Y-26287D01*
X32049Y-28662D02*
X31810Y-28662D01*
X32208Y-28503D02*
X32049Y-28662D01*
X32208Y-27836D02*
X32208Y-28503D01*
X31532Y-27403D02*
X31532Y-27062D01*
X31965Y-27836D02*
X31532Y-27403D01*
X32208Y-27836D02*
X31965Y-27836D01*
X32208Y-27836D02*
X32320Y-27836D01*
X31136Y-23925D02*
X31136Y-23307D01*
X31047Y-23307D02*
X31136Y-23307D01*
X30932Y-23192D02*
X31047Y-23307D01*
X31136Y-23062D02*
X31429Y-22768D01*
X31136Y-23307D02*
X31136Y-23062D01*
X29854Y-29898D02*
X29854Y-29786D01*
X29554Y-30199D02*
X29854Y-29898D01*
X29158Y-30199D02*
X29554Y-30199D01*
X30235Y-29786D02*
X29854Y-29786D01*
X29530Y-29461D02*
X29428Y-29461D01*
X29854Y-29786D02*
X29530Y-29461D01*
X32130Y-30199D02*
X32130Y-29581D01*
X32130Y-29581D02*
X31665Y-29581D01*
X22859Y-30199D02*
X22859Y-29581D01*
X22462Y-30545D02*
X22462Y-30199D01*
X22191Y-30816D02*
X22462Y-30545D01*
X21525Y-30816D02*
X22191Y-30816D01*
X21431Y-30721D02*
X21525Y-30816D01*
X21431Y-30430D02*
X21431Y-30721D01*
X20787Y-29786D02*
X21431Y-30430D01*
X22859Y-30199D02*
X22462Y-30199D01*
X26009Y-30199D02*
X26405Y-30199D01*
X26517Y-30199D02*
X26555Y-30161D01*
X26405Y-30199D02*
X26517Y-30199D01*
X26705Y-30011D02*
X26705Y-29786D01*
X26555Y-30161D02*
X26705Y-30011D01*
X27087Y-29786D02*
X26705Y-29786D01*
X23474Y-29509D02*
X23474Y-29419D01*
X22930Y-29509D02*
X23474Y-29509D01*
X22859Y-29581D02*
X22930Y-29509D01*
X23660Y-29509D02*
X23937Y-29786D01*
X23474Y-29509D02*
X23660Y-29509D01*
X22362Y-29043D02*
X21980Y-29043D01*
X22362Y-32102D02*
X22743Y-32102D01*
X22743Y-32166D02*
X22852Y-32276D01*
X22743Y-32102D02*
X22743Y-32166D01*
X21864Y-30199D02*
X21864Y-29581D01*
X21749Y-29415D02*
X21540Y-29415D01*
X21749Y-29274D02*
X21749Y-29415D01*
X21980Y-29043D02*
X21749Y-29274D01*
X21749Y-29466D02*
X21864Y-29581D01*
X21749Y-29415D02*
X21749Y-29466D01*
X21864Y-27062D02*
X21864Y-26444D01*
X22362Y-22768D02*
X21980Y-22768D01*
X21864Y-20787D02*
X21864Y-21404D01*
X21980Y-22768D02*
X21686Y-23063D01*
X21482Y-21404D02*
X21864Y-21404D01*
X21059Y-21827D02*
X21482Y-21404D01*
X21059Y-22902D02*
X21059Y-21827D01*
X21220Y-23063D02*
X21059Y-22902D01*
X21686Y-23063D02*
X21220Y-23063D01*
X21686Y-23201D02*
X21686Y-23063D01*
X21792Y-23307D02*
X21686Y-23201D01*
X21864Y-23307D02*
X21792Y-23307D01*
X21686Y-23201D02*
X21686Y-23201D01*
X21864Y-23925D02*
X21864Y-23307D01*
X21864Y-26444D02*
X21675Y-26255D01*
X21653Y-26277D02*
X21675Y-26255D01*
X21540Y-26277D02*
X21653Y-26277D01*
X21980Y-25950D02*
X21980Y-25905D01*
X21675Y-26255D02*
X21980Y-25950D01*
X22362Y-25905D02*
X21980Y-25905D01*
X23937Y-30612D02*
X24318Y-30612D01*
X23779Y-31150D02*
X23937Y-30993D01*
X23439Y-31150D02*
X23779Y-31150D01*
X23937Y-30612D02*
X23937Y-30993D01*
X23439Y-31767D02*
X23439Y-31150D01*
X23439Y-22355D02*
X23638Y-22355D01*
X23638Y-21958D02*
X23937Y-21659D01*
X23638Y-22355D02*
X23638Y-21958D01*
X23937Y-21278D02*
X23937Y-21659D01*
X23638Y-22515D02*
X23638Y-22355D01*
X24327Y-23205D02*
X23638Y-22515D01*
X24327Y-23814D02*
X24327Y-23205D01*
X24185Y-23956D02*
X24327Y-23814D01*
X23937Y-23956D02*
X24185Y-23956D01*
X23937Y-24337D02*
X23937Y-23956D01*
X23439Y-25492D02*
X23753Y-25492D01*
X23937Y-27475D02*
X23937Y-27093D01*
X23753Y-25745D02*
X23753Y-25492D01*
X24318Y-26309D02*
X23753Y-25745D01*
X24318Y-26950D02*
X24318Y-26309D01*
X24175Y-27093D02*
X24318Y-26950D01*
X23937Y-27093D02*
X24175Y-27093D01*
X23753Y-24902D02*
X23937Y-24719D01*
X23753Y-25492D02*
X23753Y-24902D01*
X23937Y-24337D02*
X23937Y-24719D01*
X23439Y-28630D02*
X23836Y-28630D01*
X24392Y-30230D02*
X24466Y-30230D01*
X24318Y-30304D02*
X24392Y-30230D01*
X24318Y-30612D02*
X24318Y-30304D01*
X23836Y-29005D02*
X23836Y-28630D01*
X24392Y-29562D02*
X23836Y-29005D01*
X24392Y-30230D02*
X24392Y-29562D01*
X23836Y-27957D02*
X23937Y-27856D01*
X23836Y-28630D02*
X23836Y-27957D01*
X23937Y-27475D02*
X23937Y-27856D01*
X25512Y-31276D02*
X25512Y-31657D01*
X27584Y-31767D02*
X27187Y-31767D01*
X24940Y-31657D02*
X25512Y-31657D01*
X24830Y-31767D02*
X24940Y-31657D01*
X24434Y-31767D02*
X24830Y-31767D01*
X27584Y-31767D02*
X27980Y-31767D01*
X30733Y-31767D02*
X30733Y-31150D01*
X31810Y-31276D02*
X31429Y-31276D01*
X26043Y-32164D02*
X26043Y-32053D01*
X26265Y-32385D02*
X26043Y-32164D01*
X26916Y-32385D02*
X26265Y-32385D01*
X27187Y-32114D02*
X26916Y-32385D01*
X27187Y-31767D02*
X27187Y-32114D01*
X25759Y-31657D02*
X25512Y-31657D01*
X26043Y-31941D02*
X25759Y-31657D01*
X26043Y-32053D02*
X26043Y-31941D01*
X30733Y-31150D02*
X30871Y-31150D01*
X31304Y-31150D02*
X31429Y-31276D01*
X30871Y-31150D02*
X31304Y-31150D01*
X30871Y-31150D02*
X30871Y-31038D01*
X21980Y-31644D02*
X21857Y-31767D01*
X21980Y-31276D02*
X21980Y-31644D01*
X21461Y-31767D02*
X21857Y-31767D01*
X22362Y-31276D02*
X21980Y-31276D01*
X23405Y-30613D02*
X22743Y-31276D01*
X23405Y-29838D02*
X23405Y-30613D01*
X22362Y-31276D02*
X22743Y-31276D01*
X28279Y-31468D02*
X27980Y-31767D01*
X28279Y-31276D02*
X28279Y-31468D01*
X28660Y-31276D02*
X28279Y-31276D01*
X26705Y-21622D02*
X26705Y-21278D01*
X26589Y-21738D02*
X26705Y-21622D01*
X26589Y-22355D02*
X26589Y-21738D01*
X27087Y-21278D02*
X26705Y-21278D01*
X26589Y-25492D02*
X26675Y-25492D01*
X26675Y-25130D02*
X26675Y-25492D01*
X27087Y-24719D02*
X26675Y-25130D01*
X27325Y-27093D02*
X27087Y-27093D01*
X27468Y-26951D02*
X27325Y-27093D01*
X27468Y-26307D02*
X27468Y-26951D01*
X26675Y-25514D02*
X27468Y-26307D01*
X26675Y-25492D02*
X26675Y-25514D01*
X27087Y-27475D02*
X27087Y-27093D01*
X26929Y-31150D02*
X27087Y-30993D01*
X26589Y-31150D02*
X26929Y-31150D01*
X27087Y-30612D02*
X27087Y-30993D01*
X26589Y-31767D02*
X26589Y-31150D01*
X26589Y-28630D02*
X26788Y-28630D01*
X27087Y-30612D02*
X27087Y-30230D01*
X27617Y-29955D02*
X27617Y-29773D01*
X27342Y-30230D02*
X27617Y-29955D01*
X27087Y-30230D02*
X27342Y-30230D01*
X26788Y-28784D02*
X26788Y-28630D01*
X27617Y-29614D02*
X26788Y-28784D01*
X27617Y-29773D02*
X27617Y-29614D01*
X26788Y-28155D02*
X27087Y-27856D01*
X26788Y-28630D02*
X26788Y-28155D01*
X27087Y-27475D02*
X27087Y-27856D01*
X27087Y-24337D02*
X27087Y-24528D01*
X27087Y-24528D02*
X27087Y-24719D01*
X26986Y-22713D02*
X26986Y-22355D01*
X27484Y-23211D02*
X26986Y-22713D01*
X27484Y-24131D02*
X27484Y-23211D01*
X27087Y-24528D02*
X27484Y-24131D01*
X26589Y-22355D02*
X26986Y-22355D01*
X27584Y-28630D02*
X27980Y-28630D01*
X27980Y-28641D02*
X28087Y-28749D01*
X27980Y-28630D02*
X27980Y-28641D01*
X30733Y-28630D02*
X31129Y-28630D01*
X25512Y-28217D02*
X25130Y-28217D01*
X28660Y-28217D02*
X29042Y-28217D01*
X31810Y-28217D02*
X31477Y-28217D01*
X31129Y-28449D02*
X31361Y-28217D01*
X31129Y-28630D02*
X31129Y-28449D01*
X31477Y-28217D02*
X31361Y-28217D01*
X25021Y-28327D02*
X25021Y-28374D01*
X25130Y-28217D02*
X25021Y-28327D01*
X24830Y-28565D02*
X24830Y-28630D01*
X25021Y-28374D02*
X24830Y-28565D01*
X29042Y-28217D02*
X29185Y-28217D01*
X30617Y-27474D02*
X31361Y-28217D01*
X30617Y-27155D02*
X30617Y-27474D01*
X30555Y-27093D02*
X30617Y-27155D01*
X29925Y-27093D02*
X30555Y-27093D01*
X29585Y-27433D02*
X29925Y-27093D01*
X29585Y-27637D02*
X29585Y-27433D01*
X29185Y-28037D02*
X29585Y-27637D01*
X29185Y-28217D02*
X29185Y-28037D01*
X21980Y-28507D02*
X21857Y-28630D01*
X21980Y-28217D02*
X21980Y-28507D01*
X21461Y-28630D02*
X21857Y-28630D01*
X22362Y-28217D02*
X21980Y-28217D01*
X24434Y-28630D02*
X24830Y-28630D01*
X23264Y-27696D02*
X22743Y-28217D01*
X23416Y-27696D02*
X23264Y-27696D01*
X22362Y-28217D02*
X22743Y-28217D01*
X23937Y-23512D02*
X23555Y-23512D01*
X22859Y-23925D02*
X22900Y-23925D01*
X22900Y-23925D02*
X23255Y-23925D01*
X21468Y-24193D02*
X20787Y-23512D01*
X21468Y-24481D02*
X21468Y-24193D01*
X21530Y-24542D02*
X21468Y-24481D01*
X22282Y-24542D02*
X21530Y-24542D01*
X22900Y-23925D02*
X22282Y-24542D01*
X23373Y-23694D02*
X23555Y-23512D01*
X23373Y-23851D02*
X23373Y-23694D01*
X23328Y-23851D02*
X23255Y-23925D01*
X23373Y-23851D02*
X23328Y-23851D01*
X30474Y-23893D02*
X30235Y-23893D01*
X30617Y-24035D02*
X30474Y-23893D01*
X30617Y-24349D02*
X30617Y-24035D01*
X30817Y-24549D02*
X30617Y-24349D01*
X31456Y-24549D02*
X30817Y-24549D01*
X31734Y-24271D02*
X31456Y-24549D01*
X31734Y-23925D02*
X31734Y-24271D01*
X32130Y-23925D02*
X31734Y-23925D01*
X26080Y-24542D02*
X26009Y-24542D01*
X26266Y-24728D02*
X26080Y-24542D01*
X26009Y-23925D02*
X26009Y-24233D01*
X26009Y-24233D02*
X26009Y-24542D01*
X26365Y-24233D02*
X27087Y-23512D01*
X26009Y-24233D02*
X26365Y-24233D01*
X30235Y-23512D02*
X30235Y-23702D01*
X30235Y-23702D02*
X30235Y-23893D01*
X29776Y-23702D02*
X29554Y-23925D01*
X30235Y-23702D02*
X29776Y-23702D01*
X29158Y-23925D02*
X29554Y-23925D01*
X29280Y-24542D02*
X29158Y-24542D01*
X29487Y-24749D02*
X29280Y-24542D01*
X29158Y-23925D02*
X29158Y-24542D01*
X30235Y-20452D02*
X29854Y-20452D01*
X30617Y-20346D02*
X30617Y-20452D01*
X30794Y-20169D02*
X30617Y-20346D01*
X31463Y-20169D02*
X30794Y-20169D01*
X31734Y-20440D02*
X31463Y-20169D01*
X31734Y-20787D02*
X31734Y-20440D01*
X32130Y-20787D02*
X31734Y-20787D01*
X30235Y-20452D02*
X30617Y-20452D01*
X22462Y-20440D02*
X22462Y-20787D01*
X22191Y-20169D02*
X22462Y-20440D01*
X21451Y-20169D02*
X22191Y-20169D01*
X21168Y-20452D02*
X21451Y-20169D01*
X20787Y-20452D02*
X21168Y-20452D01*
X22661Y-20787D02*
X22462Y-20787D01*
X22661Y-20787D02*
X22859Y-20787D01*
X23255Y-20753D02*
X23555Y-20452D01*
X23255Y-20787D02*
X23255Y-20753D01*
X23937Y-20452D02*
X23555Y-20452D01*
X22859Y-20787D02*
X23255Y-20787D01*
X29854Y-20452D02*
X29832Y-20452D01*
X29554Y-20731D02*
X29554Y-20787D01*
X29832Y-20452D02*
X29554Y-20731D01*
X29832Y-20405D02*
X29746Y-20319D01*
X29832Y-20452D02*
X29832Y-20405D01*
X29232Y-20787D02*
X29554Y-20787D01*
X29164Y-20787D02*
X29232Y-20787D01*
X29158Y-20787D02*
X29161Y-20787D01*
X29161Y-20787D02*
X29164Y-20787D01*
X27358Y-20833D02*
X27087Y-20833D01*
X27468Y-20943D02*
X27358Y-20833D01*
X27468Y-21052D02*
X27468Y-20943D01*
X27820Y-21404D02*
X27468Y-21052D01*
X28543Y-21404D02*
X27820Y-21404D01*
X29161Y-20787D02*
X28543Y-21404D01*
X27087Y-20452D02*
X27087Y-20643D01*
X27087Y-20643D02*
X27087Y-20833D01*
X26548Y-20643D02*
X26405Y-20787D01*
X27087Y-20643D02*
X26548Y-20643D01*
X26009Y-20787D02*
X26207Y-20787D01*
X26207Y-20787D02*
X26405Y-20787D01*
X24601Y-20169D02*
X24318Y-20452D01*
X25589Y-20169D02*
X24601Y-20169D01*
X26207Y-20787D02*
X25589Y-20169D01*
X23937Y-20452D02*
X24318Y-20452D01*
M02*
