G04 (created by PCBNEW (2013-mar-13)-testing) date Tue 21 Oct 2014 01:39:40 PM PDT*
%MOIN*%
G04 Gerber Fmt 3.4, Leading zero omitted, Abs format*
%FSLAX34Y34*%
G01*
G70*
G90*
G04 APERTURE LIST*
%ADD10C,0.005906*%
%ADD11C,0.008000*%
%ADD12C,0.012000*%
G04 APERTURE END LIST*
G54D10*
G54D11*
X25810Y-23813D02*
X25410Y-23813D01*
X25696Y-23946D01*
X25410Y-24080D01*
X25810Y-24080D01*
X25810Y-24270D02*
X25544Y-24270D01*
X25410Y-24270D02*
X25429Y-24251D01*
X25448Y-24270D01*
X25429Y-24289D01*
X25410Y-24270D01*
X25448Y-24270D01*
X25810Y-24423D02*
X25544Y-24632D01*
X25544Y-24423D02*
X25810Y-24632D01*
X25791Y-24937D02*
X25810Y-24899D01*
X25810Y-24823D01*
X25791Y-24784D01*
X25753Y-24765D01*
X25601Y-24765D01*
X25563Y-24784D01*
X25544Y-24823D01*
X25544Y-24899D01*
X25563Y-24937D01*
X25601Y-24956D01*
X25639Y-24956D01*
X25677Y-24765D01*
X25810Y-25299D02*
X25410Y-25299D01*
X25791Y-25299D02*
X25810Y-25261D01*
X25810Y-25184D01*
X25791Y-25146D01*
X25772Y-25127D01*
X25734Y-25108D01*
X25620Y-25108D01*
X25582Y-25127D01*
X25563Y-25146D01*
X25544Y-25184D01*
X25544Y-25261D01*
X25563Y-25299D01*
X25410Y-25794D02*
X25734Y-25794D01*
X25772Y-25813D01*
X25791Y-25832D01*
X25810Y-25870D01*
X25810Y-25946D01*
X25791Y-25984D01*
X25772Y-26003D01*
X25734Y-26023D01*
X25410Y-26023D01*
X25410Y-26156D02*
X25810Y-26289D01*
X25410Y-26423D01*
X25391Y-26842D02*
X25906Y-26499D01*
X25429Y-27184D02*
X25410Y-27146D01*
X25410Y-27089D01*
X25429Y-27032D01*
X25468Y-26994D01*
X25506Y-26975D01*
X25582Y-26956D01*
X25639Y-26956D01*
X25715Y-26975D01*
X25753Y-26994D01*
X25791Y-27032D01*
X25810Y-27089D01*
X25810Y-27127D01*
X25791Y-27184D01*
X25772Y-27203D01*
X25639Y-27203D01*
X25639Y-27127D01*
X25810Y-27375D02*
X25544Y-27375D01*
X25620Y-27375D02*
X25582Y-27394D01*
X25563Y-27413D01*
X25544Y-27451D01*
X25544Y-27489D01*
X25791Y-27775D02*
X25810Y-27737D01*
X25810Y-27661D01*
X25791Y-27623D01*
X25753Y-27603D01*
X25601Y-27603D01*
X25563Y-27623D01*
X25544Y-27661D01*
X25544Y-27737D01*
X25563Y-27775D01*
X25601Y-27794D01*
X25639Y-27794D01*
X25677Y-27603D01*
X25791Y-28118D02*
X25810Y-28080D01*
X25810Y-28003D01*
X25791Y-27965D01*
X25753Y-27946D01*
X25601Y-27946D01*
X25563Y-27965D01*
X25544Y-28003D01*
X25544Y-28080D01*
X25563Y-28118D01*
X25601Y-28137D01*
X25639Y-28137D01*
X25677Y-27946D01*
X25544Y-28308D02*
X25810Y-28308D01*
X25582Y-28308D02*
X25563Y-28327D01*
X25544Y-28365D01*
X25544Y-28423D01*
X25563Y-28461D01*
X25601Y-28480D01*
X25810Y-28480D01*
X26222Y-23508D02*
X26203Y-23470D01*
X26184Y-23451D01*
X26146Y-23432D01*
X26127Y-23432D01*
X26088Y-23451D01*
X26069Y-23470D01*
X26050Y-23508D01*
X26050Y-23584D01*
X26069Y-23623D01*
X26088Y-23642D01*
X26127Y-23661D01*
X26146Y-23661D01*
X26184Y-23642D01*
X26203Y-23623D01*
X26222Y-23584D01*
X26222Y-23508D01*
X26241Y-23470D01*
X26260Y-23451D01*
X26298Y-23432D01*
X26374Y-23432D01*
X26412Y-23451D01*
X26431Y-23470D01*
X26450Y-23508D01*
X26450Y-23584D01*
X26431Y-23623D01*
X26412Y-23642D01*
X26374Y-23661D01*
X26298Y-23661D01*
X26260Y-23642D01*
X26241Y-23623D01*
X26222Y-23584D01*
X26450Y-23794D02*
X26184Y-24003D01*
X26184Y-23794D02*
X26450Y-24003D01*
X26222Y-24213D02*
X26203Y-24175D01*
X26184Y-24156D01*
X26146Y-24137D01*
X26127Y-24137D01*
X26088Y-24156D01*
X26069Y-24175D01*
X26050Y-24213D01*
X26050Y-24289D01*
X26069Y-24327D01*
X26088Y-24346D01*
X26127Y-24365D01*
X26146Y-24365D01*
X26184Y-24346D01*
X26203Y-24327D01*
X26222Y-24289D01*
X26222Y-24213D01*
X26241Y-24175D01*
X26260Y-24156D01*
X26298Y-24137D01*
X26374Y-24137D01*
X26412Y-24156D01*
X26431Y-24175D01*
X26450Y-24213D01*
X26450Y-24289D01*
X26431Y-24327D01*
X26412Y-24346D01*
X26374Y-24365D01*
X26298Y-24365D01*
X26260Y-24346D01*
X26241Y-24327D01*
X26222Y-24289D01*
X26450Y-25032D02*
X26450Y-24842D01*
X26050Y-24842D01*
X26241Y-25165D02*
X26241Y-25299D01*
X26450Y-25356D02*
X26450Y-25165D01*
X26050Y-25165D01*
X26050Y-25356D01*
X26450Y-25527D02*
X26050Y-25527D01*
X26050Y-25623D01*
X26069Y-25680D01*
X26108Y-25718D01*
X26146Y-25737D01*
X26222Y-25756D01*
X26279Y-25756D01*
X26355Y-25737D01*
X26393Y-25718D01*
X26431Y-25680D01*
X26450Y-25623D01*
X26450Y-25527D01*
X26336Y-26213D02*
X26336Y-26403D01*
X26450Y-26175D02*
X26050Y-26308D01*
X26450Y-26442D01*
X26450Y-26575D02*
X26184Y-26575D01*
X26260Y-26575D02*
X26222Y-26594D01*
X26203Y-26613D01*
X26184Y-26651D01*
X26184Y-26689D01*
X26450Y-26823D02*
X26184Y-26823D01*
X26260Y-26823D02*
X26222Y-26842D01*
X26203Y-26861D01*
X26184Y-26899D01*
X26184Y-26937D01*
X26450Y-27242D02*
X26241Y-27242D01*
X26203Y-27223D01*
X26184Y-27184D01*
X26184Y-27108D01*
X26203Y-27070D01*
X26431Y-27242D02*
X26450Y-27203D01*
X26450Y-27108D01*
X26431Y-27070D01*
X26393Y-27051D01*
X26355Y-27051D01*
X26317Y-27070D01*
X26298Y-27108D01*
X26298Y-27203D01*
X26279Y-27242D01*
X26184Y-27394D02*
X26450Y-27489D01*
X26184Y-27584D02*
X26450Y-27489D01*
X26546Y-27451D01*
X26565Y-27432D01*
X26584Y-27394D01*
X26050Y-27984D02*
X26450Y-28118D01*
X26050Y-28251D01*
X26050Y-28461D02*
X26050Y-28499D01*
X26069Y-28537D01*
X26088Y-28556D01*
X26127Y-28575D01*
X26203Y-28594D01*
X26298Y-28594D01*
X26374Y-28575D01*
X26412Y-28556D01*
X26431Y-28537D01*
X26450Y-28499D01*
X26450Y-28461D01*
X26431Y-28423D01*
X26412Y-28403D01*
X26374Y-28384D01*
X26298Y-28365D01*
X26203Y-28365D01*
X26127Y-28384D01*
X26088Y-28403D01*
X26069Y-28423D01*
X26050Y-28461D01*
X26412Y-28765D02*
X26431Y-28784D01*
X26450Y-28765D01*
X26431Y-28746D01*
X26412Y-28765D01*
X26450Y-28765D01*
X26450Y-29165D02*
X26450Y-28937D01*
X26450Y-29051D02*
X26050Y-29051D01*
X26108Y-29013D01*
X26146Y-28975D01*
X26165Y-28937D01*
X26824Y-23803D02*
X27090Y-23880D01*
X26900Y-23956D01*
X27090Y-24032D01*
X26824Y-24108D01*
X26824Y-24223D02*
X27090Y-24299D01*
X26900Y-24375D01*
X27090Y-24451D01*
X26824Y-24527D01*
X26824Y-24642D02*
X27090Y-24718D01*
X26900Y-24794D01*
X27090Y-24870D01*
X26824Y-24946D01*
X27052Y-25099D02*
X27071Y-25118D01*
X27090Y-25099D01*
X27071Y-25080D01*
X27052Y-25099D01*
X27090Y-25099D01*
X27090Y-25289D02*
X26824Y-25289D01*
X26690Y-25289D02*
X26709Y-25270D01*
X26728Y-25289D01*
X26709Y-25308D01*
X26690Y-25289D01*
X26728Y-25289D01*
X27090Y-25537D02*
X27071Y-25499D01*
X27052Y-25480D01*
X27014Y-25461D01*
X26900Y-25461D01*
X26862Y-25480D01*
X26843Y-25499D01*
X26824Y-25537D01*
X26824Y-25594D01*
X26843Y-25632D01*
X26862Y-25651D01*
X26900Y-25670D01*
X27014Y-25670D01*
X27052Y-25651D01*
X27071Y-25632D01*
X27090Y-25594D01*
X27090Y-25537D01*
X27090Y-25842D02*
X26824Y-25842D01*
X26900Y-25842D02*
X26862Y-25861D01*
X26843Y-25880D01*
X26824Y-25918D01*
X26824Y-25956D01*
X27090Y-26146D02*
X27071Y-26108D01*
X27052Y-26089D01*
X27014Y-26070D01*
X26900Y-26070D01*
X26862Y-26089D01*
X26843Y-26108D01*
X26824Y-26146D01*
X26824Y-26203D01*
X26843Y-26242D01*
X26862Y-26261D01*
X26900Y-26280D01*
X27014Y-26280D01*
X27052Y-26261D01*
X27071Y-26242D01*
X27090Y-26203D01*
X27090Y-26146D01*
X27090Y-26623D02*
X26690Y-26623D01*
X27071Y-26623D02*
X27090Y-26584D01*
X27090Y-26508D01*
X27071Y-26470D01*
X27052Y-26451D01*
X27014Y-26432D01*
X26900Y-26432D01*
X26862Y-26451D01*
X26843Y-26470D01*
X26824Y-26508D01*
X26824Y-26584D01*
X26843Y-26623D01*
X27071Y-26965D02*
X27090Y-26927D01*
X27090Y-26851D01*
X27071Y-26813D01*
X27033Y-26794D01*
X26881Y-26794D01*
X26843Y-26813D01*
X26824Y-26851D01*
X26824Y-26927D01*
X26843Y-26965D01*
X26881Y-26984D01*
X26919Y-26984D01*
X26957Y-26794D01*
X27090Y-27213D02*
X27071Y-27175D01*
X27052Y-27156D01*
X27014Y-27137D01*
X26900Y-27137D01*
X26862Y-27156D01*
X26843Y-27175D01*
X26824Y-27213D01*
X26824Y-27270D01*
X26843Y-27308D01*
X26862Y-27327D01*
X26900Y-27346D01*
X27014Y-27346D01*
X27052Y-27327D01*
X27071Y-27308D01*
X27090Y-27270D01*
X27090Y-27213D01*
X27052Y-27518D02*
X27071Y-27537D01*
X27090Y-27518D01*
X27071Y-27499D01*
X27052Y-27518D01*
X27090Y-27518D01*
X27071Y-27880D02*
X27090Y-27842D01*
X27090Y-27765D01*
X27071Y-27727D01*
X27052Y-27708D01*
X27014Y-27689D01*
X26900Y-27689D01*
X26862Y-27708D01*
X26843Y-27727D01*
X26824Y-27765D01*
X26824Y-27842D01*
X26843Y-27880D01*
X27090Y-28108D02*
X27071Y-28070D01*
X27052Y-28051D01*
X27014Y-28032D01*
X26900Y-28032D01*
X26862Y-28051D01*
X26843Y-28070D01*
X26824Y-28108D01*
X26824Y-28165D01*
X26843Y-28203D01*
X26862Y-28223D01*
X26900Y-28242D01*
X27014Y-28242D01*
X27052Y-28223D01*
X27071Y-28203D01*
X27090Y-28165D01*
X27090Y-28108D01*
X27090Y-28413D02*
X26824Y-28413D01*
X26862Y-28413D02*
X26843Y-28432D01*
X26824Y-28470D01*
X26824Y-28527D01*
X26843Y-28565D01*
X26881Y-28584D01*
X27090Y-28584D01*
X26881Y-28584D02*
X26843Y-28603D01*
X26824Y-28642D01*
X26824Y-28699D01*
X26843Y-28737D01*
X26881Y-28756D01*
X27090Y-28756D01*
G54D12*
X31871Y-25174D02*
X31910Y-25260D01*
X31948Y-25288D01*
X32024Y-25317D01*
X32138Y-25317D01*
X32214Y-25288D01*
X32252Y-25260D01*
X32291Y-25203D01*
X32291Y-24974D01*
X31491Y-24974D01*
X31491Y-25174D01*
X31529Y-25231D01*
X31567Y-25260D01*
X31643Y-25288D01*
X31719Y-25288D01*
X31795Y-25260D01*
X31833Y-25231D01*
X31871Y-25174D01*
X31871Y-24974D01*
X32291Y-25660D02*
X32252Y-25603D01*
X32214Y-25574D01*
X32138Y-25545D01*
X31910Y-25545D01*
X31833Y-25574D01*
X31795Y-25603D01*
X31757Y-25660D01*
X31757Y-25745D01*
X31795Y-25803D01*
X31833Y-25831D01*
X31910Y-25860D01*
X32138Y-25860D01*
X32214Y-25831D01*
X32252Y-25803D01*
X32291Y-25745D01*
X32291Y-25660D01*
X31757Y-26031D02*
X31757Y-26260D01*
X31491Y-26117D02*
X32176Y-26117D01*
X32252Y-26145D01*
X32291Y-26203D01*
X32291Y-26260D01*
X31757Y-26374D02*
X31757Y-26603D01*
X31491Y-26460D02*
X32176Y-26460D01*
X32252Y-26488D01*
X32291Y-26545D01*
X32291Y-26603D01*
X32291Y-26888D02*
X32252Y-26831D01*
X32214Y-26803D01*
X32138Y-26774D01*
X31910Y-26774D01*
X31833Y-26803D01*
X31795Y-26831D01*
X31757Y-26888D01*
X31757Y-26974D01*
X31795Y-27031D01*
X31833Y-27060D01*
X31910Y-27088D01*
X32138Y-27088D01*
X32214Y-27060D01*
X32252Y-27031D01*
X32291Y-26974D01*
X32291Y-26888D01*
X32291Y-27345D02*
X31757Y-27345D01*
X31833Y-27345D02*
X31795Y-27374D01*
X31757Y-27431D01*
X31757Y-27517D01*
X31795Y-27574D01*
X31871Y-27603D01*
X32291Y-27603D01*
X31871Y-27603D02*
X31795Y-27631D01*
X31757Y-27688D01*
X31757Y-27774D01*
X31795Y-27831D01*
X31871Y-27860D01*
X32291Y-27860D01*
G54D11*
X20321Y-25407D02*
X20321Y-25750D01*
X20921Y-25579D02*
X20321Y-25579D01*
X20921Y-26036D02*
X20892Y-25979D01*
X20863Y-25950D01*
X20806Y-25922D01*
X20635Y-25922D01*
X20578Y-25950D01*
X20549Y-25979D01*
X20521Y-26036D01*
X20521Y-26122D01*
X20549Y-26179D01*
X20578Y-26207D01*
X20635Y-26236D01*
X20806Y-26236D01*
X20863Y-26207D01*
X20892Y-26179D01*
X20921Y-26122D01*
X20921Y-26036D01*
X20521Y-26493D02*
X21121Y-26493D01*
X20549Y-26493D02*
X20521Y-26550D01*
X20521Y-26664D01*
X20549Y-26722D01*
X20578Y-26750D01*
X20635Y-26779D01*
X20806Y-26779D01*
X20863Y-26750D01*
X20892Y-26722D01*
X20921Y-26664D01*
X20921Y-26550D01*
X20892Y-26493D01*
X22499Y-32224D02*
G75*
G03X22499Y-32224I-100J0D01*
G74*
G01*
X22399Y-32224D02*
X22399Y-29824D01*
X22399Y-29824D02*
X30199Y-29824D01*
X30199Y-29824D02*
X30199Y-32224D01*
X30199Y-32224D02*
X22399Y-32224D01*
X22499Y-22775D02*
G75*
G03X22499Y-22775I-100J0D01*
G74*
G01*
X22399Y-22775D02*
X22399Y-20375D01*
X22399Y-20375D02*
X30199Y-20375D01*
X30199Y-20375D02*
X30199Y-22775D01*
X30199Y-22775D02*
X22399Y-22775D01*
X31102Y-31224D02*
X31102Y-30824D01*
X30949Y-30824D01*
X30911Y-30843D01*
X30892Y-30862D01*
X30873Y-30900D01*
X30873Y-30957D01*
X30892Y-30995D01*
X30911Y-31014D01*
X30949Y-31033D01*
X31102Y-31033D01*
X30492Y-31224D02*
X30721Y-31224D01*
X30607Y-31224D02*
X30607Y-30824D01*
X30645Y-30881D01*
X30683Y-30919D01*
X30721Y-30938D01*
X30964Y-21755D02*
X30964Y-21355D01*
X30812Y-21355D01*
X30774Y-21374D01*
X30755Y-21393D01*
X30735Y-21431D01*
X30735Y-21489D01*
X30755Y-21527D01*
X30774Y-21546D01*
X30812Y-21565D01*
X30964Y-21565D01*
X30583Y-21393D02*
X30564Y-21374D01*
X30526Y-21355D01*
X30431Y-21355D01*
X30393Y-21374D01*
X30374Y-21393D01*
X30355Y-21431D01*
X30355Y-21470D01*
X30374Y-21527D01*
X30602Y-21755D01*
X30355Y-21755D01*
M02*
