G04 (created by PCBNEW-RS274X (2011-aug-04)-testing) date Tue 12 Feb 2013 10:47:46 AM PST*
G01*
G70*
G90*
%MOIN*%
G04 Gerber Fmt 3.4, Leading zero omitted, Abs format*
%FSLAX34Y34*%
G04 APERTURE LIST*
%ADD10C,0.006000*%
%ADD11C,0.060000*%
%ADD12R,0.060000X0.060000*%
%ADD13R,0.067200X0.067200*%
G04 APERTURE END LIST*
G54D10*
G54D11*
X25799Y-21575D03*
X24799Y-21575D03*
X23799Y-21575D03*
G54D12*
X22799Y-21575D03*
G54D11*
X26799Y-21575D03*
X27799Y-21575D03*
X28799Y-21575D03*
X29799Y-21575D03*
X25799Y-31024D03*
X24799Y-31024D03*
X23799Y-31024D03*
G54D12*
X22799Y-31024D03*
G54D11*
X26799Y-31024D03*
X27799Y-31024D03*
X28799Y-31024D03*
X29799Y-31024D03*
G54D13*
X31398Y-28631D03*
X32224Y-28631D03*
X29823Y-28631D03*
X30649Y-28631D03*
X28248Y-28631D03*
X29074Y-28631D03*
X26674Y-28631D03*
X27500Y-28631D03*
X25099Y-28631D03*
X25925Y-28631D03*
X23524Y-28631D03*
X24350Y-28631D03*
X21949Y-28631D03*
X22775Y-28631D03*
X20374Y-28631D03*
X21200Y-28631D03*
X31398Y-27062D03*
X32224Y-27062D03*
X29823Y-27062D03*
X30649Y-27062D03*
X28248Y-27062D03*
X29074Y-27062D03*
X26674Y-27062D03*
X27500Y-27062D03*
X25099Y-27062D03*
X25925Y-27062D03*
X23524Y-27062D03*
X24350Y-27062D03*
X21949Y-27062D03*
X22775Y-27062D03*
X20374Y-30199D03*
X21200Y-30199D03*
X21949Y-30199D03*
X22775Y-30199D03*
X23524Y-30199D03*
X24350Y-30199D03*
X25099Y-30199D03*
X25925Y-30199D03*
X26674Y-30199D03*
X27500Y-30199D03*
X28248Y-30199D03*
X29074Y-30199D03*
X29823Y-30199D03*
X30649Y-30199D03*
X31398Y-30199D03*
X32224Y-30199D03*
X20374Y-31768D03*
X21200Y-31768D03*
X21949Y-31768D03*
X22775Y-31768D03*
X23524Y-31768D03*
X24350Y-31768D03*
X25099Y-31768D03*
X25925Y-31768D03*
X26674Y-31768D03*
X27500Y-31768D03*
X28248Y-31768D03*
X29074Y-31768D03*
X29823Y-31768D03*
X30649Y-31768D03*
X31398Y-31768D03*
X32224Y-31768D03*
X20374Y-20787D03*
X21200Y-20787D03*
X21949Y-20787D03*
X22775Y-20787D03*
X23524Y-20787D03*
X24350Y-20787D03*
X25099Y-20787D03*
X25925Y-20787D03*
X26674Y-20787D03*
X27500Y-20787D03*
X28248Y-20787D03*
X29074Y-20787D03*
X29823Y-20787D03*
X30649Y-20787D03*
X31398Y-20787D03*
X32224Y-20787D03*
X20374Y-22356D03*
X21200Y-22356D03*
X21949Y-22356D03*
X22775Y-22356D03*
X23524Y-22356D03*
X24350Y-22356D03*
X25099Y-22356D03*
X25925Y-22356D03*
X26674Y-22356D03*
X27500Y-22356D03*
X28248Y-22356D03*
X29074Y-22356D03*
X29823Y-22356D03*
X30649Y-22356D03*
X31398Y-22356D03*
X32224Y-22356D03*
X20374Y-27062D03*
X21200Y-27062D03*
X31398Y-25493D03*
X32224Y-25493D03*
X29823Y-25493D03*
X30649Y-25493D03*
X28248Y-25493D03*
X29074Y-25493D03*
X26674Y-25493D03*
X27500Y-25493D03*
X25099Y-25493D03*
X25925Y-25493D03*
X23524Y-25493D03*
X24350Y-25493D03*
X21949Y-25493D03*
X22775Y-25493D03*
X20374Y-25493D03*
X21200Y-25493D03*
X31398Y-23925D03*
X32224Y-23925D03*
X29823Y-23925D03*
X30649Y-23925D03*
X28248Y-23925D03*
X29074Y-23925D03*
X26674Y-23925D03*
X27500Y-23925D03*
X25099Y-23925D03*
X25925Y-23925D03*
X23524Y-23925D03*
X24350Y-23925D03*
X21949Y-23925D03*
X22775Y-23925D03*
X20374Y-23925D03*
X21200Y-23925D03*
M02*
